<svg width="16" height="16" viewBox="0 0 16 16" fill="none" xmlns="http://www.w3.org/2000/svg">
<path fill-rule="evenodd" clip-rule="evenodd" d="M16 9C16 12.3137 13.3137 15 10 15C6.68629 15 4 12.3137 4 9C4 5.68629 6.68629 3 10 3C13.3137 3 16 5.68629 16 9ZM15 9C15 11.7614 12.7614 14 10 14C7.23858 14 5 11.7614 5 9C5 6.23858 7.23858 4 10 4C12.7614 4 15 6.23858 15 9Z" fill="#4F5358"/>
<path d="M2 0H13V1H2V0Z" fill="#4F5358"/>
<path d="M2 2H13V3H2V2Z" fill="#4F5358"/>
<path d="M2 4H7V5H2V4Z" fill="#4F5358"/>
<path d="M2 6H5V7H2V6Z" fill="#4F5358"/>
<path d="M2 8H5V9H2V8Z" fill="#4F5358"/>
<path d="M2 10H5V11H2V10Z" fill="#4F5358"/>
<path d="M2 12H6V13H2V12Z" fill="#4F5358"/>
<path d="M2 14H10V15H2V14Z" fill="#4F5358"/>
<rect x="9" y="5" width="2" height="2" rx="1" fill="#4F5358"/>
<path d="M11 8.5C11 8.22386 10.7761 8 10.5 8H9.5C9.22386 8 9 8.22386 9 8.5C9 8.77614 9.22386 9 9.5 9V12C9.22386 12 9 12.2239 9 12.5C9 12.7761 9.22386 13 9.5 13H10.5C10.7761 13 11 12.7761 11 12.5C11 12.2239 10.7761 12 10.5 12V9C10.7761 9 11 8.77614 11 8.5Z" fill="#4F5358"/>
</svg>
