<svg width="16" height="16" viewBox="0 0 16 16" fill="none" xmlns="http://www.w3.org/2000/svg">
<path d="M12 3H9L9 10L10.5 8.28571L12 10V3Z" fill="#4F5358"/>
<path d="M3.00008 2.91467C2.48779 2.73364 2.10322 2.28223 2.01782 1.73189C2.01722 1.73633 2.01664 1.74078 2.01607 1.74522C2.00547 1.82865 2 1.91369 2 2V14C2 15.1046 2.89542 16 4 16H14V2H13V15H4C3.44771 15 3 14.5523 3 14L3.00008 2.91467Z" fill="#4F5358"/>
<path d="M13 1H14V0H13V1Z" fill="#4F5358"/>
<path d="M13 1V0H3.5C2.67157 0 2 0.671573 2 1.5C2 2.32843 2.67157 3 3.5 3H13V2H3.5C3.22386 2 3 1.77614 3 1.5C3 1.22386 3.22386 1 3.5 1H13Z" fill="#4F5358"/>
<rect x="12" y="1" width="1" height="1" fill="#4F5358"/>
</svg>
