<svg width="16" height="16" viewBox="0 0 16 16" fill="none" xmlns="http://www.w3.org/2000/svg">
<path fill-rule="evenodd" clip-rule="evenodd" d="M7.5 7C7.22386 7 7 7.22386 7 7.5C7 7.77614 7.22386 8 7.5 8C7.77614 8 8 7.77614 8 7.5C8 7.22386 7.77614 7 7.5 7ZM9 7.5C9 8.32843 8.32843 9 7.5 9C6.67157 9 6 8.32843 6 7.5C6 6.67157 6.67157 6 7.5 6C8.32843 6 9 6.67157 9 7.5Z" fill="#4F5358"/>
<path fill-rule="evenodd" clip-rule="evenodd" d="M8.5 1C8.22386 1 8 1.22386 8 1.5C8 1.77614 8.22386 2 8.5 2C8.77614 2 9 1.77614 9 1.5C9 1.22386 8.77614 1 8.5 1ZM10 1.5C10 2.32843 9.32843 3 8.5 3C7.67157 3 7 2.32843 7 1.5C7 0.671573 7.67157 0 8.5 0C9.32843 0 10 0.671573 10 1.5Z" fill="#4F5358"/>
<path fill-rule="evenodd" clip-rule="evenodd" d="M13.5 4C13.2239 4 13 4.22386 13 4.5C13 4.77614 13.2239 5 13.5 5C13.7761 5 14 4.77614 14 4.5C14 4.22386 13.7761 4 13.5 4ZM15 4.5C15 5.32843 14.3284 6 13.5 6C12.6716 6 12 5.32843 12 4.5C12 3.67157 12.6716 3 13.5 3C14.3284 3 15 3.67157 15 4.5Z" fill="#4F5358"/>
<path d="M7.42546 2.54659C7.19241 2.30737 7.03858 1.99061 7.00631 1.63867L3.40265 3.3019C3.67532 3.50766 3.87552 3.80434 3.95818 4.14687L7.42546 2.54659Z" fill="#4F5358"/>
<path d="M9.98115 1.73833C9.92581 2.08486 9.75181 2.39178 9.5021 2.61612L12.078 4.02117C12.19 3.68858 12.4153 3.40812 12.7081 3.22577L9.98115 1.73833Z" fill="#4F5358"/>
<path fill-rule="evenodd" clip-rule="evenodd" d="M2.5 4C2.22386 4 2 4.22386 2 4.5C2 4.77614 2.22386 5 2.5 5C2.77614 5 3 4.77614 3 4.5C3 4.22386 2.77614 4 2.5 4ZM4 4.5C4 5.32843 3.32843 6 2.5 6C1.67157 6 1 5.32843 1 4.5C1 3.67157 1.67157 3 2.5 3C3.32843 3 4 3.67157 4 4.5Z" fill="#4F5358"/>
<path fill-rule="evenodd" clip-rule="evenodd" d="M7.5 14C7.22386 14 7 14.2239 7 14.5C7 14.7761 7.22386 15 7.5 15C7.77614 15 8 14.7761 8 14.5C8 14.2239 7.77614 14 7.5 14ZM9 14.5C9 15.3284 8.32843 16 7.5 16C6.67157 16 6 15.3284 6 14.5C6 13.6716 6.67157 13 7.5 13C8.32843 13 9 13.6716 9 14.5Z" fill="#4F5358"/>
<path d="M3.29186 5.7744C3.58465 5.59205 3.81002 5.31159 3.92196 4.979L6.49788 6.38405C6.24818 6.60839 6.07417 6.91532 6.01883 7.26184L3.29186 5.7744Z" fill="#4F5358"/>
<path d="M1.5 5.61826C1.76538 5.85578 2.11582 6.00021 2.5 6.00021V11.662L6.21867 13.7197C6.07993 13.9471 6 14.2142 6 14.5C6 14.5864 6.0073 14.671 6.02132 14.7534L1.75791 12.3942C1.59877 12.3061 1.5 12.1386 1.5 11.9567V5.61826Z" fill="#4F5358"/>
<path d="M8 13.0854V8.91485C7.84361 8.97013 7.67532 9.00021 7.5 9.00021C7.32468 9.00021 7.15639 8.97013 7 8.91485V13.0854C7.15639 13.0301 7.32468 13 7.5 13C7.67532 13 7.84361 13.0301 8 13.0854Z" fill="#4F5358"/>
<path d="M8.57446 6.45333L12.0418 4.85303C12.1244 5.19556 12.3246 5.49225 12.5973 5.69801L8.99366 7.36123C8.96137 7.0093 8.80752 6.69254 8.57446 6.45333Z" fill="#4F5358"/>
<path d="M14.5 5.61798V11.9564C14.5 12.1505 14.3877 12.327 14.212 12.4093L8.95366 14.8714C8.98391 14.7526 8.99999 14.6282 8.99999 14.5C8.99999 14.2557 8.94161 14.0251 8.83804 13.8213L13.5 11.6385V5.99993C13.8842 5.99993 14.2346 5.8555 14.5 5.61798Z" fill="#4F5358"/>
</svg>
