<svg width="16" height="16" viewBox="0 0 16 16" fill="none" xmlns="http://www.w3.org/2000/svg">
<path d="M6 14C6.39922 14.5978 7.14539 15 8 15C8.85461 15 9.60078 14.5978 10 14H6Z" fill="white"/>
<path d="M6 14C6.39922 14.5978 7.14539 15 8 15C8.85461 15 9.60078 14.5978 10 14H6Z" fill="#4F5358"/>
<path fill-rule="evenodd" clip-rule="evenodd" d="M7.21172 2.07765C5.38009 2.44373 4 4.0607 4 6V9C4 10.1046 3.10457 11 2 11V13H14V11C12.8954 11 12 10.1046 12 9V6C12 4.0607 10.6199 2.44373 8.78828 2.07765C8.58195 1.40919 8.30477 1 8 1C7.69523 1 7.41805 1.40919 7.21172 2.07765ZM8 3C6.34315 3 5 4.34315 5 6V9C5 10.3062 4.16519 11.4175 3 11.8293V12H13V11.8293C11.8348 11.4175 11 10.3062 11 9V6C11 4.34315 9.65685 3 8 3Z" fill="white"/>
<path fill-rule="evenodd" clip-rule="evenodd" d="M7.21172 2.07765C5.38009 2.44373 4 4.0607 4 6V9C4 10.1046 3.10457 11 2 11V13H14V11C12.8954 11 12 10.1046 12 9V6C12 4.0607 10.6199 2.44373 8.78828 2.07765C8.58195 1.40919 8.30477 1 8 1C7.69523 1 7.41805 1.40919 7.21172 2.07765ZM8 3C6.34315 3 5 4.34315 5 6V9C5 10.3062 4.16519 11.4175 3 11.8293V12H13V11.8293C11.8348 11.4175 11 10.3062 11 9V6C11 4.34315 9.65685 3 8 3Z" fill="#4F5358"/>
</svg>
