<svg width="16" height="16" viewBox="0 0 16 16" fill="none" xmlns="http://www.w3.org/2000/svg">
<path d="M11 3H5V3.5H11V3Z" fill="#4F5358"/>
<path d="M11 5H5V5.5H11V5Z" fill="#4F5358"/>
<path d="M13 15V1.00007L3 0.999999L2.98489 6V6.84227L2.38931 6.2466L2 6.63595V0L14 9.74867e-05V16H2V14.3641L2.38931 14.7534L2.98489 14.1577V15L13 15Z" fill="#4F5358"/>
<path fill-rule="evenodd" clip-rule="evenodd" d="M3.98489 7V7.85272C3.98489 8.08948 3.82109 8.28418 3.61543 8.36966C3.40877 8.45555 3.15916 8.43087 2.99228 8.26397L2.3893 7.6609L1.66091 8.38936L2.26405 8.99254C2.43085 9.15936 2.45551 9.40885 2.36962 9.6154C2.2841 9.82104 2.0894 9.98489 1.85261 9.98489H1V11.0151H1.85261C2.0894 11.0151 2.2841 11.179 2.36962 11.3846C2.45551 11.5911 2.43085 11.8406 2.26405 12.0075L1.66091 12.6106L2.3893 13.3391L2.99228 12.736C3.15916 12.5691 3.40877 12.5444 3.61543 12.6303C3.82109 12.7158 3.98489 12.9105 3.98489 13.1473V14H5.01511V13.1473C5.01511 12.9105 5.17891 12.7158 5.38457 12.6303C5.59123 12.5444 5.84084 12.5691 6.00772 12.736L6.6107 13.3391L7.33528 12.6303L6.73595 12.0075C6.56915 11.8406 6.54449 11.5911 6.63038 11.3846C6.7159 11.179 6.9106 11.0151 7.14739 11.0151H8V9.98489H7.14739C6.91059 9.98489 6.7159 9.82104 6.63038 9.6154C6.54449 9.40885 6.56915 9.15936 6.73595 8.99254L7.33909 8.38936L6.6107 7.6609L6.00772 8.26397C5.84084 8.43087 5.59123 8.45555 5.38457 8.36966C5.17891 8.28418 5.01511 8.08948 5.01511 7.85272V7H3.98489ZM4.5 9C3.67157 9 3 9.67157 3 10.5C3 11.3284 3.67157 12 4.5 12C5.32843 12 6 11.3284 6 10.5C6 9.67157 5.32843 9 4.5 9Z" fill="#4F5358"/>
</svg>
