<svg width="16" height="16" viewBox="0 0 16 16" fill="none" xmlns="http://www.w3.org/2000/svg">
<path fill-rule="evenodd" clip-rule="evenodd" d="M3 15H13V1.00007L3 0.999999V15ZM2 16V0L14 9.74867e-05V16H2Z" fill="#4F5358"/>
<path d="M4 4.5H12V5H4V4.5Z" fill="#4F5358"/>
<path d="M4.5 13.5H11.5V14H4.5V13.5Z" fill="#4F5358"/>
<path d="M4.5 2.5L4.5 4.5H4L4 2H12L12 4.5H11.5L11.5 2.5H4.5Z" fill="#4F5358"/>
<path d="M4.5 10.5L4.5 14H4L4 10H12V14H11.5V10.5H4.5Z" fill="#4F5358"/>
<path d="M4 6H12V9H4V6Z" fill="#4F5358"/>
<path d="M5 11H8V13H5V11Z" fill="#4F5358"/>
</svg>
