<svg width="16" height="16" viewBox="0 0 16 16" fill="none" xmlns="http://www.w3.org/2000/svg">
<path d="M7.23212 8.15715L6.89879 7.32382L6.43455 7.50951L6.76788 8.34285L7.23212 8.15715Z" fill="#4F5358"/>
<path d="M7.73212 9.40715L7.56545 8.99049L7.10121 9.17618L7.08333 9.25V9.75H7.5C7.58296 9.75 7.66051 9.70885 7.70702 9.64016C7.75352 9.57146 7.76293 9.48418 7.73212 9.40715Z" fill="#4F5358"/>
<path fill-rule="evenodd" clip-rule="evenodd" d="M10.1 6.25L11 4H14V9H11.75V11.5C11.75 11.6381 11.6381 11.75 11.5 11.75H4.5C4.41705 11.75 4.33949 11.7089 4.29298 11.6402C4.24648 11.5715 4.23707 11.4842 4.26788 11.4072L6.17152 6.64806L6.10121 6.67618L5.76788 5.84285L6.23212 5.65715L6.46998 6.2518C6.47986 6.25061 6.48988 6.25 6.5 6.25H10.1ZM9.9 6.75H6.66926L5.66926 9.25H6.25V9.75H5.46926L4.86926 11.25H11.25V9H9L9.9 6.75Z" fill="#4F5358"/>
<path d="M2.5 4.25C2.36193 4.25 2.25 4.36193 2.25 4.5V4.91667H2.75V4.75H2.875V4.25H2.5Z" fill="#4F5358"/>
<path d="M3.625 4.25H4.375V4.75H3.625V4.25Z" fill="#4F5358"/>
<path d="M5.125 4.25H5.5C5.60223 4.25 5.69415 4.31224 5.73212 4.40715L5.89879 4.82382L5.43455 5.00951L5.33074 4.75H5.125V4.25Z" fill="#4F5358"/>
<path d="M2.25 5.75V6.58333H2.75V5.75H2.25Z" fill="#4F5358"/>
<path d="M2.25 7.41667V8.25H2.75V7.41667H2.25Z" fill="#4F5358"/>
<path d="M2.25 9.08333V9.5C2.25 9.63807 2.36193 9.75 2.5 9.75H2.91667V9.25H2.75V9.08333H2.25Z" fill="#4F5358"/>
<path d="M3.75 9.75H4.58333V9.25H3.75V9.75Z" fill="#4F5358"/>
<path d="M15 3L16 2H0V14L1 13V3L15 3Z" fill="#4F5358"/>
<path d="M16 2L15 3V13L1.00003 13L0 14H16V2Z" fill="#4F5358"/>
</svg>
