<svg width="16" height="16" viewBox="0 0 16 16" fill="none" xmlns="http://www.w3.org/2000/svg">
<path fill-rule="evenodd" clip-rule="evenodd" d="M3 14H13C13.5523 14 14 13.5523 14 13V6.00004C14 5.44776 13.5523 5.00005 13 5.00004L3 5C2.44771 5 2 5.44772 2 6V13C2 13.5523 2.44772 14 3 14ZM3 4C1.89543 4 1 4.89543 1 6V13C1 14.1046 1.89543 15 3 15H13C14.1046 15 15 14.1046 15 13V6.00004C15 4.89548 14.1046 4.00006 13 4.00004L3 4Z" fill="#4F5358"/>
<path fill-rule="evenodd" clip-rule="evenodd" d="M8.75 5.75H13.25V10.25H8.75V5.75ZM9.25 6.25V9.75H12.75V6.25H9.25Z" fill="#4F5358"/>
<path fill-rule="evenodd" clip-rule="evenodd" d="M2.75 5.75H7.25V10.25H2.75V5.75ZM7 6.5L6.5 6L4.5 8L3.5 7L3 7.5L4.5 9L7 6.5Z" fill="#4F5358"/>
<path d="M10 3.00001V4H11V3.00001C11 2.44773 10.5523 2.00001 10 2.00001L6 2C5.44771 2 5 2.44772 5 3V4H6V3L10 3.00001Z" fill="#4F5358"/>
<path d="M13.25 10.75H8.75V14H9.25V11.25H12.75V14H13.25V10.75Z" fill="#4F5358"/>
<path d="M7.25 10.75H2.75V14H3.25V11.25H6.75V14H7.25V10.75Z" fill="#4F5358"/>
</svg>
