<svg width="16" height="16" viewBox="0 0 16 16" fill="none" xmlns="http://www.w3.org/2000/svg">
<path fill-rule="evenodd" clip-rule="evenodd" d="M3 14H13C13.5523 14 14 13.5523 14 13V6.00004C14 5.44776 13.5523 5.00005 13 5.00004L3 5C2.44771 5 2 5.44772 2 6V13C2 13.5523 2.44772 14 3 14ZM3 4C1.89543 4 1 4.89543 1 6V13C1 14.1046 1.89543 15 3 15H13C14.1046 15 15 14.1046 15 13V6.00004C15 4.89548 14.1046 4.00006 13 4.00004L3 4Z" fill="#4F5358"/>
<path fill-rule="evenodd" clip-rule="evenodd" d="M6.58331 10.0263H3V12.4737H6.93752L12 13.1053L13 6H6.58331V10.0263ZM7.08331 6.5V10.5263H3.5V11.9737H6.96859L11.5735 12.5482L12.4247 6.5H7.08331Z" fill="#4F5358"/>
<path d="M10 3.00001V4H11V3.00001C11 2.44773 10.5523 2.00001 10 2.00001L6 2C5.44771 2 5 2.44772 5 3V4H6V3L10 3.00001Z" fill="#4F5358"/>
</svg>
