<svg width="16" height="16" viewBox="0 0 16 16" fill="none" xmlns="http://www.w3.org/2000/svg">
<path d="M14.2104 8.196C14.599 7.80746 14.599 7.17751 14.2104 6.78896C13.8219 6.40042 13.1919 6.40042 12.8034 6.78897L6.99939 12.593L5.99939 15L8.40642 14L14.2104 8.196Z" fill="#4F5358"/>
<path d="M5.332 14H3C2.44772 14 2 13.5523 2 13V6C2 5.44772 2.44771 5 3 5L13 5.00004C13.3838 5.00004 13.7171 5.21622 13.8847 5.53345C14.2631 5.60606 14.6246 5.78886 14.9176 6.08186C14.9461 6.11037 14.9736 6.13954 15 6.16931V6.00004C15 4.89548 14.1046 4.00006 13 4.00004L3 4C1.89543 4 1 4.89543 1 6V13C1 14.1046 1.89543 15 3 15H4.99939C4.99936 14.8708 5.02439 14.7404 5.07594 14.6163L5.332 14Z" fill="#4F5358"/>
<path d="M9.82068 14H13C13.5523 14 14 13.5523 14 13V9.82068L14.9176 8.9031C14.9461 8.87459 14.9736 8.84542 15 8.81565V13C15 14.1046 14.1046 15 13 15H8.60595L8.97329 14.8474L9.82068 14Z" fill="#4F5358"/>
<path d="M6 6H10V6.5H6V6Z" fill="#4F5358"/>
<path d="M10 3.00001V4H11V3.00001C11 2.44773 10.5523 2.00001 10 2.00001L6 2C5.44771 2 5 2.44772 5 3V4H6V3L10 3.00001Z" fill="#4F5358"/>
</svg>
