<svg width="16" height="16" viewBox="0 0 16 16" fill="none" xmlns="http://www.w3.org/2000/svg">
<path d="M13 4.00004C14.1046 4.00006 15 4.89546 15 6H14C14 5.44774 13.5523 5.00005 13 5.00004L3 5C2.44771 5 2 5.44772 2 6V12H1V6C1 4.89543 1.89543 4 3 4L13 4.00004Z" fill="#4F5358"/>
<path d="M15 15V7H13V15H15Z" fill="#4F5358"/>
<path d="M9 8H7V15H9V8Z" fill="#4F5358"/>
<path d="M6 12H4V15H6V12Z" fill="#4F5358"/>
<path d="M1 15V13H3V15H1Z" fill="#4F5358"/>
<path d="M12 10H10V15H12V10Z" fill="#4F5358"/>
<path d="M10 3.00001V4H11V3.00001C11 2.44773 10.5523 2.00001 10 2.00001L6 2C5.44771 2 5 2.44772 5 3V4H6V3L10 3.00001Z" fill="#4F5358"/>
</svg>
