<svg width="16" height="16" viewBox="0 0 16 16" fill="none" xmlns="http://www.w3.org/2000/svg">
<path d="M11.8267 10.5C11.2162 11.3626 9.06278 12 6.5 12C3.93722 12 1.78383 11.3626 1.17327 10.5C1.06016 10.6598 1 10.8273 1 11C1 12.1046 3.46243 13 6.5 13C9.53757 13 12 12.1046 12 11C12 10.8273 11.9398 10.6598 11.8267 10.5Z" fill="#4F5358"/>
<path fill-rule="evenodd" clip-rule="evenodd" d="M10.9387 3C10.9317 2.99361 10.9241 2.98687 10.9159 2.9798C10.7622 2.84769 10.4813 2.6834 10.0473 2.52558C9.18757 2.21293 7.93353 2 6.5 2C5.06647 2 3.81243 2.21293 2.95266 2.52558C2.51866 2.6834 2.2378 2.84769 2.08414 2.9798C2.07591 2.98687 2.06831 2.99361 2.06129 3C2.06831 3.00639 2.07591 3.01313 2.08414 3.02021C2.2378 3.15231 2.51866 3.3166 2.95266 3.47442C3.81243 3.78707 5.06647 4 6.5 4C7.93353 4 9.18757 3.78707 10.0473 3.47442C10.4813 3.3166 10.7622 3.15231 10.9159 3.02021C10.9241 3.01313 10.9317 3.00639 10.9387 3ZM6.5 5C9.53757 5 12 4.10457 12 3C12 1.89543 9.53757 1 6.5 1C3.46243 1 1 1.89543 1 3C1 4.10457 3.46243 5 6.5 5Z" fill="#4F5358"/>
<path d="M2 12.1502V13.4368C2.01461 13.4548 2.04049 13.4827 2.08414 13.5202C2.2378 13.6523 2.51866 13.8166 2.95266 13.9744C3.81243 14.2871 5.06647 14.5 6.5 14.5C7.93353 14.5 9.18757 14.2871 10.0473 13.9744C10.4813 13.8166 10.7622 13.6523 10.9159 13.5202C10.9595 13.4827 10.9854 13.4548 11 13.4368V12.1502C11.63 11.8249 12 11.4281 12 11V13.5C12 14.6046 9.53757 15.5 6.5 15.5C3.46243 15.5 1 14.6046 1 13.5V11C1 11.4281 1.36997 11.8249 2 12.1502Z" fill="#4F5358"/>
<path d="M12.5 3V5C12.5 5 10.6767 4.71554 9.5 5.5C8 6.5 7 9 7 9C7 9 9.5 7 10.5 7C11.5 7 12.5 7 12.5 7V9L16 6L12.5 3Z" fill="#4F5358"/>
<path d="M12 3.00583C11.9966 3.43175 11.6272 3.82635 11 4.15021V4.48918C11.1468 4.47248 11.2876 4.4622 11.4189 4.45633C11.6342 4.44671 11.8317 4.44865 12 4.45556V3.00583Z" fill="#4F5358"/>
<path d="M7.87186 6.4326C7.44009 6.47611 6.98011 6.5 6.5 6.5C5.06647 6.5 3.81243 6.28707 2.95266 5.97442C2.51866 5.8166 2.2378 5.65231 2.08414 5.5202C2.04049 5.48268 2.01461 5.45479 2 5.43678V4.15021C1.36997 3.82487 1 3.42815 1 3V5.5C1 6.60457 3.46243 7.5 6.5 7.5C6.7342 7.5 6.96498 7.49467 7.19147 7.48434C7.21239 7.4476 7.23376 7.41049 7.25559 7.37307C7.42828 7.07703 7.63465 6.75229 7.87186 6.4326Z" fill="#4F5358"/>
<path d="M6.91652 7.99435C6.77902 7.99809 6.64013 8 6.5 8C3.93722 8 1.78383 7.36261 1.17327 6.5C1.06016 6.65981 1 6.82735 1 7C1 8.10456 3.4624 8.99999 6.49994 9C6.49992 8.93775 6.51155 8.87478 6.53574 8.81431L6.5362 8.81316L6.53703 8.81111L6.53979 8.8043L6.54968 8.78024C6.5582 8.75969 6.57055 8.73025 6.58663 8.6929C6.61878 8.61824 6.66587 8.51182 6.72694 8.38154C6.77969 8.26899 6.84309 8.13819 6.91652 7.99435Z" fill="#4F5358"/>
<path d="M7.91432 8.93325C9.82832 8.74858 11.3326 8.19803 11.8267 7.50001H10.5C10.3774 7.50001 10.1259 7.57418 9.75483 7.75972C9.40607 7.9341 9.01914 8.17149 8.65233 8.41603C8.38202 8.59624 8.12768 8.77693 7.91432 8.93325Z" fill="#4F5358"/>
<path d="M2 9.43678V8.15021C1.36997 7.82487 1 7.42815 1 7V9.5C1 10.6046 3.46243 11.5 6.5 11.5C9.53757 11.5 12 10.6046 12 9.5V7.5H11.8267C11.6593 7.7365 11.376 7.95607 11 8.15021V9.43678C10.9854 9.45479 10.9595 9.48268 10.9159 9.5202C10.7622 9.65231 10.4813 9.8166 10.0473 9.97442C9.18757 10.2871 7.93353 10.5 6.5 10.5C5.06647 10.5 3.81243 10.2871 2.95266 9.97442C2.51866 9.8166 2.2378 9.65231 2.08414 9.5202C2.04049 9.48268 2.01461 9.45479 2 9.43678Z" fill="#4F5358"/>
</svg>
