<svg width="16" height="16" viewBox="0 0 16 16" fill="none" xmlns="http://www.w3.org/2000/svg">
<path d="M15.5 9.27305C15.8174 9.0473 16 8.78279 16 8.5V11.5C16 12.3284 14.433 13 12.5 13C11.8423 13 11.227 12.9223 10.7013 12.787L8.18003 14.2998C8.12356 14.3337 8.06138 14.3498 8 14.3497V14.5C8 15.3284 6.433 16 4.5 16C2.567 16 1 15.3284 1 14.5V11.5C1 11.7828 1.18259 12.0473 1.5 12.2731V14.5C1.5 14.538 1.51586 14.6161 1.63092 14.7326C1.7481 14.8514 1.94245 14.9812 2.22209 15.1011C2.77957 15.34 3.58459 15.5 4.5 15.5C5.41541 15.5 6.22043 15.34 6.77791 15.1011C7.05755 14.9812 7.2519 14.8514 7.36908 14.7326C7.48414 14.6161 7.5 14.538 7.5 14.5V12.2731C7.81741 12.0473 8 11.7828 8 11.5V13.5915L9.85143 12.4806C9.32091 12.2177 9 11.8749 9 11.5V8.5C9 8.78279 9.18259 9.0473 9.5 9.27305V11.5C9.5 11.538 9.51586 11.6161 9.63092 11.7327C9.7481 11.8514 9.94245 11.9812 10.2221 12.1011C10.7796 12.34 11.5846 12.5 12.5 12.5C13.4154 12.5 14.2204 12.34 14.7779 12.1011C15.0575 11.9812 15.2519 11.8514 15.3691 11.7327C15.4841 11.6161 15.5 11.538 15.5 11.5V9.27305Z" fill="#4F5358"/>
<mask id="path-2-inside-1_1256_16" fill="white">
<path d="M8 0.5C8 0.776142 7.55228 1 7 1C6.44772 1 6 0.776142 6 0.5C6 0.223858 6.44772 0 7 0C7.55228 0 8 0.223858 8 0.5Z"/>
<path d="M5 1.5C5 1.77614 4.55228 2 4 2C3.44772 2 3 1.77614 3 1.5C3 1.22386 3.44772 1 4 1C4.55228 1 5 1.22386 5 1.5Z"/>
<path d="M1 3C1.55228 3 2 2.77614 2 2.5C2 2.22386 1.55228 2 1 2C0.447715 2 0 2.22386 0 2.5C0 2.77614 0.447715 3 1 3Z"/>
</mask>
<path d="M8 0.5C8 0.776142 7.55228 1 7 1C6.44772 1 6 0.776142 6 0.5C6 0.223858 6.44772 0 7 0C7.55228 0 8 0.223858 8 0.5Z" fill="#4F5358"/>
<path d="M5 1.5C5 1.77614 4.55228 2 4 2C3.44772 2 3 1.77614 3 1.5C3 1.22386 3.44772 1 4 1C4.55228 1 5 1.22386 5 1.5Z" fill="#4F5358"/>
<path d="M1 3C1.55228 3 2 2.77614 2 2.5C2 2.22386 1.55228 2 1 2C0.447715 2 0 2.22386 0 2.5C0 2.77614 0.447715 3 1 3Z" fill="#4F5358"/>
<path d="M7 1.3C7.31262 1.3 7.61047 1.23728 7.84127 1.12188C8.05413 1.01545 8.3 0.81292 8.3 0.5H7.7C7.7 0.463223 7.72202 0.510689 7.57294 0.585225C7.44181 0.65079 7.23967 0.7 7 0.7V1.3ZM5.7 0.5C5.7 0.81292 5.94587 1.01545 6.15873 1.12188C6.38953 1.23728 6.68738 1.3 7 1.3V0.7C6.76033 0.7 6.55819 0.65079 6.42706 0.585225C6.27798 0.510689 6.3 0.463223 6.3 0.5H5.7ZM7 -0.3C6.68738 -0.3 6.38953 -0.237282 6.15873 -0.121882C5.94587 -0.0154537 5.7 0.18708 5.7 0.5H6.3C6.3 0.536777 6.27798 0.489311 6.42706 0.414775C6.55819 0.34921 6.76033 0.3 7 0.3V-0.3ZM8.3 0.5C8.3 0.18708 8.05413 -0.0154537 7.84127 -0.121882C7.61047 -0.237282 7.31262 -0.3 7 -0.3V0.3C7.23967 0.3 7.44181 0.34921 7.57294 0.414775C7.72202 0.489311 7.7 0.536777 7.7 0.5H8.3ZM4 2.3C4.31262 2.3 4.61047 2.23728 4.84127 2.12188C5.05413 2.01545 5.3 1.81292 5.3 1.5H4.7C4.7 1.46322 4.72202 1.51069 4.57294 1.58523C4.44181 1.65079 4.23967 1.7 4 1.7V2.3ZM2.7 1.5C2.7 1.81292 2.94587 2.01545 3.15873 2.12188C3.38953 2.23728 3.68738 2.3 4 2.3V1.7C3.76033 1.7 3.55819 1.65079 3.42706 1.58523C3.27798 1.51069 3.3 1.46322 3.3 1.5H2.7ZM4 0.7C3.68738 0.7 3.38953 0.762718 3.15873 0.878118C2.94587 0.984546 2.7 1.18708 2.7 1.5H3.3C3.3 1.53678 3.27798 1.48931 3.42706 1.41477C3.55819 1.34921 3.76033 1.3 4 1.3V0.7ZM5.3 1.5C5.3 1.18708 5.05413 0.984546 4.84127 0.878118C4.61047 0.762718 4.31262 0.7 4 0.7V1.3C4.23967 1.3 4.44181 1.34921 4.57294 1.41477C4.72202 1.48931 4.7 1.53678 4.7 1.5H5.3ZM1.7 2.5C1.7 2.46322 1.72202 2.51069 1.57294 2.58523C1.44181 2.65079 1.23967 2.7 1 2.7V3.3C1.31262 3.3 1.61047 3.23728 1.84127 3.12188C2.05413 3.01545 2.3 2.81292 2.3 2.5H1.7ZM1 2.3C1.23967 2.3 1.44181 2.34921 1.57294 2.41477C1.72202 2.48931 1.7 2.53678 1.7 2.5H2.3C2.3 2.18708 2.05413 1.98455 1.84127 1.87812C1.61047 1.76272 1.31262 1.7 1 1.7V2.3ZM0.3 2.5C0.3 2.53678 0.277984 2.48931 0.427057 2.41477C0.558186 2.34921 0.760333 2.3 1 2.3V1.7C0.687383 1.7 0.389529 1.76272 0.158729 1.87812C-0.0541267 1.98455 -0.3 2.18708 -0.3 2.5H0.3ZM1 2.7C0.760333 2.7 0.558186 2.65079 0.427057 2.58523C0.277984 2.51069 0.3 2.46322 0.3 2.5H-0.3C-0.3 2.81292 -0.0541267 3.01545 0.158729 3.12188C0.389529 3.23728 0.687383 3.3 1 3.3V2.7Z" fill="#4F5358" mask="url(#path-2-inside-1_1256_16)"/>
<path d="M6.3 0.857072V3.85L7.7 3.15V0.857072C7.88514 0.766325 8 0.63987 8 0.5V3L12 5L6 8L2 6L3 5.5V1.5C3 1.63987 3.11486 1.76633 3.3 1.85707V5.35L4.7 4.65V1.85707C4.88514 1.76633 5 1.63987 5 1.5V4.5L6 4V0.5C6 0.63987 6.11486 0.766325 6.3 0.857072Z" fill="#4F5358"/>
<path d="M2 6V2.5C2 2.63987 1.88514 2.76633 1.7 2.85707V8.98954C1.69505 8.99886 1.67103 9.03618 1.57294 9.08523C1.44181 9.15079 1.23967 9.2 1 9.2C0.760332 9.2 0.558186 9.15079 0.427057 9.08523C0.328971 9.03618 0.304955 8.99886 0.3 8.98954V2.85707C0.114864 2.76633 0 2.63987 0 2.5V9C0 9.27614 0.447715 9.5 1 9.5C1.55228 9.5 2 9.27614 2 9V6Z" fill="#4F5358"/>
<path d="M6.4012 10.2404C6.35165 10.2266 6.30124 10.2134 6.25 10.2007V7.69098H5.75V10.0985C5.56488 10.0681 5.37221 10.0443 5.17353 10.0277L2.5 8.69098V6.30902L2.55902 6.27951L2 6V9L4.02715 10.0136C2.31778 10.1125 1 10.7403 1 11.5C1 12.3284 2.567 13 4.5 13C6.433 13 8 12.3284 8 11.5C8 11.103 7.64013 10.742 7.05257 10.4737L9.4811 9.25945C10.0893 9.70258 11.2136 10 12.5 10C14.433 10 16 9.32843 16 8.5C16 7.67157 14.433 7 12.5 7C12.3302 7 12.1633 7.00518 12 7.01519V5L11.441 5.27951L11.5 5.30902V5.75L11 6V6.55902L11.5 6.30902V6.69098L11 6.94098V7.14435C9.81753 7.38509 9 7.90163 9 8.5V7L8 7.5V8.05902L8.5 7.80902V8.19098L8 8.44098V9L9 8.5C9 8.63249 9.04008 8.76096 9.11532 8.88332L6.4012 10.2404Z" fill="#4F5358"/>
<path d="M4 8.05902V7.5L5 8V9.5L4 9V8.44098L4.5 8.69098V8.30902L4 8.05902Z" fill="#4F5358"/>
<path d="M11 6.55902V6L10 6.5V8L11 7.5V6.94098L10.5 7.19098V6.80902L11 6.55902Z" fill="#4F5358"/>
<path d="M4 9V8.44098L3.5 8.19098V7.80902L4 8.05902V7.5L3 7V8.5L4 9Z" fill="#4F5358"/>
<path d="M8 7.5V8.05902L7.5 8.30902V8.69098L8 8.44098V9L7 9.5L7 8L8 7.5Z" fill="#4F5358"/>
</svg>
