<svg width="16" height="16" viewBox="0 0 16 16" fill="none" xmlns="http://www.w3.org/2000/svg">
<path d="M8.5 2H9.2L10 0H6L6.8 2H7.5L7.5 3.06301C6.63739 3.28503 6 4.06808 6 5C6 6.10457 6.89543 7 8 7C9.10457 7 10 6.10457 10 5H9C9 5.55228 8.55228 6 8 6C7.44772 6 7 5.55228 7 5C7 4.44772 7.44772 4 8 4H8.5L8.5 2Z" fill="#4F5358"/>
<path fill-rule="evenodd" clip-rule="evenodd" d="M3.33719 5L1 7.34978L8.66285 15L11 12.6502L3.33719 5ZM3.33872 5.88559L1.88377 7.34826L8.66132 14.1144L10.1162 12.6517L9.39068 11.9273L8.31965 12.9966L8.00646 12.6841L9.07756 11.6148L8.14798 10.6868L7.56503 11.2687L7.25195 10.9562L7.83482 10.3743L6.88633 9.42736L5.81541 10.4967L5.50252 10.1842L6.57336 9.11486L5.63453 8.1777L5.06117 8.74989L4.74809 8.4374L5.32141 7.8649L4.38251 6.92774L3.31152 7.99673L2.99847 7.68424L4.06939 6.61494L3.33872 5.88559Z" fill="#4F5358"/>
<path d="M7.24746 14.9999L7.95632 15.7076C7.97051 15.7218 7.98508 15.7355 8 15.7487V15.9999H1C1 15.9999 1.20862 15.6039 1.57123 14.9999C2.04352 14.2133 2.77704 13.0746 3.65106 11.9999H0C0 11.9999 0.683501 10.702 1.66707 9.42871L4.64209 12.3988C4.43845 12.6289 4.23577 12.8664 4.05225 13.1068C3.54633 13.7694 3.10022 14.4355 2.74506 14.9999H7.24746Z" fill="#4F5358"/>
<path d="M10.0733 15H13.1946C12.8267 14.4467 12.372 13.7987 11.8654 13.1518C12.0877 12.7688 12.0346 12.27 11.7065 11.9425L8 8.24209V8C9.18591 8 10.2111 7.31152 10.6981 6.31299C13.243 7.54639 16 11.9995 16 11.9995H12.2212C13.1142 13.0742 13.8861 14.2134 14.3882 15C14.7736 15.6035 15 16 15 16H8V15.7488C8.18278 15.9106 8.41911 16.0004 8.6646 16C8.93014 15.9995 9.1846 15.8935 9.37185 15.7052L10.0733 15Z" fill="#4F5358"/>
</svg>
