<svg width="16" height="16" viewBox="0 0 16 16" fill="none" xmlns="http://www.w3.org/2000/svg">
<path d="M7 11L4 8V10H0V12H4V14L7 11Z" fill="#4F5358"/>
<path d="M12 8V10H16V12H12V14L9 11L12 8Z" fill="#4F5358"/>
<path d="M13 15H3V13H2V16H14V13H13V15Z" fill="#4F5358"/>
<path d="M13 9V1.00007L3 0.999999V9H2V0L14 9.74867e-05V9H13Z" fill="#4F5358"/>
<path fill-rule="evenodd" clip-rule="evenodd" d="M4 4V2H6V4H4ZM4.5 2.5H5.5V3.5H4.5V2.5Z" fill="#4F5358"/>
<path fill-rule="evenodd" clip-rule="evenodd" d="M4 7V5H6V7H4ZM4.5 5.5H5.5V6.5H4.5V5.5Z" fill="#4F5358"/>
<path fill-rule="evenodd" clip-rule="evenodd" d="M7 2V4H9V2H7ZM8.5 2.5H7.5V3.5H8.5V2.5Z" fill="#4F5358"/>
<path fill-rule="evenodd" clip-rule="evenodd" d="M7 7V5H9V7H7ZM7.5 5.5H8.5V6.5H7.5V5.5Z" fill="#4F5358"/>
<path d="M10 2H12V4H10V2Z" fill="#4F5358"/>
<path d="M12 5H10V7H12V5Z" fill="#4F5358"/>
</svg>
