<svg width="16" height="16" viewBox="0 0 16 16" fill="none" xmlns="http://www.w3.org/2000/svg">
<path d="M10 2H4V2.5H10V2Z" fill="#4F5358"/>
<path d="M10 3H4V3.5H10V3Z" fill="#4F5358"/>
<path fill-rule="evenodd" clip-rule="evenodd" d="M4.45795 6.80001L5.23077 10.7143V11.5714L4.07629 7.00976C3.89437 7.123 3.72044 7.2512 3.55571 7.39294C3.4399 7.4926 3.32864 7.59895 3.22235 7.71149C2.3766 8.60709 1.84615 9.89517 1.84615 11.3266L1.84658 11.9988C1.84669 12.1235 1.79345 12.2364 1.70884 12.3152C1.69816 12.3251 1.68697 12.3345 1.67533 12.3433C1.63631 12.3729 1.59217 12.3958 1.54458 12.4104V12.4104C1.50606 12.4222 1.46523 12.4286 1.42308 12.4286C1.18943 12.4286 1 12.6203 1 12.8571C1 13.0199 1.0894 13.1614 1.22114 13.2338C1.28116 13.2669 1.34995 13.2857 1.42308 13.2857C1.42308 13.2857 1.5424 13.3023 1.74924 13.3289C1.75558 13.3297 1.762 13.3305 1.7685 13.3314C1.80827 13.3365 1.85109 13.3419 1.89674 13.3477C2.12784 13.3768 2.43151 13.4137 2.78059 13.4528V13.4528C2.80762 13.4558 2.83492 13.4589 2.86247 13.4619C3.35689 13.5167 3.93485 13.5748 4.5235 13.6215C5.20577 13.6756 5.90241 13.7143 6.5 13.7143C7.09759 13.7143 7.79423 13.6756 8.4765 13.6215C9.06515 13.5748 9.64311 13.5167 10.1375 13.4619C10.1651 13.4589 10.1924 13.4558 10.2194 13.4528V13.4528C10.5685 13.4137 10.8722 13.3768 11.1033 13.3477C11.1489 13.3419 11.1917 13.3365 11.2315 13.3314C11.238 13.3305 11.2444 13.3297 11.2508 13.3289C11.4576 13.3023 11.5769 13.2857 11.5769 13.2857C11.8106 13.2857 12 13.094 12 12.8571C12 12.6203 11.8106 12.4286 11.5769 12.4286C11.5348 12.4286 11.494 12.4222 11.4555 12.4104V12.4104C11.4077 12.3957 11.3633 12.3727 11.3241 12.3429C11.3127 12.3342 11.3017 12.325 11.2912 12.3152C11.2066 12.2364 11.1533 12.1235 11.1534 11.9988L11.1538 11.3266C11.1538 9.89517 10.6234 8.60709 9.77765 7.71149C9.67136 7.59895 9.5601 7.4926 9.44429 7.39294C9.27956 7.2512 9.10563 7.123 8.92371 7.00976L7.76923 11.5714V10.7143L8.54205 6.80001C8.37157 6.7182 8.19548 6.64891 8.01461 6.59315C7.93022 6.56713 7.84479 6.54406 7.75841 6.52403C7.70339 6.22576 7.44503 6 7.13462 6H5.86538C5.55497 6 5.29661 6.22576 5.24159 6.52403C5.15521 6.54406 5.06978 6.56713 4.98538 6.59315C4.80452 6.64891 4.62843 6.7182 4.45795 6.80001ZM4.53526 5.68842C4.82971 5.27412 5.31187 5 5.86538 5H7.13462C7.68813 5 8.17029 5.27412 8.46474 5.68842C8.63915 5.74883 8.80932 5.81908 8.97473 5.89846C9.05904 5.93893 9.13555 5.99004 9.20314 6.04958C9.28987 6.07482 9.37372 6.11196 9.45218 6.16081C11.1006 7.18691 12.1538 9.14773 12.1538 11.3266L12.1537 11.5503C12.6564 11.7741 13 12.281 13 12.8571C13 13.606 12.4195 14.2379 11.6637 14.2831L11.5719 14.2954C11.4815 14.3074 11.3507 14.3245 11.1878 14.3449C11.1509 14.3495 11.1122 14.3544 11.0721 14.3593C11.0137 14.4285 10.945 14.4906 10.8668 14.5434C10.0981 15.0617 8.64183 16 6.92305 16H6.07695C4.35817 16 2.90194 15.0617 2.13324 14.5434C2.05496 14.4906 1.98631 14.4285 1.92794 14.3593C1.88776 14.3544 1.84914 14.3495 1.81219 14.3449C1.6493 14.3245 1.51853 14.3074 1.42807 14.2954L1.33554 14.283C1.12116 14.2698 0.91836 14.2086 0.73951 14.1102C0.295967 13.8664 0 13.3937 0 12.8571C0 12.281 0.343588 11.7741 0.846294 11.5503L0.846154 11.3266C0.846154 9.14773 1.89944 7.18691 3.54782 6.16081C3.62628 6.11196 3.71013 6.07482 3.79686 6.04958C3.86445 5.99004 3.94096 5.93893 4.02527 5.89847C4.19068 5.81908 4.36085 5.74883 4.53526 5.68842ZM8.72369 14.6047C9.35159 14.3409 9.89497 13.9926 10.3077 13.7143C10.3077 13.7143 9.17948 14.0952 6.92305 14.1388C6.78618 14.1415 6.64517 14.1429 6.5 14.1429C6.35483 14.1429 6.21382 14.1415 6.07695 14.1388C3.82052 14.0952 2.69231 13.7143 2.69231 13.7143C3.10503 13.9926 3.64841 14.3409 4.27631 14.6047C4.82266 14.8343 5.43299 15 6.07695 15H6.92305C7.56701 15 8.17734 14.8343 8.72369 14.6047Z" fill="#4F5358"/>
<path d="M6.07695 16H2V14.436C2.04068 14.475 2.08514 14.511 2.13324 14.5434C2.90194 15.0617 4.35817 16 6.07695 16Z" fill="#4F5358"/>
<path d="M6.92305 16H15V3.6L11.3438 0H2V7.62728C2.28801 7.22359 2.62374 6.86197 3 6.55362V1H10.9341L11 1.06492V4H13.9809L14 4.01876V15H10.1505C9.33725 15.4797 8.20294 16 6.92305 16Z" fill="#4F5358"/>
<path d="M2.86072 13.4617L2.86247 13.4619C2.90764 13.4669 2.9535 13.4719 3 13.477C2.95289 13.4719 2.90645 13.4668 2.86072 13.4617Z" fill="#4F5358"/>
</svg>
