<svg width="16" height="16" viewBox="0 0 16 16" fill="none" xmlns="http://www.w3.org/2000/svg">
<path fill-rule="evenodd" clip-rule="evenodd" d="M2.5 1.5H1.5V2.5H2.5V1.5ZM1 1V3H3V1H1Z" fill="#4F5358"/>
<path fill-rule="evenodd" clip-rule="evenodd" d="M2.5 4.5H1.5V5.5H2.5V4.5ZM1 4V6H3V4H1Z" fill="#4F5358"/>
<path fill-rule="evenodd" clip-rule="evenodd" d="M5.5 1.5H4.5V2.5H5.5V1.5ZM4 1V3H6V1H4Z" fill="#4F5358"/>
<path fill-rule="evenodd" clip-rule="evenodd" d="M8.5 1.5H7.5V2.5H8.5V1.5ZM7 1V3H9V1H7Z" fill="#4F5358"/>
<path fill-rule="evenodd" clip-rule="evenodd" d="M10 1V3H12V1H10Z" fill="#4F5358"/>
<path fill-rule="evenodd" clip-rule="evenodd" d="M13 1V3H15V1H13Z" fill="#4F5358"/>
<path fill-rule="evenodd" clip-rule="evenodd" d="M15 9.49993C15 9.83655 14.9691 10.1712 14.9083 10.4999C14.8058 11.0544 14.6183 11.5918 14.3506 12.0926C13.9242 12.8903 13.3077 13.5705 12.5556 14.073C11.8036 14.5755 10.9392 14.8848 10.0391 14.9734C9.13897 15.0621 8.23088 14.9274 7.39525 14.5813C7.03816 14.4334 6.69901 14.2488 6.38291 14.0313L7.10476 13.3095C7.31824 13.4437 7.54336 13.5602 7.77793 13.6574C8.46163 13.9406 9.20462 14.0508 9.94108 13.9783C10.6775 13.9057 11.3848 13.6527 12.0001 13.2415C12.6154 12.8304 13.1198 12.2739 13.4687 11.6212C13.6583 11.2664 13.7988 10.8892 13.8875 10.4999H9.08579L5.69048 7.10462C5.47795 7.44263 5.31055 7.8087 5.19377 8.19365C5.14674 8.34869 5.10824 8.50574 5.07831 8.66412L4.70711 8.29292C4.56601 8.15182 4.38982 8.05951 4.20264 8.02078C4.21359 7.98154 4.22499 7.9424 4.23683 7.90336C4.40167 7.35995 4.64906 6.84734 4.96863 6.38277C5.15808 6.10738 5.37289 5.84887 5.61092 5.61084C6.21918 5.0026 6.96477 4.54254 7.79004 4.27258C8.573 4.01646 9.39922 3.9408 10.2078 4.04573C10.4672 4.07939 10.7248 4.13163 10.9785 4.20245C13.2977 4.84833 14.9999 6.97486 15 9.49993ZM10.8813 5.21586L9.50005 9.49993H14C13.9999 7.49661 12.6907 5.79882 10.8813 5.21586Z" fill="#4F5358"/>
<path d="M4 9V11H0V13H4V15L7 12L4 9Z" fill="#4F5358"/>
</svg>
