<svg width="16" height="16" viewBox="0 0 16 16" fill="none" xmlns="http://www.w3.org/2000/svg">
<path d="M4.82228 4.13965C2.62916 4.66916 1 6.6444 1 9.00015C1 11.7616 3.23858 14.0002 6 14.0002C7.20685 14.0002 8.31383 13.5726 9.17772 12.8607C8.80006 12.9518 8.40567 13.0002 8 13.0002C7.63746 13.0002 7.28394 12.9616 6.94331 12.8883C6.64083 12.9614 6.32494 13.0002 6 13.0002C3.79086 13.0002 2 11.2093 2 9.00015C2 7.75808 2.56612 6.64824 3.4544 5.91457C3.77192 5.22367 4.24232 4.61758 4.82228 4.13965Z" fill="#4F5358"/>
<path d="M5.92177 3.45117C4.19775 4.24008 3 5.98023 3 8.00014C3 10.7616 5.23858 13.0001 8 13.0001C9.14105 13.0001 10.1928 12.6179 11.0343 11.9745C10.8585 11.9915 10.6803 12.0001 10.5 12.0001C10.0336 12.0001 9.58083 11.9421 9.14841 11.8328C8.78466 11.9417 8.39916 12.0001 8 12.0001C5.79086 12.0001 4 10.2093 4 8.00014C4 6.9024 4.4422 5.90793 5.15819 5.18516C5.31205 4.55802 5.57346 3.97313 5.92177 3.45117Z" fill="#4F5358"/>
<path fill-rule="evenodd" clip-rule="evenodd" d="M10.5 11C12.9853 11 15 8.98528 15 6.5C15 4.01472 12.9853 2 10.5 2C8.01472 2 6 4.01472 6 6.5C6 8.98528 8.01472 11 10.5 11ZM10.5 12C13.5376 12 16 9.53757 16 6.5C16 3.46243 13.5376 1 10.5 1C7.46243 1 5 3.46243 5 6.5C5 9.53757 7.46243 12 10.5 12Z" fill="#4F5358"/>
<path d="M9 3H10V8H11V9H10V10H9V9H8V8H9V7H8V6H9V3Z" fill="#4F5358"/>
<path d="M2 2V1L5 2.5L2 4V3H0V2H2Z" fill="#4F5358"/>
<path d="M13 13V12L16 13.5L13 15V14H11V13H13Z" fill="#4F5358"/>
<path d="M10 4H11C11.5523 4 12 4.44772 12 5C12 5.55228 11.5523 6 11 6H10V7H11C12.1046 7 13 6.10457 13 5C13 3.89543 12.1046 3 11 3H10V4Z" fill="#4F5358"/>
</svg>
