<svg width="16" height="16" viewBox="0 0 16 16" fill="none" xmlns="http://www.w3.org/2000/svg">
<path d="M12.9163 10.5841L13.4164 11.0842L11.7056 12.7949L11.2053 12.2949L12.9163 10.5841Z" fill="#4F5358"/>
<path d="M8.9162 6.58398L9.41611 7.08389L7.70526 8.79492L7.20544 8.29492L8.9162 6.58398Z" fill="#4F5358"/>
<path d="M6.9162 4.58399L7.41641 5.0842L6.50043 6L6.00031 5.5L6.9162 4.58399Z" fill="#4F5358"/>
<path d="M4.9162 2.58398L5.41641 3.0842L3.70551 4.79492L3.20544 4.29492L4.9162 2.58398Z" fill="#4F5358"/>
<path d="M15.2111 6.69844C15.5996 6.3099 15.5996 5.67995 15.2111 5.29141C14.8225 4.90286 14.1926 4.90287 13.804 5.29141L8 11.0954L7 13.5024L9.40703 12.5025L15.2111 6.69844Z" fill="#4F5358"/>
<path d="M12.2534 16L13.2472 15H15V13.2348L15.9872 12.2407L15 11.2536V7.61661L15.5646 7.05199C15.8346 6.78202 15.9797 6.43448 16 6.08112V16H12.2534Z" fill="#4F5358"/>
<path d="M16 5.90873V9.74867e-05L4 0V0.253576L5 1.25358V0.999999L15 1.00007V4.58308C15.2062 4.65484 15.3999 4.7731 15.5646 4.93785C15.8346 5.20782 15.9797 5.55536 16 5.90873Z" fill="#4F5358"/>
<path d="M11.2534 15L12.2534 16H4V7.74658L5 8.74658V15H11.2534Z" fill="#4F5358"/>
<path d="M3.74896 1.41669L1.42481 3.75712L8.02796 10.3603L7.57631 10.8119L7.42635 11.1729L0.0130615 3.75958L3.74648 0L11.0674 7.32087L10.3603 8.02798L3.74896 1.41669Z" fill="#4F5358"/>
<path d="M10.1421 12.4744L12.2513 14.5836L14.5754 12.2432L12.4744 10.1421L13.1815 9.43501L15.9871 12.2407L12.2538 16.0003L9.3295 13.076L9.69045 12.9261L10.1421 12.4744Z" fill="#4F5358"/>
</svg>
