<svg width="18" height="16" viewBox="0 0 18 16" fill="none" xmlns="http://www.w3.org/2000/svg">
<path d="M17.2111 6.69844C17.5996 6.3099 17.5996 5.67995 17.2111 5.29141C16.8225 4.90286 16.1926 4.90287 15.804 5.29141L10 11.0954L9 13.5024L11.407 12.5025L17.2111 6.69844Z" fill="#4F5358"/>
<path d="M4 8V10H0V12H4V14L7 11L4 8Z" fill="#4F5358"/>
<path d="M8.5 4H9.2L10 2H6L6.8 4H7.5L7.5 5.06301C6.63739 5.28503 6 6.06808 6 7C6 8.10457 6.89543 9 8 9C9.10457 9 10 8.10457 10 7H9C9 7.55228 8.55228 8 8 8C7.44772 8 7 7.55228 7 7C7 6.44772 7.44772 6 8 6H8.5L8.5 4Z" fill="#4F5358"/>
<path d="M3 15H13V11.6166L14 10.6166V16H2V13H3V15Z" fill="#4F5358"/>
<path d="M14 6.38833V9.74867e-05L2 0V9H3V0.999999L13 1.00007V7.38833L14 6.38833Z" fill="#4F5358"/>
</svg>
