<svg width="16" height="16" viewBox="0 0 16 16" fill="none" xmlns="http://www.w3.org/2000/svg">
<path d="M11 3H5V3.5H11V3Z" fill="#4F5358"/>
<path d="M11 5H5V5.5H11V5Z" fill="#4F5358"/>
<path d="M15.2111 6.69844C15.5996 6.3099 15.5996 5.67995 15.2111 5.29141C14.8225 4.90286 14.1926 4.90287 13.804 5.29141L8 11.0954L7 13.5024L9.40703 12.5025L15.2111 6.69844Z" fill="#4F5358"/>
<path d="M4 6V8H0V10H4V12L7 9L4 6Z" fill="#4F5358"/>
<path d="M3 15H13V9.61661L14 8.61661V16H2V11H3V15Z" fill="#4F5358"/>
<path d="M2 7V0L14 9.74867e-05V4.58842C13.7994 4.66065 13.6112 4.77713 13.4505 4.93785L13 5.38833V1.00007L3 0.999999V7H2Z" fill="#4F5358"/>
</svg>
