<svg width="16" height="16" viewBox="0 0 16 16" fill="none" xmlns="http://www.w3.org/2000/svg">
<path d="M8.5 2H9.2L10 0H6L6.8 2H7.5L7.5 3.06301C6.63739 3.28503 6 4.06808 6 5C6 6.10457 6.89543 7 8 7C9.10457 7 10 6.10457 10 5H9C9 5.55228 8.55228 6 8 6C7.44772 6 7 5.55228 7 5C7 4.44772 7.44772 4 8 4H8.5L8.5 2Z" fill="#4F5358"/>
<path d="M8 8C7.42841 8 6.87805 7.85498 6.4234 7.57764C5.93951 7.22412 5.45374 7 5 7C2.63306 7 0 12 0 12H3.65106C2.77704 13.0747 2.04352 14.2134 1.57123 15C1.20862 15.604 1 16 1 16H8V15H2.74506C3.10022 14.4355 3.54633 13.7695 4.05225 13.1069C4.33459 12.7371 4.66228 12.3741 4.96902 12.0343L5 12C5.3703 11.5923 5.7525 11.1821 6.13702 10.8716C6.88141 10.2695 7.51086 10 8 10V8Z" fill="#4F5358"/>
<path d="M8 16H15C15 16 14.7736 15.6035 14.3882 15C13.8861 14.2134 13.1142 13.0742 12.2212 11.9995H16C16 11.9995 13.243 7.54639 10.6981 6.31299C10.2111 7.31152 9.18591 8 8 8V10C8.39105 10 8.97406 10.2485 9.72369 10.8657C10.1151 11.188 10.5102 11.5762 10.8968 12C11.1205 12.2456 11.3414 12.5029 11.557 12.7661C11.652 12.8823 11.746 12.9995 11.8387 13.1177C12.356 13.7759 12.8202 14.437 13.1946 15H8V16Z" fill="#4F5358"/>
</svg>
