<svg width="16" height="16" viewBox="0 0 16 16" fill="none" xmlns="http://www.w3.org/2000/svg">
<path d="M10 2H4V2.5H10V2Z" fill="#4F5358"/>
<path d="M10 3H4V3.5H10V3Z" fill="#4F5358"/>
<path fill-rule="evenodd" clip-rule="evenodd" d="M3.51677 12.8319C3.36167 12.8179 3.20749 12.7677 3.06697 12.6784C2.59614 12.3794 2.45683 11.7554 2.75583 11.2845L3.15271 10.6596C3.45171 10.1887 4.07577 10.0494 4.5466 10.3484C4.69748 10.4442 4.81432 10.5734 4.89359 10.7203C5.16696 10.6353 5.47448 10.6666 5.73506 10.832C5.98512 10.9908 6.14166 11.2413 6.1887 11.5118C6.39303 11.4997 6.60293 11.5494 6.78892 11.6676C7.18794 11.9209 7.34885 12.4078 7.20667 12.837C7.28228 12.8625 7.35607 12.8974 7.42644 12.942C7.89727 13.241 8.03657 13.8651 7.73758 14.3359L7.5266 14.6682C7.22761 15.139 6.60354 15.2783 6.13271 14.9793C5.97995 14.8823 5.86209 14.7511 5.78278 14.602C5.52687 14.6627 5.24763 14.6241 5.00806 14.4719C4.74537 14.3051 4.58587 14.0371 4.54813 13.7509C4.35441 13.756 4.15715 13.7055 3.98126 13.5938C3.70607 13.419 3.54413 13.1332 3.51677 12.8319ZM4.46085 12.3673L4.85774 11.7423C4.94912 11.5984 4.99956 11.4402 5.01211 11.2813C5.14318 11.2224 5.30037 11.2285 5.43074 11.3113C5.58569 11.4097 5.65863 11.5885 5.62972 11.7588C5.62016 11.815 5.59949 11.8703 5.56698 11.9215L4.89593 12.9783C4.8361 13.0725 4.74653 13.1364 4.64723 13.1655C4.52927 13.2001 4.39752 13.1856 4.28559 13.1146C4.14622 13.026 4.07319 12.8725 4.08096 12.7186C4.23112 12.6393 4.36329 12.5209 4.46085 12.3673ZM3.63069 12.2676C3.5423 12.2721 3.45169 12.2503 3.37129 12.1992C3.16514 12.0683 3.10414 11.795 3.23506 11.5889L3.63195 10.9639C3.76286 10.7577 4.03612 10.6967 4.24227 10.8276C4.44843 10.9586 4.50942 11.2318 4.37851 11.438L3.98162 12.063C3.95549 12.1041 3.9237 12.1395 3.8879 12.1687C3.81428 12.2287 3.72367 12.2628 3.63069 12.2676ZM5.31239 13.9927C5.16269 13.8976 5.08953 13.7275 5.11082 13.5625C5.21321 13.4892 5.30351 13.3955 5.37515 13.2826L6.04621 12.2259C6.07256 12.1844 6.09551 12.1417 6.11513 12.0982C6.23508 12.0606 6.37017 12.0741 6.4846 12.1468C6.69075 12.2777 6.75175 12.551 6.62083 12.7571L5.92272 13.8565C5.7918 14.0626 5.51855 14.1236 5.31239 13.9927ZM6.27654 14.3205C6.31115 14.3917 6.36531 14.4545 6.43704 14.5001C6.6432 14.631 6.91645 14.57 7.04737 14.3638L7.25835 14.0316C7.38926 13.8254 7.32827 13.5522 7.12211 13.4213C7.05744 13.3802 6.98615 13.358 6.91474 13.3533L6.40195 14.1608C6.36485 14.2192 6.32274 14.2725 6.27654 14.3205Z" fill="#4F5358"/>
<path fill-rule="evenodd" clip-rule="evenodd" d="M12.1375 11.4138C12.3495 11.281 12.6462 11.0789 12.859 10.8548C13.1704 10.5265 13.271 10.1451 13.3334 9.9088C13.3386 9.88915 13.3435 9.8705 13.3482 9.85296C13.4158 9.6039 13.4564 9.52278 13.5499 9.45091C13.6565 9.36901 13.8804 9.28953 14.1504 9.23457C14.2724 9.20973 14.5576 9.17403 14.5576 9.17403C14.6505 9.16407 14.5366 9.17596 14.5576 9.17403L14.7681 9.15906L14.9094 9.04105C15.1298 8.8569 15.1943 8.60432 15.2083 8.42182C15.2226 8.23563 15.1922 8.04578 15.1475 7.8753C15.0571 7.53063 14.8763 7.14683 14.6504 6.78854C14.4229 6.42747 14.132 6.06443 13.8015 5.77043C13.4773 5.48205 13.0748 5.22452 12.6236 5.14385L12.498 5.1214L10.6544 5.62185L9.39346 5.53522L9.24378 5.56L9.21923 5.56422C9.16838 5.57299 9.10176 5.5847 9.0236 5.59895C8.84116 5.63221 8.59361 5.67969 8.33615 5.73619C8.08096 5.79219 7.80542 5.85933 7.57092 5.93283C7.4542 5.96941 7.33683 6.0109 7.23265 6.05756C7.1441 6.09722 7.00342 6.16676 6.892 6.28059C6.72414 6.45205 6.64828 6.666 6.606 6.81661C6.56481 6.9633 6.53562 7.12906 6.51054 7.27149L6.50522 7.30166C6.44745 7.62861 6.39096 7.91256 6.26084 8.15833C6.09004 8.48093 5.92026 8.76995 5.79296 8.97857C5.72945 9.08264 5.61911 9.25001 5.58272 9.307L5.37314 9.62911L5.59275 9.94524C5.82185 10.2751 6.19398 10.3573 6.47914 10.346C6.77387 10.3343 7.0773 10.227 7.34982 10.0581C7.84133 9.75348 8.29429 9.21198 8.50728 8.44877L8.80474 8.31976L11.2858 11.8821L12.1375 11.4138ZM11.466 11.1475L9.00508 7.61409L8.01854 8.04193C7.83469 9.06233 7.16883 9.61974 6.65096 9.74963C6.50774 9.78555 6.37584 9.78877 6.26858 9.76004C6.17888 9.73601 6.10642 9.68964 6.05899 9.62136C6.05899 9.62136 6.40732 9.09492 6.76255 8.42397C6.94414 8.08099 7.01088 7.70286 7.06802 7.37911C7.12266 7.06951 7.16853 6.80963 7.29767 6.67771C7.56185 6.40784 9.41985 6.10607 9.41985 6.10607L10.7109 6.19477L12.5237 5.70268C13.7548 5.92282 15.0093 8.21784 14.5454 8.60537C14.5454 8.60537 13.6371 8.66801 13.204 9.00075C12.9335 9.20865 12.8616 9.47634 12.7876 9.75154C12.7222 9.99524 12.6551 10.2448 12.4471 10.464C12.1257 10.8028 11.466 11.1475 11.466 11.1475ZM11.466 11.1475C11.4924 11.198 11.4446 11.1066 11.466 11.1475Z" fill="#4F5358"/>
<path d="M2.36607 10.3406C2.54435 10.464 2.74939 10.7268 2.92823 11.0132L3.15273 10.6596C3.18853 10.6033 3.229 10.5516 3.2733 10.5049C3.21397 10.4195 3.15029 10.334 3.08323 10.2526C2.96113 10.1044 2.82783 9.96984 2.6892 9.87387C2.26326 9.57899 1.89303 9.36026 1.89303 9.36026C1.89303 9.36026 1.37911 8.68507 1.70637 7.60722C2.11693 6.25508 3.19534 5.73497 3.19534 5.73497C3.19534 5.73497 3.9889 6.34392 4.67911 6.31798C5.18412 6.29899 5.56248 6.30238 5.56248 6.30238C5.56248 6.30238 6.44374 5.93822 6.99887 5.78017C7.41419 5.66192 7.49247 5.58561 7.81798 5.86132L8.50728 5.69959C8.50728 5.69959 8.45565 5.62013 8.24324 5.48059C7.86522 5.23227 7.38163 5.08093 6.84341 5.23417C6.54029 5.32047 6.16153 5.4587 5.86971 5.5703C5.72467 5.62578 5.59676 5.67635 5.50382 5.71359C5.38825 5.72717 5.3151 5.73529 5.30469 5.73539C5.14292 5.73695 4.91667 5.74095 4.65779 5.75068C4.46457 5.75794 4.20233 5.66967 3.94165 5.53323C3.82091 5.47004 3.71749 5.40559 3.64462 5.3571C3.60846 5.33304 3.66259 5.37004 3.64462 5.3571C3.63565 5.35064 3.64831 5.35984 3.64462 5.3571L3.2636 5.07178L2.93857 5.22863C2.93857 5.22863 2.89243 5.25261 2.87206 5.26395C2.83136 5.28661 2.77647 5.31885 2.71103 5.36139C2.58043 5.44628 2.40596 5.57338 2.2178 5.74872C1.84118 6.09966 1.40377 6.64986 1.16317 7.44229C0.963875 8.09864 1.01737 8.64964 1.13153 9.0453C1.18799 9.241 1.25849 9.39632 1.31778 9.50665C1.34748 9.56192 1.37459 9.6063 1.39608 9.63926C1.40673 9.65558 1.47495 9.7483 1.47495 9.7483L1.5086 9.79251L1.60467 9.84927L1.60717 9.85075L1.61823 9.85735C1.62821 9.86332 1.64331 9.8724 1.66291 9.8843C1.70214 9.90812 1.7593 9.94318 1.82952 9.98727C1.9703 10.0757 2.16191 10.1993 2.36607 10.3406Z" fill="#4F5358"/>
<path d="M11.2939 11.9506L11.7597 11.6406C12.0785 12.0983 11.9659 12.7133 11.5082 13.032C11.397 13.1095 11.2757 13.1614 11.1512 13.1892C11.1753 13.5322 11.0236 13.8789 10.7209 14.0897C10.5149 14.2331 10.2742 14.2892 10.0427 14.2658C9.97521 14.4605 9.84779 14.6363 9.66584 14.763C9.37694 14.9642 9.0196 14.9935 8.71517 14.8727C8.6443 14.9894 8.54851 15.0934 8.4293 15.1765C8.01141 15.4675 7.45032 15.3989 7.11328 15.0364C7.27724 14.9574 7.42188 14.8332 7.52662 14.6682L7.53463 14.6556C7.68279 14.8088 7.92433 14.8364 8.10485 14.7106C8.17784 14.6598 8.23079 14.5909 8.26186 14.5142L8.26408 14.5086C8.29948 14.4177 8.30441 14.3162 8.27585 14.2209C8.26273 14.1771 8.24254 14.1346 8.21499 14.0951L7.96908 13.742L8.29087 13.5625L8.72582 14.187C8.76282 14.2402 8.80938 14.2827 8.86157 14.3138C9.00623 14.4003 9.19412 14.3997 9.34139 14.2972C9.42964 14.2357 9.48859 14.1479 9.51501 14.0517C9.54439 13.9447 9.53355 13.8274 9.47803 13.7246C9.47011 13.71 9.46128 13.6956 9.45152 13.6816L8.99565 13.027L9.31707 12.8478L9.78086 13.5137C9.85163 13.6154 9.95739 13.6781 10.0706 13.6971C10.1806 13.7156 10.2977 13.6927 10.3964 13.6239C10.5534 13.5145 10.6177 13.3217 10.5711 13.147C10.5582 13.0987 10.5368 13.0517 10.5066 13.0083L9.95588 12.2175C9.95878 12.2155 10.0954 12.1214 10.1932 12.0663C10.2449 12.0371 10.2859 12.0189 10.2903 12.0311C10.3031 12.0664 10.3207 12.1008 10.3433 12.1331L10.5682 12.4561C10.657 12.5836 10.801 12.65 10.9456 12.6453C11.0282 12.6427 11.1109 12.6169 11.1838 12.5662C11.3842 12.4266 11.4335 12.151 11.2939 11.9506C11.2838 11.9359 11.3044 11.966 11.2939 11.9506Z" fill="#4F5358"/>
<path d="M15 3.6V7.45063C14.9065 7.23017 14.7867 7.00481 14.6505 6.78872C14.4696 6.50183 14.2489 6.2137 14 5.95994V4.01876L13.9809 4H11V1.06492L10.9341 1H3V5.19899L2.93857 5.22863C2.93857 5.22863 2.89243 5.25261 2.87206 5.26395C2.83136 5.28661 2.77647 5.31885 2.71103 5.36139C2.58043 5.44628 2.40596 5.57338 2.2178 5.74872C2.14678 5.81489 2.07361 5.88814 2 5.96877V0H11.3438L15 3.6Z" fill="#4F5358"/>
<path d="M2 10.0959V16H15V8.95242C14.9732 8.9833 14.9431 9.01307 14.9094 9.04124L14.7681 9.15925L14.5576 9.17421C14.5576 9.17421 14.2724 9.20991 14.1504 9.23475C14.0984 9.24534 14.0481 9.25684 14 9.2691V15H8.62348C8.56797 15.0656 8.50312 15.1251 8.4293 15.1765C8.01141 15.4675 7.45032 15.3989 7.11328 15.0364C6.84461 15.1658 6.48957 15.1878 6.16683 15H3V12.632C2.58349 12.3185 2.47149 11.7322 2.7558 11.2845L2.92816 11.0131C2.74934 10.7268 2.54432 10.464 2.36607 10.3406C2.23559 10.2503 2.11024 10.1672 2 10.0959Z" fill="#4F5358"/>
</svg>
