<svg width="16" height="16" viewBox="0 0 16 16" fill="none" xmlns="http://www.w3.org/2000/svg">
<path fill-rule="evenodd" clip-rule="evenodd" d="M2.5 1.5H1.5V2.5H2.5V1.5ZM1 1V3H3V1H1Z" fill="#4F5358"/>
<path fill-rule="evenodd" clip-rule="evenodd" d="M2.5 4.5H1.5V5.5H2.5V4.5ZM1 4V6H3V4H1Z" fill="#4F5358"/>
<path fill-rule="evenodd" clip-rule="evenodd" d="M2.5 7.5H1.5V8.5H2.5V7.5ZM1 7V9H3V7H1Z" fill="#4F5358"/>
<path fill-rule="evenodd" clip-rule="evenodd" d="M6 10H1V15H6V10ZM5.20711 11.7071C5.40237 11.5118 5.40237 11.1953 5.20711 11C5.01184 10.8047 4.69526 10.8047 4.5 11L2.85355 12.6464L2.20711 12C2.01184 11.8047 1.69526 11.8047 1.5 12C1.30474 12.1953 1.30474 12.5118 1.5 12.7071L2.5 13.7071C2.69526 13.9024 3.01184 13.9024 3.20711 13.7071L5.20711 11.7071Z" fill="#4F5358"/>
<path fill-rule="evenodd" clip-rule="evenodd" d="M14.9083 10.4999C14.9691 10.1712 15 9.83655 15 9.49993C14.9999 6.97486 13.2977 4.84833 10.9785 4.20245C10.7248 4.13163 10.4672 4.07939 10.2078 4.04573C9.39921 3.9408 8.57299 4.01646 7.79003 4.27258C6.96477 4.54254 6.21917 5.0026 5.61091 5.61084C5.37288 5.84887 5.15807 6.10738 4.96863 6.38277C4.64905 6.84734 4.40167 7.35995 4.23683 7.90336C4.03047 8.58364 3.95847 9.29566 4.02278 10H5.02787C4.96013 9.39419 5.01604 8.77953 5.19377 8.19365C5.31054 7.8087 5.47794 7.44263 5.69047 7.10462L9.08579 10.4999H13.8875C13.7988 10.8892 13.6583 11.2664 13.4686 11.6212C13.1198 12.2739 12.6154 12.8304 12.0001 13.2415C11.3848 13.6527 10.6775 13.9057 9.94108 13.9783C9.20461 14.0508 8.46162 13.9406 7.77793 13.6574C7.09423 13.3742 6.49092 12.9267 6.02145 12.3547C6.01427 12.3459 6.00712 12.3372 6 12.3284V13.7426C6.4194 14.0886 6.88931 14.3717 7.39524 14.5813C8.23087 14.9274 9.13897 15.0621 10.0391 14.9734C10.9392 14.8848 11.8036 14.5755 12.5556 14.073C13.3077 13.5705 13.9242 12.8903 14.3506 12.0926C14.6183 11.5918 14.8058 11.0544 14.9083 10.4999ZM9.50004 9.49993L10.8813 5.21586C12.6907 5.79882 13.9999 7.49661 14 9.49993H9.50004Z" fill="#4F5358"/>
</svg>
