<svg width="16" height="16" viewBox="0 0 16 16" fill="none" xmlns="http://www.w3.org/2000/svg">
<path fill-rule="evenodd" clip-rule="evenodd" d="M2.5 1.5H1.5V2.5H2.5V1.5ZM1 1V3H3V1H1Z" fill="#4F5358"/>
<path fill-rule="evenodd" clip-rule="evenodd" d="M2.5 4.5H1.5V5.5H2.5V4.5ZM1 4V6H3V4H1Z" fill="#4F5358"/>
<path fill-rule="evenodd" clip-rule="evenodd" d="M5.5 1.5H4.5V2.5H5.5V1.5ZM4 1V3H6V1H4Z" fill="#4F5358"/>
<path fill-rule="evenodd" clip-rule="evenodd" d="M8.5 1.5H7.5V2.5H8.5V1.5ZM7 1V3H9V1H7Z" fill="#4F5358"/>
<path fill-rule="evenodd" clip-rule="evenodd" d="M10 1V3H12V1H10Z" fill="#4F5358"/>
<path fill-rule="evenodd" clip-rule="evenodd" d="M13 1V3H15V1H13Z" fill="#4F5358"/>
<path fill-rule="evenodd" clip-rule="evenodd" d="M2.80295 13.7274C3.24117 14.0556 3.78538 14.25 4.375 14.25C5.82475 14.25 7 13.0747 7 11.625C7 10.1752 5.82475 9 4.375 9C2.92525 9 1.75 10.1752 1.75 11.625C1.75 12.2146 1.94441 12.7588 2.27262 13.1971L1.10983 14.3598C0.963388 14.5063 0.963388 14.7437 1.10983 14.8902C1.25628 15.0366 1.49372 15.0366 1.64016 14.8902L2.80295 13.7274ZM2.5 11.625C2.5 12.6605 3.33947 13.5 4.375 13.5C5.41053 13.5 6.25 12.6605 6.25 11.625C6.25 10.5895 5.41053 9.75 4.375 9.75C3.33947 9.75 2.5 10.5895 2.5 11.625Z" fill="#4F5358"/>
<path fill-rule="evenodd" clip-rule="evenodd" d="M15 9.49993C15 9.83655 14.9691 10.1712 14.9083 10.4999C14.8058 11.0544 14.6183 11.5918 14.3506 12.0926C13.9242 12.8903 13.3077 13.5705 12.5556 14.073C11.8036 14.5755 10.9392 14.8848 10.0391 14.9734C9.13897 15.0621 8.23087 14.9274 7.39524 14.5813C7.15187 14.4805 6.91682 14.3626 6.69173 14.2289C6.95979 14.0134 7.19543 13.7591 7.39016 13.4747C7.51614 13.5415 7.64553 13.6025 7.77793 13.6574C8.46162 13.9406 9.20461 14.0508 9.94108 13.9783C10.6775 13.9057 11.3848 13.6527 12.0001 13.2415C12.6154 12.8304 13.1198 12.2739 13.4686 11.6212C13.6583 11.2664 13.7988 10.8892 13.8875 10.4999H9.08579L5.69047 7.10462C5.49962 7.40816 5.34515 7.73432 5.23107 8.07647C4.99528 8.02637 4.75072 8 4.5 8C4.40065 8 4.30227 8.00414 4.20502 8.01226C4.21524 7.97587 4.22584 7.93957 4.23683 7.90336C4.40167 7.35995 4.64905 6.84734 4.96863 6.38277C5.15807 6.10738 5.37288 5.84887 5.61091 5.61084C6.21917 5.0026 6.96477 4.54254 7.79003 4.27258C8.57299 4.01646 9.39921 3.9408 10.2078 4.04573C10.4672 4.07939 10.7248 4.13163 10.9785 4.20245C13.2977 4.84833 14.9999 6.97486 15 9.49993ZM10.8813 5.21586L9.50004 9.49993H14C13.9999 7.49661 12.6907 5.79882 10.8813 5.21586Z" fill="#4F5358"/>
</svg>
