<svg width="18" height="16" viewBox="0 0 18 16" fill="none" xmlns="http://www.w3.org/2000/svg">
<path d="M17.2111 6.69844C17.5996 6.3099 17.5996 5.67995 17.2111 5.29141C16.8225 4.90286 16.1926 4.90287 15.804 5.29141L10 11.0954L9 13.5024L11.407 12.5025L17.2111 6.69844Z" fill="#4F5358"/>
<path d="M4 8V10H0V12H4V14L7 11L4 8Z" fill="#4F5358"/>
<path d="M3 15H13V11.6166L14 10.6166V16H2V13H3V15Z" fill="#4F5358"/>
<path d="M14 6.38833V9.74867e-05L2 0V9H3V0.999999L13 1.00007V7.38833L14 6.38833Z" fill="#4F5358"/>
<path fill-rule="evenodd" clip-rule="evenodd" d="M3.40802 6.28564C3.14905 6.7168 3 7 3 7H5.59247C5.49268 7.15576 5.4035 7.30029 5.32642 7.42871C5.1192 7.77344 5 8 5 8H12.3883L12.77 7.61834C12.7339 7.5603 12.6939 7.49681 12.6504 7.42871C12.5685 7.30029 12.474 7.15576 12.3689 7H13C13 7 12.8383 6.7168 12.563 6.28564C11.681 4.90381 9.63306 2 8 2C6.19617 2 4.23773 4.90381 3.40802 6.28564ZM9 4C9.59741 4 10.2642 4.48584 10.8795 5.11865C10.8343 5.05957 10.7884 5.00049 10.7419 4.94141C10.2657 4.33545 9.74402 3.75488 9.2312 3.33252C8.69574 2.8916 8.2793 2.71436 8 2.71436C7.65057 2.71436 7.20099 2.90674 6.66931 3.33691C6.15179 3.75537 5.6402 4.33057 5.18018 4.93359C4.81885 5.40674 4.50012 5.88232 4.24646 6.28564H6.078C6.86176 5.2002 7.96283 4 9 4Z" fill="#4F5358"/>
</svg>
