<svg width="17" height="16" viewBox="0 0 17 16" fill="none" xmlns="http://www.w3.org/2000/svg">
<path fill-rule="evenodd" clip-rule="evenodd" d="M10.5 13.123H7.5V14.123H10.5V13.123Z" fill="#4F5358"/>
<path d="M9.96228 7.99992L1.96472 7.99998C2.17879 7.73476 2.41655 7.45462 2.67227 7.17544C3.21581 6.58204 3.81709 6.01885 4.42303 5.61054C5.04102 5.19412 5.57332 5 5.99998 5C6.34186 5 6.83359 5.1783 7.45646 5.60575C8.05788 6.01848 8.6725 6.58761 9.23668 7.18597C9.4964 7.46143 9.74046 7.73774 9.96228 7.99992Z" fill="#4F5358"/>
<path fill-rule="evenodd" clip-rule="evenodd" d="M9.21144 8.14475C8.9447 8.0733 8.6632 8.22952 8.5827 8.49367L7.51603 11.9937C7.43553 12.2578 7.58651 12.5299 7.85325 12.6013C8.11999 12.6728 8.40148 12.5166 8.48198 12.2524L9.54865 8.7524C9.62915 8.48825 9.47818 8.2162 9.21144 8.14475Z" fill="#4F5358"/>
<path fill-rule="evenodd" clip-rule="evenodd" d="M6.54542 8.14475C6.27868 8.0733 5.99719 8.22952 5.91669 8.49367L4.85002 11.9937C4.76952 12.2578 4.92049 12.5299 5.18723 12.6013C5.45397 12.6728 5.73546 12.5166 5.81597 12.2524L6.88263 8.7524C6.96314 8.48825 6.81216 8.2162 6.54542 8.14475Z" fill="#4F5358"/>
<path fill-rule="evenodd" clip-rule="evenodd" d="M3.87745 8.14475C3.61071 8.0733 3.32922 8.22952 3.24872 8.49367L2.18205 11.9937C2.10155 12.2578 2.25252 12.5299 2.51926 12.6013C2.786 12.6728 3.0675 12.5166 3.148 12.2524L4.21466 8.7524C4.29517 8.48825 4.14419 8.2162 3.87745 8.14475Z" fill="#4F5358"/>
<path fill-rule="evenodd" clip-rule="evenodd" d="M0.5 8.00195C0.223858 8.00195 0 8.22581 0 8.50195V12.502C0 12.7781 0.223858 13.002 0.5 13.002C0.776142 13.002 1 12.7781 1 12.502V8.50195C1 8.22581 0.776142 8.00195 0.5 8.00195Z" fill="#4F5358"/>
<path d="M13.3427 8.00195L13 9.00195H14.1794L15 10.7306V13.123H14.5V14.123H16V10.7275C16.0181 10.6329 16.0075 10.5315 15.9638 10.4358C15.9563 10.4173 15.9477 10.3992 15.9381 10.3818L15.0456 8.50166C15.0307 8.47181 15.0131 8.44396 14.9934 8.41826C14.9536 8.18196 14.748 8.00195 14.5003 8.00195H13.3427Z" fill="#4F5358"/>
<path d="M11.3139 9.00171L10.2859 12.0017H0V13.0017H11L12.9545 7.29803L11.9994 7.00146L11.6566 8.00171H0V9.00171H11.3139Z" fill="#4F5358"/>
<path fill-rule="evenodd" clip-rule="evenodd" d="M12.5 13.002C12.7761 13.002 13 13.2258 13 13.502C13 13.7781 12.7761 14.002 12.5 14.002C12.2239 14.002 12 13.7781 12 13.502C12 13.2258 12.2239 13.002 12.5 13.002ZM14 13.502C14 12.6735 13.3284 12.002 12.5 12.002C11.6716 12.002 11 12.6735 11 13.502C11 14.3304 11.6716 15.002 12.5 15.002C13.3284 15.002 14 14.3304 14 13.502Z" fill="#4F5358"/>
<path fill-rule="evenodd" clip-rule="evenodd" d="M5.5 13.002C5.77614 13.002 6 13.2258 6 13.502C6 13.7781 5.77614 14.002 5.5 14.002C5.22386 14.002 5 13.7781 5 13.502C5 13.2258 5.22386 13.002 5.5 13.002ZM7 13.502C7 12.6735 6.32843 12.002 5.5 12.002C4.67157 12.002 4 12.6735 4 13.502C4 14.3304 4.67157 15.002 5.5 15.002C6.32843 15.002 7 14.3304 7 13.502Z" fill="#4F5358"/>
<path fill-rule="evenodd" clip-rule="evenodd" d="M2.5 13.002C2.77614 13.002 3 13.2258 3 13.502C3 13.7781 2.77614 14.002 2.5 14.002C2.22386 14.002 2 13.7781 2 13.502C2 13.2258 2.22386 13.002 2.5 13.002ZM4 13.502C4 12.6735 3.32843 12.002 2.5 12.002C1.67157 12.002 1 12.6735 1 13.502C1 14.3304 1.67157 15.002 2.5 15.002C3.32843 15.002 4 14.3304 4 13.502Z" fill="#4F5358"/>
<path d="M0 15V16H16V15H0Z" fill="#4F5358"/>
</svg>
