<svg width="16" height="16" viewBox="0 0 16 16" fill="none" xmlns="http://www.w3.org/2000/svg">
<path fill-rule="evenodd" clip-rule="evenodd" d="M3 14H13C13.5523 14 14 13.5523 14 13V6.00004C14 5.44776 13.5523 5.00005 13 5.00004L3 5C2.44771 5 2 5.44772 2 6V13C2 13.5523 2.44772 14 3 14ZM3 4C1.89543 4 1 4.89543 1 6V13C1 14.1046 1.89543 15 3 15H13C14.1046 15 15 14.1046 15 13V6.00004C15 4.89548 14.1046 4.00006 13 4.00004L3 4Z" fill="#4F5358"/>
<path d="M8 6.66667V8L6 6.5L8 5V6C10.2091 6 12 7.79086 12 10C12 12.2091 10.2091 14 8 14C5.79086 14 4 12.2091 4 10C4 9.17909 4.24729 8.41593 4.67145 7.78096L5.22621 8.1508C4.87274 8.67994 4.66667 9.31591 4.66667 10C4.66667 11.8409 6.15905 13.3333 8 13.3333C9.84095 13.3333 11.3333 11.8409 11.3333 10C11.3333 8.15905 9.84095 6.66667 8 6.66667Z" fill="#4F5358"/>
<path d="M7.5 10L5.5 7H6L8.5 9.5V10.5L6 12V11.5L7.5 10Z" fill="#4F5358"/>
<path d="M10 3.00001V4H11V3.00001C11 2.44773 10.5523 2.00001 10 2.00001L6 2C5.44771 2 5 2.44772 5 3V4H6V3L10 3.00001Z" fill="#4F5358"/>
</svg>
