<svg width="16" height="16" viewBox="0 0 16 16" fill="none" xmlns="http://www.w3.org/2000/svg">
<path d="M6.50947 15L1.70947 11H2.4905L7.2905 15H6.50947Z" fill="#4F5358"/>
<path fill-rule="evenodd" clip-rule="evenodd" d="M13.5961 13.3032C13.0118 13.7408 12.2862 14 11.5 14C9.567 14 8 12.433 8 10.5C8 8.567 9.567 7 11.5 7C13.433 7 15 8.567 15 10.5C15 11.2862 14.7408 12.0118 14.3032 12.5961L15.8536 14.1465C16.0488 14.3418 16.0488 14.6583 15.8536 14.8536C15.6583 15.0489 15.3417 15.0489 15.1464 14.8536L13.5961 13.3032ZM14 10.5C14 11.8807 12.8807 13 11.5 13C10.1193 13 9 11.8807 9 10.5C9 9.11929 10.1193 8 11.5 8C12.8807 8 14 9.11929 14 10.5Z" fill="#4F5358"/>
<path d="M12 6.02746V4.00004L5 4V10H7.02746C7.06579 9.65327 7.14352 9.31841 7.25606 9H6V5.24211L8.39775 7.24023C8.52024 7.12362 8.6493 7.01384 8.78431 6.91151L6.4905 5H11V6.02746C11.1642 6.00932 11.331 6 11.5 6C11.669 6 11.8358 6.00932 12 6.02746Z" fill="#4F5358"/>
<path fill-rule="evenodd" clip-rule="evenodd" d="M15 15.9146C14.7953 15.8424 14.6031 15.7245 14.4393 15.5607L13.8786 15H9V14.2422C7.79401 13.435 7 12.0602 7 10.5C7 10.331 7.00932 10.1642 7.02746 10H1V16H15V15.9146ZM2 15H7V11L2 11V15Z" fill="#4F5358"/>
</svg>
