<svg width="16" height="16" viewBox="0 0 16 16" fill="none" xmlns="http://www.w3.org/2000/svg">
<path d="M10 9H5V5L11 5V4.00004L4 4V10H11V4.5L10 5V9Z" fill="#4F5358"/>
<path d="M6 15H1V11L7 11V10L0 10V16H7V10.5L6 11V15Z" fill="#4F5358"/>
<path d="M14 15H9V11L15 11V10L8 10V16H15V10.5L14 11V15Z" fill="#4F5358"/>
<path d="M9.50947 9L4.70947 5H5.4905L10.2905 9H9.50947Z" fill="#4F5358"/>
<path d="M5.50947 15L0.709473 11H1.4905L6.2905 15H5.50947Z" fill="#4F5358"/>
<path d="M13.5095 15L8.70947 11H9.4905L14.2905 15H13.5095Z" fill="#4F5358"/>
</svg>
