<svg width="16" height="16" viewBox="0 0 16 16" fill="none" xmlns="http://www.w3.org/2000/svg">
<path fill-rule="evenodd" clip-rule="evenodd" d="M10 13H8V15H10V13Z" fill="#4F5358"/>
<path d="M12.3417 10L12 10.8168H13.1761L14 12H11.5L11 13.5L12.7079 13.9675C13.1732 14.0948 13.4958 14.5176 13.4958 15V15H14.9916V12.2264C15.0096 12.1491 14.9991 12.0662 14.9555 11.9881C14.948 11.9729 14.9394 11.9582 14.9298 11.944L14.0399 10.4082C14.025 10.3838 14.0075 10.361 13.9878 10.3401C13.9481 10.147 13.7431 10 13.4961 10H12.3417Z" fill="#4F5358"/>
<path d="M2 12.6667L3 13.5H10.4913L12.5 8H11.5L11 9H2.00186L2 12.6667Z" fill="#4F5358"/>
<path fill-rule="evenodd" clip-rule="evenodd" d="M12 14.6667C12.1841 14.6667 12.3333 14.8159 12.3333 15C12.3333 15.1841 12.1841 15.3333 12 15.3333C11.8159 15.3333 11.6667 15.1841 11.6667 15C11.6667 14.8159 11.8159 14.6667 12 14.6667ZM13 15C13 14.4477 12.5523 14 12 14C11.4477 14 11 14.4477 11 15C11 15.5523 11.4477 16 12 16C12.5523 16 13 15.5523 13 15Z" fill="#4F5358"/>
<path fill-rule="evenodd" clip-rule="evenodd" d="M6.5 14.6667C6.68409 14.6667 6.83333 14.8159 6.83333 15C6.83333 15.1841 6.68409 15.3333 6.5 15.3333C6.31591 15.3333 6.16667 15.1841 6.16667 15C6.16667 14.8159 6.31591 14.6667 6.5 14.6667ZM7.5 15C7.5 14.4477 7.05228 14 6.5 14C5.94772 14 5.5 14.4477 5.5 15C5.5 15.5523 5.94772 16 6.5 16C7.05228 16 7.5 15.5523 7.5 15Z" fill="#4F5358"/>
<path fill-rule="evenodd" clip-rule="evenodd" d="M4 14.6667C4.18409 14.6667 4.33333 14.8159 4.33333 15C4.33333 15.1841 4.18409 15.3333 4 15.3333C3.81591 15.3333 3.66667 15.1841 3.66667 15C3.66667 14.8159 3.81591 14.6667 4 14.6667ZM5 15C5 14.4477 4.55228 14 4 14C3.44772 14 3 14.4477 3 15C3 15.5523 3.44772 16 4 16C4.55228 16 5 15.5523 5 15Z" fill="#4F5358"/>
<path d="M12 5L12 6L4 6L4 5L12 5Z" fill="#4F5358"/>
<path d="M10 3L10 8L13 5.5L10 3Z" fill="#4F5358"/>
<path d="M6 3L6 8L3 5.5L6 3Z" fill="#4F5358"/>
<path fill-rule="evenodd" clip-rule="evenodd" d="M2 5H1V6H2V5ZM0 4V7H3V4H0Z" fill="#4F5358"/>
<path fill-rule="evenodd" clip-rule="evenodd" d="M15 5H14V6H15V5ZM13 4V7H16V4H13Z" fill="#4F5358"/>
</svg>
