<svg width="16" height="16" viewBox="0 0 16 16" fill="none" xmlns="http://www.w3.org/2000/svg">
<path fill-rule="evenodd" clip-rule="evenodd" d="M8.94751 2.44791L8.58121 2.18627C8.23351 1.93791 7.76643 1.93791 7.41873 2.18627L7.05244 2.44791L7.63367 3.26164L7.99997 3L8.36627 3.26164L8.94751 2.44791ZM9.09887 3.78492L9.68011 2.97119L10.4127 3.49447L9.83146 4.30821L9.09887 3.78492ZM10.5641 4.83149L11.1453 4.01776L11.8779 4.54104L11.2967 5.35477L10.5641 4.83149ZM12.0293 5.87806L12.6105 5.06432L13.3431 5.58761L12.7619 6.40134L12.0293 5.87806ZM13.4944 6.92462L14.0757 6.11089L14.442 6.37253C14.7102 6.56408 14.9178 6.81015 15.059 7.08533L14.1694 7.54204C14.0997 7.40617 13.9968 7.28343 13.8607 7.18627L13.4944 6.92462ZM14.1694 8.45796L15.059 8.91467C14.9178 9.18985 14.7102 9.43592 14.442 9.62747L14.0757 9.88911L13.4944 9.07538L13.8607 8.81373C13.9968 8.71657 14.0997 8.59383 14.1694 8.45796ZM12.7619 9.59866L13.3431 10.4124L12.6105 10.9357L12.0293 10.1219L12.7619 9.59866ZM11.2967 10.6452L11.8779 11.459L11.1453 11.9822L10.5641 11.1685L11.2967 10.6452ZM9.83146 11.6918L10.4127 12.5055L9.68011 13.0288L9.09887 12.2151L9.83146 11.6918ZM6.90108 12.2151L6.31984 13.0288L5.58724 12.5055L6.16848 11.6918L6.90108 12.2151ZM5.43588 11.1685L4.85465 11.9822L4.12205 11.459L4.70329 10.6452L5.43588 11.1685ZM3.97069 10.1219L3.38945 10.9357L2.65686 10.4124L3.23809 9.59866L3.97069 10.1219ZM2.5055 9.07538L1.92426 9.88911L1.55796 9.62747C1.28979 9.43592 1.08219 9.18985 0.940918 8.91467L1.83053 8.45796C1.90028 8.59383 2.00317 8.71657 2.1392 8.81373L2.5055 9.07538ZM1.83053 7.54204L0.940918 7.08533C1.08219 6.81015 1.28979 6.56408 1.55796 6.37253L1.92426 6.11089L2.5055 6.92462L2.1392 7.18627C2.00317 7.28343 1.90028 7.40617 1.83053 7.54204ZM3.23809 6.40134L2.65686 5.58761L3.38945 5.06432L3.97069 5.87806L3.23809 6.40134ZM4.70329 5.35477L4.12205 4.54104L4.85465 4.01776L5.43588 4.83149L4.70329 5.35477ZM6.16848 4.30821L5.58724 3.49447L6.31984 2.97119L6.90108 3.78493L6.16848 4.30821ZM7.63367 12.7384L7.05244 13.5521L7.41873 13.8137C7.76643 14.0621 8.23351 14.0621 8.58121 13.8137L8.94751 13.5521L8.36627 12.7384L7.99997 13L7.63367 12.7384Z" fill="#4F5358"/>
<path d="M8 4L2 8L8 12V10.7981L3.80278 8L8 5.20185V4Z" fill="#4F5358"/>
<path d="M8 4L14 8L8 12V10.7981L12.1972 8L8 5.20185V4Z" fill="#4F5358"/>
</svg>
