<svg width="16" height="16" viewBox="0 0 16 16" fill="none" xmlns="http://www.w3.org/2000/svg">
<path d="M9 10.5C8.92339 10.5 8.84678 10.5176 8.77639 10.5528L5.77639 12.0528C5.607 12.1375 5.5 12.3106 5.5 12.5C5.5 12.6894 5.607 12.8625 5.77639 12.9472L8.77639 14.4472C8.84678 14.4824 8.92339 14.5 9 14.5V13.441L7.11803 12.5L9 11.559V10.5Z" fill="#4F5358"/>
<path d="M9 14.5C9.07661 14.5 9.15322 14.4824 9.22361 14.4472L12.2236 12.9472C12.393 12.8625 12.5 12.6894 12.5 12.5C12.5 12.3106 12.393 12.1375 12.2236 12.0528L9.22361 10.5528C9.15322 10.5176 9.07661 10.5 9 10.5V11.559L10.882 12.5L9 13.441V14.5Z" fill="#4F5358"/>
<path d="M12.4949 1.92929C12.4744 1.78561 12.3925 1.65793 12.2704 1.57944C12.1483 1.50094 11.9981 1.47937 11.8589 1.52032L3.35888 4.02032C3.20954 4.06424 3.08918 4.17522 3.03329 4.32051L0.533295 10.8205C0.440862 11.0608 0.546057 11.3321 0.776361 11.4472L4.77636 13.4472C4.91712 13.5176 5.08281 13.5176 5.22357 13.4472L8.22357 11.9472C8.39297 11.8625 8.49997 11.6894 8.49997 11.5C8.49997 11.3106 8.39297 11.1375 8.22357 11.0528L6.118 10H4.49997C4.49997 10.1894 4.60697 10.3625 4.77636 10.4472L6.88193 11.5L4.99997 12.441L1.6296 10.7558L3.87798 4.91L11.5867 2.64273L12.005 5.57071C12.0181 5.66251 12.0565 5.74886 12.1159 5.82009L14.0907 8.18987L10.5423 8.97841L8.18566 8.03576C8.12595 8.01188 8.06292 8.00001 8 8V9.059L8.02275 9.04763L10.3143 9.96424C10.4077 10.0016 10.5102 10.0099 10.6084 9.9881L15.1084 8.9881C15.2787 8.95026 15.4169 8.82646 15.4732 8.66141C15.5295 8.49635 15.4957 8.31388 15.3841 8.17991L12.9749 5.28888L12.4949 1.92929Z" fill="#4F5358"/>
<path d="M8.00003 9.059V8C7.92324 8 7.84661 8.01768 7.77639 8.05279L4.77639 9.55279C4.607 9.63748 4.5 9.81061 4.5 10H6.11803L8.00003 9.059Z" fill="#4F5358"/>
</svg>
