<svg width="16" height="16" viewBox="0 0 16 16" fill="none" xmlns="http://www.w3.org/2000/svg">
<path fill-rule="evenodd" clip-rule="evenodd" d="M11 12.25C10.5858 12.25 10.25 12.5858 10.25 13C10.25 13.4142 10.5858 13.75 11 13.75C11.4142 13.75 11.75 13.4142 11.75 13C11.75 12.5858 11.4142 12.25 11 12.25ZM9.75 13C9.75 12.3096 10.3096 11.75 11 11.75C11.6904 11.75 12.25 12.3096 12.25 13C12.25 13.6904 11.6904 14.25 11 14.25C10.3096 14.25 9.75 13.6904 9.75 13Z" fill="#4F5358"/>
<path d="M6.5 4.5L5.28571 3L3 5V8L6.5 4.5Z" fill="#4F5358"/>
<path d="M8.5 2L12 9C12 10.1046 11.1046 11 10 11C8.89543 11 8 10.1046 8 9H10.6667L6 3.05V2H8.5Z" fill="#4F5358"/>
<path d="M4 11H8V11.5H4V11Z" fill="#4F5358"/>
<path d="M4 13H8V13.5H4V13Z" fill="#4F5358"/>
<path d="M8 4.87434e-05L2 0V16H8V15H3.91465C3.764 14.5738 3.42621 14.236 3 14.0854V1.91465C3.4262 1.76401 3.764 1.42621 3.91464 1.00001L8 1.00004V4.87434e-05Z" fill="#4F5358"/>
<path d="M8 4.87434e-05L14 0V16H8V15H12.0854C12.236 14.5738 12.5738 14.236 13 14.0854V1.91465C12.5738 1.76401 12.236 1.42621 12.0854 1.00001L8 1.00004V4.87434e-05Z" fill="#4F5358"/>
</svg>
