<svg width="16" height="16" viewBox="0 0 16 16" fill="none" xmlns="http://www.w3.org/2000/svg">
<path fill-rule="evenodd" clip-rule="evenodd" d="M12.2328 0H9.23275C9.18673 0 9.14215 0.00621929 9.09982 0.0178634C9.06097 0.00628918 9.01934 0 8.97551 0C8.82491 0 8.68535 0.0790173 8.60786 0.208158L6.30172 4.05172L6.23275 4L6.13012 4.20527C5.89282 4.67987 5.98584 5.25308 6.36105 5.62829C6.84248 6.10972 7.62303 6.10972 8.10446 5.62829L8.23276 5.5L6.99138 4.56897L9.13812 0.991057C9.16877 0.996927 9.2004 1 9.23275 1H12.0661L12.7328 3L10.7328 3.66667V6H10.2328C9.95661 6 9.73275 6.22386 9.73275 6.5C9.73275 6.77614 9.95661 7 10.2328 7H15.2328C15.5089 7 15.7328 6.77614 15.7328 6.5C15.7328 6.22386 15.5089 6 15.2328 6H15.9999V4H14.0661L12.8409 0.324342C12.7763 0.130648 12.595 0 12.3909 0C12.3641 0 12.3379 0.00217326 12.3126 0.0063342C12.2866 0.00216583 12.2599 0 12.2328 0ZM12.7328 3L13.0661 4H12.7328V3ZM12.4 3.63867V4.39993H11.1V4.07201L12.4 3.63867Z" fill="#4F5358"/>
<path fill-rule="evenodd" clip-rule="evenodd" d="M8 13H6V15H8V13Z" fill="#4F5358"/>
<path d="M10.3417 10L10 10.8168H11.1761L12 12H9.5L9 13.5L10.7079 13.9675C11.1732 14.0948 11.4958 14.5176 11.4958 15V15H12.9916V12.2264C13.0096 12.1491 12.9991 12.0662 12.9555 11.9881C12.948 11.9729 12.9394 11.9582 12.9298 11.944L12.0399 10.4082C12.025 10.3838 12.0075 10.361 11.9878 10.3401C11.9481 10.147 11.7431 10 11.4961 10H10.3417Z" fill="#4F5358"/>
<path d="M0 12.6667L1 13.5H8.49127L10.5 8H9.5L9 9H0.00186253L0 12.6667Z" fill="#4F5358"/>
<path fill-rule="evenodd" clip-rule="evenodd" d="M10 14.6667C10.1841 14.6667 10.3333 14.8159 10.3333 15C10.3333 15.1841 10.1841 15.3333 10 15.3333C9.81591 15.3333 9.66667 15.1841 9.66667 15C9.66667 14.8159 9.81591 14.6667 10 14.6667ZM11 15C11 14.4477 10.5523 14 10 14C9.44772 14 9 14.4477 9 15C9 15.5523 9.44772 16 10 16C10.5523 16 11 15.5523 11 15Z" fill="#4F5358"/>
<path fill-rule="evenodd" clip-rule="evenodd" d="M4.5 14.6667C4.68409 14.6667 4.83333 14.8159 4.83333 15C4.83333 15.1841 4.68409 15.3333 4.5 15.3333C4.31591 15.3333 4.16667 15.1841 4.16667 15C4.16667 14.8159 4.31591 14.6667 4.5 14.6667ZM5.5 15C5.5 14.4477 5.05228 14 4.5 14C3.94772 14 3.5 14.4477 3.5 15C3.5 15.5523 3.94772 16 4.5 16C5.05228 16 5.5 15.5523 5.5 15Z" fill="#4F5358"/>
<path fill-rule="evenodd" clip-rule="evenodd" d="M2 14.6667C2.18409 14.6667 2.33333 14.8159 2.33333 15C2.33333 15.1841 2.18409 15.3333 2 15.3333C1.81591 15.3333 1.66667 15.1841 1.66667 15C1.66667 14.8159 1.81591 14.6667 2 14.6667ZM3 15C3 14.4477 2.55228 14 2 14C1.44772 14 1 14.4477 1 15C1 15.5523 1.44772 16 2 16C2.55228 16 3 15.5523 3 15Z" fill="#4F5358"/>
</svg>
