<svg width="16" height="16" viewBox="0 0 16 16" fill="none" xmlns="http://www.w3.org/2000/svg">
<path d="M3.50003 12.5L3 13L3.5 13.5L4 13L3.50003 12.5Z" fill="#4F5358"/>
<path d="M7.50006 13L7.00003 13.5L7.50003 14L8.00003 13.5L7.50006 13Z" fill="#4F5358"/>
<path d="M5 14.5L5.50003 14L6 14.5L5.5 15L5 14.5Z" fill="#4F5358"/>
<path d="M12 12.5L11.5 13L12 13.5L12.5 13L12 12.5Z" fill="#4F5358"/>
<path d="M3.5 7.49414C2.68068 8.67549 1.97137 9.85736 1.57123 10.7141C1.20863 11.4904 1 11.9998 1 11.9998L2.5 12.4998L3.5 12.1665V10.9998L3 10.4998L3.5 9.99983V7.49414Z" fill="#4F5358"/>
<path d="M6.5 12.7998L7.5 12.3998V11.9999L7 11.4999L7.5 10.9999V6.99988L7 6.49988L7.5 5.99988V4.99988L7 4.49988L7.5 3.99988V3.14209C7.2041 3.28958 6.8646 3.54538 6.5 3.87921V8.99988L7 9.49988L6.5 9.99988V12.7998Z" fill="#4F5358"/>
<path d="M4.73968 5.82224L4.5625 7.06251L5 7.50006L4.5 8.00006L4.12498 7.62504L3.5 7.83337V10.0001L4 10.5001L3.5 11.0001V12.1667L4 12L6 13L6.5 12.8V10.0001L6 9.50006L6.5 9.00006V3.87939C5.94923 4.3837 5.34119 5.06608 4.73968 5.82224Z" fill="#4F5358"/>
<path d="M4.73968 5.82227C4.31577 6.35518 3.89509 6.92473 3.5 7.4944V7.83339L4.12498 7.62507L4 7.50009L4.50003 7.00006L4.5625 7.06254L4.73968 5.82227Z" fill="#4F5358"/>
<path d="M8.5 3.14374C8.31545 3.05043 8.14734 3 8 3C7.85346 3 7.68528 3.04989 7.5 3.14224V4.00003L8 4.50003L7.5 5.00003V6.00003L8 6.50003L7.5 7.00003V11L8 11.5L7.5 12V12.4L8.5 12V9.00003L8 8.50003L8.5 8.00003V3.14374Z" fill="#4F5358"/>
<path d="M9.5 3.89508C9.13615 3.5546 8.79681 3.29362 8.5 3.14355V7.99985L9 8.49985L8.5 8.99985V11.9998L9.5 12.9998V7.99985L9 7.49985L9.5 6.99984V5.99984L9 5.49984L9.5 4.99984V3.89508Z" fill="#4F5358"/>
<path d="M10 13.5002L9.5 13.0002V8.00027L10 7.50027L9.5 7.00027V6.00027L10 5.50027L9.5 5.00027V3.89551C9.81858 4.19363 10.1559 4.55269 10.5 4.95163V9.00027L10 9.50027L10.5 10.0003V11.0003L10 11.5003L10.5 12.0003V13.0002L10 13.5002Z" fill="#4F5358"/>
<path d="M11.5 6.19392C11.1676 5.75548 10.8307 5.33515 10.5 4.95166V9.0003L11 9.5003L10.5 10.0003V11.0003L11 11.5003L10.5 12.0003V13.0002L11.5 12.0001V9.0003L11 8.5003L11.5 8.0003V6.19392Z" fill="#4F5358"/>
<path d="M12.5 7.58481C12.1793 7.11558 11.8421 6.64512 11.5 6.19385V8.00023L12 8.50023L11.5 9.00023V12L12.5 12.2501V12.0002L12 11.5002L12.5 11.0002V7.58481Z" fill="#4F5358"/>
<path d="M13.5 9.12983C13.1985 8.63546 12.8597 8.11074 12.5 7.58447V10.9999L13 11.4999L12.5 11.9999V12.2498L13.5 12.4999V10.9999L13 10.4999L13.5 9.99989V9.12983Z" fill="#4F5358"/>
<path d="M13.5 12.5L15 11.9998C15 11.9998 14.7736 11.4904 14.3882 10.7141C14.1632 10.2609 13.8579 9.71683 13.5 9.12994V10L14 10.5L13.5 11V12.5Z" fill="#4F5358"/>
</svg>
