<svg width="16" height="16" viewBox="0 0 16 16" fill="none" xmlns="http://www.w3.org/2000/svg">
<path d="M0 15V16H16V15H0Z" fill="#4F5358"/>
<path d="M4 12H6V14H4V12Z" fill="#4F5358"/>
<path d="M1 13H3V14H1V13Z" fill="#4F5358"/>
<path d="M7 11H9V14H7V11Z" fill="#4F5358"/>
<path d="M10 11H12V14H10V11Z" fill="#4F5358"/>
<path d="M13 8H15V14H13V8Z" fill="#4F5358"/>
<path d="M15 2H9.80732L11.5 3.5C9.02513 5.97487 6.53553 8.09208 3 5.97076C6.53553 9.50629 8.90381 10.0962 13.5 5.5L15 7V2Z" fill="#4F5358"/>
<path d="M8.55069 5.40086L6 2L3.31692 5.57744C3.46757 5.66599 3.6157 5.74606 3.76146 5.81805L6 2.83333L8.12407 5.66536C8.26706 5.58335 8.40918 5.49499 8.55069 5.40086Z" fill="#4F5358"/>
<path d="M3.45668 6.22443C3.31131 6.15023 3.16415 6.06879 3.01514 5.97981L3.01254 5.98328C3.13391 6.10451 3.25391 6.22226 3.37267 6.33643L3.45668 6.22443Z" fill="#4F5358"/>
<path d="M3.07042 6.73944L1.00001 9.49999L11 9.49986L10.3417 8.6222C10.4871 8.54646 10.6337 8.46421 10.7817 8.37545L12 9.99985L0 10L2.70957 6.38724C2.83058 6.50754 2.95082 6.625 3.07042 6.73944Z" fill="#4F5358"/>
</svg>
