<svg width="16" height="16" viewBox="0 0 16 16" fill="none" xmlns="http://www.w3.org/2000/svg">
<mask id="path-1-inside-1_1249_52" fill="white">
<path d="M5 3C2.63307 3 0 8 0 8L3.6511 7.99997C4.92666 6.4316 6.50143 5 8 5C9.3567 5 10.9179 6.43157 12.2212 7.99991L16 7.99989C16 7.99989 12.2857 2 9.5 2C8.46586 2 7.39264 2.67772 6.42342 3.57762C5.93953 3.22419 5.45375 3 5 3Z"/>
</mask>
<path d="M5 3C2.63307 3 0 8 0 8L3.6511 7.99997C4.92666 6.4316 6.50143 5 8 5C9.3567 5 10.9179 6.43157 12.2212 7.99991L16 7.99989C16 7.99989 12.2857 2 9.5 2C8.46586 2 7.39264 2.67772 6.42342 3.57762C5.93953 3.22419 5.45375 3 5 3Z" fill="#4F5358"/>
<path d="M0 8L-0.442405 7.76702L-0.828403 8.50001L3.52623e-06 8.5L0 8ZM3.6511 7.99997L3.6511 8.49997L3.88893 8.49997L4.039 8.31546L3.6511 7.99997ZM12.2212 7.99991L11.8366 8.31948L11.9866 8.49991L12.2212 8.49991L12.2212 7.99991ZM16 7.99989L16 8.49989L16.8976 8.49988L16.4251 7.73671L16 7.99989ZM6.42342 3.57762L6.12852 3.98139L6.46147 4.22457L6.76363 3.94403L6.42342 3.57762ZM0 8C0.442405 8.23298 0.442373 8.23304 0.442351 8.23308C0.442356 8.23307 0.442344 8.23309 0.442356 8.23307C0.442379 8.23302 0.442443 8.2329 0.442545 8.23271C0.442751 8.23232 0.443115 8.23163 0.443636 8.23065C0.444678 8.22869 0.446348 8.22554 0.448634 8.22126C0.453207 8.21271 0.460246 8.19959 0.469661 8.18224C0.488493 8.14751 0.516821 8.09583 0.553936 8.0296C0.628196 7.89709 0.737468 7.70668 0.876103 7.47773C1.15397 7.01884 1.54694 6.40982 2.00985 5.80337C2.47499 5.194 2.9984 4.60361 3.53458 4.17005C4.08067 3.72848 4.5779 3.5 5 3.5V2.5C4.23863 2.5 3.51913 2.89652 2.90582 3.39245C2.28259 3.89639 1.70395 4.556 1.21495 5.19663C0.723721 5.84018 0.310499 6.48116 0.0206967 6.95977C-0.124502 7.19957 -0.239429 7.39978 -0.318411 7.54071C-0.357917 7.6112 -0.38847 7.66694 -0.409364 7.70546C-0.419812 7.72472 -0.427848 7.73969 -0.433383 7.75005C-0.436151 7.75523 -0.438294 7.75926 -0.439801 7.7621C-0.440555 7.76352 -0.44115 7.76465 -0.441584 7.76547C-0.441801 7.76588 -0.441978 7.76621 -0.442115 7.76647C-0.442184 7.7666 -0.442256 7.76674 -0.44229 7.76681C-0.442353 7.76692 -0.442405 7.76702 0 8ZM3.65109 7.49997L-3.52623e-06 7.5L3.52623e-06 8.5L3.6511 8.49997L3.65109 7.49997ZM4.039 8.31546C4.6633 7.54785 5.34649 6.83211 6.04144 6.31221C6.74311 5.78728 7.406 5.5 8 5.5V4.5C7.09543 4.5 6.22166 4.92852 5.44241 5.51149C4.65643 6.09948 3.91446 6.88373 3.26319 7.68449L4.039 8.31546ZM8 5.5C8.51308 5.5 9.13347 5.77758 9.82649 6.30869C10.5077 6.83078 11.1968 7.54947 11.8366 8.31948L12.6058 7.68035C11.9423 6.88201 11.1991 6.10075 10.4348 5.51497C9.68218 4.9382 8.84362 4.5 8 4.5V5.5ZM16 7.49989L12.2212 7.49991L12.2212 8.49991L16 8.49989L16 7.49989ZM9.5 2.5C10.0302 2.5 10.6753 2.79353 11.3883 3.33553C12.0879 3.86739 12.7869 4.58743 13.4139 5.32403C14.0387 6.05802 14.58 6.79421 14.9658 7.34815C15.1584 7.62471 15.3115 7.85483 15.4162 8.01523C15.4685 8.09541 15.5086 8.1581 15.5354 8.20039C15.5488 8.22154 15.5589 8.23758 15.5656 8.24815C15.5689 8.25343 15.5713 8.25735 15.5729 8.25985C15.5736 8.2611 15.5742 8.262 15.5745 8.26254C15.5747 8.2628 15.5748 8.26298 15.5749 8.26307C15.5749 8.26312 15.5749 8.26312 15.5749 8.26314C15.5749 8.26311 15.5749 8.26307 16 7.99989C16.4251 7.73671 16.4251 7.73661 16.425 7.7365C16.425 7.73643 16.4249 7.73629 16.4248 7.73615C16.4246 7.73588 16.4244 7.73551 16.4241 7.73505C16.4235 7.73414 16.4227 7.73286 16.4217 7.73123C16.4197 7.72796 16.4168 7.72327 16.413 7.7172C16.4054 7.70507 16.3943 7.68742 16.3798 7.66462C16.3509 7.61902 16.3085 7.55281 16.2538 7.46893C16.1444 7.30121 15.9856 7.06259 15.7864 6.77665C15.3887 6.20562 14.8274 5.44184 14.1754 4.67585C13.5256 3.91248 12.7737 3.13255 11.9934 2.53943C11.2265 1.95646 10.3626 1.5 9.5 1.5V2.5ZM6.76363 3.94403C7.71532 3.06041 8.66647 2.5 9.5 2.5V1.5C8.26525 1.5 7.06997 2.29503 6.08322 3.2112L6.76363 3.94403ZM5 3.5C5.29742 3.5 5.67789 3.65225 6.12852 3.98139L6.71833 3.17385C6.20117 2.79612 5.61008 2.5 5 2.5V3.5Z" fill="#4F5358" mask="url(#path-1-inside-1_1249_52)"/>
<path fill-rule="evenodd" clip-rule="evenodd" d="M1.57123 11C1.20863 11.6038 1 12 1 12L15 11.9999C15 11.9999 14.7736 11.6037 14.3882 10.9999C13.1534 9.06551 10.2863 5 8 5C5.47461 5 2.73283 9.0656 1.57123 11ZM2.74504 11L13.1946 10.9999C12.8202 10.4372 12.3559 9.77607 11.8387 9.11776C11.172 8.26932 10.4416 7.4569 9.72367 6.86567C8.97403 6.24833 8.39105 6 8 6C7.51084 6 6.88139 6.26946 6.13705 6.87134C5.41251 7.45721 4.69629 8.263 4.05225 9.10675C3.54636 9.76952 3.10019 10.4355 2.74504 11Z" fill="#4F5358"/>
</svg>
