<svg width="16" height="16" viewBox="0 0 16 16" fill="none" xmlns="http://www.w3.org/2000/svg">
<path d="M3 0V1L1 1L1 3H0V0H3Z" fill="#4F5358"/>
<path d="M3 16V15H1L1 13H0V16H3Z" fill="#4F5358"/>
<path d="M13 1V0H16V3H15V1L13 1Z" fill="#4F5358"/>
<path d="M0 8C0 8 2.63307 3 5 3C5.45375 3 5.93953 3.22419 6.42342 3.57762C7.39264 2.67772 8.46586 2 9.5 2C12.2857 2 16 7.99989 16 7.99989L12.2212 7.99991C12.2212 7.99988 12.2212 7.99994 12.2212 7.99991L10.8968 8C10.5103 7.57614 10.1151 7.18803 9.72367 6.86567C8.97403 6.24833 8.39105 6 8 6C7.51084 6 6.88139 6.26946 6.13705 6.87134C5.41251 7.45721 4.69629 8.263 4.05225 9.10675C3.54636 9.76952 3.10019 10.4355 2.74504 11L8 10.9999V11.9999L1 12C1 12 1.20863 11.6038 1.57123 11C2.04354 10.2135 2.77708 9.07462 3.6511 7.99997L0 8Z" fill="#4F5358"/>
<path d="M15 15H9V9L14.0858 9.00003L14.2929 8.79289C14.6834 8.40237 15.3166 8.40237 15.7071 8.79289C15.9022 8.98798 15.9998 9.24362 16 9.49931V9.00003C16 8.44775 15.5523 8.00004 15 8.00003L9 8C8.44772 8 8 8.44772 8 9V15C8 15.5523 8.44772 16 9 16H15C15.5523 16 16 15.5523 16 15V9.50069C15.9998 9.75638 15.9022 10.012 15.7071 10.2071L15 10.9142V15Z" fill="#4F5358"/>
<path d="M15.3536 9.85355C15.5488 9.65829 15.5488 9.34171 15.3536 9.14645C15.1583 8.95118 14.8417 8.95118 14.6464 9.14645L11.5541 12.2388L10.4 10.7C10.2343 10.4791 9.92094 10.4343 9.70003 10.6C9.47912 10.7657 9.43434 11.0791 9.60003 11.3L11.0946 13.2928C11.1035 13.3051 11.1131 13.3171 11.1232 13.3287C11.1637 13.3753 11.2113 13.4126 11.2631 13.4405C11.4012 13.5146 11.5695 13.5209 11.7147 13.4517C11.7492 13.4353 11.7822 13.4147 11.813 13.39C11.8302 13.3762 11.8463 13.3614 11.8612 13.3459L15.3536 9.85355Z" fill="#4F5358"/>
</svg>
