<svg width="16" height="16" viewBox="0 0 16 16" fill="none" xmlns="http://www.w3.org/2000/svg">
<path fill-rule="evenodd" clip-rule="evenodd" d="M15.5 7.5V10.5C15.5 10.7343 15.3372 10.9373 15.1085 10.9881L10.6085 11.9881C10.5102 12.0099 10.4077 12.0016 10.3143 11.9642L8.5 11.2385V13.5C8.5 13.6894 8.393 13.8625 8.22361 13.9472L5.22361 15.4472C5.08284 15.5176 4.91716 15.5176 4.77639 15.4472L0.776393 13.4472C0.607001 13.3625 0.5 13.1894 0.5 13V10H1.5V12.691L5 14.441L7.5 13.191V10.5C7.5 10.3341 7.5823 10.179 7.71969 10.086C7.85707 9.99295 8.03165 9.97414 8.1857 10.0358L10.5423 10.9784L14.5 10.0989V7.5H15.5Z" fill="#4F5358"/>
<path d="M12.4949 0.929291C12.4744 0.785608 12.3925 0.657934 12.2704 0.579436C12.1483 0.500939 11.9981 0.479365 11.8589 0.520319L3.35888 3.02032C3.20954 3.06424 3.08918 3.17522 3.03329 3.32051L0.533295 9.82051C0.440862 10.0608 0.546057 10.3321 0.776361 10.4472L4.77636 12.4472C4.91712 12.5176 5.08281 12.5176 5.22357 12.4472L8.22357 10.9472C8.39297 10.8625 8.49997 10.6894 8.49997 10.5C8.49997 10.3106 8.39297 10.1375 8.22357 10.0528L6.118 9H4.49997C4.49997 9.18939 4.60697 9.36252 4.77636 9.44722L6.88193 10.5L4.99997 11.441L1.6296 9.7558L3.87798 3.91L11.5867 1.64273L12.005 4.57071C12.0181 4.66251 12.0565 4.74886 12.1159 4.82009L14.0907 7.18987L10.5423 7.97841L8.18566 7.03576C8.12595 7.01188 8.06292 7.00001 8 7V8.059L8.02275 8.04763L10.3143 8.96424C10.4077 9.00161 10.5102 9.00992 10.6084 8.9881L15.1084 7.9881C15.2787 7.95026 15.4169 7.82646 15.4732 7.66141C15.5295 7.49635 15.4957 7.31388 15.3841 7.17991L12.9749 4.28888L12.4949 0.929291Z" fill="#4F5358"/>
<path d="M8.00003 8.059L6.11803 9H4.5C4.5 8.81061 4.607 8.63748 4.77639 8.55279L7.77639 7.05279C7.84661 7.01768 7.92324 7 8.00003 7V8.059Z" fill="#4F5358"/>
</svg>
