<svg width="16" height="16" viewBox="0 0 16 16" fill="none" xmlns="http://www.w3.org/2000/svg">
<path d="M2 0H2.5V1H2V0Z" fill="#4F5358"/>
<path d="M4 0H4.5V1H4V0Z" fill="#4F5358"/>
<path d="M6 0H6.5V1H6V0Z" fill="#4F5358"/>
<path d="M8 0H8.5V1H8V0Z" fill="#4F5358"/>
<path d="M10 0H10.5V1H10V0Z" fill="#4F5358"/>
<path d="M12 0H12.5V1H12V0Z" fill="#4F5358"/>
<path d="M14 0H14.5V1H14V0Z" fill="#4F5358"/>
<path d="M15.5 0H16V10L15.5 9.5V0Z" fill="#4F5358"/>
<path d="M4.27304 3.29286C4.11293 3.33577 3.95122 3.22831 3.82541 3.12038C3.73796 3.04534 3.62427 3 3.5 3C3.22386 3 3 3.22386 3 3.5C3 3.77614 3.22386 4 3.5 4C4.32843 4 5 4.67157 5 5.5C5 6.32843 4.27767 7 3.44924 7C2.86093 7 2.35172 6.66131 2.10596 6.16827C2.03208 6.02006 2.12962 5.85359 2.28959 5.81073L2.6762 5.70714C2.83631 5.66423 2.99803 5.77169 3.12383 5.87962C3.21129 5.95466 3.32497 6 3.44924 6C3.72539 6 4 5.77614 4 5.5C4 5.22386 3.77614 5 3.5 5C2.67157 5 2 4.32843 2 3.5C2 2.67157 2.67157 2 3.5 2C4.08831 2 4.59752 2.33869 4.84328 2.83173C4.91716 2.97994 4.81962 3.14641 4.65965 3.18927L4.27304 3.29286Z" fill="#4F5358"/>
<path d="M0.5 0H0V10.9543C0.125147 10.8379 0.265951 10.7343 0.421499 10.6468L0.5 10.6028V0Z" fill="#4F5358"/>
<path d="M16 14.9999V10.5845C15.1777 9.68117 14.2942 9 13.5 9C10.8964 9 8 15 8 15L16 14.9999Z" fill="#4F5358"/>
<path fill-rule="evenodd" clip-rule="evenodd" d="M1.50024 13.564C1.77639 13.564 2.00024 13.3401 2.00024 13.064C2.00024 12.7878 1.77639 12.564 1.50024 12.564C1.2241 12.564 1.00024 12.7878 1.00024 13.064C1.00024 13.3401 1.2241 13.564 1.50024 13.564ZM1.50024 14.564C2.32867 14.564 3.00024 13.8924 3.00024 13.064C3.00024 12.2355 2.32867 11.564 1.50024 11.564C0.671817 11.564 0.000244141 12.2355 0.000244141 13.064C0.000244141 13.8924 0.671817 14.564 1.50024 14.564Z" fill="#4F5358"/>
<path fill-rule="evenodd" clip-rule="evenodd" d="M4.50049 14.564C4.77663 14.564 5.00049 14.3401 5.00049 14.064C5.00049 13.7878 4.77663 13.564 4.50049 13.564C4.22435 13.564 4.00049 13.7878 4.00049 14.064C4.00049 14.3401 4.22435 14.564 4.50049 14.564ZM4.50049 15.564C5.32892 15.564 6.00049 14.8924 6.00049 14.064C6.00049 13.2355 5.32892 12.564 4.50049 12.564C3.67206 12.564 3.00049 13.2355 3.00049 14.064C3.00049 14.8924 3.67206 15.564 4.50049 15.564Z" fill="#4F5358"/>
<path fill-rule="evenodd" clip-rule="evenodd" d="M3.50049 11.564C3.77663 11.564 4.00049 11.3401 4.00049 11.064C4.00049 10.7878 3.77663 10.564 3.50049 10.564C3.22435 10.564 3.00049 10.7878 3.00049 11.064C3.00049 11.3401 3.22435 11.564 3.50049 11.564ZM3.50049 12.564C4.32892 12.564 5.00049 11.8924 5.00049 11.064C5.00049 10.2355 4.32892 9.56396 3.50049 9.56396C2.67206 9.56396 2.00049 10.2355 2.00049 11.064C2.00049 11.8924 2.67206 12.564 3.50049 12.564Z" fill="#4F5358"/>
<path d="M3.00024 10.5029L0.764875 11.7569C0.042837 12.163 -0.213243 13.0776 0.192903 13.7996C0.598855 14.5213 1.51275 14.7775 2.23463 14.3722L7.35472 11.5001H5.3107L1.74437 13.5006C1.50385 13.6351 1.19967 13.5497 1.06448 13.3093C0.929096 13.0687 1.01446 12.7638 1.25513 12.6284L3.26667 11.5001H3.00024V10.5029Z" fill="#4F5358"/>
<path d="M3.36246 7.59814C3.39125 7.59931 3.42019 7.5999 3.44927 7.5999C4.58294 7.5999 5.60002 6.68524 5.60002 5.4999C5.60002 5.24884 5.55596 5.00806 5.47516 4.78488C6.43075 3.76285 7.48423 3 8.50001 3C10.4936 3 12.9628 6.58497 14.2058 8.62378C13.9764 8.54557 13.7401 8.49999 13.4999 8.49999C12.9987 8.49999 12.5153 8.6706 12.0646 8.93422C12.0476 8.95506 12.0262 8.9769 12 9C11.7852 9.18948 11.7749 9.19859 11.7691 9.21002C11.7628 9.2226 11.762 9.23797 11.5 9.5L4.25641 13.6278L4.25538 13.6284C4.0147 13.7637 3.92934 14.0686 4.06472 14.3093C4.19991 14.5496 4.50409 14.6351 4.74461 14.5005L8.64402 12.3132C8.41702 12.6825 8.21877 13.0266 8.05601 13.3198C7.90386 13.594 7.78211 13.8247 7.69621 13.9914L5.23487 15.3721C4.51299 15.7774 3.5991 15.5212 3.19315 14.7995C2.787 14.0775 3.04308 13.1629 3.76512 12.7568L10.7015 8.86583C11.2922 8.29117 11.8331 7.59211 11.5 7C10.9588 6.0378 8.72827 6.21611 7.7658 6.75641L2.00635 9.98715C2.06848 9.86152 2.58358 8.83097 3.36246 7.59814Z" fill="#4F5358"/>
<path fill-rule="evenodd" clip-rule="evenodd" d="M9.46236 6L2.76512 9.75679C2.04308 10.1629 1.787 11.0775 2.19315 11.7995C2.5991 12.5212 3.51299 12.7774 4.23487 12.3721L11.48 8.30795L11.4811 8.30737C12.2031 7.90122 12.4592 6.98665 12.053 6.26461C11.9986 6.16788 11.9351 6.07952 11.8641 6H9.46236ZM10.9896 7.43645L10.9908 7.43579C11.2315 7.30041 11.3168 6.99555 11.1815 6.75488C11.0463 6.51454 10.7421 6.42908 10.5016 6.56364L3.25641 10.6278L7 9.5L3.25538 10.6284C3.0147 10.7637 2.92934 11.0686 3.06472 11.3093C3.19991 11.5496 3.50409 11.6351 3.74461 11.5005L10.9896 7.43645Z" fill="#4F5358"/>
</svg>
