<svg width="16" height="16" viewBox="0 0 16 16" fill="none" xmlns="http://www.w3.org/2000/svg">
<path d="M7 6H8V9H9V10H8V11H9V12H8V13H7V12H6V11H7V10H6V9H7V6Z" fill="#4F5358"/>
<path d="M10 3.00001V4H11V3.00001C11 2.44773 10.5523 2.00001 10 2.00001L6 2C5.44771 2 5 2.44772 5 3V4H6V3L10 3.00001Z" fill="#4F5358"/>
<path d="M8 4.00002L3 4C1.89543 4 1 4.89543 1 6V13C1 14.1046 1.89543 15 3 15H8V14H3C2.44772 14 2 13.5523 2 13V6C2 5.44772 2.44771 5 3 5L8 5.00002V4.00002Z" fill="#4F5358"/>
<path d="M8 4.00002L13 4C14.1046 4 15 4.89543 15 6V13C15 14.1046 14.1046 15 13 15H8V14H13C13.5523 14 14 13.5523 14 13V6C14 5.44772 13.5523 5 13 5L8 5.00002V4.00002Z" fill="#4F5358"/>
<path d="M8 10H9C10.1046 10 11 9.10457 11 8C11 6.89543 10.1046 6 9 6H8V7H9C9.55228 7 10 7.44772 10 8C10 8.55228 9.55228 9 9 9H8V10Z" fill="#4F5358"/>
</svg>
