<svg width="16" height="16" viewBox="0 0 16 16" fill="none" xmlns="http://www.w3.org/2000/svg">
<path d="M10.3406 8.74519C9.74942 8.13167 8.91928 7.75 8 7.75C6.20507 7.75 4.75 9.20507 4.75 11C4.75 12.7949 6.20507 14.25 8 14.25C9.79493 14.25 11.25 12.7949 11.25 11C11.25 10.892 11.2447 10.7851 11.2344 10.6798L10.7449 11.1693C10.6574 12.6093 9.46192 13.75 8 13.75C6.48122 13.75 5.25 12.5188 5.25 11C5.25 9.48122 6.48122 8.25 8 8.25C8.78121 8.25 9.48634 8.57575 9.98697 9.09882L10.3406 8.74519Z" fill="#4F5358"/>
<path d="M12.3536 8.85355C12.5488 8.65829 12.5488 8.34171 12.3536 8.14645C12.1583 7.95118 11.8417 7.95118 11.6464 8.14645L8.5541 11.2388L7.40003 9.70003C7.23434 9.47912 6.92094 9.43434 6.70003 9.60003C6.47912 9.76571 6.43434 10.0791 6.60003 10.3L8.09462 12.2928C8.10353 12.3051 8.11305 12.3171 8.12321 12.3287C8.16372 12.3753 8.21129 12.4126 8.26311 12.4405C8.31702 12.4695 8.37515 12.4879 8.4344 12.4957C8.52833 12.5081 8.62583 12.4941 8.7147 12.4517C8.74919 12.4353 8.7822 12.4147 8.81296 12.39C8.83021 12.3762 8.84631 12.3614 8.86124 12.3459L12.3536 8.85355Z" fill="#4F5358"/>
<path d="M5 3H11V3.5H5V3Z" fill="#4F5358"/>
<path d="M5 5H11V5.5H5V5Z" fill="#4F5358"/>
<path d="M8 15H3V0.999999L8 1.00004V4.87434e-05L2 0V16H8V15Z" fill="#4F5358"/>
<path d="M8 15H13V0.999999L8 1.00004V4.87434e-05L14 0V16H8V15Z" fill="#4F5358"/>
</svg>
