<svg width="16" height="16" viewBox="0 0 16 16" fill="none" xmlns="http://www.w3.org/2000/svg">
<path d="M4 4H9V4.5H4V4Z" fill="#4F5358"/>
<path d="M4 6L9 6V6.5H4V6Z" fill="#4F5358"/>
<path d="M15.2107 7.196C15.5992 6.80746 15.5992 6.17751 15.2107 5.78896C14.8221 5.40042 14.1922 5.40042 13.8037 5.78897L7.99963 11.593L6.99963 14L9.40667 13L15.2107 7.196Z" fill="#4F5358"/>
<path d="M6.66594 13.5H4V14H6.49963C6.49962 13.9354 6.51214 13.8702 6.53791 13.8082L6.66594 13.5Z" fill="#4F5358"/>
<path d="M2 16H15V8.1138L14 9.1138V15H3V1H10.9341L11 1.06492V4H13.9809L14 4.01876V5.08585C14.3224 4.96985 14.6767 4.96815 15 5.08076V3.6L11.3438 0H2V16Z" fill="#4F5358"/>
<path fill-rule="evenodd" clip-rule="evenodd" d="M12 12.25C11.5858 12.25 11.25 12.5858 11.25 13C11.25 13.4142 11.5858 13.75 12 13.75C12.4142 13.75 12.75 13.4142 12.75 13C12.75 12.5858 12.4142 12.25 12 12.25ZM10.75 13C10.75 12.3096 11.3096 11.75 12 11.75C12.6904 11.75 13.25 12.3096 13.25 13C13.25 13.6904 12.6904 14.25 12 14.25C11.3096 14.25 10.75 13.6904 10.75 13Z" fill="#4F5358"/>
</svg>
