<svg width="16" height="16" viewBox="0 0 16 16" fill="none" xmlns="http://www.w3.org/2000/svg">
<path fill-rule="evenodd" clip-rule="evenodd" d="M9.51699e-07 4L11 4L11 2.5C11 1.11926 12.1191 -5.29745e-07 13.5 -5.90104e-07C14.8809 -6.50463e-07 16 1.11926 16 2.5L16 13.5C16 14.8807 14.8809 16 13.5 16L0 16L-4.37113e-08 15L13.5 15C14.3286 15 15 14.3284 15 13.5C15 12.6716 14.3286 12 13.5 12C12.8467 12 12.2915 12.4174 12.0855 13L11 13L11 5L9.9541e-07 5L9.51699e-07 4ZM12 11.4998L12 2.5C12 1.67163 12.6714 0.999999 13.5 0.999999C14.3286 0.999999 15 1.67163 15 2.5L15 11.4998C14.7803 11.3348 14.5327 11.2052 14.2656 11.1193C14.0244 11.0417 13.7671 11 13.5 11C12.937 11 12.418 11.1859 12 11.4998Z" fill="#4F5358"/>
<path d="M1 15L0.999999 5L1.98418e-08 5L8.9407e-07 15L1 15Z" fill="#4F5358"/>
<path d="M10.2111 7.69844C10.5996 7.3099 10.5996 6.67995 10.2111 6.29141C9.82251 5.90286 9.19256 5.90287 8.80402 6.29141L3 12.0954L2 14.5024L4.40703 13.5025L10.2111 7.69844Z" fill="#4F5358"/>
<path d="M3.07283 11.3155L4.51411 9.87423C4.20744 9.70342 4 9.37593 4 9C4 8.44772 4.44772 8 5 8C5.37593 8 5.70342 8.20744 5.87423 8.51411L7.31548 7.07285L6.80918 6.56648L6.29233 7.0834C6.14929 7.22646 5.93534 7.24762 5.7582 7.17399C5.58192 7.10073 5.44152 6.93384 5.44152 6.73091V6H4.55848V6.73091C4.55848 6.93384 4.41808 7.10073 4.2418 7.17399C4.06466 7.24762 3.85071 7.22646 3.70767 7.0834L3.19082 6.56648L2.56649 7.19088L3.08347 7.70789C3.22645 7.85088 3.24758 8.06473 3.17396 8.24177C3.10066 8.41804 2.93378 8.55848 2.73081 8.55848H2V9.44152H2.73081C2.93378 9.44152 3.10066 9.58196 3.17396 9.75823C3.24758 9.93527 3.22645 10.1491 3.08347 10.2921L2.56649 10.8091L3.07283 11.3155Z" fill="#4F5358"/>
<path d="M5.11661 13.5H10V13H5.61661L5.11661 13.5Z" fill="#4F5358"/>
<path d="M7.11661 11.5H10V11H7.61661L7.11661 11.5Z" fill="#4F5358"/>
</svg>
