<svg width="16" height="16" viewBox="0 0 16 16" fill="none" xmlns="http://www.w3.org/2000/svg">
<path fill-rule="evenodd" clip-rule="evenodd" d="M15 16H2V0H11.3438L15 3.6V16ZM11 1.06492L10.9341 1H3V15H14V4.01876L13.9809 4H11V1.06492Z" fill="#4F5358"/>
<path fill-rule="evenodd" clip-rule="evenodd" d="M7.31253 4.70312L9.50003 6.10313L10.6875 5.34313L13.4638 7.11994L8.50003 10.2968L3.53625 7.11994L7.31253 4.70312ZM4.46381 7.11994L8.50003 9.70312L12.5363 7.11994L10.6875 5.93676L9.50003 6.69676L7.31253 5.29676L4.46381 7.11994Z" fill="#4F5358"/>
<path d="M3 12H8V12.5H3V12Z" fill="#4F5358"/>
<path d="M3 13.5H8V14H3V13.5Z" fill="#4F5358"/>
<path d="M8.5 12L8.5 15L8 15L8 12L8.5 12Z" fill="#4F5358"/>
<path fill-rule="evenodd" clip-rule="evenodd" d="M13.3536 10.6464C13.5488 10.8417 13.5488 11.1583 13.3536 11.3536L11.3536 13.3536C11.1583 13.5488 10.8417 13.5488 10.6464 13.3536L9.64645 12.3536C9.45118 12.1583 9.45118 11.8417 9.64645 11.6464C9.84171 11.4512 10.1583 11.4512 10.3536 11.6464L11 12.2929L12.6464 10.6464C12.8417 10.4512 13.1583 10.4512 13.3536 10.6464Z" fill="#4F5358"/>
</svg>
