<svg width="16" height="16" viewBox="0 0 16 16" fill="none" xmlns="http://www.w3.org/2000/svg">
<path fill-rule="evenodd" clip-rule="evenodd" d="M14.7143 15L14.1419 12.7462C13.7272 11.1134 13.2093 10.5455 12.7903 10.3026C12.3108 10.0245 11.7129 10 10.6667 10H5.33333C4.28712 10 3.68923 10.0245 3.20967 10.3026C2.7907 10.5455 2.27278 11.1134 1.85812 12.7462L1.28571 15H14.7143ZM15.1111 12.5C14.2222 9 12.6303 9 10.6667 9H5.33333C3.36965 9 1.77778 9 0.888889 12.5L0 16H16L15.1111 12.5Z" fill="white"/>
<path fill-rule="evenodd" clip-rule="evenodd" d="M8 8C9.41628 8 11 6.47386 11 3.6C11 2.26056 9.75857 1 8 1C6.24143 1 5 2.26056 5 3.6C5 6.47386 6.58372 8 8 8ZM8 9C10.2091 9 12 6.75 12 3.6C12 1.61177 10.2091 0 8 0C5.79086 0 4 1.61177 4 3.6C4 6.75 5.79086 9 8 9Z" fill="white"/>
</svg>
