<svg width="16" height="16" viewBox="0 0 16 16" fill="none" xmlns="http://www.w3.org/2000/svg">
<path fill-rule="evenodd" clip-rule="evenodd" d="M13.5912 4L13.6792 4.26667L13.9434 4.35556L13.4151 4.88889L13.5912 5.24444L13.7673 5.06667L14.0314 5.15556L14.1195 6.04444V6.66667L14.2956 6.93333L14.6478 7.37778L15 8.35556L14.3836 8L13.9434 7.55556V7.28889L13.7673 6.57778L13.5912 6.31111L13.327 6.75556L13.4151 7.46667L13.327 7.82222H13.1509L12.7107 8.35556L12.6226 9.6L13.0629 9.42222L13.5912 9.68889L13.8553 10.4V11.2V11.5556L13.4151 11.7333L13.239 11.4667L13.5031 11.2889L13.327 10.5778L12.9748 10.9333L12.1824 10.6667L11.7421 10.4L11.2138 10.6667L11.3899 10.8444L11.3019 11.4667L10.6855 11.5556L10.0692 11.7333H9.36478L8.83648 11.4667L8.74843 11.8222H8.30818L7.42767 12L6.98742 11.5556H6.54717L6.28302 10.8444L5.66667 10.5778L5.75472 10.3111L4.61006 10.2222L4.43396 10.4V10.7556L3.55346 10.3111L3.37736 9.95556L3.02516 10.0444L2.84906 9.77778L2.49686 10.0444V10.5778L2.0566 10.6667L1.7044 11.2L1 9.6H1.3522L1.79245 9.51111L1.96855 9.33333L1.8805 8.97778V8.53333L1.7044 8.17778L1.8805 8L2.0566 8.08889L2.14465 7.64444L2.32075 7.11111L2.84906 7.02222V6.84444H3.46541L3.99371 6.04444L4.34591 5.86667L4.61006 6.04444L4.78616 6.48889L4.52201 6.66667L4.34591 6.48889L4.08176 6.93333L4.16981 7.2L4.61006 7.02222V7.28889H4.87421L5.31447 7.2L5.49057 7.37778L5.84277 7.55556L6.10692 7.37778L6.45912 7.91111L6.54717 7.46667L6.89937 7.02222L7.60377 7.46667L7.51572 7.11111L8.66038 6.57778L8.92453 6.4L9.27673 6.66667L9.01258 7.28889L9.98113 6.93333V6.75556L10.6855 7.11111V6.75556L11.0377 6.66667L10.8616 6.4L11.3899 6.13333H11.7421L12.1824 5.86667L12.3585 5.51111L12.7107 5.33333L12.4465 5.06667L13.4151 4.26667L13.5912 4Z" fill="#4F5358"/>
<path d="M5.5 2.06287L5.44533 2.04464L1 3.26283V13.1891L5.5 11.9559V13.0088L5.47369 13L0 14.5V2.5L5.47368 1L5.5 1.00877V2.06287Z" fill="#4F5358"/>
<path d="M5.5 13L10.5264 14.6753L16 13.4912V1.49121L10.5264 2.67529L5.5 1V2.05371L10.47 3.71094L15 2.73047V12.6846L10.5826 13.6401L5.50208 11.9468L5.5 13Z" fill="#4F5358"/>
</svg>
