<svg width="16" height="16" viewBox="0 0 16 16" fill="none" xmlns="http://www.w3.org/2000/svg">
<path d="M12 16L16 14V12.5L9 16H12Z" fill="#4F5358"/>
<path d="M16 8.49985L8.97082 4.98526C8.52479 4.76225 8 5.08658 8 5.58526C8 5.83935 8.14356 6.07163 8.37082 6.18526L16 9.99985V8.49985Z" fill="#4F5358"/>
<ellipse cx="5.5" cy="3.5" rx="3.5" ry="1.5" fill="#4F5358"/>
<path d="M8 15.9999L14.4589 12.7704C15.7119 12.1439 15.7119 10.3558 14.4589 9.72932L6.97082 5.98526C6.52479 5.76225 6 6.08659 6 6.58526C6 6.83935 6.14356 7.07163 6.37082 7.18526L13.7845 10.8921C14.0793 11.0395 14.0793 11.4602 13.7845 11.6076L5 15.9999H8Z" fill="#4F5358"/>
<path d="M0.499999 10L0.5 14.5L-4.76896e-08 14.5L-5.96046e-07 10L0.499999 10Z" fill="#4F5358"/>
<path d="M0 12V12.5L2 14V13.5L4 12.5L6 14V13.5L8 12.5V12L6 13L4 12L2 13L0 12Z" fill="#4F5358"/>
<path d="M0 11V11.5L2 13V12.5L4 11.5L6 13V12.5L8 11.5V11L6 12L4 11L2 12L0 11Z" fill="#4F5358"/>
<path d="M0 10V10.5L2 12V11.5L4 10.5L6 12V11.5L8 10.5V10L6 11L4 10L2 11L0 10Z" fill="#4F5358"/>
<path d="M8 14.5V13L6 14L4 13L2 14L0 13V14.5L2 15.5L4 14.5L6 15.5L8 14.5Z" fill="#4F5358"/>
<path fill-rule="evenodd" clip-rule="evenodd" d="M12 6L16 8V4L12 6Z" fill="#4F5358"/>
<path d="M13.5 1.125L13 1.375V1.875L13.75 1.5L14.5 1.875V1.375L14 1.125L13.75 1L13.5 1.125Z" fill="#4F5358"/>
<path d="M13 1.375V1.875L9.5 3.625V3.675L11.5 4.875L16 2.625L14.5 1.875V1.375L16 2.125V2.625V3.875H15.5V3.375L15 3.625V4.375H14.5V3.875L14 4.125V4.875H13.5V4.375L13 4.625V5.375H12.5V4.875L12 5.125V5.875H11.5V5.375L9.5 4.175L9.5 4.375H9V3.375L13 1.375Z" fill="#4F5358"/>
<path d="M13 2.875H12.5V2.375H13V2.875Z" fill="#4F5358"/>
<path d="M14 2.875V3.375H13.5V2.875H14Z" fill="#4F5358"/>
<path d="M12 2.875V3.375H11.5V2.875H12Z" fill="#4F5358"/>
<path d="M13 3.875H12.5V3.375H13V3.875Z" fill="#4F5358"/>
<path d="M11 3.875H10.5V3.375H11V3.875Z" fill="#4F5358"/>
<path d="M12 3.875V4.375H11.5V3.875H12Z" fill="#4F5358"/>
<path d="M14 1.875V2.375H13.5V1.875H14Z" fill="#4F5358"/>
<path d="M15 2.875H14.5V2.375H15V2.875Z" fill="#4F5358"/>
<path d="M2 9V9.5L3 9V8.5L2 9Z" fill="#4F5358"/>
<path d="M4 8L8 10V10.5L4 8.5V8Z" fill="#4F5358"/>
<path d="M1 10V9.5L0 10V10.5L1 10Z" fill="#4F5358"/>
<path d="M2 5.5V4L0 3V4.5L2 5.5Z" fill="#4F5358"/>
<path d="M0.260867 1.13043C0.196808 1.38506 0.187754 1.64241 0.24915 1.89887C0.295789 2.09434 0.354076 2.23924 0.436522 2.37246C0.503697 2.48101 0.58533 2.57766 0.666456 2.67371L0.700994 2.71468C0.786601 2.81666 0.878077 2.90636 0.968277 2.98414L0 2.5V1L0.260867 1.13043Z" fill="#4F5358"/>
<path d="M3.80001 6.4502C3.71644 6.48158 3.61257 6.50018 3.5 6.50018C3.38744 6.50018 3.28358 6.48159 3.20001 6.4502V9.00038C3.20001 9.00475 3.20267 9.03319 3.2574 9.06967C3.31073 9.10522 3.39592 9.13371 3.50001 9.13371C3.60411 9.13371 3.6893 9.10522 3.74263 9.06967C3.79735 9.03319 3.80001 9.00475 3.80001 9.00038V6.4502Z" fill="#4F5358"/>
<path fill-rule="evenodd" clip-rule="evenodd" d="M3.24019 6.25C3.29775 6.22234 3.38905 6.2 3.5 6.2C3.61095 6.2 3.70225 6.22234 3.75981 6.25C3.70225 6.27766 3.61095 6.3 3.5 6.3C3.38905 6.3 3.29775 6.27766 3.24019 6.25ZM3.5 6.5C3.22386 6.5 3 6.38807 3 6.25C3 6.11193 3.22386 6 3.5 6C3.77614 6 4 6.11193 4 6.25C4 6.38807 3.77614 6.5 3.5 6.5Z" fill="#4F5358"/>
<path d="M1.53925 0.031702C1.69373 0.143894 2.15645 0.479935 2.32291 0.857042C2.48473 1.22364 2.53362 1.56801 2.44 1.87645C2.27174 2.43228 1.73383 2.85718 1.49995 3C1.49987 2.99995 1.50003 3.00005 1.49995 3C1.61699 2.90464 1.88545 2.62132 1.96954 2.25097C2.01634 2.04534 2.01815 1.86502 1.91099 1.57136C1.81568 1.31025 1.59226 1.09248 1.51797 1.02007C1.50873 1.01107 1.5018 1.00431 1.49771 1C1.43931 1.05478 1.22469 1.26551 1.11542 1.49948C0.996374 1.76018 0.979066 1.99159 1.02 2.21942C1.06079 2.44734 1.21491 2.68112 1.21491 2.68112C1.29634 2.80334 1.41826 2.93387 1.49821 2.99894C1.3385 2.90179 1.11675 2.74325 0.930741 2.52168C0.918554 2.50716 0.906706 2.49311 0.895182 2.47944C0.718022 2.26932 0.617526 2.15013 0.540934 1.82913C0.45906 1.48739 0.530563 1.12728 0.731774 0.749221C0.915872 0.40332 1.32397 0.119812 1.47058 0.0179591C1.48038 0.0111487 1.48902 0.00515032 1.49634 0C1.50474 0.00664186 1.51947 0.0173371 1.53925 0.031702Z" fill="#4F5358"/>
<path d="M1.79995 2.64941C1.69342 2.81897 1.56936 2.94292 1.49951 2.99978C1.41959 2.93508 1.29678 2.80379 1.21491 2.6809C1.21491 2.6809 1.2093 2.6724 1.19995 2.65706V9.99998C1.19995 10.0043 1.20261 10.0328 1.25734 10.0693C1.31067 10.1048 1.39586 10.1333 1.49995 10.1333C1.60404 10.1333 1.68924 10.1048 1.74256 10.0693C1.79729 10.0328 1.79995 10.0043 1.79995 9.99998V2.64941Z" fill="#4F5358"/>
<path d="M5.5 7.5C4.95029 7.5 4.4404 7.44231 4 7.34447V7.85565C4.45463 7.94821 4.9632 8 5.5 8C7.433 8 9 7.32843 9 6.5V3.5C9 3.78279 8.81741 4.0473 8.5 4.27305V6.5C8.5 6.53802 8.48414 6.61607 8.36908 6.73265C8.2519 6.85138 8.05755 6.98124 7.77791 7.10109C7.22043 7.34001 6.41541 7.5 5.5 7.5Z" fill="#4F5358"/>
<path d="M2.5 4.27305V6.5C2.5 6.53802 2.51586 6.61607 2.63092 6.73265C2.7141 6.81693 2.83616 6.90682 3 6.99475V7.54978C2.38141 7.27924 2 6.90871 2 6.5V3.5C2 3.78279 2.18259 4.0473 2.5 4.27305Z" fill="#4F5358"/>
</svg>
