<svg width="16" height="16" viewBox="0 0 16 16" fill="none" xmlns="http://www.w3.org/2000/svg">
<path d="M6.94958 6.46619L5 7.44098L0.730202 5.30608L1.34237 4.38783L1.55902 4.27951L1 4L0 5.5L5 8L9.7354 5.6323C9.76861 5.61322 9.80301 5.596 9.83847 5.58076L10 5.5L9 4L8.44098 4.27951L8.65763 4.38783L9.2698 5.30608L8.72678 5.57759C8.7105 5.68118 8.66187 5.77806 8.58638 5.85355L8.45809 5.98185C8.04745 6.39249 7.48197 6.55394 6.94958 6.46619Z" fill="#4F5358"/>
<path d="M5.54919 5.16639L5 5.44098L2.11803 4L5 2.55902L6.24179 3.17991L6.4998 2.7499L5 2L1 4L4.5 5.75V7.5L5 8L7.27508 6.48885C6.81765 6.49994 6.35666 6.33094 6.00757 5.98184C5.77725 5.75153 5.62258 5.46814 5.54919 5.16639Z" fill="#4F5358"/>
<path d="M8.1661 3.58305L7.65221 4.43953L8.53283 5.1C8.64879 5.18697 8.7213 5.31997 8.73157 5.46456C8.74185 5.60914 8.68888 5.75106 8.58638 5.85355L8.49189 5.94805L10 5.5L9 4L8.1661 3.58305Z" fill="#4F5358"/>
<path fill-rule="evenodd" clip-rule="evenodd" d="M12.2328 0H9.23275C9.18673 0 9.14215 0.00621929 9.09982 0.0178634C9.06097 0.00628918 9.01934 0 8.97551 0C8.82491 0 8.68535 0.0790173 8.60786 0.208158L6.30172 4.05172L6.23275 4L6.13012 4.20527C5.89282 4.67987 5.98584 5.25308 6.36105 5.62829C6.84248 6.10972 7.62303 6.10972 8.10446 5.62829L8.23276 5.5L6.99138 4.56897L9.13812 0.991057C9.16877 0.996927 9.2004 1 9.23275 1H12.0661L12.7328 3L10.7328 3.66667V6H10.2328C9.95661 6 9.73275 6.22386 9.73275 6.5C9.73275 6.77614 9.95661 7 10.2328 7H15.2328C15.5089 7 15.7328 6.77614 15.7328 6.5C15.7328 6.22386 15.5089 6 15.2328 6H15.9999V4H14.0661L12.8409 0.324342C12.7763 0.130648 12.595 0 12.3909 0C12.3641 0 12.3379 0.00217326 12.3126 0.0063342C12.2866 0.00216583 12.2599 0 12.2328 0ZM12.7328 3L13.0661 4H12.7328V3ZM12.4 3.63867V4.39993H11.1V4.07201L12.4 3.63867Z" fill="#4F5358"/>
<path d="M9.41783 9.42463L8 11L7.30245 11.8422L8.37809 12.38L10.4394 10.0242L11.5652 8.78261L12 9V11V11.2786L11.8516 11.3516L8.5 13L6.5 12L10 8L10.4828 8.24138L10.1219 8.61997L9.41783 9.42463Z" fill="#4F5358"/>
<path d="M14.882 11L11.2249 9.17149L11.5652 8.78261L16 11L8 15L0 11L8 7L10.4828 8.24138L10 8.5L8 7.55902V9L8.78261 9.3913L8.44234 9.78019L8 9.55902L3.11803 12L8 14.441L12.882 12L10.4423 10.7802L10.7826 10.3913L13.441 11.7205L14.882 11Z" fill="#4F5358"/>
</svg>
