<svg width="16" height="16" viewBox="0 0 16 16" fill="none" xmlns="http://www.w3.org/2000/svg">
<path fill-rule="evenodd" clip-rule="evenodd" d="M4 6V10H0V6H4ZM1 7V9H3V7H1Z" fill="white"/>
<path fill-rule="evenodd" clip-rule="evenodd" d="M4 11V15H0V11H4ZM1 12V14H3V12H1Z" fill="white"/>
<path fill-rule="evenodd" clip-rule="evenodd" d="M10 11V15H6V11H10ZM7 12V14H9V12H7Z" fill="white"/>
<path fill-rule="evenodd" clip-rule="evenodd" d="M10 6V10H6V6H10ZM7 7V9H9V7H7Z" fill="white"/>
<path fill-rule="evenodd" clip-rule="evenodd" d="M16 11V15H12V11H16ZM13 12V14H15V12H13Z" fill="white"/>
<path fill-rule="evenodd" clip-rule="evenodd" d="M4 1V5H0V1H4ZM1 2V4H3V2H1Z" fill="white"/>
</svg>
