<svg width="16" height="16" viewBox="0 0 16 16" fill="none" xmlns="http://www.w3.org/2000/svg">
<path fill-rule="evenodd" clip-rule="evenodd" d="M13 8V9H0V8H13ZM16 8V9H14V8H16Z" fill="white"/>
<path fill-rule="evenodd" clip-rule="evenodd" d="M4 14V15H0V14H4ZM16 14V15H5V14H16Z" fill="white"/>
<path fill-rule="evenodd" clip-rule="evenodd" d="M4 2V3H0V2H4ZM16 2V3H5V2H16Z" fill="white"/>
<path fill-rule="evenodd" clip-rule="evenodd" d="M6 0V4H3V0H6ZM4 1V3H5V1H4Z" fill="white"/>
<path fill-rule="evenodd" clip-rule="evenodd" d="M15 6V10H12V6H15ZM13 7V9H14V7H13Z" fill="white"/>
<path d="M6 16V12H3V16H6Z" fill="#0079C2"/>
<path fill-rule="evenodd" clip-rule="evenodd" d="M6 12V16H3V12H6ZM4 13V15H5V13H4Z" fill="white"/>
</svg>
