<svg width="16" height="16" viewBox="0 0 16 16" fill="none" xmlns="http://www.w3.org/2000/svg">
<path d="M3.27947 2.36035L2.72045 2.63986L5.44091 4.00009L3.88813 4.77648C3.80343 4.81883 3.74993 4.9054 3.74993 5.00009C3.74993 5.09478 3.80343 5.18135 3.88813 5.2237L6.72045 6.63986L7.27947 6.36035L4.55895 5.00009L6.11173 4.2237C6.19643 4.18135 6.24993 4.09478 6.24993 4.00009C6.24993 3.9054 6.19643 3.81883 6.11173 3.77648L3.27947 2.36035Z" fill="#4F5358"/>
<path d="M9.27942 6.63985L8.7204 6.36035L12.7204 4.36035L13.2794 4.63985L9.27942 6.63985Z" fill="#4F5358"/>
<path d="M6.7204 8.36034L4.99993 9.22058L3.27935 8.36029L2.72034 8.6398L4.88813 9.7237C4.95851 9.75889 5.04135 9.75889 5.11173 9.7237L7.27942 8.63985L6.7204 8.36034Z" fill="#4F5358"/>
<path d="M9.27947 8.36035L8.72045 8.63986L9.44091 9.00009L8.88813 9.27648C8.80343 9.31883 8.74993 9.4054 8.74993 9.50009C8.74993 9.59478 8.80343 9.68135 8.88813 9.7237L12.4409 11.5001L8.99993 13.2206L6.11172 11.7765C6.04134 11.7413 5.95852 11.7414 5.88815 11.7765L4.22061 12.6103L4.77963 12.8898L5.99996 12.2796L8.88813 13.7237C8.95851 13.7589 9.04135 13.7589 9.11173 13.7237L12.9999 11.7796L14.4409 12.5001L11.8881 13.7765C11.8034 13.8188 11.7499 13.9054 11.7499 14.0001C11.7499 14.0948 11.8034 14.1813 11.8881 14.2237L12.7204 14.6398L13.2794 14.3603L12.559 14.0001L15.1117 12.7237C15.1964 12.6813 15.2499 12.5948 15.2499 12.5001C15.2499 12.4054 15.1964 12.3188 15.1117 12.2765L9.55895 9.50009L10.1117 9.2237C10.1964 9.18135 10.2499 9.09478 10.2499 9.00009C10.2499 8.9054 10.1964 8.81883 10.1117 8.77648L9.27947 8.36035Z" fill="#4F5358"/>
<path d="M2 1.55902V1L0 2L2 3V2.44098L1.11803 2L2 1.55902Z" fill="#4F5358"/>
<path d="M14 3.55902V3L12 4L14 5V4.44098L13.118 4L14 3.55902Z" fill="#4F5358"/>
<path d="M14 14.559V14L12 15L14 16V15.441L13.118 15L14 14.559Z" fill="#4F5358"/>
<path d="M2 7.55902V7L0 8L2 9V8.44098L1.11803 8L2 7.55902Z" fill="#4F5358"/>
<path d="M2 1.55902V1L4 2L2 3V2.44098L2.88197 2L2 1.55902Z" fill="#4F5358"/>
<path d="M14 3.55902V3L16 4L14 5V4.44098L14.882 4L14 3.55902Z" fill="#4F5358"/>
<path d="M14 14.559V14L16 15L14 16V15.441L14.882 15L14 14.559Z" fill="#4F5358"/>
<path d="M2 7.55902V7L4 8L2 9V8.44098L2.88197 8L2 7.55902Z" fill="#4F5358"/>
<path d="M8 6L5 7.5L8 9V8.44098L6.11803 7.5L8 6.55902V6Z" fill="#4F5358"/>
<path d="M3 12L0 13.5L3 15V14.441L1.11803 13.5L3 12.559V12Z" fill="#4F5358"/>
<path d="M8 6L11 7.5L8 9V8.44098L9.88197 7.5L8 6.55902V6Z" fill="#4F5358"/>
<path d="M3 12L6 13.5L3 15V14.441L4.88197 13.5L3 12.559V12Z" fill="#4F5358"/>
</svg>
