<svg width="16" height="16" viewBox="0 0 16 16" fill="none" xmlns="http://www.w3.org/2000/svg">
<path d="M12.3396 11.7739L14.6023 9.51117C15.1221 8.99137 15.1449 8.07383 14.5316 7.46056C13.9184 6.84729 13.0008 6.87005 12.481 7.38985L11.8245 8.04635C11.4388 7.90424 11.0333 7.83079 10.6284 7.82826L11.7739 6.68275C12.7112 5.74549 14.2624 5.77715 15.2387 6.75346C16.215 7.72977 16.2467 9.28102 15.3094 10.2183L13.0467 12.481C12.1094 13.4183 10.5582 13.3866 9.58188 12.4103C9.4608 12.2892 9.35425 12.1593 9.26228 12.0228L9.991 11.2941C10.0644 11.4392 10.1634 11.5776 10.289 11.7032C10.9023 12.3165 11.8198 12.2937 12.3396 11.7739Z" fill="#4F5358"/>
<path d="M9.6526 10.2183L7.38985 12.481C6.87005 13.0008 6.84729 13.9184 7.46056 14.5316C8.07383 15.1449 8.99137 15.1221 9.51117 14.6023L10.1677 13.9458C10.5534 14.088 10.9589 14.1614 11.3638 14.1639L10.2183 15.3094C9.28102 16.2467 7.72977 16.215 6.75346 15.2387C5.77715 14.2624 5.74549 12.7112 6.68275 11.7739L8.94549 9.51117C9.88275 8.57392 11.434 8.60557 12.4103 9.58188C12.5314 9.70296 12.6379 9.83289 12.7299 9.96939L12.0012 10.6981C11.9278 10.553 11.8288 10.4146 11.7032 10.289C11.0899 9.67572 10.1724 9.69847 9.6526 10.2183Z" fill="#4F5358"/>
<path d="M10.9341 1L11 1.06492V4H13.9809L14 4.01876V5.04603C14.3438 5.1023 14.6814 5.20988 15 5.36735V3.6L11.3438 0H2V16H6.10167C6.08312 15.9822 6.06472 15.9642 6.04648 15.946C5.76361 15.6631 5.53665 15.3425 5.36735 15H3V1H10.9341Z" fill="#4F5358"/>
<path d="M11.9422 15L10.9422 16H15V11.9422L14 12.9422V15H11.9422Z" fill="#4F5358"/>
<path d="M4 3H10V3.5H4V3Z" fill="#4F5358"/>
<path d="M4 5H10V5.5H4V5Z" fill="#4F5358"/>
<path d="M4 7H10V7.5H4V7Z" fill="#4F5358"/>
</svg>
