<svg width="16" height="16" viewBox="0 0 16 16" fill="none" xmlns="http://www.w3.org/2000/svg">
<path fill-rule="evenodd" clip-rule="evenodd" d="M10.8872 1.96923L5.11278 0L0 1.56923V15.6L5.11278 14.0308L10.8872 16L16 14.4308V0.399998L10.8872 1.96923ZM15 1.75296L10.871 3.02025L5.09656 1.05102L1 2.30835V14.247L5.129 12.9797L10.9034 14.949L15 13.6917V1.75296Z" fill="#4F5358"/>
<path fill-rule="evenodd" clip-rule="evenodd" d="M7.66815 11.5L12.5646 12.8601L13.4446 4.5H7.5V9H2.5V11.5H7.66815ZM2 12V8.5H7V4H14L13 13.5L7.6 12H2Z" fill="#4F5358"/>
<path fill-rule="evenodd" clip-rule="evenodd" d="M4.75 1.46429V1H5.25V1.46429H4.75ZM4.75 3.32143V2.39286H5.25V3.32143H4.75ZM4.75 5.17857V4.25H5.25V5.17857H4.75ZM4.75 7.03571V6.10714H5.25V7.03571H4.75ZM4.75 8.89286V7.96428H5.25V8.89286H4.75ZM4.75 10.75V9.82143H5.25V10.75H4.75ZM4.75 12.6071V11.6786H5.25V12.6071H4.75ZM4.75 14V13.5357H5.25V14H4.75Z" fill="#4F5358"/>
<path fill-rule="evenodd" clip-rule="evenodd" d="M10.75 2.46429V2H11.25V2.46429H10.75ZM10.75 4.32143V3.39286H11.25V4.32143H10.75ZM10.75 6.17857V5.25H11.25V6.17857H10.75ZM10.75 8.03571V7.10714H11.25V8.03571H10.75ZM10.75 9.89286V8.96428H11.25V9.89286H10.75ZM10.75 11.75V10.8214H11.25V11.75H10.75ZM10.75 13.6071V12.6786H11.25V13.6071H10.75ZM10.75 15V14.5357H11.25V15H10.75Z" fill="#4F5358"/>
</svg>
