<svg width="16" height="16" viewBox="0 0 16 16" fill="none" xmlns="http://www.w3.org/2000/svg">
<path d="M10.9259 2.05743C11.0347 2.15942 11.0219 2.3281 10.8989 2.41465L9.86557 3.14116L8.17686 3.93275L10.4988 6.10951L9.86557 6.40634L6.38267 4.77379L3.95523 5.91166L4.79953 6.70317L4.16627 7L2.66092 6.28191L1.94988 6.40634L2.07802 6.10951L1 5.51586L1.94988 5.21903L2.26651 5.27839V4.32858L2.89984 4.04375L3.53302 4.92224L5.11618 4.18014L2.26651 2.8444L2.98028 2.62135C3.1343 2.57322 3.3 2.56847 3.45687 2.60769L6.72685 3.42515L9.23231 2.25074L10.6672 2.00017L10.6896 2.00008C10.7742 1.99962 10.8637 1.99912 10.9259 2.05743Z" fill="#4F5358"/>
<path d="M7.91313 6.04343L0 10L3 11.5L12.0831 6.95846C12.0111 6.92013 11.9449 6.87857 11.8845 6.83413L3 11.2764L0.447214 10L8.14396 6.15163L7.91313 6.04343Z" fill="#4F5358"/>
<path d="M11.0542 4.47291L11.1026 4.67229L10.1858 5.13073L10.0302 4.9849L11.0542 4.47291Z" fill="#4F5358"/>
<path fill-rule="evenodd" clip-rule="evenodd" d="M13.5 1.25L14 1V2.28001C15.1411 2.41899 16 3.02431 16 3.75C16 3.92532 15.9499 4.09361 15.8577 4.25H16L15.5833 5.96429C15.5833 6.33898 15.3877 6.67625 15 6.91125V13.9999C15 14.4056 14.3284 14.7346 13.5 14.7346C12.6716 14.7346 12 14.4056 12 13.9999V6.91125C11.6123 6.67625 11.4167 6.33898 11.4167 5.96429L11 4.25H11.1423C11.0501 4.09361 11 3.92532 11 3.75C11 2.92157 12.1193 2.25 13.5 2.25V1.25ZM14.3953 7.15211C13.0866 8.22334 13.0054 13.529 13.0003 14.1836C13.1465 14.2152 13.3154 14.2346 13.5 14.2346C13.8548 14.2346 14.1514 14.1631 14.3407 14.0704C14.4424 14.0206 14.4844 13.9819 14.5 13.9636V7.12423C14.4659 7.13406 14.431 7.14335 14.3953 7.15211ZM11.1527 4.26742C11.2626 4.44687 11.4276 4.61023 11.6361 4.75L11.9167 5.90439V5.96429C11.9167 6.13313 11.9922 6.30659 12.2183 6.45768C12.2943 6.50846 12.3878 6.55642 12.5 6.59825V5.12519C11.8781 4.96215 11.3881 4.65168 11.1527 4.26742ZM13 5.21999V6.71834C13.1487 6.73856 13.315 6.75 13.5 6.75C13.685 6.75 13.8513 6.73856 14 6.71834V5.21999C13.8384 5.23967 13.6712 5.25 13.5 5.25C13.3288 5.25 13.1616 5.23967 13 5.21999ZM14.7817 6.45768C14.7057 6.50846 14.6122 6.55642 14.5 6.59825V5.12519C14.8315 5.03829 15.1255 4.90951 15.3634 4.75L15.0833 5.90439V5.96429C15.0833 6.13313 15.0078 6.30659 14.7817 6.45768ZM13.5 2.75C12.8847 2.75 12.3518 2.90068 11.9895 3.11809C11.6172 3.34147 11.5 3.58042 11.5 3.75C11.5 3.91958 11.6172 4.15853 11.9895 4.38191C12.3518 4.59932 12.8847 4.75 13.5 4.75C14.1153 4.75 14.6482 4.59932 15.0105 4.38191C15.3828 4.15853 15.5 3.91958 15.5 3.75C15.5 3.58042 15.3828 3.34147 15.0105 3.11809C14.7506 2.96213 14.4029 2.84051 14 2.78422V3.75L13.5 4V2.75Z" fill="#4F5358"/>
<path d="M11 11.5L10.5 11.75V13L11 12.75V11.5Z" fill="#4F5358"/>
<path d="M9.5 12.25L9 12.5V13.75L9.5 13.5V12.25Z" fill="#4F5358"/>
<path fill-rule="evenodd" clip-rule="evenodd" d="M10 8L12 9V13.5L8 15.5L6 14.5V11.25L8 10.25V9L10 8ZM10 10.5L11.5 9.75V13.25L8.5 14.75V12.25L10 11.5V10.5ZM8.25 11.875L7 11.25L8.25 10.625L9.5 11.25L8.25 11.875ZM11.5 9.25L10 8.5L8.5 9.25L10 10L11.5 9.25Z" fill="#4F5358"/>
</svg>
