<svg width="16" height="16" viewBox="0 0 16 16" fill="none" xmlns="http://www.w3.org/2000/svg">
<path d="M0 13.5L3 12V12.559L1.11803 13.5L3 14.441V15L0 13.5Z" fill="#4F5358"/>
<path d="M14 14V14.559L14.882 15L14 15.441V16L16 15L14 14Z" fill="#4F5358"/>
<path d="M9.27944 8.36035L8.72042 8.63986L9.44088 9.00009L8.8881 9.27648C8.8034 9.31883 8.7499 9.4054 8.7499 9.50009C8.7499 9.59478 8.8034 9.68135 8.8881 9.7237L12.4409 11.5001L8.9999 13.2206L6.11169 11.7765C6.04131 11.7413 5.95849 11.7414 5.88812 11.7765L4.2206 12.6103L3 12V12.559L4.88197 13.5L3 14.441V15L6 13.5L4.77961 12.8898L5.99993 12.2796L8.8881 13.7237C8.95848 13.7589 9.04132 13.7589 9.1117 13.7237L12.9999 11.7796L14.4409 12.5001L11.8881 13.7765C11.8034 13.8188 11.7499 13.9054 11.7499 14.0001C11.7499 14.0948 11.8034 14.1813 11.8881 14.2237L12.7203 14.6398L12 15L14 16V15.441L13.118 15L14 14.559V14L13.2794 14.3603L12.5589 14.0001L15.1117 12.7237C15.1964 12.6813 15.2499 12.5948 15.2499 12.5001C15.2499 12.4054 15.1964 12.3188 15.1117 12.2765L9.55892 9.50009L10.1117 9.2237C10.1964 9.18135 10.2499 9.09478 10.2499 9.00009C10.2499 8.9054 10.1964 8.81883 10.1117 8.77648L9.27944 8.36035Z" fill="#4F5358"/>
<path d="M12.9524 1.07376C13.0834 1.20477 13.068 1.42144 12.9198 1.5326L11.6755 2.46579L9.64206 3.48256L12.4381 6.27856L11.6755 6.65983L7.48157 4.56285L4.55855 6.02442L5.57522 7.0411L4.81269 7.42236L3 6.5L2.14381 6.65983L2.29811 6.27856L1 5.51602L2.14381 5.13475L2.52507 5.21101V3.99099L3.2877 3.62514L4.05015 4.75353L5.95652 3.80033L2.52507 2.0846L3.38456 1.79811C3.57003 1.73629 3.76955 1.73018 3.95845 1.78056L7.89601 2.83057L10.913 1.32207L12.6408 1.00021L12.6678 1.00011C12.7696 0.999507 12.8775 0.998869 12.9524 1.07376Z" fill="#4F5358"/>
<path d="M4.42643 7.78678L0 10L3 11.5L11.6805 7.15976C11.6022 7.16053 11.5238 7.14295 11.4519 7.107L11.3954 7.07872L3 11.2764L0.447214 10L4.65416 7.89653C4.63092 7.88876 4.60811 7.87923 4.58594 7.86795L4.42643 7.78678Z" fill="#4F5358"/>
<path d="M6.04972 7.19875L8.84257 5.80232L8.61896 5.69052L6.06946 6.96527C6.07729 7.01632 6.07726 7.06888 6.06878 7.12114C6.06447 7.1477 6.05807 7.17363 6.04972 7.19875Z" fill="#4F5358"/>
<path d="M12.9372 6.30779L14.5528 5.5L12 4.22361L11.3935 4.52685L11.2444 4.37778L12 4L15 5.5L12.8351 6.58246C12.8845 6.51784 12.9182 6.44121 12.9316 6.35861C12.9344 6.34168 12.9362 6.32472 12.9372 6.30779Z" fill="#4F5358"/>
</svg>
