<svg width="16" height="16" viewBox="0 0 16 16" fill="none" xmlns="http://www.w3.org/2000/svg">
<path fill-rule="evenodd" clip-rule="evenodd" d="M1.60241 2.6398L3.27946 1.80127L6.33533 3.3292C6.58942 3.45625 6.74992 3.71595 6.74992 4.00002C6.74992 4.2841 6.58942 4.5438 6.33533 4.67084L5.67697 5.00002L7.99992 6.1615L12.7204 3.80126L14.3974 4.63979L9.27941 7.19881L7.99993 6.55907L6.72045 7.19881L3.66451 5.67085L3.88812 5.22363L6.72045 6.6398L7.27946 6.36029L4.55894 5.00002L6.11172 4.22363C6.11181 4.22359 6.11164 4.22367 6.11172 4.22363C6.19627 4.18124 6.24992 4.09462 6.24992 4.00002C6.24992 3.90544 6.19654 3.81897 6.11202 3.77656C6.11192 3.77652 6.11212 3.77661 6.11202 3.77656L3.27946 2.36029L2.72044 2.6398L5.4409 4.00002L3.88812 4.77642L3.66451 4.3292L4.32287 4.00002L1.60241 2.6398ZM3.88812 4.77642C3.80342 4.81877 3.74992 4.90533 3.74992 5.00002C3.74992 5.09472 3.80342 5.18128 3.88812 5.22363L3.66451 5.67085C3.41042 5.5438 3.24992 5.2841 3.24992 5.00002C3.24992 4.71595 3.41042 4.45625 3.66451 4.3292L3.88812 4.77642ZM4.88812 9.72363L2.72033 8.63974L3.27935 8.36023L4.99992 9.22052L6.72039 8.36028L7.27941 8.63979L5.11172 9.72363C5.04143 9.75878 4.95845 9.7587 4.88812 9.72363C4.88803 9.72359 4.8882 9.72367 4.88812 9.72363ZM4.99992 8.6615L3.27935 7.80121L1.60229 8.63974L4.66451 10.1708C4.87566 10.2764 5.12418 10.2764 5.33533 10.1708L8.39744 8.63979L6.72039 7.80126L4.99992 8.6615ZM8.72039 6.36028L9.27941 6.63979L13.2794 4.63979L12.7204 4.36028L8.72039 6.36028Z" fill="#4F5358"/>
<path d="M2 1.55902V1L0 2L2 3V2.44098L1.11803 2L2 1.55902Z" fill="#4F5358"/>
<path d="M14 3.55902V3L12 4L14 5V4.44098L13.118 4L14 3.55902Z" fill="#4F5358"/>
<path d="M2 7.55902V7L0 8L2 9V8.44098L1.11803 8L2 7.55902Z" fill="#4F5358"/>
<path d="M2 1.55902V1L4 2L2 3V2.44098L2.88197 2L2 1.55902Z" fill="#4F5358"/>
<path d="M14 3.55902V3L16 4L14 5V4.44098L14.882 4L14 3.55902Z" fill="#4F5358"/>
<path d="M2 7.55902V7L4 8L2 9V8.44098L2.88197 8L2 7.55902Z" fill="#4F5358"/>
<path d="M8 6L5 7.5L8 9V8.44098L6.11803 7.5L8 6.55902V6Z" fill="#4F5358"/>
<path d="M8 6L11 7.5L8 9V8.44098L9.88197 7.5L8 6.55902V6Z" fill="#4F5358"/>
<path fill-rule="evenodd" clip-rule="evenodd" d="M8.5 10.2236L6.94721 11L8.5 11.7764L10.0528 11L8.5 10.2236ZM8.5 10L6.5 11L8.5 12L10.5 11L8.5 10Z" fill="#4F5358"/>
<path fill-rule="evenodd" clip-rule="evenodd" d="M6 12.5L6.5 11L8.5 12L8 13.5L8.5 14.5L6.5 13.5L6 12.5ZM6.36688 12.348L6.67522 11.423L8.13312 12.152L7.82478 13.077L6.36688 12.348ZM6.72361 13.2764L6.67082 13.1708L7.77639 13.7236L7.82918 13.8292L6.72361 13.2764Z" fill="#4F5358"/>
<path fill-rule="evenodd" clip-rule="evenodd" d="M14.5 10.5V8.5L10.5 10.5V11L8.5 12L8 13.5L8.5 14.5L9.07448 14.2128C9.15975 14.3091 9.30441 14.3478 9.43416 14.283L9.55777 14.2211C9.74592 14.1271 9.88596 13.9648 9.95401 13.773L11.5 13V12.618C11.5 12.2393 11.714 11.893 12.0528 11.7236L14.5 10.5ZM9.99973 13.5265L10.3 13.3764V11.3236L8.66354 12.1418L8.21593 13.4847L8.58944 14.2317L9.00022 14.0263C9.00007 14.0224 9 14.0185 9 14.0146V13.9945C9 13.6914 9.1712 13.4144 9.44223 13.2789L9.56584 13.2171C9.76531 13.1174 10 13.2624 10 13.4854V13.5056C10 13.5126 9.99991 13.5196 9.99973 13.5265Z" fill="#4F5358"/>
<path d="M14 11.5056C14 11.8086 13.8288 12.0856 13.5578 12.2211L13.4342 12.283C13.2347 12.3827 13 12.2376 13 12.0146V12.0056C13 12.3086 12.8288 12.5856 12.5578 12.7211L12.4342 12.783C12.2347 12.8827 12 12.7376 12 12.5146V12.4945C12 12.1914 12.1712 11.9144 12.4422 11.7789L12.5658 11.7171C12.7653 11.6174 13 11.7624 13 11.9854V11.9945C13 11.6914 13.1712 11.4144 13.4422 11.2789L13.5658 11.2171C13.7653 11.1174 14 11.2624 14 11.4854V11.5056Z" fill="#4F5358"/>
<path fill-rule="evenodd" clip-rule="evenodd" d="M13.2586 7.87924C12.987 7.36747 12.4536 6.76142 11.5 6.99975C10.1665 7.33302 9.72209 8.3333 9.57401 8.96294L8.5 9.49995V9.99995L8.7 10.0999V9.82355L10.3 10.6236V10.8999L10.5 10.9999V10.4999L14.5 8.49995L13.2586 7.87924ZM9.52647 9.21032C9.5 9.38781 9.5 9.49972 9.5 9.49972L10.5 9.99982L13.5 8.49995C13.5 8.49995 13.4687 8.36265 13.3923 8.16969L14.0528 8.49995L10.5 10.2763L8.94721 9.49995L9.52647 9.21032Z" fill="#4F5358"/>
</svg>
