<svg width="16" height="17" viewBox="0 0 16 17" fill="none" xmlns="http://www.w3.org/2000/svg">
<path fill-rule="evenodd" clip-rule="evenodd" d="M9.77312 5.2875L12 9L14.2269 5.2875C14.5714 4.725 15 3.97496 15 3.15C15 1.41032 13.6568 0 12 0C10.3432 0 9 1.41031 9 3.15C9 3.97496 9.42857 4.725 9.77312 5.2875ZM12 5C13.1046 5 14 4.10457 14 3C14 1.89543 13.1046 1 12 1C10.8954 1 10 1.89543 10 3C10 4.10457 10.8954 5 12 5Z" fill="#4F5358"/>
<path fill-rule="evenodd" clip-rule="evenodd" d="M9 6.55371L9.5 8.05371L9 9.05371L7 10.0537L7.5 9.05371L7 7.55371L5 6.55371L7 5.55371L9 6.55371ZM8.82478 6.97673L9.13312 7.90174L7.67522 8.63069L7.36688 7.70568L8.82478 6.97673ZM8.82918 8.72453L8.77639 8.8301L7.67082 9.38289L7.72361 9.27732L8.82918 8.72453ZM8.55279 6.55371L7 5.77732L5.44721 6.55371L7 7.3301L8.55279 6.55371Z" fill="#4F5358"/>
<path fill-rule="evenodd" clip-rule="evenodd" d="M1 6.05371V4.05371L5 6.05371V6.55371L7 7.55371L7.5 9.05371L7 10.0537L6.42552 9.76647C6.34025 9.86284 6.19559 9.90154 6.06584 9.83666L5.94223 9.77486C5.75408 9.68079 5.61404 9.51852 5.54599 9.3267L4 8.55371V8.17174C4 7.79297 3.786 7.44671 3.44721 7.27732L1 6.05371ZM5.50027 9.08024L5.2 8.9301V6.87732L6.83646 7.69555L7.28407 9.03836L6.91056 9.78538L6.49978 9.58C6.49993 9.57613 6.5 9.57225 6.5 9.56834V9.54817C6.5 9.24516 6.3288 8.96815 6.05777 8.83263L5.93416 8.77083C5.73469 8.67109 5.5 8.81614 5.5 9.03916V9.05932C5.5 9.06631 5.50009 9.07328 5.50027 9.08024Z" fill="#4F5358"/>
<path d="M1.5 7.05932C1.5 7.36234 1.6712 7.63935 1.94223 7.77486L2.06584 7.83666C2.26531 7.9364 2.5 7.79135 2.5 7.56834V7.55932C2.5 7.86234 2.6712 8.13935 2.94223 8.27486L3.06584 8.33666C3.26531 8.4364 3.5 8.29135 3.5 8.06834V8.04817C3.5 7.74516 3.3288 7.46815 3.05777 7.33263L2.93416 7.27083C2.73469 7.17109 2.5 7.31614 2.5 7.53916V7.54817C2.5 7.24516 2.3288 6.96815 2.05777 6.83263L1.93416 6.77083C1.73469 6.67109 1.5 6.81614 1.5 7.03916V7.05932Z" fill="#4F5358"/>
<path fill-rule="evenodd" clip-rule="evenodd" d="M3 3.22361L6.55279 5L5 5.77639L1.44721 4L3 3.22361ZM3 3L7 5L5 6L1 4L3 3Z" fill="#4F5358"/>
<path d="M1.05366 4.02686L5 6.00003L6.94634 5.02686L7 5.05368V5.55368L6.8 5.65368V5.37729L5.2 6.17729V6.45368L5 6.55368V6.05368L1 4.05368L1.05366 4.02686Z" fill="#4F5358"/>
<path fill-rule="evenodd" clip-rule="evenodd" d="M5.5 12.5537L5 14.0537L5.5 15.0537L7.5 16.0537L7 15.0537L7.5 13.5537L9.5 12.5537L7.5 11.5537L5.5 12.5537ZM5.67522 12.9767L5.36688 13.9017L6.82478 14.6307L7.13312 13.7057L5.67522 12.9767ZM5.67082 14.7245L5.72361 14.8301L6.82918 15.3829L6.77639 15.2773L5.67082 14.7245ZM5.94721 12.5537L7.5 11.7773L9.05279 12.5537L7.5 13.3301L5.94721 12.5537Z" fill="#4F5358"/>
<path fill-rule="evenodd" clip-rule="evenodd" d="M13.5 12.0537V10.0537L9.5 12.0537V12.5537L7.5 13.5537L7 15.0537L7.5 16.0537L8.07448 15.7665C8.15975 15.8628 8.30441 15.9015 8.43416 15.8367L8.55777 15.7749C8.74592 15.6808 8.88596 15.5185 8.95401 15.3267L10.5 14.5537V14.1717C10.5 13.793 10.714 13.4467 11.0528 13.2773L13.5 12.0537ZM8.99973 15.0802L9.3 14.9301V12.8773L7.66354 13.6955L7.21593 15.0384L7.58944 15.7854L8.00022 15.58C8.00007 15.5761 8 15.5722 8 15.5683V15.5482C8 15.2452 8.1712 14.9681 8.44223 14.8326L8.56584 14.7708C8.76531 14.6711 9 14.8161 9 15.0392V15.0593C9 15.0663 8.99991 15.0733 8.99973 15.0802Z" fill="#4F5358"/>
<path d="M13 13.0593C13 13.3623 12.8288 13.6393 12.5578 13.7749L12.4342 13.8367C12.2347 13.9364 12 13.7914 12 13.5683V13.5593C12 13.8623 11.8288 14.1393 11.5578 14.2749L11.4342 14.3367C11.2347 14.4364 11 14.2914 11 14.0683V14.0482C11 13.7452 11.1712 13.4681 11.4422 13.3326L11.5658 13.2708C11.7653 13.1711 12 13.3161 12 13.5392V13.5482C12 13.2452 12.1712 12.9681 12.4422 12.8326L12.5658 12.7708C12.7653 12.6711 13 12.8161 13 13.0392V13.0593Z" fill="#4F5358"/>
<path fill-rule="evenodd" clip-rule="evenodd" d="M11.5 9.22361L7.94721 11L9.5 11.7764L13.0528 10L11.5 9.22361ZM11.5 9L7.5 11L9.5 12L13.5 10L11.5 9Z" fill="#4F5358"/>
<path d="M13.4463 10.0269L9.5 12L7.55366 11.0269L7.5 11.0537V11.5537L7.7 11.6537V11.3773L9.3 12.1773V12.4537L9.5 12.5537V12.0537L13.5 10.0537L13.4463 10.0269Z" fill="#4F5358"/>
</svg>
