<svg width="16" height="16" viewBox="0 0 16 16" fill="none" xmlns="http://www.w3.org/2000/svg">
<path fill-rule="evenodd" clip-rule="evenodd" d="M7 8L7 11L11 13L16 10.5V7.5L14.3333 5.83333L15 5.5L16 6.5V6L15.3333 5.33333L16 5V4.5L15 5H14L15 4.5H16V4H15L7 8ZM11 10.5L11 12L10 11.5V10.5L8 9.5V10.5L7.5 10.25L7.5 8.5H9L11 10.5ZM15 8L15.6667 7.66667L14 6L13.3333 6.33333L15 8ZM14 8.5L14.6667 8.16667L13 6.5L12.3333 6.83333L14 8.5ZM13 9L13.6667 8.66667L12 7L11.3333 7.33333L13 9ZM12 9.5L12.6667 9.16667L11 7.5L10.3333 7.83333L12 9.5ZM11 10L11.6667 9.66667L10 8L9.33333 8.33333L11 10ZM10 7.5H9L9.66667 7.16667L10.3333 7.33333L10 7.5ZM10 7H11L11.3333 6.83333L10.6667 6.66667L10 7ZM12 6.5H11L11.6667 6.16667L12.3333 6.33333L12 6.5ZM12 6H13L13.3333 5.83333L12.6667 5.66667L12 6ZM14 5.5H13L13.6667 5.16667L14.3333 5.33333L14 5.5ZM9.33333 7.83333L9 8H8L8.66667 7.66667L9.33333 7.83333ZM8.5 11.191L9.5 11.691V10.809L8.5 10.309V11.191Z" fill="#4F5358"/>
<path fill-rule="evenodd" clip-rule="evenodd" d="M12 2L10 0H8L0 4V7L4 9L12 5V2ZM4 8L3 7.5V6.5L1 5.5V6.5L0.5 6.25L0.499999 4.5H2L4 6.5V8ZM4 6L2.33333 4.33333L3 4L4.66667 5.66667L4 6ZM5 5.5L3.33333 3.83333L4 3.5L5.66667 5.16667L5 5.5ZM6 5L4.33333 3.33333L5 3L6.66667 4.66667L6 5ZM7 4.5L5.33333 2.83333L6 2.5L7.66667 4.16667L7 4.5ZM8 4L6.33333 2.33333L7 2L8.66667 3.66667L8 4ZM9 3.5L7.33333 1.83333L8 1.5L9.66667 3.16667L9 3.5ZM10 3L8.33333 1.33333L9 1L10.6667 2.66667L10 3ZM11 2.5L9.33333 0.833334L10 0.5L11.6667 2.16667L11 2.5ZM2.5 7.69098L1.5 7.19098V6.30902L2.5 6.80902V7.69098ZM2.33333 3.83333L2 4H1L1.66667 3.66667L2.33333 3.83333ZM3 3H4L4.33333 2.83333L3.66667 2.66667L3 3ZM4 2.5H5L5.33333 2.33333L4.66667 2.16667L4 2.5ZM5 2H6L6.33333 1.83333L5.66667 1.66667L5 2ZM9 0.5L8 1H7L8 0.5H9ZM7 1.5L7.33333 1.33333L6.66667 1.16667L6 1.5H7ZM3.33333 3.33333L3 3.5H2L2.66667 3.16667L3.33333 3.33333Z" fill="#4F5358"/>
<path fill-rule="evenodd" clip-rule="evenodd" d="M6 14L2 16L0 15V12.5L1 12V10L3 9L5 10V11L6 11.5V14ZM5.5 11.75L5 12V11.5L5.5 11.75ZM2 15.5L0.5 14.75L0.5 13.25L2 14V15.5ZM3 11L4.5 10.25L3 9.5L1.5 10.25L3 11ZM1.5 12.25L3 13V11.5L1.5 10.75L1.5 12.25ZM2 13.5L2.5 13.25L1 12.5L0.5 12.75L2 13.5Z" fill="#4F5358"/>
</svg>
