<svg width="17" height="17" viewBox="0 0 17 17" fill="none" xmlns="http://www.w3.org/2000/svg">
<path fill-rule="evenodd" clip-rule="evenodd" d="M10.4903 11.1918L15.5526 8.37281L15.5545 8.37175C15.8169 8.22415 15.9646 7.9774 16.0233 7.74405C16.0808 7.51565 16.0674 7.24389 15.9358 7.00991C15.7908 6.7522 15.5487 6.58352 15.2812 6.52398L15.5526 6.37281L15.5545 6.37175C15.8169 6.22415 15.9646 5.9774 16.0233 5.74405C16.0808 5.51565 16.0674 5.24389 15.9358 5.00991C15.6653 4.52892 15.0563 4.3581 14.5751 4.62799L14.574 4.6286L14 4.94822V3L11 0H8L0 4V7L1.5 7.75V5.80902L4.5 7.30902V9.25L6 10L7 9.5L7.01362 9.48638C7.03229 9.59725 7.07012 9.70684 7.12842 9.81047C7.39898 10.2915 8.008 10.4623 8.48919 10.1924L8.49026 10.1918L9.12203 9.83998C9.05457 9.96334 9.01235 10.1025 9.00232 10.2504C8.98896 10.439 9.02882 10.6334 9.12842 10.8105C9.39898 11.2915 10.008 11.4623 10.4892 11.1924L10.4903 11.1918ZM6 9L5 8.5V7L1 5V6.5L0.5 6.25L0.499999 4.5H3L6 7.5V9ZM13.6667 3.16667L13 3.5L10.3333 0.833333L11 0.5L13.6667 3.16667ZM12.6667 3.66667L12 4L9.33333 1.33333L10 1L12.6667 3.66667ZM11.6667 4.16667L11 4.5L8.33333 1.83333L9 1.5L11.6667 4.16667ZM10.6667 4.66667L10 5L7.33333 2.33333L8 2L10.6667 4.66667ZM9.66667 5.16667L9 5.5L6.33333 2.83333L7 2.5L9.66667 5.16667ZM8.66667 5.66667L8 6L5.33333 3.33333L6 3L8.66667 5.66667ZM7.66667 6.16667L7 6.5L4.33333 3.83333L5 3.5L7.66667 6.16667ZM6.66667 6.66667L6 7L3.33333 4.33333L4 4L6.66667 6.66667ZM14.8191 7.06439L10.5145 9.46142C10.8054 9.63629 11 9.95497 11 10.3191L10.9999 10.3357L15.3094 7.93596C15.55 7.80058 15.616 7.46127 15.5 7.25505C15.3646 7.01437 15.0598 6.92901 14.8191 7.06439ZM10 9.81909C9.92348 9.81909 9.85097 9.83628 9.78613 9.86701C9.61698 9.94717 9.5 10.1195 9.5 10.3191C9.5 10.5952 9.72386 10.8191 10 10.8191C10.2761 10.8191 10.5 10.5952 10.5 10.3191C10.5 10.0429 10.2761 9.81909 10 9.81909ZM8.72959 8.6352L9.0147 8.49265C9.03373 8.60138 9.07122 8.70879 9.12842 8.81047C9.19752 8.93332 9.2887 9.03593 9.39419 9.11614L8.99986 9.33572L9 9.31909C9 9.05457 8.8973 8.81405 8.72959 8.6352ZM7.78613 8.86701C7.85097 8.83628 7.92348 8.81909 8 8.81909C8.27614 8.81909 8.5 9.04295 8.5 9.31909C8.5 9.59523 8.27614 9.81909 8 9.81909C7.72386 9.81909 7.5 9.59523 7.5 9.31909C7.5 9.11947 7.61698 8.94717 7.78613 8.86701ZM10.2451 8.75591C10.1467 8.81126 10.0376 8.82971 9.93366 8.81573C9.78351 8.79548 9.64421 8.70756 9.56421 8.56534C9.42882 8.32466 9.51418 8.0198 9.75486 7.88442L14.8191 5.06439C15.0598 4.92901 15.3646 5.01437 15.5 5.25505C15.616 5.46127 15.55 5.80058 15.3094 5.93597L10.2451 8.75591ZM6 1.5L6.75 1.125L8.25 1.375L8 1.5H6ZM9 1L10 0.5H8L7 1H9ZM7 2L7.25 1.875L5.75 1.625L5 2H7ZM4.75 2.125L6.25 2.375L6 2.5H4L4.75 2.125ZM5 3L5.25 2.875L3.75 2.625L3 3H5ZM2.75 3.125L4.25 3.375L4 3.5H2L2.75 3.125ZM3.25 3.875L3 4H1L1.75 3.625L3.25 3.875Z" fill="#4F5358"/>
<path fill-rule="evenodd" clip-rule="evenodd" d="M10 8.81909C10.2761 8.81909 10.5 8.59523 10.5 8.31909C10.5 8.04295 10.2761 7.81909 10 7.81909C9.72386 7.81909 9.5 8.04295 9.5 8.31909C9.5 8.59523 9.72386 8.81909 10 8.81909ZM10 9.31909C10.5523 9.31909 11 8.87138 11 8.31909C11 7.76681 10.5523 7.31909 10 7.31909C9.44772 7.31909 9 7.76681 9 8.31909C9 8.87138 9.44772 9.31909 10 9.31909Z" fill="#4F5358"/>
<path fill-rule="evenodd" clip-rule="evenodd" d="M9 12.5537L9.5 14.0537L9 15.0537L7 16.0537L7.5 15.0537L7 13.5537L5 12.5537L7 11.5537L9 12.5537ZM8.82478 12.9767L9.13312 13.9017L7.67522 14.6307L7.36688 13.7057L8.82478 12.9767ZM8.82918 14.7245L8.77639 14.8301L7.67082 15.3829L7.72361 15.2773L8.82918 14.7245ZM8.55279 12.5537L7 11.7773L5.44721 12.5537L7 13.3301L8.55279 12.5537Z" fill="#4F5358"/>
<path fill-rule="evenodd" clip-rule="evenodd" d="M3 9.22361L6.55279 11L5 11.7764L1.44721 10L3 9.22361ZM3 9L7 11L5 12L1 10L3 9Z" fill="#4F5358"/>
<path fill-rule="evenodd" clip-rule="evenodd" d="M1 10.0537V12.0537L3.44721 13.2773C3.786 13.4467 4 13.793 4 14.1717V14.5537L5.54599 15.3267C5.61404 15.5185 5.75408 15.6808 5.94223 15.7749L6.06584 15.8367C6.19559 15.9015 6.34025 15.8628 6.42552 15.7665L7 16.0537L7.5 15.0537L7 13.5537L5 12.5537L5.2 12.4537V12.1773L6.8 11.3773V11.6537L7 11.5537V11.0537L6.94634 11.0269L5 12L1.05366 10.0269L1 10.0537ZM5.2 14.9301L5.50027 15.0802L5.5 15.0593V15.0392C5.5 14.8161 5.73469 14.6711 5.93416 14.7708L6.05777 14.8326C6.3288 14.9681 6.5 15.2452 6.5 15.5482V15.5683L6.49978 15.58L6.91056 15.7854L7.28407 15.0384L6.83646 13.6955L5.2 12.8773V14.9301Z" fill="#4F5358"/>
<path d="M1.94223 13.7749C1.6712 13.6393 1.5 13.3623 1.5 13.0593V13.0392C1.5 12.8161 1.73469 12.6711 1.93416 12.7708L2.05777 12.8326C2.3288 12.9681 2.5 13.2452 2.5 13.5482V13.5392C2.5 13.3161 2.73469 13.1711 2.93416 13.2708L3.05777 13.3326C3.3288 13.4681 3.5 13.7452 3.5 14.0482V14.0683C3.5 14.2914 3.26531 14.4364 3.06584 14.3367L2.94223 14.2749C2.6712 14.1393 2.5 13.8623 2.5 13.5593V13.5683C2.5 13.7914 2.26531 13.9364 2.06584 13.8367L1.94223 13.7749Z" fill="#4F5358"/>
<path fill-rule="evenodd" clip-rule="evenodd" d="M12 12.5L14 13.5L16 12.5V10L14 9L12 10V12.5ZM15.5 10.25L14 11L12.5 10.25L14 9.5L15.5 10.25ZM14 11.5V13L12.5 12.25L12.5 10.75L14 11.5Z" fill="#4F5358"/>
</svg>
