<svg width="16" height="16" viewBox="0 0 16 16" fill="none" xmlns="http://www.w3.org/2000/svg">
<path fill-rule="evenodd" clip-rule="evenodd" d="M2.91197 5.53545C2.87235 5.64591 2.35411 6.48866 2.24617 6.6739C1.90243 7.26407 1.9012 7.15552 2.35358 7.90652L3.71741 10.1903C3.66388 9.7113 3.79929 9.61487 3.99141 9.27781C4.14813 9.00306 4.29957 8.75862 4.45435 8.49305L5.37479 6.93358C5.522 6.9637 6.0913 7.35392 6.22636 7.38975L5.5382 6.22222C5.41441 6.0169 5.31051 5.84326 5.18883 5.63569C5.08353 5.45582 4.95234 5.20168 4.82855 5.03877L2.08892 5.03254C2.14562 5.09521 2.20743 5.11858 2.28614 5.16411L2.91197 5.53545Z" fill="#4F5358"/>
<path fill-rule="evenodd" clip-rule="evenodd" d="M9.87121 1.00125L7.11608 1.00886C7.52726 1.23046 7.46175 1.15221 7.75036 1.65062C7.90286 1.91377 8.05747 2.18124 8.21701 2.45183C8.33604 2.65369 9.12652 3.97148 9.13867 4.0686C9.0066 4.15447 8.87471 4.22787 8.74229 4.3018C9.13867 4.0686 8.6199 4.37104 8.5426 4.41467C8.48167 4.44895 8.37989 4.49915 8.33358 4.54884C9.17125 4.56892 10.2623 4.5459 11.0898 4.54191L12.4647 2.19717L11.6131 2.66667C11.3965 2.31852 11.2032 1.93974 10.9836 1.5909C10.5853 0.95866 10.7932 0.998997 9.87121 1.00125Z" fill="#4F5358"/>
<path fill-rule="evenodd" clip-rule="evenodd" d="M9.80125 12.4544L9.80935 11.5024C10.1374 11.4798 11.0018 11.4964 11.3841 11.4966C11.616 11.4966 11.7495 11.4846 11.8562 11.3498L13.2755 8.92312C13.3423 8.80471 13.4668 8.62622 13.5122 8.504C13.3217 8.59004 13.3861 8.71763 12.7499 8.71728C12.2125 8.71676 10.1751 8.74065 9.81058 8.71295L9.80935 7.76408C9.74384 7.82363 9.20289 8.77459 9.11695 8.92434C9.03965 9.05937 8.44041 10.0602 8.43319 10.1074C8.42386 10.1684 9.02468 11.1514 9.10304 11.2893C9.18211 11.4285 9.74859 12.415 9.80125 12.4544Z" fill="#4F5358"/>
<path fill-rule="evenodd" clip-rule="evenodd" d="M7.68055 11.4771L7.68988 8.71049C6.72771 8.69076 5.58875 8.7053 4.60986 8.7079C4.45402 9 4.03052 9.61696 3.9784 9.84461C3.85971 10.365 4.20133 10.9275 4.45402 11.1295C4.89495 11.4818 5.20452 11.4778 5.87913 11.4778C6.47714 11.4778 7.08377 11.4877 7.68055 11.4771Z" fill="#4F5358"/>
<path fill-rule="evenodd" clip-rule="evenodd" d="M10.2402 5.83601C10.2765 5.97087 11.2268 7.55164 11.3779 7.81305C11.5005 8.02478 11.6315 8.26871 11.7597 8.4626C12.0758 8.46381 12.3918 8.46278 12.7078 8.46278C13.0728 8.46295 13.1996 8.42988 13.4322 8.25105C13.7416 8.01335 14.079 7.53156 13.9835 6.92131C13.9108 6.45648 13.3015 5.54794 13.0268 5.07688C12.9451 4.93665 12.7511 4.57067 12.6657 4.47771C12.5561 4.51683 11.1023 5.35993 10.8598 5.49548C10.713 5.57754 10.3795 5.79187 10.2402 5.83601Z" fill="#4F5358"/>
<path fill-rule="evenodd" clip-rule="evenodd" d="M4.00182 3.76535C4.09972 3.79772 4.20679 3.87251 4.30205 3.92496L6.42537 5.12694C6.50214 5.05181 6.90715 4.3273 6.99608 4.17547L7.83551 2.74895C8.00597 2.45534 7.97092 2.53654 7.80786 2.25521C7.66699 2.01215 7.39898 1.49175 7.20105 1.34443C6.64284 0.928935 5.62943 1.00061 5.13056 1.82484C5.05115 1.95623 4.03316 3.65611 4.00182 3.76535Z" fill="#4F5358"/>
<path d="M0.552786 10.6056L0.990286 10.3868L1.27344 10.9531L1.44721 10.6056L1.88471 10.8243L1.72917 11.1354L1 11.5L1.72917 11.8646L1.88471 12.1757L1.44721 12.3944L1.27344 12.0469L0.990287 12.6132L0.552786 12.3944C0.214002 12.225 0 11.8788 0 11.5C0 11.1212 0.214002 10.775 0.552786 10.6056Z" fill="#4F5358"/>
<path d="M1.86529 13.0507L2.3125 12.1562L3.1875 12.5938L2.74029 13.4882L1.86529 13.0507Z" fill="#4F5358"/>
<path d="M3.61529 13.9257L4.0625 13.0312L4.9375 13.4688L4.49029 14.3632L3.61529 13.9257Z" fill="#4F5358"/>
<path d="M5.36529 14.8007L5.8125 13.9062L6.6875 14.3438L6.24029 15.2382L5.36529 14.8007Z" fill="#4F5358"/>
<path d="M7.11529 15.6757L7.5625 14.7812L8 15L8.4375 14.7812L8.88471 15.6757L8.44721 15.8944C8.16569 16.0352 7.83431 16.0352 7.55279 15.8944L7.11529 15.6757Z" fill="#4F5358"/>
<path d="M9.75971 15.2382L9.3125 14.3438L10.1875 13.9062L10.6347 14.8007L9.75971 15.2382Z" fill="#4F5358"/>
<path d="M11.5097 14.3632L11.0625 13.4688L11.9375 13.0312L12.3847 13.9257L11.5097 14.3632Z" fill="#4F5358"/>
<path d="M13.2597 13.4882L12.8125 12.5938L13.6875 12.1562L14.1347 13.0507L13.2597 13.4882Z" fill="#4F5358"/>
<path d="M14.1153 12.1757L14.2708 11.8646L15 11.5L14.2708 11.1354L14.1153 10.8243L14.5528 10.6056L14.7266 10.9531L15.0097 10.3868L15.4472 10.6056C15.786 10.775 16 11.1212 16 11.5C16 11.8788 15.786 12.225 15.4472 12.3944L15.0097 12.6132L14.7266 12.0469L14.5528 12.3944L14.1153 12.1757Z" fill="#4F5358"/>
<path d="M14.1347 9.94932L13.6875 10.8437L12.8125 10.4062L13.2597 9.51182L14.1347 9.94932Z" fill="#4F5358"/>
<path d="M8.54688 8L8.88471 7.32432L8.44721 7.10557C8.16569 6.96481 7.83431 6.96481 7.55279 7.10557L7.11529 7.32432L7.45312 8H8.54688Z" fill="#4F5358"/>
<path d="M5.76393 8H6.35937L6.24029 7.76182L5.76393 8Z" fill="#4F5358"/>
<path d="M2.3125 10.8438L3.1875 10.4062L2.74029 9.51182L1.86529 9.94932L2.3125 10.8438Z" fill="#4F5358"/>
</svg>
