<svg width="16" height="16" viewBox="0 0 16 16" fill="none" xmlns="http://www.w3.org/2000/svg">
<path fill-rule="evenodd" clip-rule="evenodd" d="M15.5 4.25L15 4.5V6L13.5 6.75V5.25L13 5.5V6.72556L12.0977 6.5L11.5 6.79887V6.25L11 6.5V7.04887L9.5 7.79887V7.25L9 7.5V8.04887L7.5 8.79888V8.25L7 8.5V9.04888L5.5 9.79888V9.25L5 9.5V10.0489L3.5 10.7989V10.25L3 10.5V11.0489L2.78324 11.1573L2.68949 11.3447L1.5 10.75V9.75L1 9.5V10.5L0 10V16H16V5.5L15.5 5.75V4.25ZM12.6667 7.16667L12.6787 7.16063L12.1559 7.02993L3.15592 11.5299L2.15592 13.5299L6.15592 13.0299L14.9461 8.63486L15 8.5L14 7.5L12.6667 7.16667ZM14 11L14.6665 9.33363L6.30292 13.5154L2.63236 13.9743L4 15H6L14 11Z" fill="#4F5358"/>
<path fill-rule="evenodd" clip-rule="evenodd" d="M3 1L2 1.5L1 5L0 9H0.5L0.637865 9.05909L2.13439 5.5672L2.75 5.875V10.5H3.25V5.875L3.8656 5.5672L5.36212 9.05909L5.5 9H6L5 5L4.40208 2.90728L8.84998 1.79531V3H9.14998V1.5L9 1.5V1.25H3.5L3 1ZM3.5 1.75H3.57143L3.79798 2.54292L3.25 2.67992V1.875L3.5 1.75ZM3.25 3.1953V4.125L4.41667 4.70833L3.93541 3.02395L3.25 3.1953ZM4.26464 2.42626L4.07143 1.75H6.96967L4.26464 2.42626ZM1.58333 4.70833L2.4375 1.71875L2.75 1.875V4.125L1.58333 4.70833ZM0.728479 8.08608L1.86212 5.44092L2.00012 5.50006L1.44444 5.22222L0.728479 8.08608ZM4.55556 5.22222L3.99996 5.50002L4.13787 5.44092L5.27154 8.08616L4.55556 5.22222ZM2.11803 5L2.75 4.68402V5.31598L2.11803 5ZM3.88197 5L3.25 5.31598V4.68402L3.88197 5Z" fill="#4F5358"/>
<path d="M11 3.72361L13 2.72361L15.5528 4L3 10.2764L0.447214 9L7.22361 5.6118L7 5.5L0 9L3 10.5L16 4L13 2.5L11 3.5V3.72361Z" fill="#4F5358"/>
<path fill-rule="evenodd" clip-rule="evenodd" d="M9 6.5L7 5.5V3L9 2L11 3V5.5L9 6.5ZM9 5.94098L7.5 5.19098V3.75L9 4.5V5.94098ZM10.441 3.27951L9 2.55902L7.55902 3.27951L9 4L10.441 3.27951Z" fill="#4F5358"/>
</svg>
