<svg width="16" height="16" viewBox="0 0 16 16" fill="none" xmlns="http://www.w3.org/2000/svg">
<path d="M11 9V9.5L10 10V9.5L11 9Z" fill="#4F5358"/>
<path d="M9 10.5V10L8 10.5V11L9 10.5Z" fill="#4F5358"/>
<path d="M4 12.5V13L3 13.5V13L4 12.5Z" fill="#4F5358"/>
<path fill-rule="evenodd" clip-rule="evenodd" d="M16 4L11 6.5V7.5L10 7L1 11.5L0.5 13L1 14V14.25L0 14.75V15.5L1.5 14.75L2.5 15.25L1 16H2.5L16 9.25V8.5L15.5 8.75V8.48541C15.5 8.2624 15.2653 8.11735 15.0658 8.21708L13.9422 8.77889C13.6712 8.9144 13.5 9.19141 13.5 9.49443V9.75L13 10V7.5L16 6V5.44098L13 6.94098L12.118 6.5L16 4.55902V4ZM11.5 10.75L12 10.5V8L3 12.5L2.5 14L3 15L3.5 14.75V14.4945C3.5 14.1914 3.6712 13.9144 3.94223 13.7789L6.06584 12.7171C6.26531 12.6174 6.5 12.7624 6.5 12.9854V13.25L8.5 12.25V11.9945C8.5 11.6914 8.6712 11.4144 8.94223 11.2789L11.0658 10.2171C11.2653 10.1174 11.5 10.2624 11.5 10.4854V10.75ZM10 7.55902L2.11803 11.5L3 11.941L10.882 8L10 7.55902ZM0.866884 12.848L1.17522 11.923L2.63312 12.652L2.32478 13.577L0.866884 12.848Z" fill="#4F5358"/>
<path d="M5.49994 16L15.9999 10.75V11.5L6.99998 16H5.49994Z" fill="#4F5358"/>
<path d="M8.99998 16H10.4999L15.9999 13.25V12.5L8.99998 16Z" fill="#4F5358"/>
<path d="M7.5 3L8 2.75V6.25L7.5 6.5V3Z" fill="#4F5358"/>
<path d="M7 3.25L6.5 3.5V6L7 5.75V3.25Z" fill="#4F5358"/>
<path d="M6 3.75L5.5 4V7.5L6 7.25V3.75Z" fill="#4F5358"/>
<path d="M4.5 7L4 7.25V8L4.5 7.75V7Z" fill="#4F5358"/>
<path d="M9 5L9.5 4.75V5.5L9 5.75V5Z" fill="#4F5358"/>
<path fill-rule="evenodd" clip-rule="evenodd" d="M10.5 6.25L3 10L1 9V5.75L3 4.75V2.5L5 1H7L9 2V2.25L10.5 3V6.25ZM3.4 2.7L5 1.5L6.6 2.3L5 3.5L3.4 2.7ZM5 4V6L3.5 6.75V9.25L6.5 7.75V6.5L7 6.25V7.5L10 6V3.75L8.5 4.5V2.5H7L5 4ZM10 3.25L9 3.75V2.75L10 3.25ZM6 1.5L7 2H8L7 1.5H6ZM2 5.75L3.25 5.125L4.5 5.75L3.25 6.375L2 5.75Z" fill="#4F5358"/>
</svg>
