<svg width="16" height="16" viewBox="0 0 16 16" fill="none" xmlns="http://www.w3.org/2000/svg">
<path d="M5.5 16L16 10.75V11.5L7.00004 16H5.5Z" fill="#4F5358"/>
<path d="M9.00004 16H10.5L16 13.25V12.5L9.00004 16Z" fill="#4F5358"/>
<path d="M3.27947 1.36035L2.72045 1.63986L5.44091 3.00009L3.88813 3.77648C3.80343 3.81883 3.74993 3.9054 3.74993 4.00009C3.74993 4.09478 3.80343 4.18135 3.88813 4.2237L8.5 6.45808L9.05902 6.17857L4.55895 4.00009L6.11173 3.2237C6.19643 3.18135 6.24993 3.09478 6.24993 3.00009C6.24993 2.9054 6.19643 2.81883 6.11173 2.77648L3.27947 1.36035Z" fill="#4F5358"/>
<path d="M7.27942 7.63985L6.7204 7.36034L10.941 5.22049L11.5 5.5L7.27942 7.63985Z" fill="#4F5358"/>
<path d="M6.7204 7.36034L4.99993 8.22058L3.27935 7.36029L2.72034 7.6398L4.88813 8.7237C4.95851 8.75889 5.04135 8.75889 5.11173 8.7237L7.27942 7.63985L6.7204 7.36034Z" fill="#4F5358"/>
<path d="M2 0.559017V0L0 1L2 2V1.44098L1.11803 1L2 0.559017Z" fill="#4F5358"/>
<path d="M14 3V2.44098L12 3.44098L14 4.44098V3.88197L13.118 3.44098L14 3Z" fill="#4F5358"/>
<path d="M2 6.55902V6L0 7L2 8V7.44098L1.11803 7L2 6.55902Z" fill="#4F5358"/>
<path d="M2 0.559017V0L4 1L2 2V1.44098L2.88197 1L2 0.559017Z" fill="#4F5358"/>
<path d="M14 3V2.44098L16 3.44098L14 4.44098V3.88197L14.882 3.44098L14 3Z" fill="#4F5358"/>
<path d="M2 6.55902V6L4 7L2 8V7.44098L2.88197 7L2 6.55902Z" fill="#4F5358"/>
<path fill-rule="evenodd" clip-rule="evenodd" d="M10 7.55902L2.11803 11.5L3 11.941L10.882 8L10 7.55902ZM10 7L1 11.5L3 12.5L12 8L10 7Z" fill="#4F5358"/>
<path fill-rule="evenodd" clip-rule="evenodd" d="M16 4L11 6.5L13 7.5L16 6V5.44098L13 6.94098L12.118 6.5L16 4.55902V4Z" fill="#4F5358"/>
<path fill-rule="evenodd" clip-rule="evenodd" d="M1 11.5L0.5 13L2.5 14L3 12.5L1 11.5ZM1.17522 11.923L0.866884 12.848L2.32478 13.577L2.63312 12.652L1.17522 11.923Z" fill="#4F5358"/>
<path d="M11.5 5.49992L10.941 5.22041L13.5 4L14.059 4.27951L11.5 5.49992Z" fill="#4F5358"/>
<path fill-rule="evenodd" clip-rule="evenodd" d="M11 9V9.5L10 10V9.5L11 9ZM9 10.5V10L8 10.5V11L9 10.5ZM4 13V12.5L3 13V13.5L4 13Z" fill="#4F5358"/>
<path fill-rule="evenodd" clip-rule="evenodd" d="M13 10L13.5 9.75V9.49446C13.5 9.19145 13.6712 8.91443 13.9422 8.77892L15.0658 8.21712C15.2653 8.11738 15.5 8.26243 15.5 8.48545V8.75L16 8.5V9.25L2.5 16H1L2.5 15.25L1.5 14.75L0 15.5V14.75L1 14.25V14L0.5 13L2 13.75L2.7 13.4L2.5 14L2.6 14.2L3 15L3.5 14.75V14.4945C3.5 14.1914 3.6712 13.9144 3.94223 13.7789L6.06584 12.7171C6.26531 12.6174 6.5 12.7624 6.5 12.9854V13.25L8.5 12.25V11.9945C8.5 11.6914 8.6712 11.4144 8.94223 11.2789L11.0658 10.2171C11.2653 10.1174 11.5 10.2624 11.5 10.4854V10.75L12 10.5V8L11 7.5V6.5L13 7.5V10Z" fill="#4F5358"/>
</svg>
