<svg width="16" height="16" viewBox="0 0 16 16" fill="none" xmlns="http://www.w3.org/2000/svg">
<path fill-rule="evenodd" clip-rule="evenodd" d="M8.67422 7.8499C8.53612 7.8499 8.4186 7.88844 8.3229 7.95006L7.94392 7.36153C8.15131 7.22798 8.40016 7.1499 8.67422 7.1499H9.21494V7.8499H8.67422ZM11.3778 7.8499H10.2964V7.1499H11.3778V7.8499ZM13 7.8499H12.4593V7.1499H13V7.8499ZM8.02811 8.59099C8.04361 8.70376 8.09083 8.81806 8.1807 8.92292L8.57696 9.38522L8.04548 9.84077L7.64922 9.37847C7.47087 9.17039 7.3682 8.93064 7.33463 8.68626L8.02811 8.59099ZM9.36948 10.3098L10.162 11.2344L9.63052 11.69L8.838 10.7654L9.36948 10.3098ZM10.9545 12.159L11.3508 12.6213C11.5291 12.8294 11.6318 13.0692 11.6654 13.3135L10.9719 13.4088C10.9564 13.296 10.9092 13.1817 10.8193 13.0769L10.423 12.6146L10.9545 12.159ZM11.0561 14.6383C10.8487 14.7718 10.5998 14.8499 10.3258 14.8499H9.86792V14.1499H10.3258C10.4639 14.1499 10.5814 14.1114 10.6771 14.0497L11.0561 14.6383ZM3.45786 14.8499H3V14.1499H3.45786V14.8499ZM5.28931 14.8499H4.37358V14.1499H5.28931V14.8499ZM7.12075 14.8499H6.20503V14.1499H7.12075V14.8499ZM8.9522 14.8499H8.03647V14.1499H8.9522V14.8499Z" fill="#4F5358"/>
<path fill-rule="evenodd" clip-rule="evenodd" d="M11.5154 4.525L13 7L14.4846 4.525C14.7143 4.15 15 3.64998 15 3.1C15 1.94021 14.1046 1 13 1C11.8954 1 11 1.94021 11 3.1C11 3.64998 11.2857 4.15 11.5154 4.525ZM13 4C13.5523 4 14 3.55228 14 3C14 2.44772 13.5523 2 13 2C12.4477 2 12 2.44772 12 3C12 3.55228 12.4477 4 13 4Z" fill="#4F5358"/>
<path fill-rule="evenodd" clip-rule="evenodd" d="M1.51542 11.525L3 14L4.48458 11.525C4.71429 11.15 5 10.65 5 10.1C5 8.94021 4.10456 8 3 8C1.89544 8 1 8.94021 1 10.1C1 10.65 1.28571 11.15 1.51542 11.525ZM3 11C3.55228 11 4 10.5523 4 10C4 9.44772 3.55228 9 3 9C2.44772 9 2 9.44772 2 10C2 10.5523 2.44772 11 3 11Z" fill="#4F5358"/>
</svg>
