<svg width="16" height="16" viewBox="0 0 16 16" fill="none" xmlns="http://www.w3.org/2000/svg">
<path d="M2 0.559017V0L0 1L2 2V1.44098L1.11803 1L2 0.559017Z" fill="#4F5358"/>
<path d="M2 6.55902V6L0 7L2 8V7.44098L1.11803 7L2 6.55902Z" fill="#4F5358"/>
<path d="M14 2.44098V3L14.882 3.44098L14 3.88197V4.44098L16 3.44098L14 2.44098Z" fill="#4F5358"/>
<path fill-rule="evenodd" clip-rule="evenodd" d="M3.25 8.24997C3.25 5.48856 5.48857 3.25 8.25 3.25C11.0114 3.25 13.25 5.48856 13.25 8.24997C13.25 9.37336 12.8798 10.4096 12.2547 11.2442L12.1248 11.4177L14.6036 13.8965C14.7988 14.0917 14.7988 14.4083 14.6036 14.6036C14.4083 14.7988 14.0917 14.7988 13.8964 14.6036L11.4177 12.1248L11.2442 12.2547C10.4096 12.8798 9.37337 13.2499 8.25 13.2499C5.48857 13.2499 3.25 11.0114 3.25 8.24997ZM8.25 4.24999C6.04086 4.24999 4.25 6.04084 4.25 8.24997C4.25 10.4591 6.04086 12.2499 8.25 12.2499C10.4591 12.2499 12.25 10.4591 12.25 8.24997C12.25 6.04084 10.4591 4.24999 8.25 4.24999Z" fill="#4F5358"/>
<path d="M2 0.559017V0L4 1L2 2V1.44098L2.88197 1L2 0.559017Z" fill="#4F5358"/>
<path d="M14 3V2.44098L12 3.44098L13.2502 4.06609L12.3078 4.53721C12.4234 4.66349 12.5332 4.79517 12.6367 4.93185L13.8092 4.3456L14 4.44098V4L13 3.5L14 3Z" fill="#4F5358"/>
<path d="M10.8016 5.85427L7.27942 7.63985L6.55908 8.00002L7.27236 8.36382L8 8L11 9.5L8 11L5 9.5L6.71334 8.64333L6.00006 8.27953L5.11173 8.7237C5.04135 8.75889 4.95851 8.75889 4.88813 8.7237L4.77458 8.66692C4.75835 8.5302 4.75 8.39106 4.75 8.24997C4.75 8.1988 4.7511 8.14789 4.75327 8.09725L4.99993 8.22058L6.7204 7.36034L8.5 6.45808L6.25792 5.37183C6.42145 5.25842 6.59512 5.1586 6.77729 5.07399L9.05507 6.17666L10.4053 5.4921C10.5465 5.60262 10.679 5.72374 10.8016 5.85427Z" fill="#4F5358"/>
<path d="M3.02935 6.51468C2.9067 6.88388 2.82211 7.27046 2.78024 7.66975L2.72037 7.63982L2 8V7.44098L2.88197 7L2 6.55902V6L3.02935 6.51468Z" fill="#4F5358"/>
<path d="M4.29969 4.4231L3.88813 4.2237C3.80343 4.18135 3.74993 4.09478 3.74993 4.00009C3.74993 3.9054 3.80343 3.81883 3.88813 3.77648L5.44091 3.00009L2.72045 1.63986L3.27947 1.36035L6.11173 2.77648C6.19643 2.81883 6.24993 2.9054 6.24993 3.00009C6.24993 3.05203 6.23383 3.10152 6.20533 3.14261C5.83501 3.291 5.48458 3.47849 5.15915 3.69999L4.55895 4.00009L4.68542 4.06132C4.55112 4.17572 4.42239 4.29647 4.29969 4.4231Z" fill="#4F5358"/>
</svg>
