<svg width="16" height="16" viewBox="0 0 16 16" fill="none" xmlns="http://www.w3.org/2000/svg">
<path d="M10 14.941L15.5 12.191V9.80902L15.441 9.77951L16 9.5V12.5L10 15.5L7 14V11L7.55902 11.2795L7.5 11.309V13.691L10 14.941Z" fill="#4F5358"/>
<path fill-rule="evenodd" clip-rule="evenodd" d="M7 11L10 12.5L16 9.5L13 8L7 11Z" fill="#4F5358"/>
<path d="M10.25 14.816L10 14.941L9.75 14.816V12.375L10 12.5L10.25 12.375V14.816Z" fill="#4F5358"/>
<path d="M11.25 14.316L10.7578 14.5621C10.7527 14.5422 10.75 14.5214 10.75 14.5V12.125L11.25 11.875V14.316Z" fill="#4F5358"/>
<path d="M12.25 13.816L11.7578 14.0621C11.7527 14.0422 11.75 14.0214 11.75 14V11.625L12.25 11.375V13.816Z" fill="#4F5358"/>
<path d="M13.25 13.316L12.7578 13.5621C12.7527 13.5422 12.75 13.5214 12.75 13.5V11.125L13.25 10.875V13.316Z" fill="#4F5358"/>
<path d="M14.25 12.816L13.7578 13.0621C13.7527 13.0422 13.75 13.0214 13.75 13V10.625L14.25 10.375V12.816Z" fill="#4F5358"/>
<path d="M15.25 12.316L14.7578 12.5621C14.7527 12.5422 14.75 12.5214 14.75 12.5V10.125L15.25 9.875V12.316Z" fill="#4F5358"/>
<path d="M14.5578 14.2212C14.8288 14.0856 15 13.8086 15 13.5056V13.4854C15 13.2624 14.7653 13.1174 14.5658 13.2171L14.4422 13.2789C14.1712 13.4144 14 13.6914 14 13.9945V14.0146C14 14.2376 14.2347 14.3827 14.4342 14.283L14.5578 14.2212Z" fill="#4F5358"/>
<path d="M11.5578 15.7212C11.8288 15.5856 12 15.3086 12 15.0056V14.9854C12 14.7624 11.7653 14.6174 11.5658 14.7171L11.4422 14.7789C11.1712 14.9144 11 15.1914 11 15.4945V15.5146C11 15.7376 11.2347 15.8827 11.4342 15.783L11.5578 15.7212Z" fill="#4F5358"/>
<path d="M8 13.5L9.5 14.25V12.75L8 12V13.5Z" fill="white"/>
<path fill-rule="evenodd" clip-rule="evenodd" d="M9.5 14.25V12.75L8 12V13.5L9.5 14.25ZM9 13.441V13.059L8.5 12.809V13.191L9 13.441Z" fill="#4F5358"/>
<path d="M1 4L0 5.83333V4.66667L0.875 3.0625L7 0H10L10.5 0.5L9.5 1L8.79412 0.294118L7.92308 1.53846L7.15385 1.92308L8.23077 0.384615L5.5 1.75V2.75L5 3V2L1.53846 3.73077L2.61539 4.19231L2.07692 4.46154L1.5 4.21429L1.5 5.41667L1 6.33333V4Z" fill="#4F5358"/>
<path fill-rule="evenodd" clip-rule="evenodd" d="M16 3V2L0 10V11L3.5 9.25L3.5 10.25L2 11L4 12L6 11L4.5 10.25V8.75L7.5 7.25V8.25L6 9L8 10L10 9L8.5 8.25V6.75L11.5 5.25V6.25L10 7L12 8L14 7L12.5 6.25V4.75L16 3ZM12.5 6.80902V7L11.809 7.34549L12 7.44098L12.882 7L12.5 6.80902ZM8.88197 9L8 9.44098L7.80902 9.34549L8.5 9V8.80902L8.88197 9ZM4.5 10.809V11L3.80902 11.3455L4 11.441L4.88197 11L4.5 10.809ZM11.118 7L11.5 6.80902V7.19098L11.118 7ZM7.5 8.80902L7.11803 9L7.5 9.19098V8.80902ZM3.11803 11L3.5 10.809L3.5 11.191L3.11803 11Z" fill="#4F5358"/>
<path d="M14.6667 2.66667L12 0L3 4.5L0 10L1.375 9.3125L3.625 5.1875L11.6667 1.16667L13.6667 3.16667L14.6667 2.66667Z" fill="#4F5358"/>
<path d="M3.5 5.4165V8.24984L4 7.99984V4.99984L7.23077 6.38445L8 5.99984L8.76923 5.61522L11.5 1.71412V4.24984L12 3.99984L12 1.49984L11.6667 1.1665L11.2308 1.38445L8 5.99984V2.99984L7.5 3.24984V5.99984L4.53846 4.73061L4 4.99984L3.625 5.18734L3.5 5.4165Z" fill="#4F5358"/>
</svg>
