<svg width="16" height="16" viewBox="0 0 16 16" fill="none" xmlns="http://www.w3.org/2000/svg">
<path fill-rule="evenodd" clip-rule="evenodd" d="M11 13V14.5L13 13.5V12L11 13ZM12.5 12.809L11.5 13.309V13.691L12.5 13.191V12.809Z" fill="#4F5358"/>
<path fill-rule="evenodd" clip-rule="evenodd" d="M9 13V14.5L7 13.5V12L9 13ZM7.5 12.809L8.5 13.309V13.691L7.5 13.191V12.809Z" fill="#4F5358"/>
<path fill-rule="evenodd" clip-rule="evenodd" d="M10 16L6 14V11L12 8L16 10V13L10 16ZM15.5 12.25V12.691L10.25 15.316V12.875L15.441 10.2795L15.5 10.309V10.75L14 11.5V13L15.5 12.25ZM15.5 11.309V11.691L14.5 12.191V11.809L15.5 11.309ZM6.5 13.691L9.75 15.316V12.875L6.55902 11.2795L6.5 11.309V13.691Z" fill="#4F5358"/>
<path fill-rule="evenodd" clip-rule="evenodd" d="M3 4.43434V4.70008C3 4.86577 3.13431 5.00008 3.3 5.00008H3.7C3.86569 5.00008 4 4.86577 4 4.70008V3.87378C4 3.3147 3.3769 2.98122 2.91171 3.29135L1.81171 4.02468C1.61697 4.15451 1.5 4.37307 1.5 4.60712V11.2001C1.5 11.3658 1.63431 11.5001 1.8 11.5001H2.2C2.36569 11.5001 2.5 11.3658 2.5 11.2001V4.76767L3 4.43434Z" fill="#4F5358"/>
<path d="M6 11.3002C4.89594 11.2376 3.87499 11.0727 3 10.8305V10.3107C3.94834 10.5872 5.10183 10.7705 6.36635 10.8168L6 11V11.3002Z" fill="#4F5358"/>
<path d="M13.4722 8.7361C13.4915 8.67086 13.5 8.60894 13.5 8.5506V5.11561C12.4671 6.22002 9.94606 7 7 7C5.51275 7 4.13383 6.80122 3 6.46228V5.9392C4.10302 6.28784 5.48619 6.5 7 6.5C8.8819 6.5 10.5619 6.17212 11.7528 5.66175C12.3491 5.40618 12.7997 5.11471 13.094 4.81652C13.3862 4.52048 13.5 4.24513 13.5 4C13.5 3.75487 13.3862 3.47952 13.094 3.18348C12.7997 2.88529 12.3491 2.59382 11.7528 2.33825C10.5619 1.82788 8.8819 1.5 7 1.5C5.1181 1.5 3.43808 1.82788 2.24721 2.33825C1.65089 2.59382 1.20026 2.88529 0.905968 3.18348C0.6138 3.47952 0.5 3.75487 0.5 4C0.5 4.24513 0.6138 4.52048 0.905968 4.81652C0.935718 4.84666 0.967066 4.87674 1 4.90671V5.54611C0.807708 5.40934 0.640156 5.26546 0.5 5.11561V8.5506C0.5 8.75083 0.600224 8.99326 0.892201 9.26719C0.926031 9.29893 0.961969 9.33061 1 9.36219V9.98218C0.36518 9.56411 0 9.07427 0 8.5506V4.10615H0.00603258C0.002024 4.07701 0 4.04211 0 4C0 2.34315 3.13401 1 7 1C10.7899 1 13.8764 2.29081 13.9964 3.90258C13.9988 3.84024 14 3.82803 14 4C14 4.03553 13.9986 4.07092 13.9957 4.10615H14V8.5506C14 8.69035 13.974 8.82769 13.9238 8.9619L13.4722 8.7361Z" fill="#4F5358"/>
<path fill-rule="evenodd" clip-rule="evenodd" d="M3.3 5.49994C3.29014 5.49994 3.28033 5.49977 3.27055 5.49941C4.29627 5.80803 5.5819 6 7 6C8.83081 6 10.4409 5.68002 11.5558 5.20218C12.1151 4.96249 12.5038 4.70277 12.7382 4.4653C12.9683 4.23213 13 4.07605 13 4C13 3.92395 12.9683 3.76787 12.7382 3.5347C12.5038 3.29723 12.1151 3.03751 11.5558 2.79782C10.4409 2.31998 8.83081 2 7 2C5.16919 2 3.55915 2.31998 2.44417 2.79782C1.8849 3.03751 1.4962 3.29723 1.26184 3.5347C1.03173 3.76787 1 3.92395 1 4C1 4.04447 1.01085 4.11629 1.06585 4.21489C1.15043 3.97032 1.31312 3.75602 1.53436 3.60852L2.63436 2.87519C3.43183 2.34354 4.5 2.91521 4.5 3.87365V4.69995C4.5 5.14177 4.14183 5.49994 3.7 5.49994H3.3ZM8.25 5V4.25H7.86622C7.69331 4.39945 7.37014 4.5 7 4.5C6.44772 4.5 6 4.27614 6 4C6 3.72386 6.44772 3.5 7 3.5C7.37014 3.5 7.69331 3.60055 7.86622 3.75H12V4.25H11.75V5H11.25V4.25H10.25V5H9.75V4.25H8.75V5H8.25Z" fill="#4F5358"/>
</svg>
