<svg width="16" height="16" viewBox="0 0 16 16" fill="none" xmlns="http://www.w3.org/2000/svg">
<path d="M9.5 1V1.5L16 4.5V4L9.5 1Z" fill="#4F5358"/>
<path d="M1 6V6.5L15 13.5V13L1 6Z" fill="#4F5358"/>
<path fill-rule="evenodd" clip-rule="evenodd" d="M8 0L7 0.5L6 5L2.83522 6.58239L3.78029 7.05493L5.53846 6.61538L5.20881 7.76918L5.64631 7.98793L6.07692 6.48077L6.46154 6.38462L6.85714 7.57143L5.83522 8.08239L6.33522 8.33239L7 8L7.26591 8.79774L8.83522 9.58239L10.375 8.8125L9.86174 10.0956L10.2784 10.304L10.75 9.125L11.4574 10.8935L12.0824 11.206L11 8.5L10 5L9.90906 4.59075L11.6685 2.83127L10.9762 2.51172L9.59997 3.19987L9 0.5L8 0ZM8.25 7.625V8.75L8.57143 7.78571L8.25 7.625ZM7.75 8.75V7.625L7.42857 7.78571L7.75 8.75ZM8.71429 7.35714L8.25 7.125V5.875L9.4 5.3L8.71429 7.35714ZM7.75 7.125V6.0625L6.92308 6.26923L7.28571 7.35714L7.75 7.125ZM8.88197 5L8.25 5.31598V4.68402L8.88197 5ZM7.11803 5L7.75 5.31598V4.68402L7.11803 5ZM9.14998 3.42489L8.25 3.87491V0.875L8.55 0.725L9.14998 3.42489ZM7.75 4.12493V0.875L7.45 0.725L6.56251 4.71873L7.75 4.12493ZM6.6 5.3L6.76923 5.80769L7.33333 5.66667L6.6 5.3ZM6.30769 5.92308L6.26923 5.80769L6.23077 5.94231L6.30769 5.92308ZM5.69231 6.07692L5.83333 5.58333L4 6.5L5.69231 6.07692ZM9.40906 4.59075L9.3332 4.6666L8.49981 4.2499L9.24996 3.87483L9.40906 4.59075ZM9.81815 4.18166L9.69996 3.64983L11 2.99981L9.81815 4.18166ZM10 8.5L8.6 9.2L9 8L10 8.5ZM10.4167 8.20833L9.14286 7.57143L9.73077 5.80769L10.4167 8.20833Z" fill="#4F5358"/>
<path fill-rule="evenodd" clip-rule="evenodd" d="M10.7853 11.7283L9.20816 10.9397L9.44915 11.1271L8.25 14.125V10.4606L7.75 10.2106V14.125L6.55085 11.1271L7.73736 10.2043L7.35723 10.0142L6.40909 10.7727L5.7928 9.232L4.88813 8.77967L3.5 12.25L2 13L4 14L6 13L4.86957 12.4348L6.16949 11.4237L7.33333 14.3333L6 15L8 16L10 15L8.66667 14.3333L9.83051 11.4237L11.1304 12.4348L10 13L12 14L13.6644 13.1678L11.6644 12.1678L11.4615 12.2692L10.7853 11.7283ZM12.1545 12.6363L12.2647 12.9118L11.8916 12.6132L12 12.559L12.1545 12.6363ZM12.2582 13.3119L11.5679 12.7751L11.118 13L12 13.441L12.2582 13.3119ZM8.88197 15L8 15.441L7.11803 15L7.51967 14.7992L7.6 15H8.4L8.48033 14.7992L8.88197 15ZM4.53846 12.2692L6.0303 11.0758L5.25 9.125L4.08333 12.0417L4.53846 12.2692ZM4 12.559L4.10845 12.6132L3.73529 12.9118L3.84549 12.6363L4 12.559ZM4.43207 12.7751L4.88197 13L4 13.441L3.74184 13.3119L4.43207 12.7751Z" fill="#4F5358"/>
</svg>
