<svg width="16" height="16" viewBox="0 0 16 16" fill="none" xmlns="http://www.w3.org/2000/svg">
<path d="M3.27947 1.36035L2.72045 1.63986L5.44091 3.00009L3.88813 3.77648C3.80343 3.81883 3.74993 3.9054 3.74993 4.00009C3.74993 4.09478 3.80343 4.18135 3.88813 4.2237L6.72045 5.63986L7.27947 5.36035L4.55895 4.00009L6.11173 3.2237C6.19643 3.18135 6.24993 3.09478 6.24993 3.00009C6.24993 2.9054 6.19643 2.81883 6.11173 2.77648L3.27947 1.36035Z" fill="#4F5358"/>
<path d="M9.27942 5.63985L8.7204 5.36035L12.7204 3.36035L13.2794 3.63985L9.27942 5.63985Z" fill="#4F5358"/>
<path d="M6.7204 7.36034L4.99993 8.22058L3.27935 7.36029L2.72034 7.6398L4.88813 8.7237C4.95851 8.75889 5.04135 8.75889 5.11173 8.7237L7.27942 7.63985L6.7204 7.36034Z" fill="#4F5358"/>
<path d="M2 0.559017V0L0 1L2 2V1.44098L1.11803 1L2 0.559017Z" fill="#4F5358"/>
<path d="M14 2.55902V2L12 3L14 4V3.44098L13.118 3L14 2.55902Z" fill="#4F5358"/>
<path d="M2 6.55902V6L0 7L2 8V7.44098L1.11803 7L2 6.55902Z" fill="#4F5358"/>
<path d="M2 0.559017V0L4 1L2 2V1.44098L2.88197 1L2 0.559017Z" fill="#4F5358"/>
<path d="M14 2.55902V2L16 3L14 4V3.44098L14.882 3L14 2.55902Z" fill="#4F5358"/>
<path d="M2 6.55902V6L4 7L2 8V7.44098L2.88197 7L2 6.55902Z" fill="#4F5358"/>
<path d="M8 5L5 6.5L8 8V7.44098L6.11803 6.5L8 5.55902V5Z" fill="#4F5358"/>
<path d="M8 5L11 6.5L8 8V7.44098L9.88197 6.5L8 5.55902V5Z" fill="#4F5358"/>
<path d="M16 16V4.5L12.6667 6.16667L14 6.5L15 7.5L14 10L6 14H4L2 12.5L2.66667 11.1667L0 12.5V16H16Z" fill="#4F5358"/>
<path fill-rule="evenodd" clip-rule="evenodd" d="M14.2556 6.04866L15.8441 7.63712L6.14698 12.4857L1.13495 13.1122L2.6273 10.1275L11.9418 5.47021L14.2556 6.04866ZM12 6.00015L14 6.50015L15 7.50015L5.99998 12.0001L1.99998 12.5001L2.99998 10.5002L12 6.00015Z" fill="#4F5358"/>
</svg>
