<svg width="16" height="16" viewBox="0 0 16 16" fill="none" xmlns="http://www.w3.org/2000/svg">
<path fill-rule="evenodd" clip-rule="evenodd" d="M8 7.5C8 8.32843 7.10457 9 6 9C4.89543 9 4 8.32843 4 7.5C4 6.67157 4.89543 6 6 6C7.10457 6 8 6.67157 8 7.5ZM7.5 7.5C7.5 7.72155 7.38143 7.96025 7.11421 8.16066C6.92483 8.3027 6.67278 8.41377 6.38032 8.46648V7.54129L7.34981 7.07268C7.45248 7.21262 7.5 7.35974 7.5 7.5ZM6.83054 6.67254L6.00002 7.07706L5.16954 6.6725C5.40313 6.56591 5.68678 6.5 6 6.5C6.31325 6.5 6.59693 6.56592 6.83054 6.67254ZM4.64994 7.07302L5.5869 7.52934V8.4603C5.30837 8.40538 5.06805 8.29736 4.88579 8.16066C4.61857 7.96025 4.5 7.72155 4.5 7.5C4.5 7.35986 4.54744 7.21286 4.64994 7.07302Z" fill="#4F5358"/>
<path fill-rule="evenodd" clip-rule="evenodd" d="M16 16V7L14.7071 8.29289C14.2544 8.74565 13.6403 9 13 9C12.3597 9 11.7456 9.25435 11.2929 9.70711L10.7071 10.2929C10.2544 10.7456 9.64029 11 9 11C8.35971 11 7.74565 11.2544 7.29289 11.7071L6.70711 12.2929C6.25435 12.7456 5.64029 13 5 13C4.35971 13 3.74565 13.2544 3.29289 13.7071L3 14C2.35971 14.6403 1.49129 15 0.585786 15H0V16H16ZM11.6134 12.65L10.5 11L9.38656 12.65C9.21429 12.9 9 13.2333 9 13.6C9 14.3732 9.67158 15 10.5 15C11.3284 15 12 14.3732 12 13.6C12 13.2333 11.7857 12.9 11.6134 12.65Z" fill="#4F5358"/>
<path fill-rule="evenodd" clip-rule="evenodd" d="M13 5.5V4L15 3V4.5L13 5.5ZM13.5 4.69098V4.30902L14.5 3.80902V4.19098L13.5 4.69098Z" fill="#4F5358"/>
<path fill-rule="evenodd" clip-rule="evenodd" d="M11 4V5.5L9 4.5V3L11 4ZM9.5 3.80902L10.5 4.30902V4.69098L9.5 4.19098V3.80902Z" fill="#4F5358"/>
<path fill-rule="evenodd" clip-rule="evenodd" d="M8 5L12 7L16 5V2L12 0L8 2V5ZM12.25 6.31598L15.5 4.69098V2.30902L15.441 2.27951L12.25 3.875V6.31598ZM11.75 6.31598L8.5 4.69098V2.30902L8.55902 2.27951L11.75 3.875V6.31598Z" fill="#4F5358"/>
<path d="M9.14635 9.42682L0 14V14.559L6.1228 11.4976C6.14084 11.436 6.16689 11.3745 6.20124 11.315C6.38688 10.9934 6.74451 10.8523 7.00001 10.9999C7.01775 11.0101 7.03453 11.0215 7.05033 11.0339L9.15471 9.98166C9.07461 9.82823 9.06881 9.62307 9.14635 9.42682Z" fill="#4F5358"/>
<path d="M10 9L16 6V6.55902L10.2349 9.44155C10.2309 9.25358 10.1497 9.08678 10 9Z" fill="#4F5358"/>
<path d="M8 0H11L2.21554 4.39223C1.92073 4.53964 1.92073 4.96036 2.21554 5.10777L4.70884 6.35442C4.27527 6.62957 4 7.04067 4 7.5L1.54105 6.27053C0.288073 5.64404 0.288073 3.85596 1.54105 3.22947L8 0Z" fill="#4F5358"/>
<path fill-rule="evenodd" clip-rule="evenodd" d="M9.62918 8.81459L7.90697 7.95349C7.72891 8.37507 7.30917 8.71603 6.76975 8.88488L9.02918 10.0146C9.09195 10.046 9.15627 10.0665 9.22048 10.0773C9.25086 10.1113 9.28644 10.1406 9.32705 10.1641C9.34915 10.1768 9.37201 10.1874 9.39546 10.1959C9.64323 10.2863 9.95675 10.1432 10.1265 9.84918C10.3121 9.52762 10.2555 9.14737 10 8.99986C9.97761 8.98693 9.95443 8.97621 9.93064 8.96764C9.89029 8.95303 9.8482 8.9446 9.80529 8.94199C9.75471 8.89102 9.69551 8.84775 9.62918 8.81459ZM9.86659 9.1577C9.73481 9.11057 9.51485 9.17179 9.37444 9.41498C9.22136 9.68013 9.3029 9.91903 9.42772 9.99109C9.43786 9.99695 9.44881 10.002 9.46046 10.0062C9.59224 10.0533 9.81221 9.99213 9.95261 9.74893C10.1057 9.48378 10.0242 9.24489 9.89934 9.17282C9.88919 9.16696 9.87824 9.16191 9.86659 9.1577Z" fill="#4F5358"/>
<path d="M2 0H5L0 2.5V1L2 0Z" fill="#4F5358"/>
<path fill-rule="evenodd" clip-rule="evenodd" d="M0 9V7.5L6.62918 10.8146C6.6956 10.8478 6.75487 10.8911 6.8055 10.9422C6.87362 10.9463 6.93966 10.965 7.00001 10.9999C7.25551 11.1474 7.31214 11.5276 7.12649 11.8492C6.94084 12.1707 6.58322 12.3118 6.32772 12.1643C6.28705 12.1408 6.25142 12.1114 6.22101 12.0774C6.15663 12.0666 6.09212 12.0461 6.02918 12.0146L0 9ZM6.90001 11.1731C6.77519 11.101 6.52753 11.1498 6.37444 11.415C6.22136 11.6801 6.3029 11.919 6.42772 11.9911C6.55254 12.0632 6.8002 12.0143 6.95328 11.7492C7.10637 11.484 7.02483 11.2451 6.90001 11.1731Z" fill="#4F5358"/>
</svg>
