<?xml version="1.0" standalone="no"?>
<!DOCTYPE svg PUBLIC "-//W3C//DTD SVG 20010904//EN"
 "http://www.w3.org/TR/2001/REC-SVG-20010904/DTD/svg10.dtd">
<svg version="1.0" xmlns="http://www.w3.org/2000/svg"
 width="300.000000pt" height="200.000000pt" viewBox="0 0 300.000000 200.000000"
 preserveAspectRatio="xMidYMid meet">

<g transform="translate(0.000000,200.000000) scale(0.100000,-0.100000)"
fill="#ffffff" stroke="none">
<path d="M693 1728 c-76 -130 -105 -244 -106 -408 -1 -101 3 -141 22 -207 27
-97 91 -228 112 -228 20 0 83 130 110 228 31 113 32 296 0 412 -22 84 -88 226
-107 232 -7 2 -20 -11 -31 -29z m66 -99 c48 -108 63 -173 68 -307 6 -140 -10
-192 -21 -70 -10 107 -64 288 -86 288 -24 0 -77 -178 -87 -289 -5 -61 -8 -70
-16 -50 -13 34 -2 222 17 293 20 73 75 206 86 206 4 0 22 -32 39 -71z m-15
-456 c9 -26 16 -74 16 -108 0 -62 -24 -155 -41 -155 -14 0 -39 100 -39 155 0
55 25 155 39 155 5 0 16 -21 25 -47z"/>
<path d="M425 1316 c-176 -44 -324 -193 -364 -366 -64 -276 127 -557 407 -600
133 -21 265 14 379 101 l53 40 0 169 0 170 -180 0 -180 0 0 -70 0 -71 32 17
c95 49 208 -17 208 -121 0 -138 -212 -231 -357 -156 -61 31 -96 64 -127 120
-89 164 4 365 188 406 l51 11 3 182 2 182 -32 -1 c-18 0 -55 -6 -83 -13z"/>
<path d="M970 1085 l0 -245 45 0 45 0 0 220 0 220 40 0 c36 0 40 3 40 25 0 25
-1 25 -85 25 l-85 0 0 -245z"/>
<path d="M1200 1322 c0 -16 -40 -408 -45 -444 l-5 -38 45 0 45 0 0 43 c0 66 9
87 36 87 22 0 24 -4 24 -42 0 -76 7 -88 51 -88 l39 0 0 43 c0 23 -7 98 -14
167 -8 69 -18 160 -22 203 l-6 77 -74 0 c-41 0 -74 -4 -74 -8z m89 -230 c1
-65 -1 -73 -16 -70 -16 3 -18 15 -14 118 2 63 6 120 10 125 8 13 19 -80 20
-173z"/>
<path d="M1459 1314 c-7 -9 -15 -42 -17 -75 l-4 -59 45 0 46 0 3 48 c2 34 7
47 18 47 11 0 16 -15 18 -63 3 -73 -7 -92 -49 -92 -24 0 -29 -4 -29 -25 0 -21
5 -25 29 -25 43 0 52 -19 49 -97 -2 -52 -6 -68 -18 -68 -11 0 -16 14 -18 53
l-3 52 -45 0 -44 0 0 -60 c0 -51 4 -65 25 -85 20 -21 34 -25 85 -25 51 0 65 4
85 25 23 22 25 32 25 109 0 88 -11 116 -48 116 -11 1 -8 6 10 16 15 8 31 26
34 40 10 38 0 150 -15 168 -19 23 -163 23 -182 0z"/>
<path d="M1730 1084 l0 -245 43 3 42 3 3 218 c2 184 5 217 17 217 13 0 15 -32
15 -220 l0 -220 45 0 45 0 0 245 0 245 -105 0 -105 0 0 -246z"/>
<path d="M2010 1085 l0 -245 45 0 45 0 0 85 0 85 43 0 c73 0 82 19 82 165 0
89 -4 126 -14 138 -11 14 -32 17 -107 17 l-94 0 0 -245z m130 90 c0 -92 -5
-115 -26 -115 -11 0 -14 22 -14 103 0 108 4 124 27 106 9 -8 13 -37 13 -94z"/>
<path d="M2314 1316 c-18 -13 -19 -28 -19 -226 0 -210 0 -212 24 -231 17 -14
39 -19 85 -19 103 0 100 -6 104 235 4 258 5 255 -101 255 -47 0 -80 -5 -93
-14z m106 -226 c0 -120 -4 -181 -11 -186 -23 -14 -29 25 -29 187 0 159 7 198
32 183 4 -3 8 -86 8 -184z"/>
<path d="M2580 1085 l0 -245 45 0 45 0 1 153 c0 83 3 146 6 139 3 -7 15 -74
26 -150 l22 -137 36 -3 36 -3 23 146 c12 80 26 148 31 151 5 3 9 -61 9 -146
l0 -151 40 3 41 3 2 243 2 242 -62 0 c-56 0 -63 -2 -63 -20 0 -24 -50 -303
-56 -309 -2 -2 -6 2 -8 10 -5 14 -56 299 -56 312 0 4 -27 7 -60 7 l-60 0 0
-245z"/>
<path d="M962 515 l3 -165 993 -3 992 -2 0 168 0 167 -995 0 -995 0 2 -165z
m145 49 c-6 -75 0 -75 28 4 17 49 24 57 48 60 l27 3 0 -115 0 -116 -26 0 c-26
0 -26 1 -22 65 2 35 2 62 -1 59 -3 -3 -15 -31 -27 -62 -17 -48 -25 -58 -47
-60 l-27 -3 0 115 0 116 26 0 c27 0 27 0 21 -66z m343 21 c0 -41 2 -45 25 -45
23 0 25 4 25 45 0 41 2 45 25 45 l25 0 0 -115 0 -115 -25 0 c-23 0 -25 3 -25
50 0 47 -2 50 -25 50 -23 0 -25 -3 -25 -50 0 -47 -2 -50 -25 -50 l-25 0 0 115
0 115 25 0 c23 0 25 -4 25 -45z m426 20 c14 -22 14 -27 1 -54 -13 -26 -13 -32
-1 -42 19 -15 18 -59 -2 -87 -13 -19 -24 -22 -75 -22 l-59 0 0 115 0 115 60 0
c52 0 62 -3 76 -25z m332 8 c-2 -13 -14 -19 -41 -21 -32 -3 -37 -7 -37 -28 0
-21 5 -24 35 -24 28 0 35 -4 35 -20 0 -16 -7 -20 -35 -20 -32 0 -35 -2 -35
-30 0 -28 2 -30 40 -30 33 0 40 -3 40 -20 0 -18 -7 -20 -65 -20 l-65 0 0 115
0 115 66 0 c57 0 65 -2 62 -17z m304 0 c26 -23 24 -63 -3 -63 -12 0 -23 8 -26
20 -3 11 -14 20 -25 20 -17 0 -19 -7 -16 -72 2 -59 6 -73 20 -76 11 -2 18 5
20 20 2 15 11 24 26 26 18 3 22 -1 22 -24 0 -39 -26 -64 -68 -64 -59 0 -72 21
-72 113 0 61 4 85 17 99 20 23 80 24 105 1z m348 -3 c0 -15 -7 -20 -25 -20
-25 0 -25 0 -25 -95 0 -95 0 -95 -25 -95 -25 0 -25 0 -25 95 0 95 0 95 -25 95
-18 0 -25 5 -25 20 0 18 7 20 75 20 68 0 75 -2 75 -20z"/>
<path d="M1790 571 c0 -27 19 -36 37 -18 18 18 9 37 -18 37 -12 0 -19 -7 -19
-19z"/>
<path d="M1790 470 c0 -27 3 -31 23 -28 16 2 22 10 22 28 0 18 -6 26 -22 28
-20 3 -23 -1 -23 -28z"/>
</g>
</svg>
