<svg width="105" height="52" viewBox="0 0 105 52" fill="none" xmlns="http://www.w3.org/2000/svg">
<path d="M32.1512 33.6968H38.7602V35.8441H35.6164V51.0066H32.1512V33.6968Z" fill="white"/>
<path d="M38.8359 51.0066H42.2267L42.5496 46.4074H44.1817L44.5046 51.0066H47.8909L46.0862 33.6968H40.6422L38.8359 51.0066V51.0066ZM42.6716 44.502L43.2667 35.8426H43.4646L44.0553 44.502H42.6716Z" fill="white"/>
<path d="M52.8727 44.947V48.2068C52.8727 48.6517 53.2209 48.7772 53.4188 48.7772C53.7402 48.7772 53.9618 48.5039 53.9618 48.2068V44.181C53.9618 43.6374 53.8622 43.0446 52.5737 43.0446H51.1662V41.1377H52.6258C53.6152 41.1377 53.9618 40.9167 53.9618 39.8535V36.4116C53.9618 36.1144 53.7402 35.8441 53.4188 35.8441C53.2209 35.8441 52.8727 35.9681 52.8727 36.4116V39.2353H49.4091V36.7879C49.4091 35.5753 49.5564 33.6968 51.9815 33.6968H54.8545C57.2827 33.6968 57.427 35.5753 57.427 36.7879V39.5564C57.427 41.4349 56.1162 41.956 55.0777 41.9052V42.0785C57.4032 42.0292 57.427 43.8106 57.427 44.4273V47.9156C57.427 49.1266 57.2827 51.0066 54.8545 51.0066H51.9815C49.5564 51.0066 49.4091 49.1266 49.4091 47.9156V44.947H52.8727V44.947Z" fill="white"/>
<path d="M59.7024 33.6968H67.7219V51.0066H64.2567V35.8441H63.1661V51.0066H59.7024V33.6968Z" fill="white"/>
<path d="M69.9961 51.0066H73.4613V45.1217H75.4416C77.8668 45.1217 78.0155 43.2417 78.0155 42.0292V36.7864C78.0155 35.5753 77.8668 33.6968 75.4416 33.6968H69.9961V51.0066ZM73.4613 43.2178V35.8441H73.9091C74.2781 35.8441 74.5504 36.1652 74.5504 36.7072V42.3517C74.5504 42.8953 74.2781 43.2178 73.9091 43.2178H73.4613Z" fill="white"/>
<path d="M80.2894 47.9171C80.2894 49.1266 80.4397 51.0066 82.8649 51.0066H85.7364C88.1616 51.0066 88.3119 49.1266 88.3119 47.9171V36.7864C88.3119 35.5753 88.1616 33.6968 85.7364 33.6968H82.8649C80.4397 33.6968 80.2894 35.5753 80.2894 36.7864V47.9171ZM84.8467 48.2068C84.8467 48.5039 84.6235 48.7772 84.3007 48.7772C84.1028 48.7772 83.7546 48.6517 83.7546 48.2068V36.4116C83.7546 35.9666 84.1028 35.8426 84.3007 35.8426C84.6235 35.8426 84.8467 36.1144 84.8467 36.4116V48.2068Z" fill="white"/>
<path d="M99.5902 33.6968H104.095V51.0066H100.63V40.1507H100.507L98.7228 51.0066H95.9524L94.1714 40.1507H94.0479V51.0066H90.5828V33.6968H95.0865L97.3391 45.8638L99.5902 33.6968Z" fill="white"/>
<path d="M27.352 17.9027C27.3133 19.6737 27.1021 21.5418 26.8328 22.6587C26.931 20.7324 26.6974 18.0192 26.254 15.8988C25.8121 13.7813 24.5579 10.2379 23.5551 8.59977C22.6296 10.1602 21.4944 13.2244 20.8948 15.8794C20.2967 18.5388 20.2773 21.7553 20.2773 22.717C20.1211 21.9046 19.7239 19.0062 19.834 16.0914C19.9262 13.6888 20.4916 11.2189 20.7996 10.0841C21.975 6.28972 23.3051 3.86468 23.5551 3.47644C23.8065 3.86468 25.4818 6.84969 26.3507 9.9885C27.2166 13.1258 27.3907 16.1317 27.352 17.9027V17.9027ZM23.5759 31.4569C23.0551 30.4714 22.2443 28.6063 22.1669 25.7214C22.1476 22.9305 23.2664 20.5413 23.5937 20.0396C23.8854 20.5413 24.8465 22.6214 24.9611 25.472C25.0399 28.2599 24.1145 30.4535 23.5759 31.4569ZM27.6615 10.0258C26.6022 5.38481 23.9419 1.60988 23.5759 0.993164C22.9986 1.85925 20.8769 5.19069 19.7968 8.88947C18.6199 13.0108 18.4488 16.6693 18.8535 20.271C19.2567 23.8742 20.7802 27.57 20.7802 27.57C21.5896 29.5127 22.8037 31.5883 23.5937 32.6112C24.7498 31.106 27.4086 26.6278 28.2403 20.7698C28.703 17.519 28.7208 14.6683 27.6615 10.0258V10.0258Z" fill="white"/>
<path d="M25.3796 33.6908H17.3125V39.0993C17.3199 39.0918 17.3244 39.0844 17.3318 39.0799C19.2333 37.179 22.3161 37.179 24.2176 39.0799C26.116 40.9778 26.116 44.0584 24.2176 45.9563C24.2071 45.9653 24.1997 45.9698 24.1923 45.9787L24.1908 45.9817C24.1818 45.9892 24.1729 45.9981 24.1625 46.0056C22.2685 47.8871 19.7912 48.8278 17.3125 48.8278C14.8233 48.8278 12.3357 47.8796 10.4372 45.9832C7.09253 42.6413 6.69528 37.4687 9.24394 33.6908C9.5921 33.1801 9.98638 32.6963 10.4372 32.2438C12.3357 30.3489 14.8233 29.4021 17.3125 29.4021V16.3989C7.75015 16.3989 0 24.1459 0 33.6908C0 43.2446 7.75015 50.9901 17.3125 50.9901C22.2982 50.9901 26.79 48.8846 29.9487 45.5143V33.6908H25.3796V33.6908Z" fill="white"/>
</svg>
