<?xml version="1.0" standalone="no"?>
<!DOCTYPE svg PUBLIC "-//W3C//DTD SVG 1.1//EN" "http://www.w3.org/Graphics/SVG/1.1/DTD/svg11.dtd" >
<svg xmlns="http://www.w3.org/2000/svg">
<metadata>
<json>
<![CDATA[
{
	"fontFamily": "GazpromIcon",
	"majorVersion": 1,
	"minorVersion": 0,
	"description": "Gazprom Icon Set\nFont generated by IcoMoon.",
	"copyright": "TECHNOCOM",
	"designer": "Мартьянов Артём, lilp@yandex.ru",
	"version": "Version 1.0",
	"fontId": "GazpromIcon",
	"psName": "GazpromIcon",
	"subFamily": "Regular",
	"fullName": "GazpromIcon"
}
]]>
</json>
</metadata>
<defs>
<font id="GazpromIcon" horiz-adv-x="1024">
<font-face units-per-em="1024" ascent="960" descent="-64" />
<missing-glyph horiz-adv-x="1024" />
<glyph unicode="&#x20;" horiz-adv-x="512" d="" />
<glyph unicode="&#xe900;" glyph-name="materials" data-tags="Материалы производимые на карьере" d="M224.002 160l-32.002-32 32-32 32 32-31.998 32zM480.004 128l-32.002-32 32-32 32 32-31.998 32zM320 32l32.002 32 31.998-32-32-32-32 32zM768 160l-32-32 32-32 32 32-32 32zM224 480.375c-52.436-75.606-97.832-151.246-123.441-206.077-23.206-49.683-36.559-82.285-36.559-82.285l96-32 64 21.331v74.669l-32 32 32 31.998v160.364zM416 140.813l64 25.6v25.594l-32 32 32 32v256.001l-32 32 32 32v64l-32 32 32 32v54.899c-18.938-9.439-40.666-25.811-64-47.176v-327.723l32-32-32-32v-179.195zM303.34 587.377l-11.34-79.377 28-28.003-32-32-24.001 24.001-39.999-13.333v-138.671l32-32-32-32v-74.662l32 10.669 128-64 32 12.8v179.194l-32 32.003 32 32v327.723c-35.249-32.276-74.164-75.948-112.66-124.342zM303.34 587.375c-27.13-34.106-54.054-70.557-79.34-107.016v-21.695l39.999 13.332-7.999 7.999 32.002 32.002 3.998-3.999 11.34 79.377zM544 758.801c-11.811 5.972-22.57 9.199-32 9.199-9.379 0-20.142-3.193-32-9.103v-54.899l32-32-32-32v-64l32-32-32-32v-255.998l32-32-32-32v-25.6l64 25.6v191.998l-32 32 32 32v310.803zM608 710.715c-23.286 21.791-45.004 38.493-64 48.098v-310.803l32-32-32-32v-191.997l64-64v319.997l-32 32 32 32.001v64l-32 32 32 32v70.705zM640 95.987l-32 32v319.996l32 32-32 32v64l32 32-32 32v70.705c20.389-19.080 41.978-42.060 64-67.592v-259.113l-32-32 32-32.002v-64l-32-32 32-32v-63.994l-32-32zM736 563.589c-21.274 28.060-42.835 54.961-64 79.505v-259.113l32-32-32-32v-64l32-32-32-32v-63.994l64 64.006v191.987l-32 32 32 32v115.608zM800 474.572c-20.525 30.031-42.106 60.14-64 89.021v-115.608l32-32-32-32v-191.985l64-16.006v15.994l-32 32 32 32v218.585zM864 375.691c-19.296 31.64-40.979 65.222-64 98.903v-218.588l32-32-32-32v-15.994l64-16.006v96l-32 32 32 32.001v55.684zM864 160l96 32.013c0 0-14.49 32.602-39.155 82.285-14.4 29.005-33.939 63.825-56.845 101.386v-55.684l32-32-32-32v-96z" />
<glyph unicode="&#xe901;" glyph-name="transport-objects" data-tags="Объекты транспортной схемы" d="M128 924.223v35.777l-128-64 128-64v35.777l-56.446 28.223 56.446 28.223zM128 540.223v35.777l-128-64 128-64v35.777l-56.446 28.223 56.446 28.223zM896 803.777v-35.777l56.448-28.223-56.448-28.223v-35.777l128 64-128 64zM208 432.002c0 176.73 143.268 319.998 320 319.998 176.73 0 320-143.268 320-319.998 0-71.897-23.693-138.216-63.699-191.631l-8.314-11.104 158.643-158.643c12.493-12.493 12.493-32.755 0-45.254-12.499-12.493-32.762-12.493-45.261 0l-158.637 158.643-11.104-8.314c-53.414-40.006-119.733-63.693-191.629-63.693-176.732 0-320 143.264-320 319.996zM528 688.001c-141.385 0-256-114.614-256-255.999s114.615-255.996 256-255.996c141.382 0 256 114.611 256 255.996s-114.618 255.999-256 255.999zM128 924.223v35.777l128-64-128-64v35.777l56.446 28.223-56.446 28.223zM896 768v35.777l-128-64 80.013-40.007-60.314-30.152c7.398-8.082 14.426-16.509 21.050-25.257l75.040 37.52 12.211-6.104v28.223l-64 32 64 32zM691.302 585.327l-225.42-114.277-46.102-23.051 45.65-23.283 46.569 23.284 192-96-192-96-192 96 109.654 54.827-45.65 23.283-56.853-28.427c-4.504-2.252-9.806-2.252-14.31 0l-7.267 3.634c-1.039 8.75-1.573 17.655-1.573 26.685 0 3.275 0.070 6.533 0.209 9.774l15.786-7.893 110.11 55.055 113.894 57.745-143.493 69.52c10.466 7.258 21.581 13.647 33.24 19.062l145.778-70.571 86.415 43.812c9.037-7.073 17.517-14.825 25.363-23.179zM193.878 543.060c-7.85-23.629-13.263-48.37-15.943-73.924l-3.832 1.916-46.104-23.052v35.777l56.446 28.223-56.446 28.223v35.777l65.878-32.94zM275.18 676.922l-26.34 12.762c-5.421 2.71-8.845 8.251-8.845 14.311s3.424 11.601 8.845 14.311l99.378 49.689-174.109 87.055 35.777 17.889 181.265-90.632c5.421-2.71 8.845-8.251 8.845-14.311 0-3.324-1.030-6.492-2.854-9.121-23.7-9.497-46.128-21.496-66.956-35.672l-38.413-19.206 8.094-3.919c-8.595-7.322-16.834-15.050-24.687-23.154z" />
<glyph unicode="&#xe902;" glyph-name="params" data-tags="Параметры расчета" d="M704 768h-384v-32h384v32zM704 640h-384v-32h384v32zM832 0v895.996l-640 0.005-0.967-320v-53.905l-38.117 38.123-24.916-24.918v424.701l768-0.006v-1023.994h-768v104.698l24.916-24.915 38.117 38.125v-53.907h640.967zM255.033 512h65.934v-54.574c0-15.153 10.483-27.613 23.645-33.084 13.226-5.497 29.201-3.917 39.882 6.764l38.591 38.596 46.617-46.621-38.601-38.604c-10.675-10.676-12.253-26.644-6.756-39.863 5.473-13.161 17.933-23.647 33.089-23.647h54.567v-65.933h-54.567c-15.155 0-27.615-10.49-33.089-23.648-5.497-13.216-3.919-29.184 6.756-39.866l38.357-39.859-46.373-45.363-38.591 38.598c-10.68 10.682-26.655 12.262-39.882 6.765-13.162-5.472-23.645-17.933-23.645-33.088v-54.573h-65.934v54.573c0 15.155-10.483 27.616-23.645 33.088-13.226 5.498-29.201 3.917-39.882-6.765l-38.591-38.598-46.617 46.624 38.601 38.598c10.675 10.682 12.253 26.65 6.756 39.866-5.473 13.158-17.934 23.648-33.089 23.648h-54.567v65.933h54.567c15.155 0 27.615 10.486 33.089 23.647 5.497 13.219 3.919 29.187-6.756 39.863l-38.601 38.604 46.617 46.621 38.591-38.596c10.68-10.682 26.655-12.261 39.882-6.764 13.162 5.471 23.645 17.932 23.645 33.084v54.574zM288 384c-53.020 0-96-42.98-96-96 0-53.018 42.98-96 96-96s96 42.982 96 96c0 53.020-42.98 96-96 96z" />
<glyph unicode="&#xe903;" glyph-name="tprk-protocol" data-tags="Протокол согласования ПТРК" d="M960-64h-832v1024h598.003l233.997-230.4v-793.6zM704 891.845l-4.218 4.155h-507.782v-896h704v702.799l-1.222 1.201h-190.778v187.845zM468.002 659l140-89.601 75.998 48.64 177.683-113.716-317.681-203.319-317.682 203.319 241.682 154.676zM285.684 504.324l258.318-165.324 258.321 165.324-118.323 75.724-75.998-48.64-140 89.6-182.318-116.684zM192 192h320v-32h-320v32zM192 96h320v-32h-320v32zM544 192v-192h-32v192h32zM854.63 278.63c12.493-12.499 12.493-32.762 0-45.261l-128-128c-12.499-12.493-32.762-12.493-45.261 0l-63.997 64c-12.497 12.499-12.497 32.762 0 45.261 12.497 12.493 32.758 12.493 45.258 0l41.37-41.376 105.37 105.376c12.499 12.493 32.762 12.493 45.261 0z" />
<glyph unicode="&#xe904;" glyph-name="templates" data-tags="Шаблоны" d="M192 0h640v895.996l-640 0.005v-896zM128-64v1024l768-0.006v-1023.994h-768zM256 672h512v-32h-512v32zM288 96h448v-32h-448v32zM288 800v-128h-32v160h512v-160h-32v128h-448zM288 288v-224h-32v256h512v-256h-32v224h-448zM256 576h512v-192h-512v192zM320 256h192v-128h-192v128z" />
<glyph unicode="&#xe905;" glyph-name="admin" data-tags="Администрирование" d="M512 448c-90.642 0-192 97.673-192 281.6 0 85.724 79.452 166.4 192 166.4v64c-141.385 0-256-103.153-256-230.4 0-201.6 114.615-345.6 256-345.6v64zM512 448c90.642 0 192 97.673 192 281.6 0 85.724-79.452 166.4-192 166.4v64c141.382 0 256-103.153 256-230.4 0-201.6-114.618-345.6-256-345.6v64zM512 384h-170.667c-125.676 0-227.555 0-284.444-224l-56.889-224h512v64h-429.715l36.634 144.243c26.538 104.499 59.685 140.845 86.499 156.39 30.692 17.798 68.957 19.366 135.914 19.366h170.667v64zM512 384h170.669c125.67 0 227.552 0 284.442-224l56.89-224h-512v64h429.715l-36.634 144.243c-26.541 104.499-59.686 140.845-86.502 156.39-30.688 17.798-68.954 19.366-135.91 19.366h-170.669v64z" />
<glyph unicode="&#xe906;" glyph-name="mine-takes" data-tags="Горный отвод" d="M992 480v-192c0-14.995-10.419-27.987-25.056-31.238l-288-64c-6.291-1.395-12.851-0.864-18.829 1.53l-116.115 46.445v-144.736c0-12.122-6.848-23.2-17.689-28.621l-192-96c-9.009-4.506-19.613-4.506-28.622 0l-256 128c-10.841 5.421-17.689 16.499-17.689 28.621v192h64v-172.224l224-112 160 80v172.224c0 10.618 5.267 20.544 14.060 26.496 8.792 5.955 19.965 7.159 29.825 3.213l150.822-60.326 253.293 56.288v166.33h64zM799.674 900.525c-1.312 9.196-6.554 17.367-14.368 22.391s-17.427 6.405-26.336 3.783l-544.001-160c-9.558-2.811-17.261-9.914-20.838-19.212l-160-416c-5.916-15.379 0.817-32.742 15.556-40.108l256-128c9.009-4.506 19.613-4.506 28.621 0l192 96c10.842 5.421 17.69 16.499 17.69 28.621s-6.848 23.2-17.69 28.621l-134.756 67.379h-103.554c0-12.121 6.848-23.201 17.689-28.622l134.756-67.378-120.445-60.224-215.704 107.853 143.896 374.131 493.358 145.105 26.771-187.391c0.838-5.875 3.296-11.402 7.098-15.96l126.387-151.666-227.098-50.467-150.825 60.33c-3.821 1.528-7.855 2.288-11.882 2.289v-67.776l1.456 0.728 146.659-58.663c5.978-2.392 12.538-2.924 18.822-1.527l288 64c10.899 2.422 19.744 10.345 23.347 20.908s1.44 22.242-5.702 30.816l-154.189 185.026-30.72 215.014zM511.998 444.224l-120.448-60.224h-103.554c0 12.121 6.848 23.201 17.689 28.621l192 96c4.494 2.247 9.398 3.379 14.313 3.379v-67.776z" />
<glyph unicode="&#xe907;" glyph-name="distances" data-tags="Дальность" d="M640 128h-128v-128h128v128zM789.869 320l-21.869-52.275h75.27l52.73-75.725h-160l-32-96 109.306-29.92c29.779-8.147 50.426-35.206 50.426-66.080v0h95.731v177.51c1.152 4.947 0.48 10.253-2.31 15.251-0.48 0.973-1.030 1.914-1.645 2.822l-56.954 98.291c-0.954 1.562-2.074 3.021-3.334 4.358-2.541 12.358-15.661 21.766-31.469 21.766h-73.882zM128 149.331l64-53.331h479.443l128.557 352h-64l-32-64h-575.881l-0.119-234.669zM768 21.331c11.782 0 21.331-9.549 21.331-21.331s-9.549-21.331-21.331-21.331c-11.782 0-21.331 9.549-21.331 21.331s9.549 21.331 21.331 21.331zM832 0c0 35.347-28.653 64-64 64s-64-28.653-64-64c0-35.347 28.653-64 64-64s64 28.653 64 64zM416 21.331c11.782 0 21.333-9.549 21.333-21.331s-9.551-21.331-21.333-21.331c-11.782 0-21.333 9.549-21.333 21.331s9.551 21.331 21.333 21.331zM480 0c0 35.347-28.654 64-64 64s-64-28.653-64-64c0-35.347 28.654-64 64-64s64 28.653 64 64zM256 21.331c11.782 0 21.333-9.549 21.333-21.331s-9.551-21.331-21.333-21.331c-11.782 0-21.333 9.549-21.333 21.331s9.551 21.331 21.333 21.331zM320 0c0 35.347-28.654 64-64 64s-64-28.653-64-64c0-35.347 28.654-64 64-64s64 28.653 64 64zM768 640v-64h-512v64h512zM640 768v-320l192 160-192 160zM384 768v-320l-192 160 192 160zM128 640v-64h-64v64h64zM0 704v-192h192v192h-192zM960 640v-64h-64v64h64zM832 704v-192h192v192h-192z" />
<glyph unicode="&#xe908;" glyph-name="opi" data-tags="Добыча и поставка ОПИ" horiz-adv-x="1088" d="M672 120.128h-192v-64h192v64zM637.586 448.005l-511.844-0.004c13.7 16.974 28.917 34.903 45.283 52.771 34.787 37.978 73.268 74.022 112.049 100.154 39.551 26.651 73.619 39.075 100.925 39.075 21.88 0 53.351-11.411 93.215-38.768 38.491-26.415 77.827-62.839 113.934-101.134 16.622-17.629 32.242-35.313 46.438-52.093zM589.536 438.767c-17.071 4.572-35.087-5.425-40.239-22.331l-68.266-224.001c-5.153-16.902 4.51-34.317 21.581-38.886 17.071-4.576 35.087 5.421 40.239 22.33l68.267 223.999c5.152 16.905-4.51 34.317-21.581 38.89zM418.911 438.767c-17.071 4.572-35.087-5.425-40.239-22.331l-68.267-224.001c-5.152-16.902 4.51-34.317 21.581-38.886 17.071-4.576 35.087 5.421 40.239 22.33l68.266 223.999c5.153 16.905-4.51 34.317-21.581 38.89zM248.161 438.767c-17.071 4.572-35.087-5.425-40.239-22.331l-68.267-224.001c-5.152-16.902 4.51-34.317 21.581-38.886 17.071-4.576 35.087 5.421 40.239 22.33l68.267 223.999c5.152 16.905-4.511 34.317-21.582 38.89zM32 447.875c-17.673 0-32-14.327-32-32v-256.003c0-17.67 14.327-32 32-32s32 14.33 32 32v256.003c0 17.673-14.327 32-32 32zM853.933 447.875l-21.933-64h75.482l52.518-110.634v-153.114h-32v-64h96v217.312c1.158 6.054 0.48 12.544-2.317 18.669-0.48 1.184-1.030 2.342-1.645 3.456l-57.12 120.329c-0.954 1.91-2.080 3.693-3.341 5.338-2.547 15.123-15.706 26.644-31.558 26.644h-74.086zM724.090 383.859l-65.792-192h-658.298v-64h704l125.088 365.036-61.126 18.98-21.939-64.016h-746.022v-64h724.090zM800 127.872c17.67 0 32-14.323 32-32 0-17.67-14.33-32-32-32s-32 14.33-32 32c0 17.677 14.33 32 32 32zM896 95.872c0 53.024-42.982 96-96 96s-96-42.976-96-96c0-53.018 42.982-96 96-96s96 42.982 96 96zM352 127.872c17.673 0 32-14.323 32-32 0-17.67-14.327-32-32-32s-32 14.33-32 32c0 17.677 14.327 32 32 32zM448 95.872c0 53.024-42.98 96-96 96s-96-42.976-96-96c0-53.018 42.98-96 96-96s96 42.982 96 96zM160 127.872c17.673 0 32-14.323 32-32 0-17.67-14.327-32-32-32s-32 14.33-32 32c0 17.677 14.327 32 32 32zM256 95.872c0 53.024-42.98 96-96 96s-96-42.976-96-96c0-53.018 42.98-96 96-96s96 42.982 96 96zM0 0v-64h1024v64h-1024z" />
<glyph unicode="&#xe909;" glyph-name="contracts" data-tags="Договоры" d="M909.472 435.487c24.864 24.867 24.864 65.183 0 90.050s-65.184 24.867-90.048 0l-371.459-371.457-64-154.048 154.050 64 371.457 371.455zM341.248 64h-149.248c-35.346 0-64 28.653-64 64v448c0 35.346 28.653 64 64 64l640-0.003c24.563 0 45.894-13.836 56.621-34.138 24.218-4.647 47.354-16.346 66.106-35.098 1.824-1.825 3.584-3.692 5.274-5.597v10.833c0 70.692-57.306 127.999-128 128l-640 0.003c-70.692 0-128-57.308-128-128v-448c0-70.694 57.308-128 128-128h127.961c-0.002 8.269 1.6 16.614 4.899 24.557l16.388 39.443zM628.524 64h203.476c35.347 0 64 28.653 64 64v203.476l58.726 58.725c1.824 1.825 3.584 3.692 5.274 5.597v-267.798c0-70.694-57.306-128-128-128h-281.219l23.51 9.766 54.233 54.234zM384 576h256v-32h-256v32zM640 767.999v-63.999h64v63.999c0 35.346-28.653 64-64 64l-256 0.001c-35.347 0-64-28.654-64-64v-64h64v64l256-0.001z" />
<glyph unicode="&#xe90a;" glyph-name="events" data-tags="Журнал событий" d="M192.005 773.461c-32.787 11.586-57.399 40.476-62.865 75.698-0.038-0.284-0.076-0.569-0.112-0.853-0.678-5.34-1.028-10.782-1.028-16.306v-768c0-70.694 57.307-128 128-128h640v896h-64v-832h-576c-35.347 0-64 28.653-64 64l0.005 709.461zM832 896h64v64h-64v-64zM832 896v64h-608c-53.020 0-96-42.981-96-96s42.98-96 96-96h608v64h-608c-17.673 0-32 14.327-32 32s14.327 32 32 32h608zM768 896h64v-64h-64v64zM960 576v192h-64v-192h64zM960 320v192h-64v-192h64zM960 64v192h-64v-192h64zM512 384l128-32v-32h-128v64zM512 576v-256h-64l32 256h32zM512 576v64c-141.385 0-256-114.615-256-256 0-141.382 114.615-256 256-256v64c-106.038 0-192 85.958-192 192 0 106.038 85.962 192 192 192zM512 576v64c141.382 0 256-114.615 256-256 0-141.382-114.618-256-256-256v64c106.038 0 192 85.958 192 192 0 106.038-85.962 192-192 192z" />
<glyph unicode="&#xe90b;" glyph-name="purchases" data-tags="закупки" d="M640 384h-320v256h384v63.997l-448 0.003v-384h448v352l-64-32v-256zM384 0h-320v256h384v64h-448v-384h448v352l-64-32v-256zM896 0h-320v256h384v64h-448v-384h448v352l-64-32v-256zM608.606 384l-307.2 256h49.986l307.2-256h-49.986zM352.606 0l-307.2 256h49.986l307.2-256h-49.986zM864.608 0l-307.202 256h49.986l307.2-256h-49.984z" />
<glyph unicode="&#xe90c;" glyph-name="land-takes" data-tags="Земельный отвод" d="M576 288c-4.903 0-9.806-1.126-14.311-3.379l-192-96c-10.841-5.421-17.689-16.499-17.689-28.621s6.848-23.2 17.689-28.621l192-96c4.505-2.253 9.408-3.379 14.311-3.379v67.776l-120.446 60.224 120.446 60.224v67.776zM576 32c4.903 0 9.806 1.126 14.311 3.379l191.999 96c10.842 5.421 17.69 16.499 17.69 28.621s-6.848 23.2-17.69 28.621l-191.999 96c-4.505 2.253-9.408 3.379-14.311 3.379v-67.776l120.448-60.224-120.448-60.224v-67.776zM799.674 836.525c-1.312 9.196-6.554 17.367-14.368 22.39s-17.427 6.404-26.336 3.784l-544.001-160c-9.558-2.811-17.261-9.914-20.838-19.212l-160-415.999c-5.916-15.379 0.817-32.742 15.556-40.109l256-128c9.009-4.506 19.613-4.506 28.621 0l192 96c10.842 5.421 17.69 16.499 17.69 28.621s-6.848 23.2-17.69 28.621l-134.756 67.379h-103.554c0-12.122 6.848-23.2 17.689-28.621l134.756-67.379-120.445-60.224-215.704 107.853 143.896 374.131 493.358 145.105 26.771-187.391c0.838-5.875 3.296-11.402 7.098-15.96l126.387-151.666-227.098-50.467-150.825 60.33c-3.821 1.528-7.855 2.288-11.882 2.289v-67.776l1.456 0.728 146.659-58.663c5.978-2.391 12.538-2.922 18.822-1.527l288 64c10.899 2.422 19.744 10.345 23.347 20.908s1.44 22.242-5.702 30.816l-154.189 185.026-30.72 215.014zM511.998 380.224v67.776c-4.915 0-9.819-1.132-14.313-3.379l-192-96c-10.841-5.42-17.689-16.5-17.689-28.621h103.554l120.448 60.224z" />
<glyph unicode="&#xe90d;" glyph-name="building-plots" data-tags="Земельный участок" d="M572.641 803.334l-37.199-52.079-23.443 16.745-23.443-16.745-37.199 52.079 23.443 16.745c22.253 15.895 52.146 15.895 74.399 0l23.443-16.745zM582.328 717.765l46.886-33.491 37.199 52.079-46.886 33.49-37.199-52.079zM676.102 650.785l46.886-33.49 37.197 52.079-46.886 33.49-37.197-52.079zM769.875 583.804l46.886-33.49 37.197 52.079-46.886 33.491-37.197-52.079zM863.642 516.824l23.443-16.746c8.71-6.218 15.296-14.074 19.757-22.769l56.934 29.229c-9.037 17.612-22.323 33.36-39.488 45.619l-23.443 16.745-37.203-52.079zM906.842 418.691c-4.461-8.696-11.046-16.551-19.757-22.769l-23.443-16.746 37.203-52.079 23.443 16.745c17.165 12.259 30.451 28.008 39.488 45.619l-56.934 29.229zM816.762 345.686l-46.886-33.487 37.197-52.083 46.886 33.491-37.197 52.079zM722.989 278.707l-46.886-33.491 37.197-52.077 46.886 33.485-37.197 52.083zM629.213 211.725l-46.886-33.491 37.199-52.077 46.886 33.491-37.199 52.077zM441.669 178.234l-46.886 33.491-37.199-52.077 46.886-33.491 37.199 52.077zM347.896 245.216l-46.886 33.491-37.199-52.083 46.886-33.485 37.199 52.077zM254.124 312.198l-46.886 33.487-37.199-52.079 46.886-33.491 37.199 52.083zM160.352 379.176l-23.443 16.746c-8.706 6.218-15.291 14.074-19.755 22.769l-56.935-29.229c9.041-17.612 22.328-33.36 39.491-45.619l23.443-16.745 37.199 52.079zM117.154 477.309c4.464 8.696 11.049 16.551 19.755 22.769l23.443 16.746-37.199 52.079-23.443-16.745c-17.163-12.259-30.449-28.008-39.491-45.619l56.935-29.229zM207.238 550.314l46.886 33.49-37.199 52.079-46.886-33.491 37.199-52.079zM301.011 617.295l46.886 33.49-37.199 52.079-46.886-33.49 37.199-52.079zM394.783 684.275l46.886 33.49-37.199 52.079-46.886-33.49 37.199-52.079zM488.555 144.742l23.443-16.742 23.443 16.742 37.199-52.077-23.443-16.742c-22.253-15.898-52.146-15.898-74.399 0l-23.443 16.742 37.199 52.077zM512 704l-384-256 384-256v76.922l-268.622 179.078 268.622 179.082v76.918zM512 704l384-256-384-256v76.922l268.621 179.078-268.621 179.082v76.918z" />
<glyph unicode="&#xe90e;" glyph-name="projects" data-tags="Инвестпроекты" d="M768-64l256 128v96l-448-224h192zM1024 416.010l-449.868 224.934c-28.546 14.273-62.132-6.484-62.132-38.4 0-16.262 9.188-31.128 23.732-38.4l488.268-244.134v96zM576 736c0-53.019-100.288-96-224-96s-224 42.981-224 96c0 53.019 100.288 96 224 96s224-42.981 224-96zM512-63.994l413.37 206.688c80.192 40.096 80.192 154.534 0 194.629l-479.237 239.62c-28.546 14.273-62.132-6.485-62.132-38.4 0-16.262 9.188-31.128 23.732-38.4l474.476-237.238c18.867-9.434 18.867-36.358 0-45.792l-562.208-281.107h192zM32 320v-288h-32v288h32zM0 192v-32l128-96v32l128 64 128-96v32l128 64v32l-128-64-128 64-128-64-128 64zM0 256v-32l128-96v32l128 64 128-96v32l128 64v32l-128-64-128 64-128-64-128 64zM0 320v-32l128-96v32l128 64 128-96v32l128 64v32l-128-64-128 64-128-64-128 64zM512 32v96l-128-64-128 64-128-64-128 64v-96l128-64 128 64 128-64 128 64zM768 576l256-128v256l-256-128zM864 888l-32-16v-32l48 24 48-24v32l-48 24-16-8zM832 872v-32l-224-112v-3.2l128-76.8 288 144-96 48v32l96-48v-112h-32v32l-32-16v-48h-32v32l-32-16v-48h-32v32l-32-16v-48h-32v32l-32-16v-48h-32v32l-128 76.8v-12.8h-32v64l256 128zM832 776h-32v32h32v-32zM896 776v-32h-32v32h32zM768 776v-32h-32v32h32zM832 712h-32v32h32v-32zM704 712h-32v32h32v-32zM768 712v-32h-32v32h32zM896 840v-32h-32v32h32zM960 776h-32v32h32v-32zM128 384v-32l64 32v32l-64-32zM256 448l256-128v-32l-256 128v32zM64 320v32l-64-32v-32l64 32zM128 608v96l-128 64v-96l128-64zM16.695 887.652c-4.1-16.296-4.679-32.767-0.75-49.18 2.985-12.51 6.715-21.784 11.992-30.31 4.299-6.947 9.524-13.133 14.716-19.28l2.21-2.622c5.479-6.527 11.333-12.268 17.106-17.245l-61.97 30.985v96l16.695-8.348zM243.201 547.187c-5.348-2.008-11.996-3.199-19.201-3.199s-13.851 1.19-19.199 3.199v-163.212c0-0.28 0.17-2.1 3.673-4.435 3.413-2.275 8.865-4.099 15.527-4.099s12.115 1.823 15.528 4.099c3.502 2.335 3.672 4.155 3.672 4.435v163.212zM207.372 560c3.684-1.77 9.527-3.2 16.628-3.2s12.944 1.43 16.628 3.2c-3.684 1.77-9.527 3.2-16.628 3.2s-12.944-1.43-16.628-3.2zM224 544c-17.673 0-32 7.164-32 16s14.327 16 32 16c17.673 0 32-7.164 32-16s-14.327-16-32-16zM98.512 957.971c9.887-7.18 39.501-28.687 50.154-52.822 10.356-23.462 13.485-45.502 7.494-65.242-10.769-35.573-45.195-62.767-60.163-71.907-0.005 0.003 0.005-0.003 0 0 7.491 6.103 24.672 24.236 30.054 47.938 2.995 13.16 3.111 24.701-3.747 43.495-6.1 16.711-20.399 30.648-25.153 35.283-0.591 0.576-1.035 1.009-1.297 1.284-3.738-3.506-17.473-16.993-24.467-31.967-7.619-16.685-8.727-31.495-6.107-46.076 2.611-14.587 12.474-29.549 12.474-29.549 5.212-7.822 13.014-16.176 18.131-20.34-10.221 6.218-24.413 16.364-36.318 30.545-0.78 0.929-1.538 1.828-2.276 2.703-11.338 13.448-17.77 21.076-22.672 41.62-5.24 21.871-0.664 44.918 12.214 69.114 11.782 22.138 37.901 40.282 47.284 46.801 0.627 0.436 1.18 0.82 1.649 1.149 0.538-0.425 1.48-1.11 2.746-2.029zM115.197 790.438c-6.818-10.852-14.758-18.785-19.228-22.424-5.115 4.141-12.975 12.543-18.214 20.408 0 0-0.359 0.544-0.957 1.526v-469.947c0-0.276 0.17-2.1 3.673-4.436 3.413-2.272 8.865-4.096 15.527-4.096s12.115 1.824 15.527 4.096c3.503 2.336 3.673 4.16 3.673 4.436v470.436zM352 480c-35.181 0-67.814 3.692-96 9.954v-32.716c29.096-5.924 61.645-9.238 96-9.238 123.712 0 224 42.98 224 96v192c0-18.099-11.686-35.027-32-49.475v-142.525c0-2.433-1.015-7.428-8.379-14.89-7.5-7.599-19.938-15.91-37.835-23.58-35.679-15.291-87.2-25.53-145.786-25.53zM160 686.525v-142.525c0-2.433 1.015-7.428 8.379-14.89 5.324-5.394 13.135-11.147 23.621-16.774v-35.522c-39.59 17.315-64 41.028-64 67.186v192c0-18.099 11.686-35.027 32-49.475z" />
<glyph unicode="&#xe90f;" glyph-name="support" data-tags="вопрос" d="M357.491 192h526.874c47.13 0 75.635 33.779 75.635 64v384c0 30.218-28.506 64-75.635 64h-744.728c-47.129 0-75.636-33.782-75.636-64v-384c0-30.221 28.508-64 75.636-64h116.364v-101.491l101.491 101.491zM192-64v192h-52.364c-77.119 0-139.636 57.306-139.636 128v384c0 70.692 62.517 128 139.636 128h744.728c77.12 0 139.635-57.308 139.635-128v-384c0-70.694-62.515-128-139.635-128h-500.365l-192-192zM192 544c0 17.673 14.327 32 32 32h576c17.67 0 32-14.327 32-32s-14.33-32-32-32h-576c-17.673 0-32 14.327-32 32zM192 416c0 17.673 14.327 32 32 32h384c17.673 0 32-14.327 32-32s-14.327-32-32-32h-384c-17.673 0-32 14.327-32 32z" />
<glyph unicode="&#xe910;" glyph-name="feedback" data-tags="связь" d="M884.365 192h-744.728c-42.865 0-75.636 33.83-75.636 73.146v365.711c0 39.313 32.771 73.143 75.636 73.143h744.728c42.861 0 75.635-33.829 75.635-73.143v-365.711c0-39.315-32.774-73.146-75.635-73.146zM884.365 128c77.12 0 139.635 61.402 139.635 137.146v365.711c0 75.742-62.515 137.143-139.635 137.143h-744.728c-77.119 0-139.636-61.401-139.636-137.143v-365.711c0-75.744 62.517-137.146 139.636-137.146h744.728zM48.125 676.214l31.753 55.567 432.124-246.927 432.127 246.927 31.75-55.567-463.877-265.073-463.876 265.073z" />
<glyph unicode="&#xe911;" glyph-name="help" data-tags="справка" d="M320 768h-180.364c-77.119 0-139.636-61.401-139.636-137.143v-365.711c0-75.744 62.517-137.146 139.636-137.146h180.364v64h-180.364c-42.865 0-75.636 33.83-75.636 73.146v365.711c0 39.313 32.771 73.143 75.636 73.143h180.364v64zM704 192h180.365c42.861 0 75.635 33.83 75.635 73.146v365.711c0 39.314-32.774 73.143-75.635 73.143h-180.365v64h180.365c77.12 0 139.635-61.401 139.635-137.143v-365.711c0-75.744-62.515-137.146-139.635-137.146h-180.365v64zM448 704c0 35.346 28.654 64 64 64s64-28.654 64-64c0-35.346-28.654-64-64-64s-64 28.654-64 64zM544 512h-32v-320h32c17.673 0 32-14.33 32-32s-14.327-32-32-32h-64c-17.673 0-32 14.33-32 32v383.955c0 17.673 14.327 32.045 32 32.045h64c17.673 0 32-14.327 32-32s-14.327-32-32-32z" />
<glyph unicode="&#xe912;" glyph-name="registries" data-tags="Реестры" d="M256 576v-256h-256v256h256zM64 512v-128h128v128h-128zM256 256v-256h-256v256h256zM64 192v-128h128v128h-128zM640 256v-256h-256v256h256zM448 192v-128h128v128h-128zM640 576v-256h-256v256h256zM448 512v-128h128v128h-128zM1024 256v-256h-256v256h256zM832 192v-128h128v128h-128zM256 896v-256h-256v256h256zM64 832v-128h128v128h-128z" />
<glyph unicode="&#xe913;" glyph-name="map" data-tags="Карты ГИС" d="M869.837 704l5.632-17.067 16.909-5.689-33.811-34.133 11.27-22.755 11.27 11.377 16.902-5.689 5.638-56.888v-39.823l11.27-17.066 22.541-28.445 22.541-62.578-39.45 22.756-28.173 28.444v17.067l-11.27 45.511-11.27 17.067-16.909-28.445 5.638-45.511-5.638-22.755h-11.27l-28.173-34.134-5.638-79.644 28.179 11.378 33.811-17.067 16.902-45.511v-73.958l-28.173-11.373-11.27 17.062 16.902 11.379-11.27 45.51-22.541-22.752-50.714 17.062-28.179 17.069-33.811-17.069 11.27-11.373-5.632-39.827-39.45-5.69-39.443-11.373h-45.083l-33.811 17.062-5.635-22.752h-28.176l-56.353-11.379-28.176 28.442h-28.176l-16.906 45.517-39.446 17.062 5.635 17.069-73.258 5.69-11.27-11.379v-22.758l-56.352 28.448-11.27 22.755-22.541-5.686-11.27 17.064-22.541-17.064v-34.138l-28.177-5.69-22.541-34.131-45.082 102.4h22.541l28.176 5.689 11.27 11.378-5.635 22.755v28.445l-11.27 22.755 11.27 11.378 11.27-5.689 5.635 28.445 11.27 34.133 33.812 5.689v11.378h39.446l33.811 51.2 22.541 11.377 16.906-11.377 11.27-28.445-16.906-11.378-11.27 11.378-16.906-28.444 5.635-17.067 28.176 11.378v-17.067h16.906l28.177 5.689 11.27-11.378 22.541-11.378 16.906 11.378 22.541-34.133 5.635 28.444 22.541 28.445 45.082-28.445-5.635 22.756 73.258 34.133 16.906 11.378 22.541-17.067-16.906-39.822 61.987 22.756v11.377l45.080-22.755v22.755l22.541 5.689-11.27 17.067 33.811 17.067h22.541l28.179 17.066 11.27 22.756 22.541 11.378-16.909 17.066 61.99 51.2 11.27 17.067zM352 827.976l-3.499 1.167-284.501-77.964v-635.281l288 78.925v-67.386l-1.684 0.563-350.316-96v768l350.316 96 1.684-0.561v-67.462zM352 128l321.69-107.219 350.31 75.782v767.999l-350.31-75.781-321.69 107.219v-67.437l318.080-106.063 289.92 62.75v-637.064l-282.714-61.152-325.153 108.371-0.133-67.405z" />
<glyph unicode="&#xe914;" glyph-name="quarries" data-tags="Карьеры" d="M444.773 546.164l-124.773-62.387-273.267 136.634 39.179 58.768 13.866 6.932-35.777 17.889-64-96 320-160 303.066 151.533c2.125 1.221 4.327 2.323 6.596 3.299l10.338 5.169-64 96-35.777-17.889 13.866-6.932 39.179-58.768-34.753-17.377c-1.042-6.63-4.154-12.83-8.986-17.661l-8.211-8.211c-26.281-26.281-62.472-36.614-96.545-30.998zM355.148 629.351l-35.148-17.574-184.446 92.223 184.446 92.223 79.475-39.737 16.513 27.521-95.987 47.994-256-128 224-112v-112l32-32 145.605 96.714c-29.276-0.71-58.779 10.106-81.121 32.449-14.74 14.74-24.639 32.877-29.336 52.189zM522.63 730.685l-32.889-54.815 56.36-42.27c7.421-5.566 12.062-14.078 12.719-23.332s-2.732-18.336-9.292-24.895l-6.047-6.048 96.519 28.675-64 96-53.37 26.685zM782.899 960h-192.003c-2.945 0-5.798-0.398-8.508-1.143-2.486 0.741-5.151 1.143-7.956 1.143-9.638 0-18.57-5.057-23.53-13.322l-147.593-245.988-4.414 3.31-6.568-13.137c-15.187-30.374-9.234-67.060 14.78-91.073 30.812-30.812 80.767-30.812 111.578 0l8.211 8.211-79.448 59.586 137.391 228.986c1.962-0.376 3.986-0.572 6.056-0.572h181.334l42.669-128-128-42.667v-149.333h-32c-17.676 0-32.003-14.327-32.003-32s14.327-32 32.003-32h320c17.67 0 32 14.327 32 32s-14.33 32-32 32h49.094v128h-123.763l-78.413 235.242c-4.134 12.396-15.738 20.758-28.8 20.758-1.715 0-3.392-0.139-5.011-0.405-1.664 0.267-3.373 0.405-5.107 0.405zM814.899 768l21.331-64h-21.331v64zM793.6 727.125v-48.721h-83.2v20.987l83.2 27.734zM602.741 356.824l-90.741-100.824-44.643-53.901 68.841-34.419 131.924 150.771 72.051 79.462 27.827-13.913v-145.83l-224-110.17-128 64 224 256 30.899-15.448-23.098-24.23-45.060-51.498zM952.448 256l-234.054 117.025 21.779 24.888 283.827-141.913-512-256-512 256 512 256 158.899-79.448-30.899-16.552-128 60.223v-92.223l50.087-25.043-21.777-24.889-28.31 14.155-312.446-156.223 312.446-156.224 312.448 156.224-156.141 78.067 21.779 24.89 170.138-85.069 92.224 46.112z" />
<glyph unicode="&#xe915;" glyph-name="offers" data-tags="Коммерческие предложения по стоимости" d="M448 576h64v-192h64v-64h-64v-64h64v-64h-64v-64h-64v64h-64v64h64v64h-64v64h64v192zM640 767.999v-63.999h64v63.999c0 35.346-28.653 64-64 64l-256 0.001c-35.347 0-64-28.654-64-64v-64h64v64l256-0.001zM512 703.999l-320 0.001c-70.692 0-128-57.308-128-128v-448c0-70.694 57.308-128 128-128h320v64h-320c-35.346 0-64 28.653-64 64v448c0 35.346 28.653 64 64 64l320-0.001v64zM512 703.999l320 0.001c70.694 0 128-57.308 128-128v-448c0-70.694-57.306-128-128-128h-320v64h320c35.347 0 64 28.653 64 64v448c0 35.346-28.653 64-64 64l-320-0.001v64zM512 320h64c70.694 0 128 57.308 128 128s-57.306 128-128 128h-64v-64h64c35.346 0 64-28.654 64-64s-28.654-64-64-64h-64v-64z" />
<glyph unicode="&#xe916;" glyph-name="licenses" data-tags="Лицензии на карьер" d="M704 176c-26.509 0-48-21.491-48-48s21.491-48 48-48c26.509 0 48 21.491 48 48s-21.491 48-48 48zM624 128c0 44.186 35.814 80 80 80s80-35.814 80-80c0-44.186-35.814-80-80-80s-80 35.814-80 80zM416 672l-77.715 96-146.285-128v-192l224 224zM544 832l224-448c0-70.694-57.306-128-128-128-70.692 0-128 57.306-128 128h170.669l-298.669 380.8v67.2h160zM256 256h256v-32h-256v32zM256 128h256v-32h-256v32zM512 959.997l-384 0.003v-1024h384v64h-261.462c-9.642 27.277-31.26 48.896-58.538 58.534v778.928c27.277 9.641 48.896 31.26 58.537 58.537l261.463-0.002v63.999zM512 959.997l384 0.003v-1024h-384v64h261.466c9.638 27.277 31.258 48.896 58.534 58.534v778.928c-27.277 9.641-48.896 31.26-58.534 58.537l-261.466-0.002v63.999z" />
<glyph unicode="&#xe917;" glyph-name="licenses-uvs" data-tags="Лицензии УВС" d="M511.655 832l-110.824-192c-23.339-39.514-21.637-88.572 0.353-127.364l110.475 191.395 111.487-193.147c22.141 39.059 23.025 89.004-0.666 129.116l-110.824 192zM400.831 384l110.824 192 110.824-192c35.14-59.493 16.218-140.621-45.951-175.776-16.218-8.109-35.139-13.517-54.060-16.224h-18.922c-18.921 2.707-37.842 8.115-54.060 16.224-62.17 35.155-83.794 116.283-48.655 175.776zM704 176c-26.509 0-48-21.491-48-48s21.491-48 48-48c26.509 0 48 21.491 48 48s-21.491 48-48 48zM624 128c0 44.186 35.814 80 80 80s80-35.814 80-80c0-44.186-35.814-80-80-80s-80 35.814-80 80zM512 959.997l-384 0.003v-1024h384v64h-261.462c-9.642 27.277-31.26 48.896-58.538 58.534v778.928c27.277 9.641 48.896 31.26 58.537 58.537l261.463-0.002v63.999zM512 959.997l384 0.003v-1024h-384v64h261.466c9.638 27.277 31.258 48.896 58.534 58.534v778.928c-27.277 9.641-48.896 31.26-58.534 58.537l-261.466-0.002v63.999z" />
<glyph unicode="&#xe918;" glyph-name="models" data-tags="Модель" d="M480 512c-17.673 0-32-14.327-32-32s14.327-32 32-32c17.673 0 32 14.327 32 32s-14.327 32-32 32zM576 480c0-53.020-42.98-96-96-96s-96 42.98-96 96c0 53.020 42.98 96 96 96s96-42.98 96-96zM544 896c-17.673 0-32-14.327-32-32s14.327-32 32-32c17.673 0 32 14.327 32 32s-14.327 32-32 32zM640 864c0-53.020-42.98-96-96-96s-96 42.98-96 96c0 53.019 42.98 96 96 96s96-42.981 96-96zM864 704c-17.67 0-32-14.327-32-32s14.33-32 32-32c17.67 0 32 14.327 32 32s-14.33 32-32 32zM960 672c0-53.020-42.982-96-96-96s-96 42.98-96 96c0 53.020 42.982 96 96 96s96-42.98 96-96zM475.229 797.018c-14.915 15.31-24.76 35.583-26.826 58.107l-230.634-106.447c17.451-13.169 30.264-32.156 35.554-54.078l221.906 102.418zM638.794 848.747c-3.542-22.178-14.678-41.821-30.659-56.179l164.858-89.923c7.168 21.286 21.587 39.235 40.326 50.906l-174.525 95.196zM160 704c-17.673 0-32-14.327-32-32s14.327-32 32-32c17.673 0 32 14.327 32 32s-14.327 32-32 32zM256 672c0-53.020-42.98-96-96-96s-96 42.98-96 96c0 53.020 42.98 96 96 96s96-42.98 96-96zM480 64c-17.673 0-32-14.33-32-32s14.327-32 32-32c17.673 0 32 14.33 32 32s-14.327 32-32 32zM576 32c0-53.018-42.98-96-96-96s-96 42.982-96 96c0 53.018 42.98 96 96 96s96-42.982 96-96zM210.679 590.438c18.739 11.67 33.162 29.62 40.326 50.906l164.859-89.923c-15.981-14.358-27.117-34.001-30.659-56.179l-174.526 95.196zM96 600.431c16.984-15.201 39.412-24.445 64-24.445v-362.355l237.995-131.693c-8.879-14.554-13.995-31.648-13.995-49.939 0-5.53 0.467-10.944 1.364-16.218l-272.858 150.989c-10.185 5.638-16.506 16.358-16.506 28v405.66zM512 122.534v266.915c-10.009-3.538-20.78-5.463-32-5.463s-21.991 1.925-32 5.463v-266.915c10.009 3.539 20.78 5.466 32 5.466s21.991-1.926 32-5.466zM548.765 546.987l221.91 102.419c5.286-21.922 18.099-40.91 35.552-54.079l-230.633-106.446c-2.067 22.524-11.913 42.796-26.829 58.106zM928 600.449v-405.659c0-12.422-7.187-23.718-18.432-28.986l-336.534-157.574c1.936 7.603 2.965 15.565 2.965 23.77 0 15.635-3.736 30.394-10.365 43.437l298.365 139.699v360.868c24.589 0 47.014 9.244 64 24.445z" />
<glyph unicode="&#xe919;" glyph-name="info" data-tags="Общие сведения" d="M1024 384c0 212.077-171.923 384-384 384s-384-171.923-384-384c0-212.077 171.923-384 384-384s384 171.923 384 384zM960 384c0-176.73-143.27-320-320-320s-320 143.27-320 320c0 176.731 143.269 320 320 320s320-143.269 320-320zM128 960h704v-64h-704v64zM128 832h704v-64h-704v64zM128 704h320v-64h-320v64zM128 576h192v-64h-192v64zM128 448h192v-64h-192v64zM128 320h192v-64h-192v64zM128 192h256v-64h-256v64zM128 64h512v-64h-512v64zM640 640c35.346 0 64-28.654 64-64s-28.654-64-64-64c-35.346 0-64 28.654-64 64s28.654 64 64 64zM704 416c0 17.673-14.33 32-32 32h-64c-17.673 0-32-14.327-32-32s14.327-32 32-32v-192c-17.673 0-32-14.33-32-32s14.327-32 32-32h64c17.67 0 32 14.33 32 32s-14.33 32-32 32v192c17.67 0 32 14.327 32 32z" />
<glyph unicode="&#xe91a;" glyph-name="transport1" data-tags="Объекты ПОС" d="M209.886 808.938l-35.777-17.889 174.109-87.055-99.378-49.689c-5.421-2.71-8.845-8.251-8.845-14.311s3.424-11.601 8.845-14.311l181.268-90.634 35.777 17.889-174.113 87.057 99.378 49.689c5.421 2.71 8.845 8.251 8.845 14.311s-3.424 11.601-8.845 14.311l-181.265 90.632zM593.883 535.050l-35.777 17.888 256 128 35.776-17.888-255.999-128zM430.106 424.938l-110.11-55.055-110.117 55.059-35.777-17.889 138.739-69.37c4.504-2.252 9.806-2.252 14.31 0l138.732 69.366-35.777 17.889zM593.886 424.938l-35.777-17.889 46.109-23.055-35.378-17.689c-5.421-2.71-8.845-8.251-8.845-14.311s3.424-11.601 8.845-14.311l227.377-113.69-220.222-110.112-184.845 92.422c-4.504 2.253-9.805 2.246-14.308 0l-106.723-53.363 35.777-17.888 78.101 39.053 184.843-92.422c4.504-2.253 9.806-2.253 14.31 0l248.843 124.422 92.224-46.112-163.379-81.69c-5.421-2.707-8.845-8.25-8.845-14.31s3.424-11.597 8.845-14.31l53.267-26.63 35.776 17.888-46.106 23.053 163.373 81.69c5.421 2.714 8.845 8.25 8.845 14.31s-3.424 11.603-8.845 14.31l-355.376 177.69 35.376 17.689c5.421 2.71 8.845 8.251 8.845 14.311s-3.424 11.601-8.845 14.311l-53.263 26.632zM128 860.223v35.777l-128-64 128-64v35.777l-56.446 28.223 56.446 28.223zM896 732.223v35.777l-128-64 128-64v35.777l-56.448 28.223 56.448 28.223zM896 28.224v35.776l-128-64 128-64v35.776l-56.448 28.224 56.448 28.224zM128 476.223v35.777l-128-64 128-64v35.777l-56.446 28.223 56.446 28.223zM128 860.223v35.777l128-64-128-64v35.777l56.446 28.223-56.446 28.223zM896 732.223v35.777l128-64-128-64v35.777l56.448 28.223-56.448 28.223zM896 28.224v35.776l128-64-128-64v35.776l56.448 28.224-56.448 28.224zM128 476.223v35.777l128-64-128-64v35.777l56.446 28.223-56.446 28.223zM512 576l-192-96 192-96v35.777l-120.446 60.223 120.446 60.223v35.777zM192 192l-192-96 192-96v35.776l-120.446 60.224 120.446 60.224v35.776zM512 576l192-96-192-96v35.777l120.446 60.223-120.446 60.223v35.777zM192 192l192-96-192-96v35.776l120.446 60.224-120.446 60.224v35.776z" />
<glyph unicode="&#xe91b;" glyph-name="oks" data-tags="ОКС" d="M992 366.525c20.314 14.448 32 31.377 32 49.475v-192c0-53.018-100.288-96-224-96-42.093 0-81.472 4.973-115.117 13.632l-161.361-96.819c-3.614-2.17-7.594-3.2-11.522-3.194v-9.619c0-53.018-100.288-96-224-96s-224 42.982-224 96v192c0-18.099 11.686-35.027 32-49.478v-142.522c0-2.432 1.015-7.43 8.379-14.886 7.5-7.603 19.938-15.91 37.835-23.584 35.679-15.29 87.2-25.53 145.786-25.53s110.108 10.24 145.786 25.53c17.897 7.674 30.335 15.981 37.835 23.584 7.364 7.456 8.379 12.454 8.379 14.886v142.522c20.314 14.451 32 31.379 32 49.478v-133.856l118.492 71.098c-33.953 16.826-54.492 38.765-54.492 62.758v192c0-18.099 11.686-35.027 32-49.475v-142.525c0-2.432 1.015-7.43 8.379-14.893 7.5-7.597 19.938-15.904 37.836-23.578 35.68-15.29 87.2-25.53 145.786-25.53s110.106 10.24 145.786 25.53c17.894 7.674 30.336 15.981 37.837 23.578 7.36 7.462 8.378 12.461 8.378 14.893v142.525zM512 928c0-17.673-28.654-32-64-32s-64 14.327-64 32c0 17.673 28.654 32 64 32s64-14.327 64-32zM320 864c0-17.673-28.654-32-64-32s-64 14.327-64 32c0 17.673 28.654 32 64 32s64-14.327 64-32zM64 768c35.346 0 64 14.327 64 32s-28.654 32-64 32c-35.346 0-64-14.327-64-32s28.654-32 64-32zM448 876.8c20.008 0 39.070 4.014 53.841 11.4 13.623 6.812 29.359 19.773 29.359 39.8h-38.4c0 2.354 1.409-0.684-8.132-5.454-8.392-4.196-21.329-7.346-36.668-7.346v-38.4zM364.8 928c0-20.027 15.736-32.989 29.359-39.8 14.771-7.386 33.834-11.4 53.841-11.4v38.4c-15.339 0-28.276 3.149-36.668 7.346-9.541 4.77-8.132 7.808-8.132 5.454h-38.4zM448 979.2c-20.008 0-39.070-4.014-53.841-11.4-13.623-6.811-29.359-19.774-29.359-39.8h38.4c0-2.354-1.409 0.684 8.132 5.454 8.392 4.196 21.329 7.346 36.668 7.346v38.4zM531.2 928c0 20.027-15.736 32.989-29.359 39.8-14.771 7.386-33.834 11.4-53.841 11.4v-38.4c15.339 0 28.276-3.149 36.668-7.346 9.541-4.77 8.132-7.808 8.132-5.454h38.4zM256 812.8c20.008 0 39.070 4.014 53.841 11.4 13.623 6.812 29.359 19.773 29.359 39.8h-38.4c0 2.354 1.409-0.684-8.132-5.455-8.392-4.196-21.329-7.345-36.668-7.345v-38.4zM172.8 864c0-20.027 15.736-32.989 29.359-39.8 14.771-7.386 33.834-11.4 53.841-11.4v38.4c-15.339 0-28.276 3.149-36.668 7.345-9.541 4.771-8.132 7.809-8.132 5.455h-38.4zM256 915.2c-20.008 0-39.070-4.014-53.841-11.4-13.623-6.811-29.359-19.774-29.359-39.8h38.4c0-2.354-1.409 0.684 8.132 5.455 8.392 4.196 21.329 7.345 36.668 7.345v38.4zM339.2 864c0 20.027-15.736 32.989-29.359 39.8-14.771 7.386-33.834 11.4-53.841 11.4v-38.4c15.339 0 28.276-3.149 36.668-7.345 9.541-4.771 8.132-7.809 8.132-5.455h38.4zM108.8 800c0 2.354 1.409-0.684-8.132-5.455-8.392-4.196-21.329-7.345-36.668-7.345v-38.4c20.008 0 39.070 4.014 53.841 11.4 13.623 6.812 29.359 19.773 29.359 39.8h-38.4zM64 812.8c15.339 0 28.276-3.149 36.668-7.345 9.541-4.771 8.132-7.809 8.132-5.455h38.4c0 20.027-15.736 32.989-29.359 39.8-14.771 7.386-33.834 11.4-53.841 11.4v-38.4zM19.2 800c0-2.354-1.409 0.684 8.132 5.455 8.392 4.196 21.33 7.345 36.668 7.345v38.4c-20.007 0-39.070-4.014-53.841-11.4-13.623-6.812-29.359-19.773-29.359-39.8h38.4zM64 787.2c-15.339 0-28.276 3.149-36.668 7.345-9.541 4.771-8.132 7.809-8.132 5.455h-38.4c0-20.027 15.736-32.989 29.359-39.8 14.771-7.386 33.834-11.4 53.841-11.4v38.4zM403.2 905.147v-191.547l89.6 44.8v146.747c11.849 5.808 19.2 13.901 19.2 22.853v-160l256-128-384-192-256 128 64 32v256c0-8.952 7.351-17.045 19.2-22.852v-223.548l89.6 44.8v178.748c11.849 5.807 19.2 13.901 19.2 22.852v-192l64 32v224c0-8.952 7.351-17.045 19.2-22.853zM128 576v224c0-8.952-7.351-17.045-19.2-22.852v-392.478c-0.317-0.596-1.854-2.985-8.132-6.124-8.392-4.196-21.329-7.345-36.668-7.345s-28.276 3.149-36.668 7.345c-6.278 3.139-7.815 5.528-8.132 6.124v392.478c-11.849 5.807-19.2 13.901-19.2 22.852v-416c0-17.673 28.654-32 64-32s64 14.327 64 32v192zM409.677 304.614c-3.171 0.883-6.397 1.728-9.677 2.541v160.622h-32v-154.081c-11.848 1.946-24.179 3.469-36.894 4.531l-171.106 85.55v152.445l3.777 1.889-35.777 17.889v-192l129.738-64.87c-109.4-6.33-193.738-46.509-193.738-95.13 0-53.018 100.288-96 224-96s224 42.982 224 96c0 25.408-23.032 48.512-60.636 65.683l155.426 77.712c38.925-28.36 110.88-47.395 193.21-47.395 123.712 0 224 42.98 224 96s-100.288 96-224 96c-10.867 0-21.549-0.332-32-0.972v128.972l-35.776-17.889 3.776-1.889v-28.223l-32-16v-35.777l32 16v-24.445l-32-16v-13.016c-75.678-15.407-128-48.466-128-86.762v96l-64-32v-35.777l32 16v-24.445l-32-16v-35.777l64 32c0-8.479 2.565-16.701 7.38-24.532l-173.704-86.853zM256 444.223v35.777l64-32v-96l-64 32v35.777l32-16v24.445l-32 16zM704 540.223v35.777l-64-32v-96l64 32v35.777l-32-16v24.445l32 16zM256 384v35.777l-32 16v24.445l32-16v35.777l-64 32v-96l64-32zM512 480v-35.777l-32-16v-24.445l32 16v-35.777l-64-32v96l64 32z" />
<glyph unicode="&#xe91c;" glyph-name="minerals" data-tags="ОПИ" d="M320 768c-151.484 0-320-320-320-320l233.67 0.002c81.636 100.376 182.421 191.998 278.33 191.998 86.829 0 186.746-91.62 270.157-191.994l241.843 0.001c0 0-237.715 383.993-416 383.993-66.185 0-134.871-43.374-196.901-100.968-30.969 22.62-62.059 36.968-91.099 36.968zM0 448l-28.314 14.911-24.704-46.911 53.018 0.001v32zM233.67 448.002v-32h15.221l9.604 11.809-24.826 20.191zM782.157 448.006l-24.614-20.452 9.6-11.548h15.014v32zM1024 448.007v-32l57.446 0.001-30.24 48.843-27.206-16.844zM411.099 731.032l-18.874-25.841 21.309-15.564 19.338 17.955-21.773 23.45zM0 448c28.314-14.911 28.312-14.915 28.31-14.917 0 0.001 0-0.001 0 0.001 0.001 0.003 0.006 0.011 0.012 0.023 0.013 0.025 0.036 0.069 0.070 0.132 0.067 0.125 0.174 0.327 0.32 0.601 0.293 0.547 0.743 1.387 1.346 2.497 1.205 2.223 3.018 5.53 5.394 9.769 4.753 8.481 11.746 20.667 20.619 35.32 17.783 29.369 42.934 68.346 72.56 107.159 29.769 39 63.267 76.785 97.583 104.532 34.95 28.26 66.772 42.883 93.787 42.883v64c-48.728 0-94.776-25.377-134.028-57.117-39.887-32.252-76.92-74.467-108.216-115.468-31.439-41.187-57.885-82.21-76.432-112.841-9.293-15.347-16.648-28.161-21.703-37.18-2.528-4.511-4.484-8.079-5.821-10.544-0.669-1.233-1.183-2.191-1.537-2.854-0.177-0.332-0.314-0.589-0.411-0.771-0.048-0.091-0.086-0.163-0.114-0.216-0.014-0.026-0.025-0.047-0.034-0.064-0.004-0.008-0.009-0.017-0.011-0.022-0.004-0.007-0.007-0.013 28.307-14.924zM233.67 480.002l-233.67-0.002v-64l233.67 0.002-0.001 64zM258.496 427.811c39.955 49.127 83.679 94.934 128.156 128.208 44.907 33.596 87.332 51.981 125.348 51.981v64c-57.892 0-113.814-27.425-163.686-64.735-50.303-37.631-97.789-87.823-139.47-139.072l49.652-40.382zM512 608c32.837 0 72.542-17.765 116.895-51.756 43.597-33.414 87.7-79.41 128.647-128.691l49.229 40.904c-42.464 51.094-90.029 101.094-138.944 138.584-48.168 36.913-101.836 64.958-155.827 64.958v-64zM1024 480.007l-241.843-0.001v-64l241.843 0.001v64zM608 800c33.933 0 75.219-18.786 120.851-53.474 44.774-34.039 89.51-80.122 129.638-127.264 39.987-46.975 74.63-94.092 99.322-129.544 12.326-17.7 22.125-32.428 28.826-42.693 3.347-5.132 5.914-9.144 7.629-11.85 0.858-1.354 1.504-2.38 1.933-3.057 0.211-0.338 0.365-0.589 0.467-0.749 0.045-0.080 0.083-0.138 0.102-0.172 0.013-0.017 0.019-0.028 0.026-0.034 0-0.003 0-0.003 0-0.004 0 0.002 0 0.004 27.206 16.848s27.206 16.85 27.2 16.857c0 0.004-0.006 0.013-0.013 0.022-0.013 0.017-0.026 0.041-0.045 0.070-0.038 0.058-0.090 0.14-0.154 0.244-0.128 0.209-0.314 0.509-0.557 0.898-0.486 0.776-1.197 1.906-2.125 3.365-1.85 2.918-4.563 7.156-8.064 12.524-7.002 10.734-17.165 26.006-29.914 44.306-25.453 36.546-61.376 85.428-103.104 134.451-41.587 48.856-89.709 98.771-139.648 136.731-49.082 37.31-104.371 66.524-159.578 66.524v-64zM432.872 707.582c60.908 56.552 121.782 92.418 175.128 92.418v64c-79.024 0-155.522-50.882-218.674-109.517l43.546-46.901zM320 736c19.035 0 43.385-9.744 72.225-30.809l37.748 51.683c-33.098 24.175-70.928 43.126-109.973 43.126v-64zM100.559 256c74.342 123.802 249.816 384 411.441 384 146.323 0 329.818-260.193 408.845-383.994 24.666-38.643 39.155-64 39.155-64l-896-0.006c0 0 13.352 25.357 36.559 64zM175.683 256l668.772 0.006c-23.962 36.013-53.677 78.325-86.778 120.457-42.669 54.3-89.414 106.295-135.362 144.134-47.977 39.51-85.288 55.403-110.315 55.403-31.306 0-71.591-17.245-119.229-55.766-46.371-37.496-92.209-89.066-133.427-143.066-32.377-42.417-60.932-85.040-83.661-121.168z" />
<glyph unicode="&#xe91d;" glyph-name="docs" data-tags="Организационные документы" d="M896 959.994v-447.994h-64v383.996l-640 0.005v-576h-64v640l768-0.006zM256 0h-64v64h-64v-128h768v320h-64v-256h-576zM704 768h-384v-32h384v32zM704 640h-384v-32h384v32zM256 256v128l192-192-192-192v128h-256v128h256zM448 384l192 192v-128h384v-128h-384v-128l-192 192z" />
<glyph unicode="&#xe91e;" glyph-name="registration" data-tags="Оформление" d="M256 704h320v-32h-320v32zM256 576h320v-32h-320v32zM973.485 499.456c24.87 24.867 24.87 65.183 0 90.051-24.864 24.867-65.178 24.867-90.048-0.001l-371.457-371.458-64-154.048 154.051 64 371.454 371.456zM426.62 96h-170.62v-32h159.976c-0.001 4.134 0.801 8.307 2.45 12.275l8.194 19.725zM128-64h832v504.717l-64-64v-376.717h-704v896h507.782l4.218-4.155v-187.845h190.778l1.222-1.201v-68.294c20.634 7.424 43.309 7.533 64 0.326v94.769l-233.997 230.4h-598.003v-1024zM768 176c-26.509 0-48-21.491-48-48s21.491-48 48-48c26.509 0 48 21.491 48 48s-21.491 48-48 48zM688 128c0 44.186 35.814 80 80 80s80-35.814 80-80c0-44.186-35.814-80-80-80s-80 35.814-80 80z" />
<glyph unicode="&#xe91f;" glyph-name="passports" data-tags="Паспорт качества" d="M661.798 400.308c-37.836 39.265-90.964 63.692-149.798 63.692-114.876 0-208-93.124-208-208 0-114.874 93.124-208 208-208s208 93.126 208 208c0 6.912-0.339 13.754-0.998 20.493l-31.328-31.328c-5.6-92.16-82.111-165.165-175.674-165.165-97.202 0-176 78.797-176 176s78.798 176 176 176c49.997 0 95.126-20.848 127.166-54.324l22.632 22.632zM790.63 393.373c12.493 12.497 12.493 32.758 0 45.254-12.499 12.497-32.762 12.497-45.261 0l-197.907-197.91-73.86 98.481c-10.604 14.138-30.662 17.004-44.8 6.4s-17.004-30.66-6.4-44.798l95.654-127.539c0.57-0.787 1.18-1.555 1.83-2.298 2.593-2.982 5.637-5.37 8.954-7.155 3.45-1.856 7.171-3.034 10.963-3.533 6.012-0.794 12.252 0.102 17.939 2.816 2.207 1.050 4.32 2.368 6.289 3.949 1.104 0.883 2.134 1.83 3.090 2.822l223.511 223.51zM320 768h384v-32h-384v32zM320 640h384v-32h-384v32zM512 0h-320v896l320-0.003v63.999l-384 0.003v-1024h384v64zM512 0h320v896l-320-0.003v63.999l384 0.003v-1024h-384v64z" />
<glyph unicode="&#xe920;" glyph-name="minerals-initial" data-tags="Потребности в ОПИ и начало строительства" d="M128 960h32v-64h-32v64zM256 960h32v-64h-32v64zM384 960h32v-64h-32v64zM512 960h32v-64h-32v64zM640 960h32v-64h-32v64zM768 960h32v-64h-32v64zM896 960h32v-64h-32v64zM992 960h32v-640l-32 32v608zM273.475 749.257c-10.247-2.746-20.596 4.131-28.648 11.039-5.597 4.803-12.873 7.704-20.826 7.704-17.673 0-32-14.327-32-32s14.327-32 32-32c53.020 0 96-42.98 96-96s-46.229-96-99.249-96c-37.652 0-70.241 21.676-85.97 53.231-4.728 9.485 1.514 20.14 11.752 22.883l24.743 6.63c10.247 2.746 20.597-4.131 28.648-11.039 5.597-4.803 12.873-7.704 20.826-7.704 17.674 0 35.249 14.327 35.249 32s-14.327 32-32 32c-53.020 0-96 42.98-96 96s42.98 96 96 96c37.652 0 70.241-21.676 85.97-53.231 4.728-9.485-1.514-20.14-11.752-22.883l-24.743-6.63zM32 960h-32v-701.075c8.009 7.45 17.021 14.080 26.976 19.68l5.024 2.816v678.579zM1024 0.006v282.586c-52.627 57.813-109.171 101.408-160 101.408-166.63 0-352-384-352-384l512 0.006zM96.015 91.904c-17.673 0-32 14.33-32 32 0 17.677 14.327 32 32 32s32-14.323 32-32c0-17.67-14.326-32-32-32zM96.015 27.904c53.020 0 96 42.982 96 96 0 53.024-42.98 96-96 96s-96-42.976-96-96c0-53.018 42.981-96 96-96zM288.031 27.904c-17.673 0-32 14.33-32 32 0 17.677 14.327 32 32 32s32-14.323 32-32c0-17.67-14.327-32-32-32zM288.031-36.096c53.020 0 96 42.982 96 96 0 53.024-42.98 96-96 96s-96-42.976-96-96c0-53.018 42.98-96 96-96zM224.031 219.904c-17.673 0-32 14.33-32 32 0 17.677 14.327 32 32 32s32-14.323 32-32c0-17.67-14.327-32-32-32zM224.031 155.904c53.020 0 96 42.982 96 96 0 53.024-42.98 96.003-96 96.003s-96-42.979-96-96.003c0-53.018 42.98-96 96-96zM192.015 287.814l-143.063-80.256c-46.21-25.99-62.6-84.525-36.606-130.733 25.981-46.189 84.47-62.586 130.671-36.646l327.686 183.814h-130.817l-228.245-128.032c-15.393-8.608-34.861-3.142-43.513 12.243-8.665 15.398-3.201 34.912 12.202 43.578l128.739 72.211h-17.052v63.821zM215.197 473.719c1.843-0.075 3.695-0.113 5.556-0.113 72.555 0 137.648 58.538 137.648 134.4 0 16.068-2.82 31.478-7.991 45.761 61.158 65.41 128.58 114.232 193.59 114.232 127.59 0 285.619-229.438 365.171-359.922-14.682 5.005-29.805 7.923-45.178 7.923-32.077 0-63.014-10.919-91.859-27.791-1.088-1.334-2.458-2.732-4.134-4.21-13.747-12.127-14.406-12.71-14.778-13.441-0.403-0.805-0.454-1.789-17.222-18.559l-463.656-264.218c-15.404-8.659-20.867-28.173-12.202-43.578 8.652-15.379 28.12-20.851 43.513-12.237l249.562 139.987c-14.528-23.635-27.216-45.658-37.633-64.422-9.738-17.549-17.53-32.314-23.027-42.982l-157.526-88.365c-46.2-25.939-104.689-9.542-130.67 36.646-25.994 46.208-9.604 104.742 36.606 130.733l443.928 249.022c37.805 36.778 72.422 81.518 51.104 119.413-34.637 61.581-177.391 50.169-238.989 15.59l-368.605-206.767c3.976 8.040 36.943 73.996 86.791 152.897zM605.591 576h153.711c4.544-5.089 8.608-10.744 12.090-16.935 25.997-46.211 9.606-104.743-36.602-130.737l-463.759-260.143c-46.2-25.939-104.689-9.542-130.67 36.646-25.994 46.208-9.604 104.742 36.606 130.733l428.623 240.435zM703.334 484.067l0.077 0.042c15.405 8.664 20.864 28.175 12.205 43.578-8.653 15.382-28.122 20.851-43.514 12.239l-463.692-260.106 239.59 72.179-239.656-72.218c-15.404-8.659-20.867-28.173-12.202-43.578 8.652-15.379 28.12-20.851 43.513-12.237l463.679 260.099z" />
<glyph unicode="&#xe921;" glyph-name="minerals-estimates" data-tags="Прогнозные утвержденные запасы ОПИ" d="M0 0v-64h1024v64h-1024zM256 192h128v-128h-128v128zM64 128h128v-64h-128v64zM448 256h128v-192h-128v192zM640 256h128v-192h-128v192zM832 448h128v-384h-128v384zM960 832h-332.332l108.332-96c-158.392-158.392-317.726-293.893-544-158.129 226.274-226.274 377.844-264.028 672 30.129l96-96v320zM547.244 614.345l-163.244 217.655-171.717-228.956c9.642-5.667 19.122-10.792 28.451-15.399l143.267 191.022 135.94-181.25c9.151 5.249 18.247 10.904 27.304 16.928zM221.228 561.636c-9.304 4.749-18.722 9.961-28.259 15.656l-0.166-0.222c7.768-7.759 15.448-15.295 23.048-22.602l5.377 7.168zM196.507 528.676l-132.506-176.675 639.999 0.008-42.131 56.17c9.306 4.847 18.688 10.111 28.16 15.792l77.971-103.962-768-0.010 173.412 231.217c7.745-7.699 15.44-15.217 23.094-22.541z" />
<glyph unicode="&#xe922;" glyph-name="minerals-volumes" data-tags="Разрешенные объемы ОПИ" d="M320 768c-151.484 0-320-320-320-320l233.67 0.002c81.636 100.376 182.421 191.998 278.33 191.998 86.829 0 186.746-91.62 270.157-191.994l241.843 0.001c0 0-237.715 383.993-416 383.993-66.185 0-134.871-43.374-196.901-100.968-30.969 22.62-62.059 36.968-91.099 36.968zM0 448l-28.314 14.911-24.704-46.911 53.018 0.001v32zM233.67 448.002v-32h15.221l9.604 11.809-24.826 20.191zM782.157 448.006l-24.614-20.452 9.6-11.548h15.014v32zM1024 448.007v-32l57.446 0.001-30.24 48.843-27.206-16.844zM411.099 731.032l-18.874-25.841 21.309-15.564 19.338 17.955-21.773 23.45zM0 448c28.314-14.911 28.312-14.915 28.31-14.917 0 0.001 0-0.001 0 0.001 0.001 0.003 0.006 0.011 0.012 0.023 0.013 0.025 0.036 0.069 0.070 0.132 0.067 0.125 0.174 0.327 0.32 0.601 0.293 0.547 0.743 1.387 1.346 2.497 1.205 2.223 3.018 5.53 5.394 9.769 4.753 8.481 11.746 20.667 20.619 35.32 17.783 29.369 42.934 68.346 72.56 107.159 29.769 39 63.267 76.785 97.583 104.532 34.95 28.26 66.772 42.883 93.787 42.883v64c-48.728 0-94.776-25.377-134.028-57.117-39.887-32.252-76.92-74.467-108.216-115.468-31.439-41.187-57.885-82.21-76.432-112.841-9.293-15.347-16.648-28.161-21.703-37.18-2.528-4.511-4.484-8.079-5.821-10.544-0.669-1.233-1.183-2.191-1.537-2.854-0.177-0.332-0.314-0.589-0.411-0.771-0.048-0.091-0.086-0.163-0.114-0.216-0.014-0.026-0.025-0.047-0.034-0.064-0.004-0.008-0.009-0.017-0.011-0.022-0.004-0.007-0.007-0.013 28.307-14.924zM233.67 480.002l-233.67-0.002v-64l233.67 0.002-0.001 64zM258.496 427.811c39.955 49.127 83.679 94.934 128.156 128.208 44.907 33.596 87.332 51.981 125.348 51.981v64c-57.892 0-113.814-27.425-163.686-64.735-50.303-37.631-97.789-87.823-139.47-139.072l49.652-40.382zM512 608c32.837 0 72.542-17.765 116.895-51.756 43.597-33.414 87.7-79.41 128.647-128.691l49.229 40.904c-42.464 51.094-90.029 101.094-138.944 138.584-48.168 36.913-101.836 64.958-155.827 64.958v-64zM1024 480.007l-241.843-0.001v-64l241.843 0.001v64zM608 800c33.933 0 75.219-18.786 120.851-53.474 44.774-34.039 89.51-80.122 129.638-127.264 39.987-46.975 74.63-94.092 99.322-129.544 12.326-17.7 22.125-32.428 28.826-42.693 3.347-5.132 5.914-9.144 7.629-11.85 0.858-1.354 1.504-2.38 1.933-3.057 0.211-0.338 0.365-0.589 0.467-0.749 0.045-0.080 0.083-0.138 0.102-0.172 0.013-0.017 0.019-0.028 0.026-0.034 0-0.003 0-0.003 0-0.004 0 0.002 0 0.004 27.206 16.848s27.206 16.85 27.2 16.857c0 0.004-0.006 0.013-0.013 0.022-0.013 0.017-0.026 0.041-0.045 0.070-0.038 0.058-0.090 0.14-0.154 0.244-0.128 0.209-0.314 0.509-0.557 0.898-0.486 0.776-1.197 1.906-2.125 3.365-1.85 2.918-4.563 7.156-8.064 12.524-7.002 10.734-17.165 26.006-29.914 44.306-25.453 36.546-61.376 85.428-103.104 134.451-41.587 48.856-89.709 98.771-139.648 136.731-49.082 37.31-104.371 66.524-159.578 66.524v-64zM432.872 707.582c60.908 56.552 121.782 92.418 175.128 92.418v64c-79.024 0-155.522-50.882-218.674-109.517l43.546-46.901zM320 736c19.035 0 43.385-9.744 72.225-30.809l37.748 51.683c-33.098 24.175-70.928 43.126-109.973 43.126v-64zM192 0v-64h-192v64h192zM192 896v64h-192v-64h192zM832 896v64h192v-64h-192zM64-64h-64v192h64v-192zM64 960h-64v-192h64v192zM960 960h64v-192h-64v192zM64 192c0 0 13.352 25.357 36.559 64 74.342 123.802 249.816 384 411.441 384 86.83 0 186.752-91.624 270.163-192h-84.768c-24.736 27.127-50.029 51.966-75.080 72.597-47.977 39.51-85.288 55.403-110.315 55.403-31.306 0-71.591-17.245-119.229-55.766-46.371-37.496-92.209-89.066-133.427-143.066-32.377-42.417-60.932-85.040-83.661-121.168l336.317 0.006v-64l-448-0.006zM982.63 374.627c12.493-12.497 12.493-32.758 0-45.254l-224-224.003c-12.499-12.493-32.762-12.493-45.261 0-12.493 12.499-12.493 32.762 0 45.261l224 223.997c12.499 12.497 32.762 12.497 45.261 0zM960 0h-384v384l325.491-0.002 13.254 13.257c24.992 24.993 65.517 24.993 90.509 0 12.486-12.486 18.733-28.847 18.746-45.211v31.954c0 35.346-28.653 63.999-64 64l-384 0.002c-35.346 0-64-28.654-64-64v-384c0-35.347 28.654-64 64-64h384c35.347 0 64 28.653 64 64v351.956c-0.013-16.364-6.259-32.724-18.746-45.21l-45.254-45.254v-261.491zM620.802 281.6c14.138 10.605 34.193 7.738 44.798-6.4l96-128c10.605-14.138 7.738-34.195-6.4-44.8s-34.195-7.738-44.8 6.4l-95.998 128c-10.604 14.138-7.738 34.195 6.4 44.8z" />
<glyph unicode="&#xe923;" glyph-name="files" data-tags="Связанные документы" d="M789.734 206.47l144.813 144.815c33.267 33.267 34.726 91.99-4.525 131.239-39.245 39.249-97.971 37.793-131.238 4.525l-42.016-42.016c-24.685 9.095-50.637 13.796-76.55 13.958l73.312 73.313c59.987 59.985 159.264 57.958 221.747-4.525s64.512-161.764 4.525-221.75l-144.813-144.813c-59.987-59.987-159.264-57.958-221.748 4.525-7.749 7.75-14.568 16.064-20.454 24.8l46.638 46.637c4.698-9.286 11.034-18.144 19.072-26.182 39.251-39.251 97.971-37.792 131.238-4.525zM617.766 306.029l-144.816-144.813c-33.267-33.267-34.724-91.994 4.525-131.238 39.249-39.251 97.972-37.792 131.239-4.525l42.018 42.016c24.685-9.101 50.637-13.798 76.55-13.958l-73.312-73.312c-59.986-59.987-159.266-57.958-221.75 4.525s-64.51 161.76-4.525 221.747l144.815 144.815c59.985 59.984 159.265 57.958 221.748-4.525 7.75-7.749 14.566-16.065 20.454-24.801l-46.637-46.637c-4.698 9.286-11.034 18.144-19.072 26.182-39.251 39.25-97.971 37.794-131.238 4.525zM699.782 896l4.218-4.155v-187.845h190.778l1.222-1.201v-65.745c22.003-3.601 43.61-10.486 64-20.564v113.11l-233.997 230.4h-598.003v-1024h262.507c-1.187 1.139-2.365 2.291-3.532 3.456-18.104 18.106-32.629 38.624-43.464 60.544h-151.51v896h507.782zM764.301 0l-64-64h259.699v259.699l-64-64v-131.699h-131.699zM256 768h384v-32h-384v32zM256 640h384v-32h-384v32zM256 512h384v-32h-384v32z" />
<glyph unicode="&#xe924;" glyph-name="login" data-tags="Войти" d="M516.846 453.491l-250.51-250.508-44.764 44.762 174.092 174.093h-395.664v63.306h395.665l-174.090 174.092 44.764 44.764 250.507-250.509zM512 896h384c35.347 0 64-28.654 64-64v-768c0-35.347-28.653-64-64-64h-384c-35.346 0-64 28.653-64 64v139.622l-64-64v-75.622c0-70.694 57.308-128 128-128h384c70.694 0 128 57.306 128 128v768c0 70.692-57.306 128-128 128h-384c-70.692 0-128-57.308-128-128v-64.642l64-64.001v128.643c0 35.346 28.654 64 64 64z" />
<glyph unicode="&#xe925;" glyph-name="logout" data-tags="Выйти" d="M964.845 453.491l-250.509-250.508-44.762 44.762 174.093 174.093h-395.667v63.306h395.667l-174.093 174.092 44.768 44.764 250.502-250.509zM128 896h384c35.347 0 64-28.654 64-64v-85.425c1 1.070 2.022 2.127 3.065 3.171l44.765 44.764c5.036 5.036 10.448 9.609 16.17 13.692v23.799c0 70.692-57.308 128-128 128h-384c-70.692 0-128-57.308-128-128v-768c0-70.694 57.308-128 128-128h384c70.692 0 128 57.306 128 128v34.778c-5.724 4.083-11.137 8.659-16.173 13.696l-44.764 44.762c-1.041 1.043-2.061 2.099-3.062 3.168v-96.403c0-35.347-28.654-64-64-64h-384c-35.346 0-64 28.653-64 64v768c0 35.346 28.654 64 64 64z" />
<glyph unicode="&#xe926;" glyph-name="settings" data-tags="Настройки" d="M832 448v-64h-832v64h832zM1024 448v-64h-128v64h128zM256 64v-64h-256v64h256zM1024 64v-64h-704v64h704zM256 832v-64h-256v64h256zM1024 832v-64h-704v64h704zM384 960v-256h-192v256h192zM256 896v-128h64v128h-64zM960 576v-256h-192v256h192zM832 512v-128h64v128h-64zM384-64v256h-192v-256h192zM384 192v-256h-192v256h192zM256 128v-128h64v128h-64z" />
<glyph unicode="&#xe927;" glyph-name="hub" data-tags="Основные разделы" d="M1024 832v-64h-1024v64h1024zM1024 384v64h-1024v-64h1024zM1024 0v64h-1024v-64h1024z" />
<glyph unicode="&#xe928;" glyph-name="airway" data-tags="Воздушные маршруты" d="M0 96l192 96v-35.776l-120.446-60.224 120.446-60.224v-35.776l-192 96zM896 64v-35.776l56.448-28.224-56.448-28.224v-35.776l128 64-128 64zM593.884 424.938l-35.777-17.889 46.109-23.055-35.378-17.689c-5.421-2.71-8.845-8.251-8.845-14.311s3.424-11.601 8.845-14.311l227.379-113.69-220.224-110.112-184.845 92.422c-4.504 2.253-9.805 2.246-14.308 0l-106.721-53.363-78.118 39.059v-35.776l120.446-60.224-120.446-60.224v-35.776l192 96-78.105 39.053 78.1 39.053 184.843-92.422c4.504-2.253 9.806-2.253 14.31 0l248.845 124.422 92.224-46.112-163.379-81.69c-5.421-2.707-8.845-8.25-8.845-14.31s3.424-11.597 8.845-14.31l53.261-26.63-46.099-23.053 128-64v35.776l-56.448 28.224 56.448 28.224v35.776l-46.118-23.059-46.112 23.053 163.379 81.69c5.421 2.714 8.845 8.25 8.845 14.31s-3.424 11.603-8.845 14.31l-355.378 177.69 35.378 17.689c5.421 2.71 8.845 8.251 8.845 14.311s-3.424 11.601-8.845 14.311l-53.265 26.632zM828.954 891.279c8.384-8.385 7.398-22.252-2.086-29.366l-79.635-59.724-130.14-65.073 178.947-178.944-48.806-24.401-268.412 134.207-187.073-93.54 65.067-65.068-48.802-24.401-116.012 59.031-54.796-10.229 9.875 24.401-83.079 48.803 73.204 24.401 24.401-4.881v78.081l48.808 23.414 48.797-72.217 122.008 61.005-219.613 109.807 55.007 18.335c11.87 3.956 24.639 4.348 36.729 1.123l252.004-67.201 193.087 96.544 110.579 20.599 1.728 0.006c6.515 0.039 13.421 0.079 18.214-4.714zM283.292 461.646l-283.292-141.646 192-96 555.552 277.775c-5.011-0.049-10.029 1.076-14.63 3.377l-3.616 1.81-537.306-268.652-163.378 81.69 269.245 134.622c-1.487 0.497-2.947 1.107-4.366 1.829l-10.209 5.195zM387.182 499.28l178.742 89.372-14.311 7.155-163.168-81.584c0.501-3.267 0.499-6.631-0.044-9.976-0.276-1.7-0.685-3.359-1.22-4.967zM827.981 556.301l103.398 51.699-163.379 81.689-38.816-19.407-9.542 9.54 48.358 24.178 192-96-138.554-69.277c3.162 4.136 5.318 9.040 6.176 14.326 0.179 1.084 0.294 2.169 0.358 3.252z" />
<glyph unicode="&#xe929;" glyph-name="railway" data-tags="Железнодорожные маршруты" d="M352-64l672 336v-48l-575.997-288h-96.003zM576.003-64h95.997l352 176v48l-447.997-224zM209.886 872.938l-35.777-17.889 174.109-87.055-99.378-49.689c-5.421-2.71-8.845-8.251-8.845-14.311s3.424-11.601 8.845-14.311l295.16-143 35.777 17.889-288.004 139.423 99.378 49.689c5.421 2.71 8.845 8.251 8.845 14.311s-3.424 11.601-8.845 14.311l-181.265 90.632zM465.883 471.050l-35.777 17.889 270.118 136.95 35.776-17.889-270.117-136.95zM430.106 488.938l-110.11-55.055-110.117 55.059-35.777-17.889 138.739-69.37c4.504-2.252 9.806-2.252 14.31 0l138.732 69.366-35.777 17.889zM128 924.223v35.777l-128-64 128-64v35.777l-56.446 28.223 56.446 28.223zM896 768v35.777l-128-64 128-64v35.777l-56.448 28.223 56.448 28.223zM128 540.223v35.777l-128-64 128-64v35.777l-56.446 28.223 56.446 28.223zM128 924.223v35.777l128-64-128-64v35.777l56.446 28.223-56.446 28.223zM896 768v35.777l128-64-128-64v35.777l56.448 28.223-56.448 28.223zM128 540.223v35.777l128-64-128-64v35.777l56.446 28.223-56.446 28.223zM640 476.223l56.448-28.223-504.448-252.224-56.446 28.224 504.446 252.223zM640 512l-576-288 128-64 576 288-128 64zM1024 704l-320-160 128-64 192 96v35.777l-192-96-56.448 28.223 248.448 124.223v35.777zM64 224l128-64-32-96-128 64 32 96zM75.214 196.928l-19.734-59.2 93.305-46.656 19.734 59.2-93.306 46.656zM736 608.005l-35.776 17.889 163.776 78.106 35.776-17.889-163.776-78.106zM704 384v-32l-64-32v32l64 32zM576 288v32l-64-32v-32l64 32zM256 128v32l-64-32v-32l64 32zM832 320l32 16v16.355c0 19.393 10.957 37.122 28.301 45.795l71.91 35.955c12.768 6.383 27.789-2.9 27.789-17.173v-16.931l32 16v-48l-864-432h-96l96 48-64 32-96-48v48l64 32v16l-32 64 96-48 44.8 22.4-12.8-38.4 32-64 32 16v16.352c0 19.398 10.957 37.126 28.303 45.798l135.911 67.955c12.766 6.381 27.786-2.899 27.786-17.171v-16.934l128 64v16.352c0 19.398 10.957 37.126 28.303 45.798l135.908 67.955c12.768 6.381 27.789-2.899 27.789-17.171v-16.934l32 16v160l-64 32v64l128-64v-160z" />
<glyph unicode="&#xe92a;" glyph-name="purchases-statuses" data-tags="История статусов" d="M192 64c-35.346 0-64 28.653-64 64v448c0 35.346 28.653 64 64 64l640-0.003c35.347-0.001 64-28.654 64-64v-447.997c0-35.347-28.653-64-64-64h-640zM192 704c-70.692 0-128-57.308-128-128v-448c0-70.694 57.308-128 128-128h640c70.694 0 128 57.306 128 128v447.997c0 70.692-57.306 127.999-128 128l-640 0.003zM512 533.333v-85.333l-128 96 128 96v-64c141.382 0 256-114.615 256-256 0-141.382-114.618-256-256-256-141.385 0-256 114.618-256 256 0 52.538 15.827 101.38 42.973 142.019l35.505-23.67c-22.622-33.865-35.811-74.567-35.811-118.349 0-117.818 95.512-213.331 213.333-213.331s213.331 95.514 213.331 213.331c0 117.821-95.51 213.333-213.331 213.333zM480 320l-128 192h32l160-160v-64l-160-96v32l96 96zM640 767.999v-63.999h64v63.999c0 35.346-28.653 64-64 64l-256 0.001c-35.347 0-64-28.654-64-64v-64h64v64l256-0.001z" />
<glyph unicode="&#xe92b;" glyph-name="routing" data-tags="Маршруты" d="M555.15 457.606h34.606v44.8h-34.606c-17.54 0-33.466-4.997-46.739-13.544l24.255-37.666c6.125 3.944 13.646 6.41 22.484 6.41zM728.179 457.606v44.8h-69.21v-44.8h69.21zM832 457.606v44.8h-34.605v-44.8h34.605zM513.799 410.177l-44.383-6.097c2.148-15.64 8.719-30.984 20.134-44.301l25.361-29.587 34.015 29.155-25.361 29.587c-5.752 6.711-8.774 14.026-9.766 21.244zM599.647 300.173l-34.015-29.158 50.721-59.174 34.015 29.158-50.721 59.174zM701.088 181.824l-34.016-29.158 25.363-29.587c5.754-6.707 8.774-14.022 9.766-21.242l44.384 6.099c-2.15 15.635-8.723 30.982-20.134 44.301l-25.363 29.587zM707.59 23.149l-24.256 37.67c-6.125-3.949-13.645-6.413-22.483-6.413h-29.304v-44.8h29.304c17.536 0 33.466 4.998 46.739 13.542zM221.303 9.606v44.8h-29.303v-44.8h29.303zM338.516 9.606v44.8h-58.607v-44.8h58.607zM455.728 9.606v44.8h-58.606v-44.8h58.606zM572.941 9.606v44.8h-58.607v-44.8h58.607zM736.986 670.4c-14.701 24-32.986 56.001-32.986 91.2 0 74.227 57.306 134.4 128 134.4s128-60.173 128-134.4c0-35.199-18.285-67.2-32.986-91.2l-95.014-158.4-95.014 158.4zM832 704c35.347 0 64 28.654 64 64s-28.653 64-64 64c-35.347 0-64-28.654-64-64s28.653-64 64-64zM96.987 222.4c-14.701 24-32.987 56-32.987 91.2 0 74.227 57.308 134.4 128 134.4s128-60.173 128-134.4c0-35.2-18.285-67.2-32.987-91.2l-95.013-158.4-95.013 158.4zM192 256c35.346 0 64 28.653 64 64s-28.654 64-64 64-64-28.654-64-64c0-35.347 28.654-64 64-64z" />
<glyph unicode="&#xe92c;" glyph-name="waterway" data-tags="Морские речные трассы" d="M209.886 872.938l-35.777-17.889 174.109-87.055-99.378-49.689c-5.421-2.71-8.845-8.251-8.845-14.311s3.424-11.601 8.845-14.311l181.268-90.634 35.777 17.889-174.113 87.057 99.378 49.689c5.421 2.71 8.845 8.251 8.845 14.311s-3.424 11.601-8.845 14.311l-181.265 90.632zM593.883 599.050l-35.777 17.888 256 128 35.776-17.888-255.999-128zM430.106 488.938l-110.11-55.055-110.117 55.059-35.777-17.889 138.739-69.37c4.504-2.252 9.806-2.252 14.31 0l138.732 69.366-35.777 17.889zM128 924.223v35.777l-128-64 128-64v35.777l-56.446 28.223 56.446 28.223zM896 796.223v35.777l-128-64 128-64v35.777l-56.448 28.223 56.448 28.223zM128 540.223v35.777l-128-64 128-64v35.777l-56.446 28.223 56.446 28.223zM128 924.223v35.777l128-64-128-64v35.777l56.446 28.223-56.446 28.223zM896 796.223v35.777l128-64-128-64v35.777l56.448 28.223-56.448 28.223zM128 540.223v35.777l128-64-128-64v35.777l56.446 28.223-56.446 28.223zM512 640l-192-96 192-96v35.777l-120.446 60.223 120.446 60.223v35.777zM512 640l192-96-192-96v35.777l120.446 60.223-120.446 60.223v35.777zM1024-64v736l-213.331-106.667 85.331-21.333 64-64-64-160-512-256h-128l-128 96 42.667 85.331-170.667-85.331v-224h1024zM912.358 572.886l-148.083 37.021-596.128-298.067-95.51-191.021 320.77 40.096 620.616 310.309-101.664 101.661zM768 575.99l128-32 64-64-576.001-287.997-256-32 64 127.994 576.001 288.003z" />
<glyph unicode="&#xe92d;" glyph-name="purchases-subjects" data-tags="Объект закупки" d="M416.606 0l-307.2 256h49.986l307.2-256h-49.986zM870.15 108.595l99.219-99.226c12.499-12.499 32.762-12.499 45.261 0 12.493 12.499 12.493 32.755 0 45.254l-99.226 99.226c28.006 37.395 44.595 83.834 44.595 134.15 0 123.712-100.288 224-224 224s-224-100.288-224-224c0-123.712 100.288-224 224-224 50.317 0 96.755 16.589 134.15 44.595zM896 288c0-88.365-71.635-160-160-160s-160 71.635-160 160c0 88.365 71.635 160 160 160s160-71.635 160-160zM768 574.243v129.755l-448 0.003v-384h129.757c2.453 22.191 7.428 43.622 14.63 64h-80.388v240.505l153.456-127.88c7.839 7.463 16.099 14.489 24.74 21.038l-146.804 122.337h288.608v-65.757c10.509 1.161 21.184 1.757 32 1.757s21.491-0.596 32-1.757zM960-58.534v-5.466h-896v384h385.757c-1.161-10.509-1.757-21.184-1.757-32 0-99.853 50.817-187.84 128-239.501v-48.499h312.23l35.885-35.885c10.483-10.483 22.784-18.029 35.885-22.65zM128 0h320v256h-320v-256z" />
<glyph unicode="&#xe92e;" glyph-name="contracts-subjects" data-tags="Объекты договора" d="M192 64c-35.346 0-64 28.653-64 64v448c0 35.346 28.653 64 64 64l640-0.003c35.347-0.001 64-28.654 64-64v-447.997c0-35.347-28.653-64-64-64h-640zM192 704c-70.692 0-128-57.308-128-128v-448c0-70.694 57.308-128 128-128h640c70.694 0 128 57.306 128 128v447.997c0 70.692-57.306 127.999-128 128l-640 0.003zM421.332 318.317v257.683h410.668l-64-454.739-323.999 40.422h-252.001v156.634h229.332zM453.332 544v-257.683h-229.332v-92.634h221.99l294.714-36.768 54.477 387.085h-341.849zM640 767.999v-63.999h64v63.999c0 35.346-28.653 64-64 64l-256 0.001c-35.347 0-64-28.654-64-64v-64h64v64l256-0.001z" />
<glyph unicode="&#xe92f;" glyph-name="contracts-volumes" data-tags="Объемы добычи  ОПИ по условиям договора" d="M832 703.997c70.694-0.001 128-57.307 128-127.997h-64c0 35.345-28.653 63.997-64 63.997l-640 0.003c-35.347 0-64-28.654-64-64v-384h-64v384c0 70.692 57.308 128 128 128l640-0.003zM960 0v512h-128v-512h128zM576 448h-128v-448h128v448zM384 192h-128v-192h128v192zM64 0v128h128v-128h-128zM768 320h-128v-320h128v320zM640 767.999v-63.999h64v63.999c0 35.346-28.653 64-64 64l-256 0.001c-35.347 0-64-28.654-64-64v-64h64v64l256-0.001z" />
<glyph unicode="&#xe930;" glyph-name="automotive" data-tags="Участки автомоильных дорог" d="M102.554 791.053l107.331 53.666 195.576-97.788c16.262-8.131 26.534-24.752 26.534-42.932s-10.272-34.802-26.534-42.932l-42.135-21.068 148.669-74.335 302.111 151.055 107.328-53.666-327.551-163.777-81.887 40.943-81.887-40.943-195.58 97.789 14.311 28.622 181.269-90.635 35.777 17.889-174.113 87.057 99.378 49.689c0.006 0.003-0.005-0.003 0 0 5.411 2.713 8.845 8.257 8.845 14.311s-3.416 11.587-8.826 14.301c-0.006 0.003 0.006-0.003 0 0l-181.284 90.641-35.777-17.889 174.109-87.054-99.378-49.69-14.311 28.622 42.135 21.068-174.109 87.054zM248.84 654.309l-14.311 28.622c-16.262-8.131-26.534-24.752-26.534-42.932s10.272-34.802 26.534-42.933l14.311 28.622c-5.421 2.71-8.845 8.25-8.845 14.311s3.424 11.6 8.845 14.31zM312.84 337.688l-138.739 69.369 35.777 17.889 110.116-55.059 110.11 55.055 35.777-17.889-138.732-69.366c-4.499-2.25-9.809-2.244-14.31 0-0.006 0.003 0.005-0.003 0 0zM319.995 405.664l-110.116 55.059-107.332-53.666 195.982-97.988c13.514-6.758 29.419-6.758 42.932 0l195.975 97.985-107.331 53.666-110.11-55.055zM558.105 552.942l35.777-17.889 255.999 128-35.776 17.889-256.001-128zM128 860.223v35.777l-128-64 128-64v35.777l-56.446 28.223 56.446 28.223zM896 732.223v35.777l-128-64 128-64v35.777l-56.448 28.223 56.448 28.223zM128 476.223v35.777l-128-64 128-64v35.777l-56.446 28.223 56.446 28.223zM128 860.223v35.777l128-64-128-64v35.777l56.446 28.223-56.446 28.223zM896 732.223v35.777l128-64-128-64v35.777l56.448 28.223-56.448 28.223zM128 476.223v35.777l128-64-128-64v35.777l56.446 28.223-56.446 28.223zM512 576l-192-96 192-96v35.777l-120.446 60.223 120.446 60.223v35.777zM512 576l192-96-192-96v35.777l120.446 60.223-120.446 60.223v35.777zM544 305.69l99.379-49.69-99.379-49.69-99.379 49.69 99.379 49.69zM544 320l-128-64 128-64 128 64-128 64zM384 160l32-64 128-64-32 64 32 96-128 64-32-96zM407.48 169.728l19.734 59.2 93.306-46.656-19.734-59.2-93.306 46.656zM430.311 110.31l-3.379 6.758 70.756-35.379 3.379-6.758-70.756 35.379zM928 288l-156.621-78.31c-21.683-10.842-35.379-33.005-35.379-57.242v-24.448l-98.943-49.472c-4.355-12.275-13.318-22.662-25.359-28.678l-7.911-3.962c-8.304-4.147-17.562-1.67-23.020 4.493l-36.767-18.381-32 64 32 96 128 64v32l256 128v-128zM639.983 94.304l19.217 9.606v131.379l-104.733-52.365-28.647-85.946 23.905-47.808 26.29 13.146c-0.010 0.25-0.014 0.499-0.014 0.749v1.286c0 19.398 10.957 37.126 28.303 45.798l7.911 3.955c12.766 6.381 27.786-2.899 27.786-17.171v-1.293c0-0.448-0.006-0.896-0.017-1.338zM896 223.642c0-19.392-10.957-37.12-28.301-45.792l-7.91-3.962c-12.768-6.381-27.789 2.906-27.789 17.178v0.576c0-19.392-10.957-37.12-28.301-45.792l-7.91-3.962c-12.768-6.381-27.789 2.906-27.789 17.178v1.286c0 19.398 10.957 37.126 28.301 45.798l7.91 3.955c12.768 6.381 27.789-2.899 27.789-17.171v-0.582c0 19.398 10.957 37.126 28.301 45.798l7.91 3.955c12.768 6.381 27.789-2.899 27.789-17.171v-1.293zM848.55 455.729c-17.382 32.753-51.52 71.54-112.55 56.287-85.344-21.329-113.786-85.347-123.263-125.644l-68.737-34.369v-32l12.8-6.397v17.686l102.4-51.203v-17.683l12.8-6.4v32l256 127.997-79.45 39.725zM609.694 370.54c-1.694-11.359-1.694-18.522-1.694-18.522l64-32.006 192 95.992c0 0-2.003 8.787-6.893 21.137l42.272-21.137-227.379-113.686-99.379 49.686 37.073 18.536z" />
<glyph unicode="&#xe931;" glyph-name="contracts-expenses" data-tags="Виды работ затрат" d="M192 64c-35.346 0-64 28.653-64 64v448c0 35.346 28.653 64 64 64l640-0.003c35.347-0.001 64-28.654 64-64v-447.997c0-35.347-28.653-64-64-64h-640zM192 704c-70.692 0-128-57.308-128-128v-448c0-70.694 57.308-128 128-128h640c70.694 0 128 57.306 128 128v447.997c0 70.692-57.306 127.999-128 128l-640 0.003zM560 592h288v-288h-288v288zM592 560v-224h224v224h-224zM176 592h288v-288h-288v288zM448 544l-32 32-128-128-64 64-32-32 96-96 160 160zM640 767.999v-63.999h64v63.999c0 35.346-28.653 64-64 64l-256 0.001c-35.347 0-64-28.654-64-64v-64h64v64l256-0.001zM848 272h-288v-208h32v176h224v-176h32v208zM464 272h-288v-208h32v176h224v-176h32v208z" />
<glyph unicode="&#xe932;" glyph-name="opi-daily-operation" data-tags="Ежедневные сводки по видам работ на карьере" d="M160 864v-64h-64v64h64zM64 896v-128h128v128h-128zM160 672v-64h-64v64h64zM64 704v-128h128v128h-128zM160 480v-64h-64v64h64zM64 512v-128h128v128h-128zM384 320v-320h-320v320h320zM333.255 210.746c12.497 12.499 12.497 32.755 0 45.254s-32.758 12.499-45.255 0l-105.373-105.37-41.372 41.37c-12.497 12.499-32.758 12.499-45.255 0s-12.497-32.755 0-45.254l64-64c12.497-12.499 32.758-12.499 45.255 0l128 128zM954.131 288.006c3.891 21.037 5.869 42.454 5.869 63.998-0.006 161.604-108.947 297.702-257.376 339.039-16.237 4.532-32.723 7.876-49.325 10.030-51.75 6.716-104.628 1.873-154.737-14.518-52.817-17.277-100.535-46.721-139.464-85.649-15.234-15.234-28.982-31.779-41.106-49.404-20.453-29.732-36.285-62.54-46.835-97.318-13.207-43.538-17.815-89.107-13.699-134.185h64.326c-4.335 38.772-0.757 78.11 10.618 115.606 7.473 24.637 18.187 48.065 31.789 69.698l217.3-217.298h307.309c-5.677-24.915-14.669-49.056-26.81-71.763-22.323-41.773-54.605-77.389-93.984-103.699-39.379-26.317-84.646-42.509-131.777-47.155-47.134-4.64-94.685 2.413-138.442 20.538s-82.369 46.765-112.415 83.373c-0.46 0.563-0.917 1.12-1.373 1.683v-90.509c26.842-22.144 56.916-40.262 89.295-53.677 53.48-22.15 111.599-30.771 169.207-25.094 57.606 5.67 112.928 25.466 161.056 57.626 48.134 32.16 87.59 75.693 114.88 126.746 17.133 32.051 29.133 66.445 35.693 101.933zM608.003 352.004l88.401 274.18c115.802-37.309 199.59-145.968 199.597-274.18h-287.997z" />
<glyph unicode="&#xe933;" glyph-name="opi-monthly-production" data-tags="Ежемесячные справки о добыче ОПИ" d="M854.63 278.63c12.493-12.499 12.493-32.762 0-45.261l-128-128c-12.499-12.493-32.762-12.493-45.261 0l-63.997 64c-12.497 12.499-12.497 32.762 0 45.261 12.497 12.493 32.758 12.493 45.258 0l41.37-41.376 105.37 105.376c12.499 12.493 32.762 12.493 45.261 0zM960-64h-832v1024h598.003l233.997-230.4v-793.6zM704 891.845l-4.218 4.155h-507.782v-896h704v702.799l-1.222 1.201h-190.778v187.845zM320 832h192v-128h-192v128zM480 800h-128v-64h128v64zM320 640h192v-128h-192v128zM480 608h-128v-64h128v64zM320 320h192v128h-192v-128zM352 416h128v-64h-128v64zM320 256h192v-128h-192v128zM480 224h-128v-64h128v64zM576 512h192v128h-192v-128zM608 608h128v-64h-128v64zM576 448h192v-128h-192v128zM736 416h-128v-64h128v64zM576 832h128v-32h-96v-64h96v-32h-128v128z" />
<glyph unicode="&#xe934;" glyph-name="opi-expenses" data-tags="Затраты за отчетный период" d="M308.626 695.062c-140.36-33.889-244.626-160.304-244.626-311.072 0-176.733 143.269-320.003 320-320.003 77.238 0 148.085 27.366 203.374 72.928-24.17-5.83-49.411-8.928-75.374-8.928-23.203 0-45.828 2.47-67.628 7.162-19.359-4.678-39.576-7.162-60.372-7.162-141.385 0-256 114.618-256 256.003 0 79.492 36.232 150.522 93.082 197.477 20.321 44.218 50.427 83.007 87.544 113.595zM378.993 739.125c-110.337-50.49-186.993-161.86-186.993-291.134 0-176.733 143.269-319.997 320-319.997 73.027 0 140.339 24.461 194.195 65.638-11.251-1.088-22.656-1.638-34.195-1.638-29.85 0-58.827 3.712-86.502 10.707-23.28-6.97-47.952-10.707-73.498-10.707-141.385 0-256 114.611-256 255.997 0 70.255 28.301 133.901 74.124 180.159 9.847 40.137 26.577 77.57 48.869 110.975zM672 256c-159.058 0-288 128.942-288 288s128.942 288 288 288c159.059 0 288-128.942 288-288s-128.941-288-288-288zM672 192c194.406 0 352 157.596 352 352s-157.594 352-352 352c-194.404 0-352-157.596-352-352s157.596-352 352-352zM576 768h64v-320h64v-64h-64v-64h-64v64h-64v64h64v64h-64v64h64v192zM128 832v64l192-96-192-96v64h-128v64h128zM832 128v64l192-96-192-96v64h-128v64h128zM640 704h64c35.347 0 64-28.654 64-64s-28.653-64-64-64h-64v-64h64c70.694 0 128 57.308 128 128s-57.306 128-128 128h-64v-64z" />
<glyph unicode="&#xe935;" glyph-name="opi-requests" data-tags="Заявка на поставку ОПИ" d="M704 768h-384v-32h384v32zM704 640h-384v-32h384v32zM973.51 531.3c24.864 24.867 24.864 65.183 0 90.050-24.87 24.867-65.184 24.867-90.054 0l-371.456-371.455-64-154.048 154.050 63.994 371.46 371.46zM256 576v-128h-256v-128h256v-128l192 192-192 192zM192 0h640v344.537l64 64v-472.537h-768v320h64v-256zM128 512v448l768-0.006v-293.653c-12.838-4.623-24.883-12.077-35.168-22.364l-28.832-28.831v280.849l-640 0.005v-384h-64z" />
<glyph unicode="&#xe936;" glyph-name="opi-volumes" data-tags="Объем ОПИ по актам замеров" d="M826.643 282.618l32.006-32.006-109.491-109.485-32.019 32 109.504 109.491zM570.637 538.625l31.994-31.994-109.494-109.506-31.988 32 109.489 109.5zM442.637 666.625l32.013-32.013-58.623-58.611-32.008 32 58.617 58.625zM314.637 794.625l32.013-32.014-109.498-109.486-32.004 32 109.489 109.5zM973.51 531.3c24.864 24.867 24.864 65.183 0 90.050-24.87 24.867-65.184 24.867-90.054 0l-371.456-371.455-64-154.048 154.050 63.994 371.46 371.46zM784.218-64l63.603 64h112.179v112.973l63.181 63.622-63.181 63.174v232.767l36.134 36.136c17.28 17.278 26.566 39.521 27.866 62.136v-634.808h-239.782zM1024 581.841v378.152l-768 0.006v-16.229l64-64v16.229l640-0.005v-229.313c13.197-4.593 25.594-12.161 36.134-22.705 17.28-17.278 26.566-39.521 27.866-62.136zM720.218 0l64-64h-528.218v528.219l64-64v-400.219h400.218zM239.933 869.332l-148.746-149.788 422.602-422.604-28.906-28.902-9.597-23.104-474.45 474.452 238.939 240.613 468.539-468.536-45.254-45.255-423.126 423.123zM649.094 161.638l134.989-134.989 148.742 149.786-134.464 134.47 45.254 45.254 179.558-179.564-238.931-240.614-187.155 187.155 23.101 9.594 28.906 28.909z" />
<glyph unicode="&#xe937;" glyph-name="opi-supplies" data-tags="Поставки ОПИ для строительства" d="M544 832h44.8l51.2 128h-256l51.2-128h44.8v-68.033c-55.207-14.209-96-64.324-96-123.967 0-70.692 57.308-128 128-128s128 57.308 128 128h-64c0-35.346-28.654-64-64-64s-64 28.654-64 64c0 35.346 28.654 64 64 64h32v128zM512 448c-36.582 0-71.805 9.281-100.902 27.031-30.969 22.625-62.058 36.969-91.098 36.969-151.484 0-320-320-320-320h233.668c-55.937-68.781-102.883-141.658-133.109-192-23.207-38.656-36.559-64-36.559-64h448v64h-336.316c22.73 36.128 51.281 78.752 83.66 121.158 18.070 23.667 39.042 46.899 58.673 68.646l1.983 2.195c23.699 26.093 48.16 52.346 72.769 72.218 47.641 38.534 87.926 55.782 119.231 55.782v128zM512-64h448c0 0-14.49 25.376-39.155 64-32.134 50.342-81.536 123.251-138.688 192.032h241.843c0 0-176.448 284.999-339.322 363.937-31.168-63.906-96.78-107.969-172.678-107.969v-128c25.027 0 62.34-15.904 110.316-55.405 25.050-20.627 50.337-45.472 75.079-72.595 14.317-15.718 28.454-32.186 42.253-49.030 6.080-7.437 12.096-14.938 18.029-22.502 33.107-42.125 62.816-84.435 86.778-120.467h-332.454v-64z" />
<glyph unicode="&#xe938;" glyph-name="minerals-restrictions" data-tags="Разрешенные объемы ОПИ" d="M192 960v-64h-128v-128h-64v192h192zM192-64v64h-128v128h-64v-192h192zM832 896v64h192v-192h-64v128h-128zM0 448c0 0 168.516 320 320 320 29.040 0 60.13-14.348 91.099-36.968 62.030 57.594 130.716 100.968 196.901 100.968 178.285 0 416-383.993 416-383.993l-241.843-0.001c0 0.002 0-0.002 0 0l-84.762-0.006c-24.736 27.127-50.029 51.966-75.080 72.597-47.977 39.51-85.288 55.403-110.315 55.403-31.306 0-71.591-17.245-119.229-55.766-46.371-37.496-92.209-89.066-133.427-143.066-32.377-42.417-60.932-85.040-83.661-121.168l336.317 0.006v-64l-448-0.006c0 0 13.352 25.357 36.559 64 30.228 50.336 77.174 123.224 133.112 192.002l-233.67-0.002zM960 0h-384v384l325.491-0.002 13.254 13.257c24.992 24.993 65.517 24.993 90.509 0 12.486-12.486 18.733-28.847 18.746-45.211v31.954c0 35.346-28.653 63.999-64 64l-384 0.002c-35.346 0-64-28.654-64-64v-384c0-35.347 28.654-64 64-64h384c35.347 0 64 28.653 64 64v351.956c-0.013-16.364-6.259-32.724-18.746-45.21l-45.254-45.254v-261.491zM982.63 329.373c12.493 12.497 12.493 32.758 0 45.254-12.499 12.497-32.762 12.497-45.261 0l-197.907-197.91-73.862 98.483c-10.605 14.138-30.66 17.005-44.798 6.4s-17.004-30.662-6.4-44.8l95.652-127.539c0.57-0.787 1.184-1.555 1.83-2.298 2.592-2.982 5.638-5.37 8.954-7.155 8.838-4.742 19.61-5.146 28.902-0.717 2.208 1.050 4.32 2.368 6.291 3.949 1.101 0.883 2.131 1.83 3.085 2.822l223.514 223.51z" />
<glyph unicode="&#xe939;" glyph-name="tprk" data-tags="Технический проект разработки карьера" d="M0 704v-64h704v-512h69.472c13.184 37.286 48.717 64 90.528 64 53.030 0 96-42.982 96-96s-42.97-96-96-96h-864v-64h864c88.378 0 160 71.635 160 160v704c0 88.367-71.622 160-160 160s-160-71.633-160-160v-96h-704zM768 224.013v575.987c0 53.016 42.97 96 96 96s96-42.984 96-96v-575.987c-14.061 10.56-29.907 18.854-47.002 24.352-15.437 4.966-31.904 7.635-48.998 7.635-36.032 0-69.248-11.898-96-31.987zM64 0v640h-64v-640h64zM653.51 467.3c24.864 24.867 24.864 65.183 0 90.050-24.87 24.867-65.187 24.867-90.053 0l-371.457-371.455-64-154.048 154.050 63.994 371.46 371.46zM196.661 235.808l92.242 92.241c-19.627 10.932-32.903 31.891-32.903 55.951 0 35.346 28.654 64 64 64 24.060 0 45.019-13.276 55.951-32.903l92.24 92.241-32.403 32.408-33.078-33.083c-9.155-9.156-22.847-10.51-34.184-5.798-11.282 4.689-20.268 15.37-20.268 28.357v46.778h-56.515v-46.778c0-12.988-8.986-23.668-20.268-28.357-11.337-4.712-25.030-3.358-34.184 5.798l-33.078 33.083-39.957-39.962 33.087-33.089c9.151-9.151 10.503-22.838 5.791-34.168-4.691-11.281-15.372-20.269-28.362-20.269h-46.772v-56.515h46.772c12.99 0 23.67-8.988 28.362-20.269 4.712-11.331 3.359-25.016-5.791-34.168l-33.087-33.088 32.406-32.41zM327.463 96h312.537v32h-280.537l-32-32zM455.463 224h184.537v32h-152.537l-32-32z" />
<glyph unicode="&#xe93a;" glyph-name="enums" data-tags="Справочники" d="M768 768h-192v-448l96 109.715 96-109.715v448zM192.005 773.461c-32.787 11.586-57.399 40.476-62.865 75.698-0.038-0.284-0.076-0.569-0.112-0.853-0.678-5.34-1.028-10.782-1.028-16.306v-768c0-70.694 57.307-128 128-128h640v896h-64v-832h-576c-35.347 0-64 28.653-64 64l0.005 709.461zM832 896h64v64h-64v-64zM832 896v64h-608c-53.020 0-96-42.981-96-96s42.98-96 96-96h608v64h-608c-17.673 0-32 14.327-32 32s14.327 32 32 32h608zM768 896h64v-64h-64v64z" />
<glyph unicode="&#xe93b;" glyph-name="machines" data-tags="Техника" d="M782.899 960h-192.003c-2.945 0-5.798-0.398-8.508-1.143-2.486 0.741-5.151 1.143-7.956 1.143-9.638 0-18.57-5.057-23.53-13.322l-147.593-245.988-4.414 3.31-6.568-13.137c-15.187-30.374-9.234-67.060 14.78-91.073 30.812-30.812 80.767-30.812 111.578 0l8.211 8.211-79.448 59.586 137.391 228.986c1.962-0.376 3.986-0.572 6.056-0.572h181.334l42.669-128-128-42.667v-149.333h-32c-17.676 0-32.003-14.327-32.003-32s14.327-32 32.003-32h320c17.67 0 32 14.327 32 32s-14.33 32-32 32h49.094v128h-123.763l-78.413 235.242c-4.134 12.396-15.738 20.758-28.8 20.758-1.715 0-3.392-0.139-5.011-0.405-1.664 0.267-3.373 0.405-5.107 0.405zM814.899 768l21.331-64h-21.331v64zM793.6 727.125v-48.721h-83.2v20.987l83.2 27.734zM512 128h-128v-128h128v128zM661.869 320l-21.869-52.275h75.27l52.73-75.725h-160l-32-96 109.306-29.92c29.779-8.147 50.426-35.206 50.426-66.080v0h95.731v177.51c1.152 4.947 0.48 10.253-2.31 15.251-0.48 0.973-1.030 1.914-1.645 2.822l-56.954 98.291c-0.954 1.562-2.074 3.021-3.334 4.358-2.541 12.358-15.661 21.766-31.469 21.766h-73.882zM0 149.331l64-53.331h479.441l128.559 352h-64l-32-64h-575.881l-0.119-234.669zM640 21.331c11.782 0 21.331-9.549 21.331-21.331s-9.549-21.331-21.331-21.331c-11.782 0-21.333 9.549-21.333 21.331s9.551 21.331 21.333 21.331zM704 0c0 35.347-28.653 64-64 64s-64-28.653-64-64 28.654-64 64-64c35.347 0 64 28.653 64 64zM288 21.331c11.782 0 21.333-9.549 21.333-21.331s-9.551-21.331-21.333-21.331c-11.782 0-21.333 9.549-21.333 21.331s9.551 21.331 21.333 21.331zM352 0c0 35.347-28.654 64-64 64s-64-28.653-64-64c0-35.347 28.654-64 64-64s64 28.653 64 64zM128 21.331c11.782 0 21.333-9.549 21.333-21.331s-9.551-21.331-21.333-21.331c-11.782 0-21.333 9.549-21.333 21.331s9.551 21.331 21.333 21.331zM192 0c0 35.347-28.654 64-64 64s-64-28.653-64-64c0-35.347 28.654-64 64-64s64 28.653 64 64z" />
<glyph unicode="&#xe93c;" glyph-name="stages" data-tags="Этапы строительства" d="M0 768h384v128h-384v-128zM128 576h576v128h-576v-128zM640 384h-320v128h320v-128zM960 192v128h-512v-128h512zM1024 128v-128h-128v128h128z" />
<glyph unicode="&#xe93d;" glyph-name="cartography" data-tags="Картографические материалы" d="M462.856 437.942l-21.333 53.333-29.711-11.884 21.333-53.334 29.711 11.885zM494.856 357.942l-10.667 26.666-29.711-11.884-1.144-4.724v-32h26.667c5.309 0 10.273 2.634 13.249 7.030s3.578 9.983 1.606 14.913zM646.4 560l57.6 144h192v-320h-144v-160c0-8.838-7.162-16-16-16h-448c-5.309 0-10.273 2.63-13.249 7.027s-3.578 9.984-1.606 14.912l121.833 304.585-4.5-1.8-21.333 53.333 29.711 11.885 15.223-38.058c0.632 0.076 1.274 0.115 1.921 0.115h230.4zM633.6 528h-206.767l-64-160h37.167v-32h-49.967l-38.4-96h408.367v144h-144l57.6 144zM160 688c-8.836 0-16-7.164-16-16v-26.667h32v10.667h8v32h-24zM232 688h48v-32h-48v32zM328 688h24c6.543 0 12.426-3.983 14.856-10.058l10.667-26.667-29.711-11.884-6.644 16.609h-13.167v32zM144 592v-53.333h32v53.333h-32zM144 485.333v-53.333h32v53.333h-32zM144 378.667v-26.667c0-8.836 7.164-16 16-16h26.667v32h-10.667v10.667h-32zM240 336h53.333v32h-53.333v-32zM960 768l64 64h-1024v-768l64 64v640h896zM1024 832l-64-64v-640h-895.998l-64.002-64h1024v768z" />
<glyph unicode="&#xe93e;" glyph-name="gis" data-tags="Контур объекта1" d="M696.781 833.969l327.219 100.431v-897.971l-327.219-100.429-369.563 126.029-327.218-100.429v897.969l327.218 100.431 369.563-126.031zM960 847.811l-264.256-81.107-369.564 126.031-262.18-80.469v-764.074l264.256 81.107 369.562-126.035 262.182 80.467v764.079zM490.762 224l313.373-87.046 56.32 535.046h-380.454v-288h-320v-160h330.762zM128 192v224h320v288h448l-64-608-345.6 96h-358.4zM304 866.285v29.715h32v-29.715h-32zM304 747.428v59.428h32v-59.428h-32zM304 628.572v59.428h32v-59.428h-32zM304 509.715v59.428h32v-59.428h-32zM304 390.857v59.429h32v-59.429h-32zM304 272v59.428h32v-59.428h-32zM304 153.146v59.424h32v-59.424h-32zM304 64v29.715h32v-29.715h-32zM688 802.285v29.715h32v-29.715h-32zM688 683.428v59.428h32v-59.428h-32zM688 564.572v59.428h32v-59.428h-32zM688 445.715v59.428h32v-59.428h-32zM688 326.857v59.429h32v-59.429h-32zM688 208v59.43h32v-59.43h-32zM688 89.146v59.424h32v-59.424h-32zM688 0v29.715h32v-29.715h-32z" />
<glyph unicode="&#xe93f;" glyph-name="opi-movement" data-tags="Движение ОПИ" d="M544 832h44.8l51.2 128h-256l51.2-128h44.8v-68.033c-55.207-14.209-96-64.324-96-123.967 0-70.692 57.308-128 128-128s128 57.308 128 128h-64c0-35.346-28.654-64-64-64s-64 28.654-64 64c0 35.346 28.654 64 64 64h32v128zM512 448c-36.582 0-71.805 9.281-100.902 27.031-30.969 22.625-62.058 36.969-91.098 36.969-151.484 0-320-320-320-320h233.668c-55.937-68.781-102.883-141.658-133.109-192-23.207-38.656-36.559-64-36.559-64h448v64h-336.316c22.73 36.128 51.281 78.752 83.66 121.158 18.070 23.667 39.042 46.899 58.673 68.646l1.983 2.195c23.699 26.093 48.16 52.346 72.769 72.218 47.641 38.534 87.926 55.782 119.231 55.782v128zM512-64h448c0 0-14.49 25.376-39.155 64-32.134 50.342-81.536 123.251-138.688 192.032h241.843c0 0-176.448 284.999-339.322 363.937-31.168-63.906-96.78-107.969-172.678-107.969v-128c25.027 0 62.34-15.904 110.316-55.405 25.050-20.627 50.337-45.472 75.079-72.595 14.317-15.718 28.454-32.186 42.253-49.030 6.080-7.437 12.096-14.938 18.029-22.502 33.107-42.125 62.816-84.435 86.778-120.467h-332.454v-64zM320 704l-192 192v-128h-128v-128h128v-128l192 192zM832 896v-128h-128v-128h128v-128l192 192-192 192z" />
<glyph unicode="&#xe940;" glyph-name="opi-daily-operation-volumes" data-tags="Ежедневные сводки по видам работ на карьере" d="M160 864v-64h-64v64h64zM64 896v-128h128v128h-128zM160 672v-64h-64v64h64zM64 704v-128h128v128h-128zM352 864v-64h-64v64h64zM256 896v-128h128v128h-128zM544 864v-64h-64v64h64zM448 896v-128h128v128h-128zM640 896v-128h128v128h-128zM832 896v-128h128v128h-128zM179.389 81.446l-74.419-74.419c-9.372-9.37-24.568-9.37-33.941 0-9.372 9.376-9.372 24.57 0 33.946l74.419 74.413c-21.005 28.051-33.448 62.88-33.448 100.614 0 92.787 75.216 168 168 168s168-75.213 168-168c0-92.781-75.216-168-168-168-37.736 0-72.565 12.442-100.611 33.446zM160 216c0-66.272 53.726-120 120-120s120 53.728 120 120c0 66.272-53.726 120-120 120s-120-53.728-120-120zM960 352.004c0-21.544-1.978-42.961-5.869-63.998-6.56-35.488-18.56-69.882-35.693-101.933-27.29-51.053-66.746-94.586-114.88-126.746-48.128-32.16-103.45-51.955-161.056-57.626-57.608-5.677-115.727 2.944-169.207 25.094-15.576 6.451-30.619 13.997-45.025 22.554 17.156 13.792 32.237 30.067 44.7 48.269 8.063-4.275 16.344-8.179 24.817-11.693 43.756-18.125 91.308-25.178 138.442-20.538 47.131 4.646 92.398 20.838 131.777 47.155 39.379 26.31 71.661 61.926 93.984 103.699 12.141 22.707 21.133 46.848 26.81 71.763h-307.309l-217.3 217.298c-12.214-19.427-22.1-40.301-29.402-62.198-15.091 3.206-30.742 4.894-46.788 4.894-6.358 0-12.655-0.265-18.879-0.785 0.654 2.329 1.332 4.652 2.036 6.97 10.55 34.778 26.382 67.585 46.835 97.318 12.124 17.625 25.872 34.17 41.106 49.404 38.929 38.927 86.647 68.371 139.464 85.649 50.109 16.392 102.988 21.234 154.737 14.518 16.602-2.154 33.088-5.498 49.325-10.030 148.429-41.336 257.37-177.434 257.376-339.039zM696.403 626.185l-88.401-274.18h287.997c-0.006 128.212-83.795 236.871-199.597 274.18z" />
<glyph unicode="&#xe941;" glyph-name="opi-reports-docs" data-tags="Отчетные документы Агента" d="M640 832h-384v-32h384v32zM640 768h-384v-32h384v32zM225.073 138.758c1.751-19.283 12.115-37.574 29.727-48.762 11.257-7.149 23.882-10.381 36.28-10.054 2.415-18.317 12.623-35.469 29.436-46.144 15.332-9.741 33.204-12.211 49.582-8.326 5.076-9.542 12.619-17.939 22.396-24.147 30.133-19.136 70.074-10.221 89.209 19.91l13.503 21.267c19.135 30.131 10.22 70.074-19.913 89.21-4.504 2.854-9.226 5.088-14.065 6.72 9.1 27.469-1.199 58.63-26.736 74.842-11.903 7.565-25.337 10.746-38.414 9.971-3.011 17.312-13.029 33.344-29.033 43.507-16.677 10.586-36.358 12.589-53.854 7.149-5.073 9.402-12.551 17.67-22.207 23.802-30.133 19.136-70.073 10.221-89.209-19.917l-25.4-39.994c-19.136-30.138-10.22-70.074 19.913-89.21 8.993-5.715 18.861-8.928 28.787-9.824zM285.494 168.493l25.401 40c5.848 9.21 9.076 19.334 9.88 29.504 8.388 3.77 18.449 3.379 26.792-1.92 9.917-6.298 14.585-17.741 12.735-28.64-0.612-3.597-1.935-7.136-4.015-10.413l-42.947-67.635c-3.829-6.029-9.562-10.118-15.917-11.981-7.549-2.214-15.981-1.286-23.145 3.258-8.92 5.67-13.594 15.494-13.096 25.344 9.61 5.075 18.069 12.653 24.313 22.483zM232.364 174.874c-5.657-0.288-11.456 1.107-16.602 4.378-13.194 8.378-17.098 25.869-8.719 39.059l25.401 40c8.378 13.197 25.867 17.101 39.060 8.723 13.194-8.384 17.098-25.869 8.719-39.066l-25.401-40c-1.672-2.63-3.707-4.896-5.998-6.765-4.712-3.84-10.511-6.022-16.461-6.33zM339.993 64.467c-9.581 6.086-14.263 16.973-12.9 27.533 6.553 4.691 12.332 10.688 16.917 17.914l42.948 67.629c1.686 2.656 3.155 5.389 4.411 8.173 7.677 2.406 16.323 1.542 23.646-3.11 13.194-8.378 17.098-25.869 8.719-39.059l-44.679-70.362c-8.379-13.19-25.867-17.094-39.061-8.717zM401.699 43.488c2.957 3.072 5.652 6.483 8.026 10.221l32.819 51.68c4.57-0.301 9.133-1.722 13.272-4.352 13.194-8.378 17.098-25.862 8.719-39.059l-13.503-21.261c-8.379-13.197-25.867-17.101-39.061-8.723-4.591 2.918-8.057 6.938-10.272 11.494zM776.8 229.517c13.568 8.499 32.557 21.434 46.176 35.776 19.93 21.011 26.368 45.421 30.362 60.544 0.333 1.258 0.646 2.451 0.947 3.574 4.326 15.94 6.925 21.132 12.909 25.731 6.822 5.242 21.152 10.328 38.432 13.846 7.808 1.59 26.061 3.875 26.061 3.875 5.946 0.637-1.344-0.124 0 0l13.472 0.958 9.043 7.553c14.106 11.786 18.234 27.951 19.13 39.631 0.915 11.916-1.030 24.067-3.891 34.977-5.786 22.059-17.357 46.622-31.814 69.553-14.56 23.108-33.178 46.343-54.33 65.159-20.749 18.456-46.509 34.938-75.386 40.101l-8.038 1.437-117.99-32.029-80.7 5.544-11.151-1.856c-3.254-0.561-7.518-1.311-12.52-2.223-11.676-2.129-27.519-5.167-43.997-8.783-16.332-3.584-33.967-7.881-48.975-12.585-7.47-2.341-14.982-4.996-21.649-7.983-5.667-2.538-14.671-6.989-21.802-14.274-10.743-10.973-15.598-24.666-18.304-34.305-2.636-9.388-4.504-19.997-6.109-29.112l-0.34-1.931c-3.697-20.925-7.313-39.098-15.64-54.827-10.931-20.646-21.797-39.144-29.944-52.495-4.065-6.66-11.126-17.372-13.455-21.020l-13.413-20.615 14.055-20.232c14.662-21.111 38.479-26.372 56.729-25.649 18.863 0.749 38.282 7.616 55.724 18.426 31.457 19.496 60.446 54.152 74.077 102.997l19.037 8.257 158.788-227.99 54.509 29.971zM733.824 246.56l-157.499 226.138-63.139-27.382c-11.766-65.306-54.381-100.98-87.525-109.293-9.166-2.299-17.608-2.505-24.472-0.666-5.741 1.538-10.378 4.506-13.414 8.876 0 0 22.293 33.692 45.028 76.633 11.622 21.951 15.893 46.151 19.55 66.871 3.497 19.814 6.433 36.447 14.698 44.89 16.908 17.272 135.82 36.585 135.82 36.585l82.627-5.677 116.019 31.494c78.79-14.089 159.078-160.97 129.389-185.772 0 0-58.131-4.009-85.85-25.304-17.312-13.306-21.914-30.438-26.65-48.051-4.186-15.597-8.48-31.569-21.792-45.597-20.57-21.683-62.79-43.744-62.79-43.744zM733.824 246.56c1.69-3.232-1.37 2.618 0 0zM151.428 298.202c11.41-7.898 24.532-24.717 35.978-43.046l14.368 22.63c2.291 3.603 4.881 6.912 7.716 9.901-3.797 5.466-7.873 10.938-12.164 16.147-7.814 9.485-16.346 18.097-25.218 24.239-27.26 18.872-50.955 32.871-50.955 32.871s-32.891 43.212-11.946 112.195c26.276 86.537 95.294 119.824 95.294 119.824s50.788-38.973 94.961-37.313c32.321 1.215 56.536 0.998 56.536 0.998s56.401 23.306 91.929 33.421c26.58 7.568 31.59 12.452 52.423-5.194l44.115 10.351c0 0-3.304 5.085-16.899 14.016-24.193 15.892-55.143 25.578-89.589 15.771-19.4-5.523-43.64-14.37-62.317-21.512-9.283-3.551-17.469-6.787-23.417-9.171-7.396-0.869-12.078-1.389-12.744-1.395-10.353-0.1-24.833-0.356-41.402-0.979-12.366-0.465-29.149 5.185-45.833 13.917-7.727 4.044-14.346 8.169-19.010 11.272-2.314 1.54 1.15-0.828 0 0-0.574 0.413 0.236-0.175 0 0l-24.385 18.26-20.802-10.038c0 0-2.953-1.535-4.257-2.26-2.605-1.45-6.118-3.514-10.306-6.236-8.358-5.433-19.524-13.567-31.567-24.789-24.104-22.46-52.098-57.673-67.496-108.388-12.755-42.006-9.331-77.27-2.025-102.593 3.613-12.525 8.125-22.465 11.92-29.526 1.901-3.537 3.636-6.378 5.011-8.487 0.682-1.044 5.048-6.979 5.048-6.979l2.154-2.829 7.016-4.15c0.639-0.382 1.605-0.963 2.86-1.725 2.511-1.524 6.169-3.768 10.663-6.59 9.010-5.66 21.273-13.57 34.339-22.613zM722.81 195.162l29.811 19.84c20.403-29.293 13.197-68.653-16.096-89.050-7.117-4.96-14.88-8.282-22.848-10.061 1.542-21.952-8.166-44.141-27.539-57.632-13.184-9.178-28.589-12.768-43.405-11.27-4.319-12.461-12.474-23.712-24.119-31.821-18.49-12.877-41.359-14.752-60.843-7.021-4.536-7.469-10.666-14.125-18.296-19.443-26.745-18.624-62.655-14.234-84.225 8.966 10.493 5.056 19.75 13.005 26.454 23.565l0.513 0.806c9.482-9.805 24.941-11.571 36.494-3.52 4.671 3.251 8.060 7.661 10.049 12.57l0.142 0.358c2.266 5.818 2.581 12.314 0.753 18.413-0.84 2.803-2.132 5.523-3.895 8.051l-15.738 22.598 20.595 11.488 27.837-39.968c2.368-3.405 5.348-6.125 8.688-8.115 9.258-5.536 21.283-5.498 30.708 1.062 5.648 3.936 9.421 9.555 11.112 15.712 1.88 6.848 1.187 14.355-2.367 20.934-0.507 0.934-1.072 1.856-1.697 2.752l-29.176 41.894 20.571 11.469 29.683-42.618c4.529-6.509 11.298-10.522 18.543-11.738 7.040-1.184 14.534 0.282 20.851 4.685 10.048 7.002 14.163 19.341 11.181 30.522-0.826 3.091-2.195 6.099-4.128 8.877l-35.246 50.611c0.186 0.128 8.929 6.15 15.188 9.677 3.309 1.869 5.933 3.034 6.214 2.253 0.819-2.259 1.946-4.461 3.392-6.528l14.394-20.672c5.683-8.16 14.899-12.41 24.154-12.109 5.286 0.166 10.579 1.818 15.245 5.062 12.826 8.934 15.981 26.573 7.046 39.398-0.646 0.941 0.672-0.986 0 0zM960 729.6v-246.44c-5.984 14.109-13.651 28.532-22.368 42.362-11.578 18.361-25.702 36.801-41.632 53.042v124.236l-1.222 1.201h-190.778v187.845l-4.218 4.155h-507.782v-268.735l-3.932-1.897c0 0-2.953-1.535-4.257-2.26-2.605-1.45-6.118-3.514-10.306-6.236-8.358-5.433-19.524-13.567-31.567-24.789-4.545-4.235-9.228-8.923-13.939-14.083v382.001h598.003l233.997-230.4zM128 313.862v-377.862h832v451.045c-1.715-1.976-3.642-3.882-5.798-5.684l-9.043-7.553-13.472-0.957c0 0-18.253-2.285-26.061-3.875-3.328-0.678-6.547-1.414-9.626-2.198v-366.778h-344.097c-3.553-4.198-7.703-8.006-12.428-11.296-26.745-18.624-62.655-14.234-84.225 8.966-17.195-8.282-39.917-9.69-60.573 2.33h-202.677v151.552c-26.657 20.064-33.825 57.587-15.629 86.24l11.031 17.37c-11.444 18.323-24.566 35.142-35.974 43.040-8.351 5.779-16.373 11.098-23.428 15.661z" />
<glyph unicode="&#xe942;" glyph-name="opi-reports" data-tags="Отчетные документы Подрядчика" d="M640 832h-384v-32h384v32zM640 768h-384v-32h384v32zM285.309 524.799l49.46-250.515v-54.854l-73.887 291.945c-11.643-7.247-22.774-15.452-33.317-24.524-7.412-6.378-14.532-13.185-21.335-20.387-54.128-57.318-88.077-139.756-88.077-231.367l0.028-43.021c0.007-7.981-3.4-15.206-8.815-20.25-0.684-0.634-1.4-1.235-2.145-1.798-2.497-1.894-5.322-3.36-8.368-4.294v0c-2.465-0.755-5.078-1.165-7.776-1.165-14.954 0-27.077-12.269-27.077-27.424 0-10.419 5.722-19.475 14.153-24.109 3.841-2.118 8.244-3.322 12.924-3.322 0 0 7.636-1.062 20.874-2.765 0.406-0.051 0.817-0.102 1.233-0.16 2.545-0.326 5.286-0.672 8.207-1.043 14.79-1.862 34.225-4.224 56.566-6.726v0c1.73-0.192 3.477-0.39 5.24-0.582 31.643-3.507 68.632-7.226 106.306-10.214 43.665-3.462 88.25-5.939 126.496-5.939s82.831 2.477 126.496 5.939c37.674 2.989 74.663 6.707 106.304 10.214 1.766 0.192 3.514 0.39 5.242 0.582v0c22.342 2.502 41.779 4.864 56.57 6.726 2.918 0.371 5.658 0.717 8.205 1.043 0.416 0.058 0.826 0.109 1.235 0.16 13.235 1.702 20.87 2.765 20.87 2.765 14.957 0 27.078 12.269 27.078 27.43 0 15.155-12.122 27.424-27.078 27.424-2.694 0-5.306 0.41-7.77 1.165v0c-3.059 0.941-5.901 2.413-8.41 4.32-0.73 0.557-1.434 1.146-2.106 1.773-5.414 5.043-8.826 12.269-8.819 20.25l0.026 43.021c0 91.612-33.946 174.049-88.074 231.367-6.803 7.203-13.923 14.009-21.335 20.387-10.543 9.071-21.674 17.276-33.317 24.524l-73.887-291.945v54.854l49.46 250.515c-10.911 5.236-22.18 9.67-33.756 13.239-5.401 1.665-10.868 3.142-16.397 4.424-3.521 19.089-20.056 33.538-39.923 33.538h-81.231c-19.866 0-36.401-14.449-39.923-33.538-5.528-1.282-10.996-2.758-16.397-4.424-11.575-3.569-22.845-8.003-33.756-13.239zM290.257 595.941c18.845 26.515 49.703 44.059 85.128 44.059h81.231c35.425 0 66.283-17.544 85.128-44.059 11.162-3.866 22.053-8.362 32.639-13.443 5.396-2.59 10.292-5.861 14.618-9.672 5.551-1.615 10.917-3.992 15.939-7.119 105.499-65.67 172.904-191.163 172.904-330.611l-0.006-14.317c32.173-14.323 54.163-46.765 54.163-83.635 0-47.93-37.152-88.371-85.523-91.264l-5.875-0.787c-5.786-0.768-14.157-1.862-24.582-3.168-2.362-0.294-4.838-0.608-7.405-0.922-3.738-4.429-8.134-8.403-13.139-11.782-49.197-33.171-142.398-93.222-252.4-93.222h-54.15c-110.002 0-203.201 60.051-252.397 93.222-5.010 3.379-9.404 7.354-13.139 11.782-2.572 0.314-5.043 0.627-7.408 0.922-10.425 1.306-18.794 2.4-24.584 3.168l-5.922 0.794c-13.72 0.845-26.7 4.762-38.146 11.059-28.387 15.603-47.329 45.856-47.329 80.198 0 36.87 21.99 69.312 54.163 83.635l-0.009 14.317c0 139.448 67.41 264.94 172.907 330.611 5.021 3.126 10.388 5.503 15.939 7.119 4.326 3.811 9.222 7.082 14.618 9.671 10.586 5.081 21.477 9.577 32.639 13.443zM558.316 25.299c40.186 16.883 74.962 39.174 101.377 56.986 0 0-72.206-24.378-216.618-27.168-8.76-0.173-17.784-0.262-27.075-0.262s-18.316 0.090-27.075 0.262c-144.412 2.79-216.617 27.168-216.617 27.168 26.414-17.811 61.19-40.102 101.376-56.986 34.966-14.694 74.028-25.299 115.241-25.299h54.15c41.213 0 80.275 10.605 115.241 25.299zM388.925-64h-260.925v100.096c2.604-2.496 5.449-4.8 8.527-6.874 49.197-33.171 142.396-93.222 252.397-93.222zM443.075-64h516.925v793.6l-233.997 230.4h-598.003v-488.146c18.433 25.836 39.919 48.98 64 68.714v355.432h507.782l4.218-4.155v-187.845h190.778l1.222-1.201v-702.799h-246.368c-52.048-30.701-124.644-64-206.557-64zM183.086 98.451l0.112-0.013c2.891-0.32 5.826-0.64 8.802-0.966-3.015 0.326-5.987 0.653-8.914 0.979z" />
<glyph unicode="&#xe943;" glyph-name="opi-acceptance" data-tags="Реестр актов за отчетный периодОПИ" d="M544 832h44.8l51.2 128h-256l51.2-128h44.8v-68.033c-55.207-14.209-96-64.324-96-123.967 0-70.692 57.308-128 128-128s128 57.308 128 128h-64c0-35.346-28.654-64-64-64s-64 28.654-64 64c0 35.346 28.654 64 64 64h32v128zM512 448c-36.582 0-71.805 9.281-100.902 27.031-30.969 22.625-62.058 36.969-91.098 36.969-151.484 0-320-320-320-320h233.668c-55.937-68.781-102.883-141.658-133.109-192-23.207-38.656-36.559-64-36.559-64h448v64h-336.316c22.73 36.128 51.281 78.752 83.66 121.158 18.070 23.667 39.042 46.899 58.673 68.646l1.983 2.195c23.699 26.093 48.16 52.346 72.769 72.218 47.641 38.534 87.926 55.782 119.231 55.782v128zM512-64h448c0 0-14.49 25.376-39.155 64-32.134 50.342-81.536 123.251-138.688 192.032h241.843c0 0-176.448 284.999-339.322 363.937-31.168-63.906-96.78-107.969-172.678-107.969v-128c25.027 0 62.34-15.904 110.316-55.405 25.050-20.627 50.337-45.472 75.079-72.595 14.317-15.718 28.454-32.186 42.253-49.030 6.080-7.437 12.096-14.938 18.029-22.502 33.107-42.125 62.816-84.435 86.778-120.467h-332.454v-64zM160 864v-64h-64v64h64zM64 896v-128h128v128h-128zM352 864v-64h-64v64h64zM256 896v-128h128v128h-128zM1024 960v-320h-320v320h320zM973.254 850.745c12.499 12.497 12.499 32.758 0 45.255s-32.755 12.497-45.254 0l-105.37-105.373-41.376 41.373c-12.499 12.497-32.755 12.497-45.254 0s-12.499-32.758 0-45.255l64-64c12.499-12.497 32.755-12.497 45.254 0l128 128z" />
</font>
</defs>
</svg>
