<svg width="16" height="16" viewBox="0 0 16 16" fill="none" xmlns="http://www.w3.org/2000/svg">
<path d="M4 5H13V5.5H4V5Z" fill="#4F5358"/>
<path d="M4 7.5V7H12V7.5H4Z" fill="#4F5358"/>
<path d="M15.2111 6.29141C15.5996 6.67995 15.5996 7.3099 15.2111 7.69844L9.40703 13.5025L7 14.5024L8 12.0954L13.804 6.29141C14.1926 5.90287 14.8225 5.90286 15.2111 6.29141Z" fill="#4F5358"/>
<path fill-rule="evenodd" clip-rule="evenodd" d="M0 16V9H2V0H11.3438L15 3.6V5.58308C14.6767 5.47055 14.3224 5.47234 14 5.58842V4.01876L13.9809 4H11V1.06492L10.9341 1H3V9H7V13.1992L6.53828 14.3106C6.46062 14.4975 6.50333 14.7129 6.64646 14.856C6.75423 14.9638 6.90292 15.0146 7.0496 15H14V9.61661L15 8.61661V16H0ZM5.85355 11.3536C6.04882 11.1583 6.04882 10.8417 5.85355 10.6464C5.65829 10.4512 5.34171 10.4512 5.14645 10.6464L3 12.7929L1.85355 11.6464C1.65829 11.4512 1.34171 11.4512 1.14645 11.6464C0.951184 11.8417 0.951184 12.1583 1.14645 12.3536L2.64645 13.8536C2.84171 14.0488 3.15829 14.0488 3.35355 13.8536L5.85355 11.3536Z" fill="#4F5358"/>
</svg>
