<svg width="16" height="16" viewBox="0 0 16 16" fill="none" xmlns="http://www.w3.org/2000/svg">
<path fill-rule="evenodd" clip-rule="evenodd" d="M0 9V16H15V3.6L11.3438 0H2V9H0ZM14 15H7V9H3V1H10.9341L11 1.06492V4H13.9809L14 4.01876V15ZM3 10H4V12H6V13H4V15H3V13H1V12H3V10Z" fill="#4F5358"/>
<path d="M4 5H13V5.5H4V5Z" fill="#4F5358"/>
<path d="M4 7H13V7.5H4V7Z" fill="#4F5358"/>
<path fill-rule="evenodd" clip-rule="evenodd" d="M12 11.75C11.3096 11.75 10.75 12.3096 10.75 13C10.75 13.6904 11.3096 14.25 12 14.25C12.6904 14.25 13.25 13.6904 13.25 13C13.25 12.3096 12.6904 11.75 12 11.75ZM11.25 13C11.25 12.5858 11.5858 12.25 12 12.25C12.4142 12.25 12.75 12.5858 12.75 13C12.75 13.4142 12.4142 13.75 12 13.75C11.5858 13.75 11.25 13.4142 11.25 13Z" fill="#4F5358"/>
</svg>
