<svg width="16" height="16" viewBox="0 0 16 16" fill="none" xmlns="http://www.w3.org/2000/svg">
<path fill-rule="evenodd" clip-rule="evenodd" d="M2 16V0H12L15 3.6V16H2ZM14 15H9V11.9936C9.07276 11.9977 9.14606 11.9998 9.21986 11.9998C10.3168 11.9998 11.305 11.5366 12 10.7951V8.19372H9.21986V9.38367L9.22139 9.38198C9.22226 9.38096 9.22305 9.38004 9.22411 9.3794C9.64246 8.96118 10.3207 8.96118 10.7391 9.3794C11.1568 9.79697 11.1568 10.4747 10.7391 10.8923L10.737 10.894C10.7357 10.895 10.7343 10.8966 10.7332 10.8979L10.7311 10.8997L10.7295 10.9011L10.727 10.9032C10.3102 11.3171 9.76522 11.5241 9.21986 11.5241C9.14646 11.5241 9.07307 11.5203 9 11.5128V9H7.116C7.16796 8.7165 7.27752 8.44148 7.44467 8.19372C7.52127 8.08136 7.60801 7.97491 7.7072 7.87537C8.12489 7.45845 8.67221 7.25016 9.21986 7.25016V4.38928C7.11601 4.38928 5.41087 6.09372 5.41087 8.19372C5.41087 8.47036 5.44041 8.74012 5.4965 9H3V1H10.5979C10.4709 1.19055 10.0041 1.92351 9.76641 2.7373C9.50748 3.64405 9.46984 4.44896 9.55888 5.24139C9.64759 6.03415 9.98279 6.84727 9.98279 6.84727C10.1609 7.2747 10.428 7.73136 10.6018 7.95641C10.8561 7.62525 11.4411 6.63997 11.6241 5.35112C11.7259 4.6359 11.7298 4.00873 11.4968 2.98731C11.2895 2.07913 10.8035 1.32169 10.6419 1.06981C10.6221 1.03882 10.6067 1.0149 10.5979 1H12V4H13.9809L14 4.01876V15ZM11.4287 4.72033C11.4202 5.10998 11.3737 5.52098 11.3144 5.76672C11.336 5.34291 11.2846 4.74596 11.1871 4.27944C11.0899 3.81358 10.8139 3.03396 10.5933 2.67356C10.3897 3.01688 10.1399 3.69103 10.008 4.27517C9.8764 4.86029 9.87215 5.56796 9.87215 5.77953C9.83778 5.60081 9.75037 4.96312 9.7746 4.32182C9.79489 3.79321 9.91928 3.24981 9.98704 3.00012C10.2456 2.16532 10.5383 1.63177 10.5933 1.54635C10.6486 1.63177 11.0172 2.28852 11.2084 2.9791C11.3989 3.66935 11.4372 4.33069 11.4287 4.72033ZM10.5979 7.70245C10.4833 7.48562 10.3049 7.07528 10.2879 6.44055C10.2836 5.82651 10.5298 5.30086 10.6018 5.19047C10.666 5.30086 10.8774 5.75851 10.9026 6.38568C10.92 6.99906 10.7164 7.48167 10.5979 7.70245ZM5 10H6V12H8V13H6V15H5V13H3V12H5V10Z" fill="#4F5358"/>
</svg>
