<svg width="16" height="16" viewBox="0 0 16 16" fill="none" xmlns="http://www.w3.org/2000/svg">
<path fill-rule="evenodd" clip-rule="evenodd" d="M15 16H2V0H11.3438L15 3.6V16ZM11 1.06492L10.9341 1H3V15H14V4.01876L13.9809 4H11V1.06492Z" fill="#4F5358"/>
<path fill-rule="evenodd" clip-rule="evenodd" d="M5 14C4.44772 14 4 13.5523 4 13V8C4 7.44772 4.44771 7 5 7L6.925 7L10.1241 7L12 7.00003C12.5523 7.00004 13 7.44775 13 8.00003V13C13 13.5523 12.5523 14 12 14H10.1241H7.15H5Z" fill="#4F5358"/>
<path d="M10 6.00001V7H11V6.00001C11 5.44773 10.5523 5.00001 10 5.00001L7 5C6.44771 5 6 5.44772 6 6V7H7V6L10 6.00001Z" fill="#4F5358"/>
</svg>
