<svg width="16" height="16" viewBox="0 0 16 16" fill="none" xmlns="http://www.w3.org/2000/svg">
<path d="M10.5 8V10C10.5 10 11.8233 9.71554 13 10.5C14.5 11.5 15.5 14 15.5 14C15.5 14 13 12 12 12C11 12 10.5 12 10.5 12V14L7 11L10.5 8Z" fill="#4F5358"/>
<path d="M15 16H2V0H12L15 3.6V11.0949C14.7126 10.7121 14.3783 10.3312 14 10.0069V4.01876L13.9809 4H12V1H3V15H10.4926C10.4976 15 10.5027 15 10.5077 15H14V14.1276C14.1861 14.2593 14.3546 14.3832 14.4937 14.4875C14.6135 14.5773 14.7103 14.6518 14.7767 14.7034C14.8098 14.7292 14.8352 14.7492 14.852 14.7624L14.8705 14.7771L14.8747 14.7804C14.9147 14.8124 14.9566 14.8409 15 14.866V16Z" fill="#4F5358"/>
<path d="M8.38004 13.5L7.79671 13H4V13.5H8.38004Z" fill="#4F5358"/>
<path d="M5.99998 11C5.99998 11.1775 6.04715 11.3496 6.13395 11.5H4V11H5.99998Z" fill="#4F5358"/>
<path d="M7.93603 6.58611C7.84909 6.42157 7.71371 6.1102 7.7008 5.62855C7.69757 5.1626 7.88436 4.76372 7.93901 4.67996C7.9877 4.76372 8.14816 5.111 8.16729 5.58691C8.18045 6.05236 8.02595 6.41858 7.93603 6.58611ZM8.61813 3.00814C8.44127 2.23332 8.16729 1.80117 7.93603 1.50012C7.83965 1.64472 7.48543 2.20091 7.3051 2.81843C7.10861 3.5065 7.08005 4.11729 7.14761 4.7186C7.21493 5.32016 7.46929 5.93718 7.46929 5.93718C7.60442 6.26152 7.80711 6.60805 7.93901 6.77882C8.13202 6.52753 8.5759 5.77987 8.71476 4.80187C8.79201 4.25914 8.79499 3.78322 8.61813 3.00814Z" fill="#4F5358"/>
<path d="M6.89036 6.95881V7.86178L6.89359 7.85854C7.21104 7.54117 7.72572 7.54117 8.04317 7.85854C8.36013 8.1754 8.36013 8.68971 8.04317 9.00657C8.04143 9.00806 8.03895 9.01031 8.03895 9.01031C8.03895 9.01031 8.03572 9.01355 8.03398 9.01479C7.71777 9.32891 7.30419 9.48597 6.89036 9.48597C6.47479 9.48597 6.05947 9.32767 5.74251 9.01105C5.18411 8.45312 5.11779 7.58954 5.5433 6.95881C5.60142 6.87355 5.66725 6.79277 5.74251 6.71723C6.05947 6.40087 6.47479 6.24281 6.89036 6.24281V4.0719C5.2939 4.0719 4 5.36527 4 6.95881C4 8.55384 5.2939 9.84696 6.89036 9.84696C7.72274 9.84696 8.47265 9.49545 9 8.93277V6.95881H6.89036Z" fill="#4F5358"/>
</svg>
