<svg width="16" height="16" viewBox="0 0 16 16" fill="none" xmlns="http://www.w3.org/2000/svg">
<path d="M8.62457 9.73405H12V12.8924C11.1562 13.7927 9.95638 14.3551 8.62457 14.3551C6.07025 14.3551 4 12.2861 4 9.73405C4 7.1844 6.07025 5.115 8.62457 5.115V8.58846C7.95966 8.58846 7.29515 8.84136 6.78802 9.34754C6.66759 9.4684 6.56227 9.59764 6.46927 9.73405C5.78846 10.7432 5.89458 12.125 6.78802 13.0177C7.29515 13.5242 7.95966 13.7775 8.62457 13.7775C9.2867 13.7775 9.94843 13.5262 10.4544 13.0236C10.4572 13.0216 10.4595 13.0192 10.4619 13.0173C10.4639 13.0149 10.4663 13.0129 10.4691 13.0105C10.9762 12.5035 10.9762 11.6806 10.4691 11.1736C9.96115 10.6658 9.13766 10.6658 8.62974 11.1736C8.62845 11.1744 8.62749 11.1755 8.62643 11.1767C8.62586 11.1774 8.62527 11.1781 8.62457 11.1788V9.73405Z" fill="#4F5358"/>
<path fill-rule="evenodd" clip-rule="evenodd" d="M15 16H2V0H12L15 3.6V16ZM12 1H10.2977C10.3085 1.01821 10.3267 1.04671 10.3511 1.08469C10.5473 1.39048 11.1373 2.31017 11.389 3.41282C11.672 4.65294 11.6672 5.41441 11.5436 6.28277C11.3214 7.84759 10.6112 9.04383 10.3024 9.4459C10.0914 9.17267 9.76707 8.61823 9.55086 8.09928C9.55086 8.09928 9.14389 7.11205 9.03618 6.14955C8.92808 5.18744 8.97378 4.21018 9.28816 3.10927C9.57669 2.12126 10.1434 1.23138 10.2977 1H3V15H14V4.01876L13.9809 4H12V1ZM11.3063 5.51692C11.296 5.98999 11.2396 6.48899 11.1676 6.78736C11.1939 6.2728 11.1315 5.54803 11.013 4.98162C10.895 4.41601 10.56 3.46946 10.2921 3.03189C10.0449 3.44872 9.74163 4.26722 9.58147 4.97643C9.4217 5.68684 9.41653 6.54603 9.41653 6.80291C9.3748 6.58592 9.26868 5.81169 9.29809 5.03308C9.32273 4.39128 9.47376 3.73152 9.55603 3.42837C9.87 2.41482 10.2253 1.76703 10.2921 1.66332C10.3592 1.76703 10.8068 2.5644 11.0389 3.40285C11.2702 4.2409 11.3167 5.04385 11.3063 5.51692ZM10.2976 9.13757C10.1585 8.87431 9.94194 8.3761 9.92127 7.60546C9.91611 6.85995 10.215 6.22174 10.3024 6.08772C10.3803 6.22174 10.6371 6.77739 10.6677 7.53885C10.6887 8.28356 10.4415 8.86952 10.2976 9.13757Z" fill="#4F5358"/>
</svg>
