<svg width="16" height="16" viewBox="0 0 16 16" fill="none" xmlns="http://www.w3.org/2000/svg">
<path d="M2 6H8V4H2L2 6Z" fill="#4F5358"/>
<path d="M12 9H9V7H12V9Z" fill="#4F5358"/>
<path d="M11 12V10H14V12H11Z" fill="#4F5358"/>
<path fill-rule="evenodd" clip-rule="evenodd" d="M2 1C2 0.447715 2.44772 0 3 0C3.55228 0 4 0.447715 4 1V2L12 2V1C12 0.447715 12.4477 0 13 0C13.5523 0 14 0.447715 14 1V2L16 2L15.9999 14H9V16H2V14H0L1.90735e-06 2H2V1ZM2 13V7H6.80625L9 9.16006V13H14.9999L15 3L1 3L1 13H2ZM3.5 1V2.5H2.5V1C2.5 0.723858 2.72386 0.5 3 0.5C3.27614 0.5 3.5 0.723858 3.5 1ZM13.5 1V2.5H12.5V1C12.5 0.723858 12.7239 0.5 13 0.5C13.2761 0.5 13.5 0.723858 13.5 1ZM2.7 15.3H8.3V10H6V7.7H2.7V15.3Z" fill="#4F5358"/>
</svg>
