<svg width="16" height="16" viewBox="0 0 16 16" fill="none" xmlns="http://www.w3.org/2000/svg">
<path d="M16 0H14.5L10.1771 4.77013C10.3826 5.13326 10.5 5.55293 10.5 6V6.06897L16 0Z" fill="#4F5358"/>
<path d="M4.5 11.0345V12.5H4.67188L1.5 16H0L4.5 11.0345Z" fill="#4F5358"/>
<path d="M11.3438 0L12.2985 0.940072L11 2.37291V1.06492L10.9341 1H3V11.2005L2 12.3039V0H11.3438Z" fill="#4F5358"/>
<path d="M3.7558 15H14V4.01876L13.9809 4H13.7246L14.5175 3.12497L15 3.6V16H2.84955L3.7558 15Z" fill="#4F5358"/>
<path fill-rule="evenodd" clip-rule="evenodd" d="M11 7L10 7V6C10 4.89543 9.10457 4 8 4C6.89543 4 6 4.89543 6 6L6 7H5V12H11V7ZM7 7V6C7 5.44772 7.44772 5 8 5C8.55228 5 9 5.44772 9 6V7L7 7ZM9 9C9 9.37014 8.7989 9.69331 8.5 9.86622V11H7.5V9.86622C7.2011 9.69331 7 9.37014 7 9C7 8.44772 7.44772 8 8 8C8.55228 8 9 8.44772 9 9Z" fill="#4F5358"/>
</svg>
