<svg width="16" height="16" viewBox="0 0 16 16" fill="none" xmlns="http://www.w3.org/2000/svg">
<path fill-rule="evenodd" clip-rule="evenodd" d="M3.33719 5L1 7.34978L8.66285 15L11 12.6502L3.33719 5ZM3.33872 5.88559L1.88377 7.34826L8.66132 14.1144L10.1162 12.6517L9.39068 11.9273L8.31965 12.9966L8.00646 12.6841L9.07756 11.6148L8.14798 10.6868L7.56503 11.2687L7.25195 10.9562L7.83482 10.3743L6.88633 9.42736L5.81541 10.4967L5.50252 10.1842L6.57336 9.11486L5.63453 8.1777L5.06117 8.74989L4.74809 8.4374L5.32141 7.8649L4.38251 6.92774L3.31152 7.99673L2.99847 7.68424L4.06939 6.61494L3.33872 5.88559Z" fill="#4F5358"/>
<path fill-rule="evenodd" clip-rule="evenodd" d="M3 0C2.44772 0 2 0.447715 2 1V2H1.90735e-06L1.05726e-06 7.34832C0.000368846 7.09376 0.0973324 6.83928 0.290996 6.64458L1 5.93175L1 3L15 3L14.9999 13H11.9371C11.8888 13.1295 11.8128 13.2511 11.709 13.3554L11.0679 14H15.9999L16 2L14 2V1C14 0.447715 13.5523 0 13 0C12.4477 0 12 0.447715 12 1V2L4 2V1C4 0.447715 3.55228 0 3 0ZM3.5 2.5V1C3.5 0.723858 3.27614 0.5 3 0.5C2.72386 0.5 2.5 0.723858 2.5 1V2.5H3.5ZM13.5 2.5V1C13.5 0.723858 13.2761 0.5 13 0.5C12.7239 0.5 12.5 0.723858 12.5 1V2.5H13.5Z" fill="#4F5358"/>
<path d="M5.24416 13L6.24581 14H0L1.05679e-06 7.35122C0.000370465 7.60696 0.098231 7.86255 0.293477 8.05747L1 8.76283L1 13H5.24416Z" fill="#4F5358"/>
<path d="M11.7598 12H14V10H11V11.2372L11.7065 11.9425C11.7252 11.9612 11.7429 11.9803 11.7598 12Z" fill="#4F5358"/>
<path d="M5.75422 6H10V4H5V5.24702L5.75422 6Z" fill="#4F5358"/>
<path d="M13 7V9H9V7H13Z" fill="#4F5358"/>
</svg>
