<svg width="16" height="16" viewBox="0 0 16 16" fill="none" xmlns="http://www.w3.org/2000/svg">
<path fill-rule="evenodd" clip-rule="evenodd" d="M3 0C2.44772 0 2 0.447715 2 1V2H1.90735e-06L0 14L15.9999 14L16 2L14 2V1C14 0.447715 13.5523 0 13 0C12.4477 0 12 0.447715 12 1V2L4 2V1C4 0.447715 3.55228 0 3 0ZM1 3L1 13L14.9999 13L15 3L1 3ZM3.5 2.5V1C3.5 0.723858 3.27614 0.5 3 0.5C2.72386 0.5 2.5 0.723858 2.5 1V2.5H3.5ZM13.5 2.5V1C13.5 0.723858 13.2761 0.5 13 0.5C12.7239 0.5 12.5 0.723858 12.5 1V2.5H13.5Z" fill="#4F5358"/>
<path d="M2 6H8V4H2L2 6Z" fill="#4F5358"/>
<path d="M6 9H10V7H6V9Z" fill="#4F5358"/>
<path d="M13 9H14V7H13V9Z" fill="#4F5358"/>
<path d="M7 12H14V10H7V12Z" fill="#4F5358"/>
</svg>
