<svg width="16" height="16" viewBox="0 0 16 16" fill="none" xmlns="http://www.w3.org/2000/svg">
<path d="M2.30155 6.82857L1.14655 4H7.25345L6.09845 6.82857H4.775L4.775 8.68199C4.775 8.99955 4.51756 9.25699 4.2 9.25699C3.07368 9.25699 2.15 10.153 2.15 11.2713C2.15 12.3895 3.07368 13.2856 4.2 13.2856C5.22357 13.2856 6.07978 12.5456 6.22748 11.5713H7.38545C7.23117 13.1537 5.86901 14.3998 4.2 14.3998C2.42683 14.3998 1 12.9933 1 11.2713C1 9.81824 2.01501 8.59039 3.39834 8.24161C3.53161 8.20801 3.625 8.08815 3.625 7.95072V6.82857H2.30155Z" fill="#4F5358"/>
<path fill-rule="evenodd" clip-rule="evenodd" d="M3 0C2.44772 0 2 0.447715 2 1V2H1.90735e-06L4.34022e-07 11.2694C0.000467455 10.247 0.377803 9.31543 1 8.59719L1 6.28639L0.220754 4.37803C0.0948347 4.06966 0.130725 3.71883 0.316477 3.44234C0.474656 3.20689 0.723825 3.05167 1 3.01078V3H7.25345L15 3L14.9999 13H8.01527C7.84361 13.3657 7.61931 13.7021 7.35213 14L15.9999 14L16 2L14 2V1C14 0.447715 13.5523 0 13 0C12.4477 0 12 0.447715 12 1V2L4 2V1C4 0.447715 3.55228 0 3 0ZM3.5 2.5V1C3.5 0.723858 3.27614 0.5 3 0.5C2.72386 0.5 2.5 0.723858 2.5 1V2.5H3.5ZM13.5 2.5V1C13.5 0.723858 13.2761 0.5 13 0.5C12.7239 0.5 12.5 0.723858 12.5 1V2.5H13.5Z" fill="#4F5358"/>
<path d="M1.04785 14H0L4.33418e-07 11.2732C0.000478844 12.3219 0.396984 13.2748 1.04785 14Z" fill="#4F5358"/>
<path d="M8 4.817V6H11V4H8.25346C8.25347 4.12784 8.22897 4.25625 8.17924 4.37803L8 4.817Z" fill="#4F5358"/>
<path d="M12 9H9V7H12V9Z" fill="#4F5358"/>
<path d="M14 10V12H11V10H14Z" fill="#4F5358"/>
</svg>
