<svg width="16" height="16" viewBox="0 0 16 16" fill="none" xmlns="http://www.w3.org/2000/svg">
<path d="M2 5H1V1H5V2L2 2L2 5Z" fill="#4F5358"/>
<path d="M15 5H14V2L11 2V1H15V5Z" fill="#4F5358"/>
<path d="M1 11H2L2 14H5V15H1V11Z" fill="#4F5358"/>
<path d="M15 11V15H11V14H14V11H15Z" fill="#4F5358"/>
<path fill-rule="evenodd" clip-rule="evenodd" d="M7 5V8H6V9H7V10H6V11H7V12H8V11H9V10H8V9H9C10.1046 9 11 8.10457 11 7C11 5.89543 10.1046 5 9 5H7ZM8 6V8H9C9.55228 8 10 7.55228 10 7C10 6.44772 9.55228 6 9 6H8Z" fill="#4F5358"/>
<path fill-rule="evenodd" clip-rule="evenodd" d="M8 14C11.3137 14 14 11.3137 14 8C14 4.68629 11.3137 2 8 2C4.68629 2 2 4.68629 2 8C2 11.3137 4.68629 14 8 14ZM8 12.9091C10.7112 12.9091 12.9091 10.7112 12.9091 8C12.9091 5.28878 10.7112 3.09091 8 3.09091C5.28878 3.09091 3.09091 5.28878 3.09091 8C3.09091 10.7112 5.28878 12.9091 8 12.9091Z" fill="#4F5358"/>
</svg>
