<svg width="16" height="16" viewBox="0 0 16 16" fill="none" xmlns="http://www.w3.org/2000/svg">
<path d="M15 8H13V16H15V8Z" fill="#4F5358"/>
<path d="M9 11H7V16H9V11Z" fill="#4F5358"/>
<path d="M4 13H6V16H4V13Z" fill="#4F5358"/>
<path d="M1 14H3V16H1V14Z" fill="#4F5358"/>
<path d="M10 12H12V16H10V12Z" fill="#4F5358"/>
<path d="M8.75 5H10L8 2L6 5H7.25L5 8H6.4L4 11H6V10H10V11H12L9.6 8H11L8.75 5Z" fill="#4F5358"/>
<path d="M3 13V1H10.9341L11 1.06492V4H13.9809L14 4.01876V7H15V3.6L11.3438 0H2V13H3Z" fill="#4F5358"/>
</svg>
