<svg width="16" height="16" viewBox="0 0 16 16" fill="none" xmlns="http://www.w3.org/2000/svg">
<path d="M10 5H8.75L11 8H9.6L12 11H4L6.4 8H5L7.25 5H6L8 2L10 5Z" fill="#4F5358"/>
<path fill-rule="evenodd" clip-rule="evenodd" d="M12 11.75C11.3096 11.75 10.75 12.3096 10.75 13C10.75 13.6904 11.3096 14.25 12 14.25C12.6904 14.25 13.25 13.6904 13.25 13C13.25 12.3096 12.6904 11.75 12 11.75ZM11.25 13C11.25 12.5858 11.5858 12.25 12 12.25C12.4142 12.25 12.75 12.5858 12.75 13C12.75 13.4142 12.4142 13.75 12 13.75C11.5858 13.75 11.25 13.4142 11.25 13Z" fill="#4F5358"/>
<path fill-rule="evenodd" clip-rule="evenodd" d="M15 16H2V0H11.3438L15 3.6V16ZM11 1.06492L10.9341 1H3V15H14V4.01876L13.9809 4H11V1.06492Z" fill="#4F5358"/>
</svg>
