<svg width="16" height="16" viewBox="0 0 16 16" fill="none" xmlns="http://www.w3.org/2000/svg">
<path fill-rule="evenodd" clip-rule="evenodd" d="M9.75 3L11 3L9 0L7 3L8.25 3L6 6L4 3L2 6H3.25L1 9H2.4L0 12H6.10002C6.56329 14.2822 8.58104 16 11 16C13.7614 16 16 13.7614 16 11C16 8.23858 13.7614 6 11 6H12L9.75 3ZM10.6119 6.01484L10.6 6H11C10.8694 6 10.74 6.00501 10.6119 6.01484ZM11.4172 7.02149C11.2801 7.00728 11.1409 7 11 7C9.51943 7 8.22675 7.8044 7.53513 9C7.2326 9.52298 7.04508 10.1208 7.00714 10.7589C7.0024 10.8387 7 10.9191 7 11C7 11.3453 7.04375 11.6804 7.12602 12C7.57006 13.7252 9.13616 15 11 15C13.2091 15 15 13.2091 15 11C15 8.93175 13.4303 7.23012 11.4172 7.02149ZM6.168 9.71C6.23311 9.46545 6.3163 9.22828 6.41604 9H5.6L6.168 9.71ZM6 6H7.4L6.03226 7.70968L4.75 6H6Z" fill="#4F5358"/>
<path d="M10.9872 7.5C10.5015 7.5 10.1586 7.97579 10.3122 8.43651L10.3378 8.51349C10.4347 8.80403 10.7066 9 11.0128 9C11.4985 9 11.8414 8.52421 11.6878 8.06349L11.6622 7.98651C11.5653 7.69597 11.2934 7.5 10.9872 7.5Z" fill="#4F5358"/>
<path d="M11.5 10C11.7761 10 12 10.2239 12 10.5C12 10.7761 11.7761 11 11.5 11V13C11.7761 13 12 13.2239 12 13.5C12 13.7761 11.7761 14 11.5 14H10.5C10.2239 14 10 13.7761 10 13.5C10 13.2239 10.2239 13 10.5 13V11C10.2239 11 10 10.7761 10 10.5C10 10.2239 10.2239 10 10.5 10H11.5Z" fill="#4F5358"/>
</svg>
