<svg width="16" height="16" viewBox="0 0 16 16" fill="none" xmlns="http://www.w3.org/2000/svg">
<path fill-rule="evenodd" clip-rule="evenodd" d="M8.5 14C10.9853 14 13 11.9853 13 9.5C13 7.01472 10.9853 5 8.5 5C6.01472 5 4 7.01472 4 9.5C4 11.9853 6.01472 14 8.5 14ZM8.5 15C11.5376 15 14 12.5376 14 9.5C14 6.46243 11.5376 4 8.5 4C5.46243 4 3 6.46243 3 9.5C3 12.5376 5.46243 15 8.5 15Z" fill="#4F5358"/>
<path fill-rule="evenodd" clip-rule="evenodd" d="M2 0V16H15V3.6L11.3438 0H2ZM10.9341 1L11 1.06492V4H13.9809L14 4.01876V7.09829C14.3216 7.8337 14.5 8.64601 14.5 9.5C14.5 10.354 14.3216 11.1663 14 11.9017V15H10.9017C10.1663 15.3216 9.35399 15.5 8.5 15.5C7.64601 15.5 6.8337 15.3216 6.09829 15H3V11.9017C2.67841 11.1663 2.5 10.354 2.5 9.5C2.5 8.64601 2.67841 7.8337 3 7.09829V1H10.9341Z" fill="#4F5358"/>
<path d="M7 6H8V11H9V12H8V13H7V12H6V11H7V10H6V9H7V6Z" fill="#4F5358"/>
<path d="M8 7H9C9.55228 7 10 7.44772 10 8C10 8.55228 9.55228 9 9 9H8V10H9C10.1046 10 11 9.10457 11 8C11 6.89543 10.1046 6 9 6H8V7Z" fill="#4F5358"/>
</svg>
