<svg width="16" height="16" viewBox="0 0 16 16" fill="none" xmlns="http://www.w3.org/2000/svg">
<path d="M4.75 3.32143V2.39286H5.25V3.32143H4.75Z" fill="#4F5358"/>
<path d="M4.75 5.17857V4.25H5.25V5.17857H4.75Z" fill="#4F5358"/>
<path d="M4.75 6.10714V7.03571H5.25V6.10714H4.75Z" fill="#4F5358"/>
<path d="M4.75 8.5V7.96428H5.25V8.5H4.75Z" fill="#4F5358"/>
<path d="M4.75 12V12.6071H5.25V12H4.75Z" fill="#4F5358"/>
<path d="M10.75 3.39286V4H11.25V3.39286H10.75Z" fill="#4F5358"/>
<path d="M10.75 12.8585V13.6071H11.25V13L10.75 12.8585Z" fill="#4F5358"/>
<path fill-rule="evenodd" clip-rule="evenodd" d="M10.8872 1.96923L5.11278 0L0 1.56923V15.6L5.11278 14.0308L10.8872 16L16 14.4308V0.399998L10.8872 1.96923ZM15 1.75296L10.871 3.02025L5.25 1.10335V1.46429H4.75V1.15739L1 2.30835V14.247L5.129 12.9797L10.75 14.8967V14.5357H11.25V14.8426L15 13.6917V1.75296Z" fill="#4F5358"/>
<path fill-rule="evenodd" clip-rule="evenodd" d="M4.75 8.5V8.89286H5.25V8.5H7V4H10.75V4.32143H11.25V4H14L13 13.5L11.25 13.0139V12.6786H10.75V12.875L7.6 12H5.25V11.6786H4.75V12H2V8.5H4.75ZM4.75 9.82143V10.75H5.25V9.82143H4.75ZM10.75 6.17857V5.25H11.25V6.17857H10.75ZM10.75 8.03571V7.10714H11.25V8.03571H10.75ZM10.75 9.89286V8.96428H11.25V9.89286H10.75ZM10.75 11.75V10.8214H11.25V11.75H10.75Z" fill="#4F5358"/>
</svg>
