<svg width="16" height="16" viewBox="0 0 16 16" fill="none" xmlns="http://www.w3.org/2000/svg">
<path fill-rule="evenodd" clip-rule="evenodd" d="M4.99979 2.5L7.99979 0L7.99979 2C11.3135 2 13.9998 4.68629 13.9998 8H14.1719L16 9.80005V16H10V13.6586C9.37444 13.8797 8.70127 14 8 14C4.68629 14 2 11.3137 2 7.99998C2 6.88727 2.30289 5.84531 2.83072 4.95205L3.56588 5.68722C3.20441 6.37883 3 7.16554 3 7.99998C3 10.7614 5.23858 13 8 13C8.71112 13 9.38755 12.8515 10 12.5839V8H12.9998C12.9998 5.23858 10.7612 3 7.99979 3V5L4.99979 2.5ZM15.3 15.3H10.7V8.7H13.5V10.5H15.3V15.3Z" fill="#4F5358"/>
<path d="M4 3.88904L7.55556 7.4446L5.33337 10.5557L5.77783 11.0001L8.5 8.5V6.5L4.44446 3.44458L4 3.88904Z" fill="#4F5358"/>
</svg>
