<svg width="16" height="16" viewBox="0 0 16 16" fill="none" xmlns="http://www.w3.org/2000/svg">
<path fill-rule="evenodd" clip-rule="evenodd" d="M14 7.5C14 11.0899 11.0899 14 7.5 14C4.66672 14 2.25684 12.1872 1.3669 9.65827L0 10V9.14286L1.14103 8.85307C1.04861 8.41661 1 7.96398 1 7.5C1 3.91015 3.91015 1 7.5 1C9.39371 1 11.0983 1.80982 12.2863 3.10205L11.5784 3.8099C10.5721 2.6983 9.11758 2 7.5 2C4.46243 2 2 4.46243 2 7.5C2 7.87906 2.03835 8.24916 2.11137 8.60664L2.59667 8.48338C2.53326 8.16543 2.5 7.8366 2.5 7.5C2.5 4.73858 4.73858 2.5 7.5 2.5C8.97951 2.5 10.3089 3.14261 11.2244 4.16394L10.8703 4.51808C10.0458 3.58697 8.84145 3 7.5 3C5.01472 3 3 5.01472 3 7.5C3 7.79415 3.02822 8.0817 3.08211 8.3601L4.5 8L5 10L6.97502 9.25937L6.53828 10.3106L6.53366 10.3221L4.62186 10.9594C5.40199 11.6091 6.40535 12 7.5 12C9.94578 12 11.9358 10.0488 11.9985 7.61813L12.4865 7.13009C12.4955 7.25223 12.5 7.37558 12.5 7.5C12.5 10.2614 10.2614 12.5 7.5 12.5C5.37021 12.5 3.55143 11.1684 2.83083 9.29229L2.34234 9.41441C3.11979 11.5081 5.13567 13 7.5 13C10.5376 13 13 10.5376 13 7.5C13 7.22053 12.9792 6.94593 12.9389 6.67767L13.7841 5.83249C13.925 6.36464 14 6.92356 14 7.5ZM3.32006 9.16999C3.57192 9.79983 3.96202 10.3595 4.45284 10.8113L4 9L3.32006 9.16999Z" fill="#4F5358"/>
<path d="M15.2111 2.29141C15.5996 2.67995 15.5996 3.3099 15.2111 3.69844L9.40703 9.50246L7 10.5024L8 8.09543L13.804 2.29141C14.1926 1.90287 14.8225 1.90286 15.2111 2.29141Z" fill="#4F5358"/>
</svg>
