<svg width="16" height="16" viewBox="0 0 16 16" fill="none" xmlns="http://www.w3.org/2000/svg">
<path d="M2.20454 7.46013L2.29584 7.39927L3.19722 8.0002L2.29584 8.60112L2.20454 8.54026L1.8203 7.95628L2.20454 7.46013Z" fill="#4F5358"/>
<path d="M1.32858 8.14512L1.88328 8.87616L1.4453 9.16815C1.37626 9.21417 1.31406 9.26801 1.25956 9.32805L0.519111 8.65594C0.628208 8.53575 0.752668 8.42805 0.8906 8.33609L1.32858 8.14512Z" fill="#4F5358"/>
<path d="M0.0600601 9.51368L1.03002 9.75696C1.01029 9.83561 1 9.91722 1 10.0002C1 10.0832 1.01029 10.1648 1.03002 10.2434L0.0600601 10.4867C0.0205719 10.3293 0 10.166 0 10.0002C0 9.83442 0.0205719 9.67113 0.0600601 9.51368Z" fill="#4F5358"/>
<path d="M0.519111 11.3445L1.25956 10.6723C1.31406 10.7324 1.37626 10.7862 1.4453 10.8322L1.8203 11.0822L1.2656 11.9143L0.8906 11.6643C0.752669 11.5723 0.628208 11.4646 0.519111 11.3445Z" fill="#4F5358"/>
<path d="M2.0156 12.4143L2.5703 11.5822L3.3203 12.0822L2.7656 12.9143L2.0156 12.4143Z" fill="#4F5358"/>
<path d="M3.5156 13.4143L4.0703 12.5822L4.8203 13.0822L4.2656 13.9143L3.5156 13.4143Z" fill="#4F5358"/>
<path d="M5.0156 14.4143L5.5703 13.5822L6.3203 14.0822L5.7656 14.9143L5.0156 14.4143Z" fill="#4F5358"/>
<path d="M6.5156 15.4143L7.0703 14.5822L7.4453 14.8322C7.5284 14.8876 7.61773 14.9293 7.71021 14.9573L7.42052 15.9145C7.23523 15.8584 7.05644 15.7749 6.8906 15.6643L6.5156 15.4143Z" fill="#4F5358"/>
<path d="M8.57948 15.9145L8.28979 14.9573C8.38227 14.9293 8.4716 14.8876 8.5547 14.8322L8.9297 14.5822L9.4844 15.4143L9.1094 15.6643C8.94356 15.7749 8.76477 15.8584 8.57948 15.9145Z" fill="#4F5358"/>
<path d="M10.2344 14.9143L9.6797 14.0822L10.4297 13.5822L10.9844 14.4143L10.2344 14.9143Z" fill="#4F5358"/>
<path d="M11.7344 13.9143L11.1797 13.0822L11.9297 12.5822L12.4844 13.4143L11.7344 13.9143Z" fill="#4F5358"/>
<path d="M13.2344 12.9143L12.6797 12.0822L13.4297 11.5822L13.9844 12.4143L13.2344 12.9143Z" fill="#4F5358"/>
<path d="M14.7344 11.9143L14.1797 11.0822L14.5547 10.8322C14.6237 10.7862 14.6859 10.7324 14.7404 10.6723L15.4809 11.3445C15.3718 11.4646 15.2473 11.5723 15.1094 11.6643L14.7344 11.9143Z" fill="#4F5358"/>
<path d="M15.9399 10.4867L14.97 10.2434C14.9897 10.1648 15 10.0832 15 10.0002C15 9.91722 14.9897 9.83561 14.97 9.75696L15.9399 9.51368C15.9794 9.67113 16 9.83442 16 10.0002C16 10.166 15.9794 10.3293 15.9399 10.4867Z" fill="#4F5358"/>
<path d="M15.4809 8.65594L14.7404 9.32805C14.6859 9.26801 14.6237 9.21417 14.5547 9.16815L14.1482 8.89715L14.7029 8.0651L15.1094 8.33609C15.2473 8.42805 15.3718 8.53575 15.4809 8.65594Z" fill="#4F5358"/>
<path d="M13.8899 7.52311L13.3352 8.35516L12.5222 7.81318L13.0769 6.98113L13.8899 7.52311Z" fill="#4F5358"/>
<path d="M12.5 7C12.4157 7.09288 12.3031 7.52276 12.2013 7.59922L11.3028 7.0002L11.7404 6.70811L12.5 7Z" fill="#4F5358"/>
<path d="M13 6.5C13 6.33429 12.9794 5.67106 12.9399 5.51368L11.97 5.75696C11.9897 5.83555 12 6.41709 12 6.5H13Z" fill="#4F5358"/>
<path d="M12.4809 4.65594L11.7404 5.32805C11.6859 5.268 11.6237 5.21417 11.5547 5.16814L11.1797 4.91814L11.7344 4.08609L12.1094 4.33609C12.2473 4.42805 12.3718 4.53575 12.4809 4.65594Z" fill="#4F5358"/>
<path d="M10.9844 3.58609L10.4297 4.41814L9.6797 3.91814L10.2344 3.08609L10.9844 3.58609Z" fill="#4F5358"/>
<path d="M9.4844 2.58609L8.9297 3.41814L8.1797 2.91814L8.7344 2.08609L9.4844 2.58609Z" fill="#4F5358"/>
<path d="M7.9844 1.58609L7.4297 2.41814L7.0547 2.16814C6.9716 2.11274 6.88227 2.07105 6.78979 2.04306L7.07948 1.08594C7.26477 1.14202 7.44356 1.22553 7.6094 1.33609L7.9844 1.58609Z" fill="#4F5358"/>
<path d="M5.92052 1.08594L6.21021 2.04306C6.11773 2.07105 6.0284 2.11274 5.9453 2.16814L5.5703 2.41814L5.0156 1.58609L5.3906 1.33609C5.55644 1.22553 5.73523 1.14202 5.92052 1.08594Z" fill="#4F5358"/>
<path d="M4.2656 2.08609L4.8203 2.91814L4.0703 3.41814L3.5156 2.58609L4.2656 2.08609Z" fill="#4F5358"/>
<path d="M2.7656 3.08609L3.3203 3.91814L2.5703 4.41814L2.0156 3.58609L2.7656 3.08609Z" fill="#4F5358"/>
<path d="M1.2656 4.08609L1.8203 4.91814L1.4453 5.16814C1.37626 5.21417 1.31406 5.268 1.25956 5.32805L0.519112 4.65594C0.628208 4.53575 0.752669 4.42805 0.8906 4.33609L1.2656 4.08609Z" fill="#4F5358"/>
<path d="M0.06006 5.51368L1.03002 5.75696C1.01029 5.83561 1 5.91722 1 6.0002C1 6.08317 1.01029 6.16478 1.03002 6.24343L0.06006 6.48671C0.0205719 6.32927 0 6.16597 0 6.0002C0 5.83442 0.0205719 5.67112 0.06006 5.51368Z" fill="#4F5358"/>
<path d="M0.519111 7.34445L1.25956 6.67234C1.31406 6.73239 1.37626 6.78622 1.4453 6.83225L1.88328 7.12423L1.32858 7.84286L0.8906 7.6643C0.752669 7.57234 0.628208 7.46464 0.519111 7.34445Z" fill="#4F5358"/>
<path fill-rule="evenodd" clip-rule="evenodd" d="M9.5 7L11 6L6.5 3L2 6L5 8L2 10L8 14L14 10L9.5 7ZM9.09902 5.93453L6.5 4.20185L3.80278 6L6.31679 7.67601L9.09902 5.93453ZM6.7725 8.02019L3.80278 10L8 12.7981L12.1972 10L8.03869 7.22764L6.7725 8.02019Z" fill="#4F5358"/>
</svg>
