<svg width="16" height="16" viewBox="0 0 16 16" fill="none" xmlns="http://www.w3.org/2000/svg">
<path fill-rule="evenodd" clip-rule="evenodd" d="M15 16H2V0H11.3438L15 3.6V16ZM11 1.06492L10.9341 1H3V15H14V4.01876L13.9809 4H11V1.06492Z" fill="#4F5358"/>
<path d="M5 5H12V5.5H5V5Z" fill="#4F5358"/>
<path d="M5 7H12V7.5H5V7Z" fill="#4F5358"/>
<path d="M9 13H5V13.5H9V13Z" fill="#4F5358"/>
<path fill-rule="evenodd" clip-rule="evenodd" d="M12 12.25C11.5858 12.25 11.25 12.5858 11.25 13C11.25 13.4142 11.5858 13.75 12 13.75C12.4142 13.75 12.75 13.4142 12.75 13C12.75 12.5858 12.4142 12.25 12 12.25ZM10.75 13C10.75 12.3096 11.3096 11.75 12 11.75C12.6904 11.75 13.25 12.3096 13.25 13C13.25 13.6904 12.6904 14.25 12 14.25C11.3096 14.25 10.75 13.6904 10.75 13Z" fill="#4F5358"/>
</svg>
