<svg width="16" height="16" viewBox="0 0 16 16" fill="none" xmlns="http://www.w3.org/2000/svg">
<path d="M11 4.00001V5H12V4.00001C12 3.44773 11.5523 3.00001 11 3.00001L7 3C6.44771 3 6 3.44772 6 4V5H7V4L11 4.00001Z" fill="#4F5358"/>
<path fill-rule="evenodd" clip-rule="evenodd" d="M5 7V10H4V11H5V12H4V13H5V14H6V13H7V12H6V11H7C8.10457 11 9 10.1046 9 9C9 7.89543 8.10457 7 7 7H5ZM6 8V10H7C7.55228 10 8 9.55228 8 9C8 8.44772 7.55228 8 7 8H6Z" fill="#4F5358"/>
<path d="M0.603882 3.50764L2.17954 6.34548L4.96301 4.67566L4.09119 4.44206C3.96604 2.4327 6.17084 0.16801 6.17084 0.16801C6.17084 0.16801 3.89062 -0.0403659 2.61618 1.22858C1.34175 2.49753 1.47571 3.74124 1.47571 3.74124L0.603882 3.50764Z" fill="#4F5358"/>
<path fill-rule="evenodd" clip-rule="evenodd" d="M2 7.32916V14C2 15.1046 2.89543 16 4 16H14C15.1046 16 16 15.1046 16 14V7.00003C16 5.89547 15.1046 5.00005 14 5.00003L5.90895 5C5.83395 5.21858 5.68391 5.40927 5.47746 5.53313L4.69921 6L14 6.00003C14.5523 6.00004 15 6.44775 15 7.00003V9.99999H10V15H4C3.44772 15 3 14.5523 3 14V7.01936L2.69398 7.20294C2.48489 7.32837 2.23806 7.37262 2 7.32916ZM14.3536 12.3535C14.5488 12.1583 14.5488 11.8417 14.3536 11.6464C14.1583 11.4512 13.8417 11.4512 13.6464 11.6464L12 13.2929L11.3536 12.6464C11.1583 12.4512 10.8417 12.4512 10.6464 12.6464C10.4512 12.8417 10.4512 13.1583 10.6464 13.3535L11.6464 14.3535C11.8417 14.5488 12.1583 14.5488 12.3536 14.3535L14.3536 12.3535Z" fill="#4F5358"/>
</svg>
