<svg width="16" height="16" viewBox="0 0 16 16" fill="none" xmlns="http://www.w3.org/2000/svg">
<path d="M9 7.29413L11.3704 9.64708L9.88892 11.7059L10.1852 12L12 10.3455V9.02197L9.29631 7L9 7.29413Z" fill="#4F5358"/>
<path fill-rule="evenodd" clip-rule="evenodd" d="M16 9.5C16 11.9853 13.9853 14 11.5 14C9.01472 14 7 11.9853 7 9.5C7 7.01472 9.01472 5 11.5 5C13.9853 5 16 7.01472 16 9.5ZM15.1818 9.5C15.1818 11.5334 13.5334 13.1818 11.5 13.1818C9.46659 13.1818 7.81818 11.5334 7.81818 9.5C7.81818 7.46659 9.46659 5.81818 11.5 5.81818C13.5334 5.81818 15.1818 7.46659 15.1818 9.5Z" fill="#4F5358"/>
<path fill-rule="evenodd" clip-rule="evenodd" d="M3 0C2.44772 0 2 0.447715 2 1V2H1.90735e-06L0 14L9.31794 14C8.79843 13.7476 8.32918 13.4079 7.92928 13H1L1 3L15 3L15 5.92926C15.4079 6.32914 15.7476 6.79836 16 7.31785L16 2L14 2V1C14 0.447715 13.5523 0 13 0C12.4477 0 12 0.447715 12 1V2L4 2V1C4 0.447715 3.55228 0 3 0ZM3.5 2.5V1C3.5 0.723858 3.27614 0.5 3 0.5C2.72386 0.5 2.5 0.723858 2.5 1V2.5H3.5ZM13.5 2.5V1C13.5 0.723858 13.2761 0.5 13 0.5C12.7239 0.5 12.5 0.723858 12.5 1V2.5H13.5Z" fill="#4F5358"/>
<path d="M7 7.31794C6.74877 7.83509 6.58406 8.40205 6.52469 9H4L4 7H7V7.31794Z" fill="#4F5358"/>
<path d="M6.52469 10C6.59648 10.7231 6.82231 11.4008 7.16891 12H5V10H6.52469Z" fill="#4F5358"/>
<path d="M13.6821 14C14.6907 13.51 15.5099 12.6909 15.9999 11.6822L15.9999 14H13.6821Z" fill="#4F5358"/>
<path d="M5 6V4H2L2 6H5Z" fill="#4F5358"/>
</svg>
