<svg width="16" height="16" viewBox="0 0 16 16" fill="none" xmlns="http://www.w3.org/2000/svg">
<path fill-rule="evenodd" clip-rule="evenodd" d="M2 1C2 0.447715 2.44772 0 3 0C3.55228 0 4 0.447715 4 1V2L12 2V1C12 0.447715 12.4477 0 13 0C13.5523 0 14 0.447715 14 1V2L16 2L15.9999 14L7.90171 14C8.47668 13.7486 9.00464 13.4096 9.46874 13H14.9999L15 3L7.90171 3C7.16631 2.67841 6.35399 2.5 5.5 2.5C4.64601 2.5 3.8337 2.67841 3.09829 3H1L1 4.53126C0.590378 4.99536 0.251431 5.52332 0 6.09829L1.90735e-06 2H2V1ZM3.5 1V2.5H2.5V1C2.5 0.723858 2.72386 0.5 3 0.5C3.27614 0.5 3.5 0.723858 3.5 1ZM13.5 1V2.5H12.5V1C12.5 0.723858 12.7239 0.5 13 0.5C13.2761 0.5 13.5 0.723858 13.5 1Z" fill="#4F5358"/>
<path d="M0 14H3.09829C2.52332 13.7486 1.99536 13.4096 1.53126 13H1V12.4687C0.590378 12.0046 0.25143 11.4767 0 10.9017V14Z" fill="#4F5358"/>
<path d="M11.311 7C11.4344 7.47943 11.5 7.98205 11.5 8.5C11.5 8.66838 11.4931 8.83513 11.4795 9H13V7H11.311Z" fill="#4F5358"/>
<path d="M11.311 10C11.2309 10.311 11.1265 10.6123 11 10.9017V12H14V10H11.311Z" fill="#4F5358"/>
<path d="M10.956 6H12V4H9.46874C10.0942 4.55204 10.6037 5.23245 10.956 6Z" fill="#4F5358"/>
<path fill-rule="evenodd" clip-rule="evenodd" d="M4 8V5H6C7.10457 5 8 5.89543 8 7C8 8.10457 7.10457 9 6 9H5V10H6V11H5V12H4V11H3V10H4V9H3V8H4ZM5 8V6H6C6.55228 6 7 6.44772 7 7C7 7.55228 6.55228 8 6 8H5Z" fill="#4F5358"/>
<path fill-rule="evenodd" clip-rule="evenodd" d="M5.5 14C8.53757 14 11 11.5376 11 8.5C11 5.46243 8.53757 3 5.5 3C2.46243 3 0 5.46243 0 8.5C0 11.5376 2.46243 14 5.5 14ZM5.5 13C7.98528 13 10 10.9853 10 8.5C10 6.01472 7.98528 4 5.5 4C3.01472 4 1 6.01472 1 8.5C1 10.9853 3.01472 13 5.5 13Z" fill="#4F5358"/>
</svg>
