<svg width="16" height="16" viewBox="0 0 16 16" fill="none" xmlns="http://www.w3.org/2000/svg">
<path d="M4 3H10V3.5H4V3Z" fill="#4F5358"/>
<path d="M4 5H13V5.5H4V5Z" fill="#4F5358"/>
<path fill-rule="evenodd" clip-rule="evenodd" d="M7 7H5V10H4V11H5V12H4V13H5V14H6V13H7V12H6V11H7C8.10457 11 9 10.1046 9 9C9 7.89543 8.10457 7 7 7ZM6 8V10H7C7.55228 10 8 9.55228 8 9C8 8.44772 7.55228 8 7 8H6Z" fill="#4F5358"/>
<path d="M13 7H10V7.5H13V7Z" fill="#4F5358"/>
<path d="M10 9H13V9.5H10V9Z" fill="#4F5358"/>
<path d="M13 11H10V11.5H13V11Z" fill="#4F5358"/>
<path fill-rule="evenodd" clip-rule="evenodd" d="M12 11.75C11.3096 11.75 10.75 12.3096 10.75 13C10.75 13.6904 11.3096 14.25 12 14.25C12.6904 14.25 13.25 13.6904 13.25 13C13.25 12.3096 12.6904 11.75 12 11.75ZM11.25 13C11.25 12.5858 11.5858 12.25 12 12.25C12.4142 12.25 12.75 12.5858 12.75 13C12.75 13.4142 12.4142 13.75 12 13.75C11.5858 13.75 11.25 13.4142 11.25 13Z" fill="#4F5358"/>
<path fill-rule="evenodd" clip-rule="evenodd" d="M15 16H2V0H11.3438L15 3.6V16ZM11 1.06492L10.9341 1H3V15H14V4.01876L13.9809 4H11V1.06492Z" fill="#4F5358"/>
</svg>
