<svg width="16" height="16" viewBox="0 0 16 16" fill="none" xmlns="http://www.w3.org/2000/svg">
<path fill-rule="evenodd" clip-rule="evenodd" d="M12 12.25C11.5858 12.25 11.25 12.5858 11.25 13C11.25 13.4142 11.5858 13.75 12 13.75C12.4142 13.75 12.75 13.4142 12.75 13C12.75 12.5858 12.4142 12.25 12 12.25ZM10.75 13C10.75 12.3096 11.3096 11.75 12 11.75C12.6904 11.75 13.25 12.3096 13.25 13C13.25 13.6904 12.6904 14.25 12 14.25C11.3096 14.25 10.75 13.6904 10.75 13Z" fill="#4F5358"/>
<path d="M9.5 6V8C9.5 8 11.3233 7.71554 12.5 8.5C14 9.5 15 12 15 12C15 12 12.5 10 11.5 10C10.5 10 9.5 10 9.5 10V12L6 9L9.5 6Z" fill="#4F5358"/>
<path d="M2 16H15V12.9997C14.7784 12.9997 14.5571 12.9263 14.3747 12.7804L14.3705 12.7771L14.352 12.7624C14.3352 12.7492 14.3098 12.7292 14.2767 12.7034C14.2115 12.6527 14.1168 12.5799 14 12.4922V15H3V1H10.9341L11 1.06492V4H13.9809L14 4.01876V8.49171C14.3985 8.92394 14.7334 9.39974 15 9.82841V3.6L11.3438 0H2V16Z" fill="#4F5358"/>
<path fill-rule="evenodd" clip-rule="evenodd" d="M6.79674 7H6V6H7C8.10457 6 9 5.10457 9 4C9 2.89543 8.10457 2 7 2H5V5H4V6H5V7H4V8H5V8.99448C5.0016 8.70459 5.12895 8.42954 5.34919 8.24076L6.79674 7ZM7 5H6V3H7C7.55228 3 8 3.44772 8 4C8 4.55228 7.55228 5 7 5Z" fill="#4F5358"/>
<path d="M4 11H7V11.5H4V11Z" fill="#4F5358"/>
<path d="M4 13H10V13.5H4V13Z" fill="#4F5358"/>
</svg>
