<svg width="16" height="16" viewBox="0 0 16 16" fill="none" xmlns="http://www.w3.org/2000/svg">
<path d="M14 14H16V3.6L13 0H3V2H4V1H13V4H14.9809L15 4.01876V13H14V14Z" fill="#4F5358"/>
<path d="M14 16H1V9H2V15H13V6.01876L12.9809 6L11 5.99951V3H2V5H1V2H11L14 5.6V16Z" fill="#4F5358"/>
<path fill-rule="evenodd" clip-rule="evenodd" d="M7 4C8.6356 4 10.0878 4.78534 11 5.99951C11.6277 6.83517 12 7.87439 12 9C12 11.7614 9.76142 14 7 14C4.23858 14 2 11.7614 2 9H2.5V10C2.5 10.2022 2.62182 10.3846 2.80866 10.462C2.92962 10.5121 3.06242 10.5118 3.17982 10.4666C3.65272 11.6976 4.70352 12.6421 6 12.9678V12H5V11H6V10H5V9H6V7.70712L6.35355 7.35357C6.54882 7.15831 6.54882 6.84172 6.35355 6.64646L6 6.29291V6H8C9.10457 6 10 6.89543 10 8C10 9.10457 9.10457 10 8 10H7V11H8V12H7V13H6.13833C6.41613 13.0596 6.7044 13.0909 7 13.0909C9.25935 13.0909 11.0909 11.2593 11.0909 9C11.0909 6.74065 9.25935 4.90909 7 4.90909C6.30973 4.90909 5.6594 5.08005 5.08902 5.38193L4.42215 4.71505C5.17495 4.26119 6.05705 4 7 4ZM7 9V7H8C8.55228 7 9 7.44772 9 8C9 8.55228 8.55228 9 8 9H7Z" fill="#4F5358"/>
<path d="M3 4L6 7L3 10V8H0V6H3V4Z" fill="#4F5358"/>
</svg>
