<svg width="16" height="16" viewBox="0 0 16 16" fill="none" xmlns="http://www.w3.org/2000/svg">
<path fill-rule="evenodd" clip-rule="evenodd" d="M2.80295 5.72738C3.24117 6.05557 3.78538 6.24997 4.375 6.24997C5.82475 6.24997 7 5.07472 7 3.62498C7 2.17525 5.82475 1 4.375 1C2.92525 1 1.75 2.17525 1.75 3.62498C1.75 4.21462 1.94441 4.75884 2.27262 5.19706L1.10983 6.35984C0.963388 6.50629 0.963388 6.74372 1.10983 6.89017C1.25628 7.03661 1.49372 7.03661 1.64016 6.89017L2.80295 5.72738ZM2.5 3.62498C2.5 4.66051 3.33947 5.49997 4.375 5.49997C5.41053 5.49997 6.25 4.66051 6.25 3.62498C6.25 2.58946 5.41053 1.75 4.375 1.75C3.33947 1.75 2.5 2.58946 2.5 3.62498Z" fill="#4F5358"/>
<path d="M15.2111 6.69844C15.5996 6.3099 15.5996 5.67995 15.2111 5.29141C14.8225 4.90286 14.1926 4.90287 13.804 5.29141L8 11.0954L7 13.5024L9.40703 12.5025L15.2111 6.69844Z" fill="#4F5358"/>
<path d="M3.3788 4.57283C3.62928 4.83603 3.98298 5.00009 4.375 5.00009C4.47252 5.00009 4.56768 4.98993 4.65946 4.97063L5.42773 4.50967C5.62884 4.27057 5.75 3.96198 5.75 3.6251C5.75 3.47374 5.72554 3.32809 5.68037 3.19189L3.3788 4.57283Z" fill="#4F5358"/>
<path d="M4.99998 8.5001L2.37688 6.86067L2.87206 6.36549C3.23159 6.56302 3.63427 6.69195 4.06192 6.73457L5.94338 7.91048L9 6.00009H9.05631L7.22766 4.9029C7.36793 4.59024 7.4583 4.25033 7.48865 3.89331L11 6.00009L9.5 7.00011L10.669 7.71947L9.94208 8.44634L8.50297 7.56073L3 11.0001H2.88684L2.84343 11.0272L6.50134 13.4658C6.49087 13.6083 6.54184 13.7515 6.64646 13.8561C6.78959 13.9992 7.00491 14.0419 7.19184 13.9643L7.22707 13.9496L8.50002 14.7983L14.1467 11.0338L12.5596 10.0571L13.2865 9.33024L16 11.0001L8.50003 16.0001L1 11.0001L4.99998 8.5001Z" fill="#4F5358"/>
</svg>
