<svg width="16" height="16" viewBox="0 0 16 16" fill="none" xmlns="http://www.w3.org/2000/svg">
<path d="M3 16H16V3.6L12.3438 0H3V5.69806L3.99998 4.86475L4 1H11.9341L12 1.06492V4H14.9809L15 4.01876V15H4L3.99998 14.1348L3 13.3015V16Z" fill="#4F5358"/>
<path fill-rule="evenodd" clip-rule="evenodd" d="M8 5V8H7V9H8V10H7V11H8V12H9V11H10V10H9V9H10C11.1046 9 12 8.10457 12 7C12 5.89543 11.1046 5 10 5H8ZM9 8H10C10.5523 8 11 7.55228 11 7C11 6.44772 10.5523 6 10 6H9V8Z" fill="#4F5358"/>
<path d="M0 9.5L3 7V8H6V11H3V12L0 9.5Z" fill="#4F5358"/>
<path fill-rule="evenodd" clip-rule="evenodd" d="M13 11.75C12.3096 11.75 11.75 12.3096 11.75 13C11.75 13.6904 12.3096 14.25 13 14.25C13.6904 14.25 14.25 13.6904 14.25 13C14.25 12.3096 13.6904 11.75 13 11.75ZM12.25 13C12.25 12.5858 12.5858 12.25 13 12.25C13.4142 12.25 13.75 12.5858 13.75 13C13.75 13.4142 13.4142 13.75 13 13.75C12.5858 13.75 12.25 13.4142 12.25 13Z" fill="#4F5358"/>
</svg>
