<svg width="16" height="16" viewBox="0 0 16 16" fill="none" xmlns="http://www.w3.org/2000/svg">
<path d="M10 6H4L4 4H10V6Z" fill="#4F5358"/>
<path d="M13 9H8V7H13V9Z" fill="#4F5358"/>
<path d="M11 12V10H14V12H11Z" fill="#4F5358"/>
<path fill-rule="evenodd" clip-rule="evenodd" d="M2 1C2 0.447715 2.44772 0 3 0C3.55228 0 4 0.447715 4 1V2L12 2V1C12 0.447715 12.4477 0 13 0C13.5523 0 14 0.447715 14 1V2L16 2L15.9999 14L0 14L1.90735e-06 2H2V1ZM14.9999 13L7 13V7H1L1 3L15 3L14.9999 13ZM3.5 1V2.5H2.5V1C2.5 0.723858 2.72386 0.5 3 0.5C3.27614 0.5 3.5 0.723858 3.5 1ZM13.5 1V2.5H12.5V1C12.5 0.723858 12.7239 0.5 13 0.5C13.2761 0.5 13.5 0.723858 13.5 1ZM5.85355 9.35355C6.04882 9.15829 6.04882 8.84171 5.85355 8.64645C5.65829 8.45118 5.34171 8.45118 5.14645 8.64645L3 10.7929L1.85355 9.64645C1.65829 9.45118 1.34171 9.45118 1.14645 9.64645C0.951184 9.84171 0.951184 10.1583 1.14645 10.3536L2.64645 11.8536C2.84171 12.0488 3.15829 12.0488 3.35355 11.8536L5.85355 9.35355Z" fill="#4F5358"/>
</svg>
