<svg width="16" height="16" viewBox="0 0 16 16" fill="none" xmlns="http://www.w3.org/2000/svg">
<path fill-rule="evenodd" clip-rule="evenodd" d="M9 4V7H8V8H9V9H8V10H9V11H10V10H11V9H10V8H11C12.1046 8 13 7.10457 13 6C13 4.89543 12.1046 4 11 4H9ZM10 5V7H11C11.5523 7 12 6.55228 12 6C12 5.44772 11.5523 5 11 5H10Z" fill="#4F5358"/>
<path d="M16 10.6829V3.6L12.3438 0H3V1.68227C3.33458 1.77576 3.67332 1.84951 4 1.89339V1H11.9341L12 1.06492V4H14.9809L15 4.01876V9.82579L16 10.6829Z" fill="#4F5358"/>
<path d="M16 16H3V5.92329C3.35399 6.06462 3.68978 6.15758 4 6.21579V15H15V14.1742L16 13.3171V16Z" fill="#4F5358"/>
<path d="M16 12L13.6667 10V10.8C13.6667 10.8 12.5 10.4 10.9444 11.2C9.38889 12 9 14 9 14C9 14 11.7582 12.6319 13.6667 13.2V14L16 12Z" fill="#4F5358"/>
<path d="M5.66667 6L8 4L5.66667 2V2.8C3.75816 3.3681 1 2 1 2C1 2 1.38889 4 2.94444 4.8C4.5 5.6 5.66667 5.2 5.66667 5.2V6Z" fill="#4F5358"/>
</svg>
