<svg width="16" height="16" viewBox="0 0 16 16" fill="none" xmlns="http://www.w3.org/2000/svg">
<path fill-rule="evenodd" clip-rule="evenodd" d="M15 16H2V0H15V16ZM14 1H3V15H14V1Z" fill="#4F5358"/>
<path d="M9.43603 6.58599C9.34909 6.42145 9.21371 6.11007 9.2008 5.62843C9.19757 5.16248 9.38436 4.7636 9.43901 4.67984C9.4877 4.7636 9.64816 5.11088 9.66729 5.58679C9.68045 6.05224 9.52595 6.41846 9.43603 6.58599ZM10.1181 3.00802C9.94127 2.23319 9.66729 1.80104 9.43603 1.5C9.33965 1.64459 8.98543 2.20079 8.8051 2.8183C8.60861 3.50638 8.58005 4.11716 8.64761 4.71848C8.71493 5.32004 8.96929 5.93706 8.96929 5.93706C9.10442 6.2614 9.30711 6.60793 9.43901 6.7787C9.63202 6.5274 10.0759 5.77975 10.2148 4.80174C10.292 4.25902 10.295 3.7831 10.1181 3.00802Z" fill="#4F5358"/>
<path d="M8.39036 6.95868V7.86165L8.39359 7.85841C8.71104 7.54105 9.22572 7.54105 9.54317 7.85841C9.86013 8.17528 9.86013 8.68958 9.54317 9.00644C9.54143 9.00794 9.53895 9.01018 9.53895 9.01018C9.53895 9.01018 9.53572 9.01343 9.53398 9.01467C9.21777 9.32879 8.80419 9.48585 8.39036 9.48585C7.97479 9.48585 7.55947 9.32755 7.24251 9.01093C6.68411 8.453 6.61779 7.58942 7.0433 6.95868C7.10142 6.87342 7.16725 6.79265 7.24251 6.71711C7.55947 6.40075 7.97479 6.24269 8.39036 6.24269V4.07178C6.7939 4.07178 5.5 5.36515 5.5 6.95868C5.5 8.55371 6.7939 9.84684 8.39036 9.84684C9.22274 9.84684 9.97265 9.49532 10.5 8.93265V6.95868H8.39036Z" fill="#4F5358"/>
<path fill-rule="evenodd" clip-rule="evenodd" d="M10.75 12C10.75 11.3096 11.3096 10.75 12 10.75C12.6904 10.75 13.25 11.3096 13.25 12C13.25 12.6904 12.6904 13.25 12 13.25C11.3096 13.25 10.75 12.6904 10.75 12ZM12 11.25C11.5858 11.25 11.25 11.5858 11.25 12C11.25 12.4142 11.5858 12.75 12 12.75C12.4142 12.75 12.75 12.4142 12.75 12C12.75 11.5858 12.4142 11.25 12 11.25Z" fill="#4F5358"/>
<path d="M4 13H9V13.5H4V13Z" fill="#4F5358"/>
<path d="M9 11H4V11.5H9V11Z" fill="#4F5358"/>
</svg>
