<svg width="16" height="16" viewBox="0 0 16 16" fill="none" xmlns="http://www.w3.org/2000/svg">
<path fill-rule="evenodd" clip-rule="evenodd" d="M2.48711 11.7601C2.332 11.7461 2.17783 11.6959 2.0373 11.6067C1.56647 11.3077 1.42717 10.6836 1.72616 10.2128L2.12305 9.58778C2.42204 9.11695 3.04611 8.97765 3.51694 9.27664C3.66782 9.37245 3.78465 9.50165 3.86393 9.64848C4.1373 9.56355 4.44482 9.59478 4.7054 9.76025C4.95546 9.91905 5.112 10.1695 5.15904 10.44C5.36337 10.428 5.57327 10.4777 5.75926 10.5958C6.15828 10.8492 6.31919 11.336 6.177 11.7652C6.25262 11.7907 6.32641 11.8256 6.39678 11.8703C6.86761 12.1693 7.00691 12.7933 6.70792 13.2641L6.49694 13.5964C6.19794 14.0672 5.57388 14.2065 5.10305 13.9075C4.95029 13.8105 4.83243 13.6793 4.75311 13.5302C4.49721 13.5909 4.21797 13.5523 3.9784 13.4001C3.7157 13.2333 3.55621 12.9653 3.51847 12.6792C3.32475 12.6842 3.12748 12.6337 2.9516 12.522C2.6764 12.3473 2.51447 12.0614 2.48711 11.7601ZM3.43119 11.2955L3.82808 10.6705C3.91946 10.5266 3.9699 10.3684 3.98245 10.2095C4.11351 10.1507 4.27071 10.1567 4.40107 10.2395C4.55602 10.3379 4.62897 10.5167 4.60006 10.687C4.5905 10.7432 4.56983 10.7986 4.53732 10.8497L3.86626 11.9065C3.80643 12.0007 3.71687 12.0646 3.61757 12.0937C3.4996 12.1283 3.36786 12.1139 3.25593 12.0428C3.11655 11.9543 3.04353 11.8007 3.05129 11.6468C3.20146 11.5675 3.33363 11.4491 3.43119 11.2955ZM2.60102 11.1958C2.51264 11.2003 2.42203 11.1785 2.34163 11.1274C2.13547 10.9965 2.07448 10.7233 2.2054 10.5171L2.60228 9.89211C2.7332 9.68595 3.00645 9.62496 3.21261 9.75587C3.41877 9.88679 3.47976 10.16 3.34885 10.3662L2.95196 10.9912C2.92583 11.0323 2.89404 11.0677 2.85824 11.0969C2.78462 11.1569 2.69401 11.191 2.60102 11.1958ZM4.28273 12.9209C4.13303 12.8258 4.05987 12.6557 4.08116 12.4907C4.18354 12.4175 4.27385 12.3237 4.34549 12.2109L5.01654 11.1541C5.0429 11.1126 5.06585 11.0699 5.08546 11.0264C5.20542 10.9888 5.34051 11.0023 5.45493 11.075C5.66109 11.2059 5.72208 11.4792 5.59117 11.6853L4.89305 12.7847C4.76214 12.9908 4.48889 13.0518 4.28273 12.9209ZM5.24688 13.2488C5.28149 13.32 5.33565 13.3827 5.40738 13.4283C5.61353 13.5592 5.88679 13.4982 6.0177 13.2921L6.22868 12.9598C6.3596 12.7537 6.29861 12.4804 6.09245 12.3495C6.02777 12.3084 5.95649 12.2862 5.88507 12.2815L5.37229 13.089C5.33518 13.1474 5.29308 13.2008 5.24688 13.2488Z" fill="#4F5358"/>
<path fill-rule="evenodd" clip-rule="evenodd" d="M11.1078 10.3421C11.3198 10.2092 11.6166 10.0072 11.8293 9.78299C12.1407 9.45474 12.2414 9.07336 12.3037 8.83703C12.3089 8.81737 12.3138 8.79872 12.3186 8.78119C12.3861 8.53212 12.4267 8.451 12.5203 8.37913C12.6269 8.29723 12.8508 8.21775 13.1207 8.16279C13.2427 8.13795 13.5279 8.10225 13.5279 8.10225C13.6208 8.09229 13.5069 8.10418 13.5279 8.10225L13.7385 8.08729L13.8797 7.96927C14.1002 7.78512 14.1646 7.53254 14.1786 7.35004C14.1929 7.16385 14.1625 6.97401 14.1178 6.80353C14.0275 6.45886 13.8466 6.07505 13.6208 5.71676C13.3932 5.3557 13.1024 4.99265 12.7718 4.69865C12.4476 4.41028 12.0451 4.15274 11.5939 4.07207L11.4684 4.04962L9.62475 4.55008L8.36379 4.46345L8.21412 4.48822L8.18956 4.49244C8.13872 4.50121 8.0721 4.51292 7.99393 4.52717C7.8115 4.56043 7.56395 4.60791 7.30649 4.66441C7.0513 4.72041 6.77576 4.78755 6.54126 4.86105C6.42454 4.89764 6.30717 4.93912 6.20299 4.98578C6.11444 5.02545 5.97376 5.09498 5.86233 5.20881C5.69448 5.38028 5.61862 5.59422 5.57633 5.74483C5.53515 5.89153 5.50596 6.05729 5.48087 6.19971L5.47555 6.22988C5.41779 6.55683 5.3613 6.84078 5.23117 7.08656C5.06037 7.40915 4.89059 7.69817 4.76329 7.90679C4.69979 8.01087 4.58944 8.17824 4.55306 8.23522L4.34348 8.55733L4.56308 8.87346C4.79219 9.20328 5.16432 9.28552 5.44948 9.27421C5.74421 9.26252 6.04764 9.1552 6.32016 8.98631C6.81167 8.6817 7.26463 8.1402 7.47761 7.37699L7.77508 7.24798L10.2562 10.8103L11.1078 10.3421ZM10.4363 10.0757L7.97542 6.54232L6.98888 6.97016C6.80503 7.99055 6.13916 8.54797 5.62129 8.67785C5.47807 8.71377 5.34617 8.71699 5.23892 8.68826C5.14922 8.66424 5.07676 8.61787 5.02933 8.54959C5.02933 8.54959 5.37765 8.02315 5.73289 7.35219C5.91448 7.00921 5.98122 6.63109 6.03836 6.30733C6.093 5.99773 6.13887 5.73785 6.26801 5.60593C6.53219 5.33607 8.39019 5.03429 8.39019 5.03429L9.68122 5.12299L11.494 4.6309C12.7252 4.85104 13.9797 7.14607 13.5158 7.5336C13.5158 7.5336 12.6074 7.59623 12.1744 7.92897C11.9038 8.13687 11.8319 8.40456 11.758 8.67977C11.6925 8.92346 11.6254 9.17305 11.4175 9.39224C11.0961 9.73098 10.4363 10.0757 10.4363 10.0757ZM10.4363 10.0757C10.4627 10.1262 10.415 10.0348 10.4363 10.0757V10.0757Z" fill="#4F5358"/>
<path d="M1.33641 9.26885C1.51468 9.39227 1.71973 9.65506 1.89857 9.94139L2.12307 9.58786C2.15887 9.53148 2.19934 9.47986 2.24364 9.43317C2.18431 9.34771 2.12062 9.26222 2.05357 9.18084C1.93147 9.03265 1.79817 8.89806 1.65954 8.80209C1.23359 8.50722 0.863371 8.28848 0.863371 8.28848C0.863371 8.28848 0.349443 7.61329 0.676711 6.53545C1.08727 5.1833 2.16567 4.6632 2.16567 4.6632C2.16567 4.6632 2.95924 5.27214 3.64945 5.2462C4.15446 5.22721 4.53282 5.23061 4.53282 5.23061C4.53282 5.23061 5.41408 4.86644 5.9692 4.70839C6.38453 4.59014 6.4628 4.51384 6.78832 4.78954L7.47761 4.62781C7.47761 4.62781 7.42599 4.54835 7.21357 4.40881C6.83556 4.1605 6.35196 4.00915 5.81375 4.16239C5.51062 4.2487 5.13186 4.38692 4.84005 4.49853C4.69501 4.554 4.5671 4.60458 4.47416 4.64182C4.35859 4.65539 4.28544 4.66351 4.27503 4.66361C4.11326 4.66518 3.88701 4.66917 3.62813 4.6789C3.4349 4.68616 3.17267 4.5979 2.91198 4.46146C2.79124 4.39826 2.68783 4.33381 2.61495 4.28532C2.5788 4.26126 2.63292 4.29826 2.61495 4.28532C2.60599 4.27886 2.61864 4.28807 2.61495 4.28532L2.23394 4L1.90891 4.15685C1.90891 4.15685 1.86276 4.18083 1.8424 4.19217C1.8017 4.21483 1.74681 4.24707 1.68136 4.28961C1.55076 4.3745 1.37629 4.50161 1.18813 4.67694C0.811517 5.02788 0.37411 5.57808 0.133502 6.37051C-0.0657877 7.02686 -0.0122901 7.57786 0.101867 7.97353C0.158328 8.16922 0.22883 8.32455 0.28812 8.43487C0.31782 8.49014 0.344923 8.53452 0.366417 8.56748C0.377065 8.5838 0.445291 8.67652 0.445291 8.67652L0.478939 8.72073L0.575006 8.77749L0.577507 8.77897L0.588562 8.78557C0.598547 8.79155 0.613646 8.80062 0.633251 8.81253C0.67248 8.83634 0.729633 8.8714 0.799854 8.91549C0.940639 9.00389 1.13225 9.12752 1.33641 9.26885Z" fill="#4F5358"/>
<path d="M10.2642 10.8788L10.7301 10.5688C11.0488 11.0265 10.9362 11.6415 10.4785 11.9603C10.3674 12.0377 10.2461 12.0897 10.1215 12.1174C10.1457 12.4604 9.99389 12.8071 9.69122 13.0179C9.48527 13.1614 9.24454 13.2175 9.013 13.1941C8.94554 13.3887 8.81813 13.5645 8.63618 13.6912C8.34727 13.8924 7.98994 13.9218 7.6855 13.8009C7.61464 13.9176 7.51884 14.0217 7.39964 14.1047C6.98174 14.3957 6.42066 14.3272 6.08362 13.9646C6.24758 13.8857 6.39221 13.7614 6.49695 13.5965L6.50496 13.5839C6.65313 13.737 6.89467 13.7646 7.07519 13.6388C7.14818 13.588 7.20112 13.5191 7.2322 13.4424L7.23441 13.4368C7.26982 13.3459 7.27474 13.2444 7.24619 13.1491C7.23307 13.1053 7.21288 13.0628 7.18532 13.0233L6.93941 12.6702L7.26121 12.4908L7.69615 13.1153C7.73316 13.1684 7.77972 13.2109 7.8319 13.2421C7.97657 13.3285 8.16445 13.328 8.31172 13.2254C8.39998 13.1639 8.45893 13.0761 8.48535 12.9799C8.51473 12.8729 8.50388 12.7556 8.44837 12.6529C8.44045 12.6382 8.43161 12.6238 8.42186 12.6098L7.96599 11.9553L8.2874 11.776L8.75119 12.442C8.82197 12.5436 8.92773 12.6063 9.04092 12.6253C9.15094 12.6438 9.26799 12.6209 9.36677 12.5521C9.52375 12.4428 9.58801 12.25 9.5414 12.0752C9.52851 12.0269 9.50714 11.9799 9.4769 11.9365L8.92621 11.1457C8.92911 11.1437 9.0657 11.0496 9.16349 10.9945C9.21528 10.9654 9.2562 10.9471 9.26061 10.9593C9.27346 10.9947 9.29107 11.029 9.3136 11.0613L9.53853 11.3843C9.62737 11.5118 9.77133 11.5782 9.91593 11.5736C9.99849 11.5709 10.0813 11.5451 10.1541 11.4944C10.3545 11.3548 10.4038 11.0792 10.2642 10.8788C10.2748 10.8942 10.2542 10.8642 10.2642 10.8788Z" fill="#4F5358"/>
<path fill-rule="evenodd" clip-rule="evenodd" d="M8.5 2.5V1.5L7.5 1.5V2.5L8.5 2.5ZM9 1L7 1V3H9V1Z" fill="#4F5358"/>
<path fill-rule="evenodd" clip-rule="evenodd" d="M11.5 2.5V1.5L10.5 1.5V2.5L11.5 2.5ZM12 1L10 1V3H12V1Z" fill="#4F5358"/>
<path fill-rule="evenodd" clip-rule="evenodd" d="M14.5 2.5V1.5L13.5 1.5V2.5L14.5 2.5ZM15 1L13 1V3H15V1Z" fill="#4F5358"/>
<path fill-rule="evenodd" clip-rule="evenodd" d="M5.5 2.5V1.5L4.5 1.5V2.5L5.5 2.5ZM6 1L4 1V3H6V1Z" fill="#4F5358"/>
<path fill-rule="evenodd" clip-rule="evenodd" d="M2.5 2.5L2.5 1.5L1.5 1.5L1.5 2.5L2.5 2.5ZM3 1L1 1L1 3H3V1Z" fill="#4F5358"/>
<path fill-rule="evenodd" clip-rule="evenodd" d="M10.5 10.722L10.7301 10.5688C11.0488 11.0264 10.9362 11.6416 10.4786 11.9604C10.3674 12.0376 10.246 12.0898 10.1215 12.1172C10.1351 12.3101 10.0931 12.5041 10 12.6744V15H15V10H11.5927C11.4266 10.1354 11.2485 10.2541 11.1078 10.3422L10.5 10.6764V10.722ZM13.6464 11.6464C13.8417 11.4512 14.1583 11.4512 14.3536 11.6464C14.5488 11.8417 14.5488 12.1583 14.3536 12.3536L12.3536 14.3536C12.1583 14.5488 11.8417 14.5488 11.6464 14.3536L10.6464 13.3536C10.4512 13.1583 10.4512 12.8417 10.6464 12.6464C10.8417 12.4512 11.1583 12.4512 11.3536 12.6464L12 13.2929L13.6464 11.6464Z" fill="#4F5358"/>
</svg>
