<svg width="16" height="16" viewBox="0 0 16 16" fill="none" xmlns="http://www.w3.org/2000/svg">
<path fill-rule="evenodd" clip-rule="evenodd" d="M15 16H2V0H11.3438L15 3.6V16ZM11 1.06492L10.9341 1H3V15H14V4.01876L13.9809 4H11V1.06492Z" fill="#4F5358"/>
<path fill-rule="evenodd" clip-rule="evenodd" d="M8.5 9.5H3.5V14.5H8.5V9.5ZM7.70711 11.2071C7.90237 11.0118 7.90237 10.6953 7.70711 10.5C7.51184 10.3047 7.19526 10.3047 7 10.5L5.35355 12.1464L4.70711 11.5C4.51184 11.3047 4.19526 11.3047 4 11.5C3.80474 11.6953 3.80474 12.0118 4 12.2071L5 13.2071C5.19526 13.4024 5.51184 13.4024 5.70711 13.2071L7.70711 11.2071Z" fill="#4F5358"/>
<path fill-rule="evenodd" clip-rule="evenodd" d="M13 8.49997C13 8.77539 12.9747 9.04923 12.925 9.31816C12.8411 9.77182 12.6877 10.2115 12.4687 10.6213C12.1198 11.2739 11.6154 11.8305 11.0001 12.2416C10.4012 12.6418 9.71524 12.8922 9 12.9721V12.1477C9.55235 12.072 10.0809 11.8717 10.5455 11.5613C11.049 11.2249 11.4617 10.7696 11.7471 10.2356C11.9022 9.94531 12.0172 9.63667 12.0898 9.31816H8.16111L5.38312 6.54016C5.20923 6.81672 5.07226 7.11623 4.97672 7.43119C4.83131 7.91055 4.78556 8.41346 4.84099 8.90912H4.01864C3.96602 8.33284 4.02493 7.75027 4.19377 7.19368C4.32864 6.74907 4.53104 6.32965 4.79252 5.94955C4.94751 5.72423 5.12327 5.51272 5.31802 5.31797C5.81569 4.82031 6.42572 4.4439 7.10094 4.22302C7.74155 4.01346 8.41754 3.95156 9.07915 4.03742C9.29137 4.06496 9.5021 4.1077 9.70971 4.16564C11.6072 4.69409 12.9999 6.43399 13 8.49997ZM9.63014 4.9948L8.50004 8.49997H12.1818C12.1817 6.86088 11.1106 5.47177 9.63014 4.9948Z" fill="#4F5358"/>
</svg>
