<svg width="16" height="16" viewBox="0 0 16 16" fill="none" xmlns="http://www.w3.org/2000/svg">
<path d="M3 16H16V9.6068V3.6L12.3438 0H3V4C3.14394 3.99998 3.28876 4.03101 3.42416 4.09442C3.73738 4.24113 3.94974 4.53754 3.99218 4.87502L4 4.87501V1H11.9341L12 1.06492V4H14.9809L15 4.01876V6.75461L14.5222 7.39167L14.9333 7.7C14.9566 7.71743 14.9788 7.73562 15 7.7545V8.5L10 5L8.05044 6.36469C8.3102 6.60066 8.53579 6.85346 8.73112 7.10887L10 6.22066L13.2562 8.5L10 10.7793L9.78026 10.6255C9.73171 10.6861 9.67566 10.7415 9.61266 10.7904C9.31307 11.0226 8.90794 11.0655 8.56641 10.9011L8.56164 10.8989L8.53805 10.8878C8.51597 10.8775 8.48145 10.8617 8.43558 10.8412C8.3752 10.8143 8.29537 10.7795 8.19863 10.739L10 12L15 8.5V9.2455C14.9788 9.26438 14.9566 9.28257 14.9333 9.3L14.5222 9.60833L15 10.2454V15H4V10C4 10.388 3.77554 10.741 3.42416 10.9056C3.28876 10.969 3.14394 11 3 11V16Z" fill="#4F5358"/>
<path d="M5.26172 9.8964C4.88806 9.84398 4.5202 9.81851 4.17221 9.82981C4.25961 9.92776 4.35789 10.0184 4.46665 10.1L4.87776 10.4083L5.26172 9.8964Z" fill="#4F5358"/>
<path d="M11.0111 3.50833L10.6 3.2C10.2444 2.93333 9.75554 2.93333 9.39999 3.2L8.98888 3.50833L9.58887 4.30833L9.99999 4L10.4111 4.30833L11.0111 3.50833Z" fill="#4F5358"/>
<path d="M11.2333 4.925L11.8333 4.125L12.6555 4.74167L12.0555 5.54167L11.2333 4.925Z" fill="#4F5358"/>
<path d="M13.4778 5.35833L12.8778 6.15833L13.7 6.775L14.3 5.975L13.4778 5.35833Z" fill="#4F5358"/>
<path d="M13.7 10.225L14.3 11.025L13.4778 11.6417L12.8778 10.8417L13.7 10.225Z" fill="#4F5358"/>
<path d="M12.6555 12.2583L12.0555 11.4583L11.2333 12.075L11.8333 12.875L12.6555 12.2583Z" fill="#4F5358"/>
<path d="M8.76665 12.075L8.16665 12.875L7.34443 12.2583L7.94443 11.4583L8.76665 12.075Z" fill="#4F5358"/>
<path d="M6.52221 11.6417L7.12221 10.8417L6.29999 10.225L5.69999 11.025L6.52221 11.6417Z" fill="#4F5358"/>
<path d="M7.34443 4.74167L7.94443 5.54167L8.76665 4.925L8.16665 4.125L7.34443 4.74167Z" fill="#4F5358"/>
<path d="M9.58887 12.6917L8.98887 13.4917L9.39999 13.8C9.75554 14.0667 10.2444 14.0667 10.6 13.8L11.0111 13.4917L10.4111 12.6917L9.99999 13L9.58887 12.6917Z" fill="#4F5358"/>
<path d="M3 5L0 7.5L3 10V9C5.45379 8.28987 9 10 9 10C9 10 8.5 7.5 6.5 6.5C4.5 5.5 3 6 3 6V5Z" fill="#4F5358"/>
</svg>
