<svg width="16" height="16" viewBox="0 0 16 16" fill="none" xmlns="http://www.w3.org/2000/svg">
<path d="M8.05908 3L2.05908 7L8.05908 11V9.79815L3.86186 7L8.05908 4.20185V3Z" fill="#4F5358"/>
<path d="M8.05908 3L14.0591 7L8.05908 11V9.79815L12.2563 7L8.05908 4.20185V3Z" fill="#4F5358"/>
<path d="M8.64029 1.18627L9.00659 1.44791L8.42535 2.26164L8.05905 2L7.69276 2.26164L7.11152 1.44791L7.47782 1.18627C7.82551 0.937911 8.29259 0.937911 8.64029 1.18627Z" fill="#4F5358"/>
<path d="M9.73919 1.97119L9.15795 2.78492L9.89055 3.30821L10.4718 2.49447L9.73919 1.97119Z" fill="#4F5358"/>
<path d="M10.6231 3.83149L11.2044 3.01776L11.937 3.54104L11.3557 4.35477L10.6231 3.83149Z" fill="#4F5358"/>
<path d="M12.6696 4.06432L12.0883 4.87806L12.8209 5.40134L13.4022 4.58761L12.6696 4.06432Z" fill="#4F5358"/>
<path d="M13.5535 5.92462L14.1348 5.11089L14.5011 5.37253C14.7692 5.56408 14.9768 5.81015 15.1181 6.08533L14.2285 6.54204C14.1587 6.40617 14.0559 6.28343 13.9198 6.18627L13.5535 5.92462Z" fill="#4F5358"/>
<path d="M15.1181 7.91467L14.2285 7.45796C14.1587 7.59383 14.0559 7.71657 13.9198 7.81373L13.5535 8.07538L14.1348 8.88911L14.5011 8.62747C14.7692 8.43592 14.9768 8.18985 15.1181 7.91467Z" fill="#4F5358"/>
<path d="M12.8209 8.59866L13.4022 9.41239L12.6696 9.93568L12.0883 9.12194L12.8209 8.59866Z" fill="#4F5358"/>
<path fill-rule="evenodd" clip-rule="evenodd" d="M11.6091 10L11.3557 9.64523L10.8591 10H10V10.845L9.89055 10.6918L9.15795 11.2151L9.73919 12.0288L10 11.8425V15H15V10H11.6091ZM12 11H13V12H14V13H13V14H12V13H11V12H12V11Z" fill="#4F5358"/>
<path d="M6.96016 11.2151L6.37892 12.0288L5.64632 11.5055L6.22756 10.6918L6.96016 11.2151Z" fill="#4F5358"/>
<path d="M4.91373 10.9822L5.49497 10.1685L4.76237 9.64523L4.18113 10.459L4.91373 10.9822Z" fill="#4F5358"/>
<path d="M4.02977 9.12194L3.44853 9.93567L2.71594 9.41239L3.29718 8.59866L4.02977 9.12194Z" fill="#4F5358"/>
<path d="M1.98334 8.88911L2.56458 8.07538L2.19828 7.81373C2.06225 7.71657 1.95936 7.59383 1.88962 7.45796L1 7.91467C1.14127 8.18985 1.34887 8.43592 1.61704 8.62747L1.98334 8.88911Z" fill="#4F5358"/>
<path d="M1.88962 6.54204L1 6.08533C1.14127 5.81015 1.34887 5.56408 1.61704 5.37253L1.98334 5.11089L2.56458 5.92462L2.19828 6.18627C2.06225 6.28343 1.95937 6.40617 1.88962 6.54204Z" fill="#4F5358"/>
<path d="M2.71594 4.58761L3.29718 5.40134L4.02977 4.87806L3.44853 4.06432L2.71594 4.58761Z" fill="#4F5358"/>
<path d="M4.76237 4.35477L4.18113 3.54104L4.91373 3.01776L5.49497 3.83149L4.76237 4.35477Z" fill="#4F5358"/>
<path d="M5.64632 2.49447L6.22756 3.30821L6.96016 2.78493L6.37892 1.97119L5.64632 2.49447Z" fill="#4F5358"/>
<path d="M7.69276 11.7384L7.11152 12.5521L7.47782 12.8137C7.82551 13.0621 8.29259 13.0621 8.64029 12.8137L9.00659 12.5521L8.42535 11.7384L8.05905 12L7.69276 11.7384Z" fill="#4F5358"/>
</svg>
