<svg width="16" height="16" viewBox="0 0 16 16" fill="none" xmlns="http://www.w3.org/2000/svg">
<path d="M13.1118 12.2236L11.1863 13.1863L10.5685 14.422L9.46815 13.3217L8.13868 14.208L7.86133 13.792L9.53186 12.6783L10.4315 13.5779L10.8137 12.8136L12.8882 11.7764L13.1118 12.2236Z" fill="#4F5358"/>
<path d="M5 8H12V8.5H5V8Z" fill="#4F5358"/>
<path d="M12 10H5V10.5H12V10Z" fill="#4F5358"/>
<path fill-rule="evenodd" clip-rule="evenodd" d="M15 16H2V0H11.3438L15 3.6V16ZM11 1.06492L10.9341 1H5.5V5C5.5 5.27614 5.72386 5.5 6 5.5C6.27614 5.5 6.5 5.27614 6.5 5V2H7.5V5C7.5 5.82843 6.82843 6.5 6 6.5C5.17157 6.5 4.5 5.82843 4.5 5V1H3V15H14V4.01876L13.9809 4H11V1.06492Z" fill="#4F5358"/>
</svg>
