<svg width="16" height="16" viewBox="0 0 16 16" fill="none" xmlns="http://www.w3.org/2000/svg">
<path d="M14 14H16V3.6L13 0H3V2H4V1H13V4H14.9809L15 4.01876V13H14V14Z" fill="#4F5358"/>
<path d="M1 2V5H2V3H11V6H12.9809L13 6.01876V15H2V9H1V16H14V5.6L11 2H1Z" fill="#4F5358"/>
<path fill-rule="evenodd" clip-rule="evenodd" d="M4.01749 9.84947C4.01255 9.80024 4.00865 9.75085 4.00579 9.70133L3.35355 10.3536C3.28512 10.422 3.20019 10.4675 3.10974 10.4878C3.26372 11.1723 3.57574 11.8118 4.02145 12.3549C4.49092 12.9269 5.09423 13.3744 5.77793 13.6576C6.46162 13.9408 7.20461 14.051 7.94108 13.9784C8.67754 13.9059 9.38475 13.6528 10.0001 13.2417C10.6154 12.8306 11.1198 12.274 11.4686 11.6214C11.6583 11.2666 11.7988 10.8894 11.8875 10.5001C11.9224 10.347 11.9493 10.192 11.968 10.0358L11.9721 10H11.9847C12.0367 9.52438 12.0127 9.04155 11.9118 8.56991C11.8953 8.49311 11.8769 8.4166 11.8564 8.34047C11.81 8.1685 11.7537 8.00011 11.6879 7.83607C11.6452 7.72948 11.5983 7.62435 11.5473 7.52093C11.2199 6.85722 10.734 6.28447 10.1325 5.85342C9.74867 5.57839 9.32537 5.36646 8.87864 5.22398L8.88086 5.2171C8.55902 5.11341 8.22761 5.04664 7.89457 5.01733C7.29234 4.96433 6.68207 5.03291 6.10092 5.22302C5.81734 5.31578 5.54526 5.43599 5.28818 5.58109L6.35355 6.64646C6.54882 6.84172 6.54882 7.15831 6.35355 7.35357L5.14641 8.56071L7.08579 10.5001H10.8541C10.7417 10.8769 10.566 11.2344 10.3321 11.5564C9.89806 12.1543 9.28595 12.5994 8.58345 12.8281C7.88095 13.0568 7.1241 13.0573 6.42128 12.8296C5.71845 12.6019 5.1057 12.1577 4.67078 11.5605C4.30381 11.0566 4.07931 10.4656 4.01749 9.84947ZM8.57175 6.17582L7.5 9.5H11.0113C11.0106 9.26356 10.9858 9.02846 10.9379 8.79824C10.9242 8.73207 10.9085 8.66619 10.8908 8.60066C10.8608 8.4892 10.8253 8.37967 10.7848 8.27242C10.5656 7.69327 10.1958 7.18055 9.71089 6.78881C9.37053 6.51384 8.98381 6.30682 8.57175 6.17582Z" fill="#4F5358"/>
<path d="M3 4L6 7L3 10V8H0V6H3V4Z" fill="#4F5358"/>
</svg>
