<svg width="16" height="16" viewBox="0 0 16 16" fill="none" xmlns="http://www.w3.org/2000/svg">
<path d="M5.45247 9.76967L14.1222 1.1L11.3999 1.1V0L15.45 4.90248e-06C15.7537 5.36442e-06 16 0.246249 16 0.550005V4.60001L14.9 4.60001V1.87788L6.23028 10.5475L5.45247 9.76967Z" fill="#4F5358"/>
<path d="M6.79999 2.2H2.8C1.86112 2.2 1.1 2.96111 1.1 3.9V13.2C1.1 14.1389 1.86112 14.9 2.8 14.9H12.2C13.1389 14.9 13.9 14.1389 13.9 13.2V9.4H15V13.2C15 14.7464 13.7464 16 12.2 16H2.8C1.2536 16 0 14.7464 0 13.2V3.9C0 2.3536 1.2536 1.1 2.8 1.1H6.79999V2.2Z" fill="#4F5358"/>
</svg>
