<svg width="16" height="16" viewBox="0 0 16 16" fill="none" xmlns="http://www.w3.org/2000/svg">
<path d="M1 16H14V5.6L11 2H1V4H2V3H11V6H12.9809L13 6.01876V15H2V8H1V16Z" fill="#4F5358"/>
<path d="M6 6L3 3V5H0V7H3V9L6 6Z" fill="#4F5358"/>
<path fill-rule="evenodd" clip-rule="evenodd" d="M10.0859 4.98731C9.87858 4.07913 9.39264 3.32169 9.23105 3.06981C9.21098 3.03853 9.19588 3.015 9.18698 3C9.05997 3.19055 8.59318 3.92351 8.35553 4.7373C8.09659 5.64405 8.05895 6.44896 8.14799 7.24139C8.2367 8.03415 8.5719 8.84727 8.5719 8.84727C8.74998 9.2747 9.01709 9.73136 9.19091 9.95641C9.44526 9.62525 10.0302 8.63997 10.2132 7.35112C10.315 6.6359 10.3189 6.00873 10.0859 4.98731ZM10.0178 6.72033C10.0093 7.10998 9.96279 7.52098 9.90354 7.76672C9.92515 7.34291 9.87375 6.74596 9.77621 6.27944C9.67898 5.81358 9.40303 5.03396 9.1824 4.67356C8.97879 5.01688 8.72903 5.69103 8.59711 6.27517C8.46551 6.86029 8.46126 7.56796 8.46126 7.77953C8.42689 7.60081 8.33949 6.96312 8.36371 6.32182C8.384 5.79321 8.5084 5.24981 8.57616 5.00012C8.83476 4.16532 9.12741 3.63177 9.1824 3.54635C9.23772 3.63177 9.60631 4.28852 9.79748 4.9791C9.988 5.66935 10.0263 6.33069 10.0178 6.72033ZM9.18698 9.70245C9.07241 9.48562 8.89401 9.07528 8.87699 8.44055C8.87273 7.82651 9.1189 7.30086 9.19091 7.19047C9.25507 7.30086 9.46654 7.75851 9.49174 8.38568C9.50909 8.99906 9.30548 9.48167 9.18698 9.70245Z" fill="#4F5358"/>
<path d="M7.80897 10.1937H10.5891V12.7951C9.89416 13.5366 8.9059 13.9998 7.80897 13.9998C5.70512 13.9998 3.99998 12.2957 3.99998 10.1937C3.99998 8.09372 5.70512 6.38928 7.80897 6.38928V9.25016C7.26132 9.25016 6.714 9.45845 6.29631 9.87537C6.19712 9.97491 6.11038 10.0814 6.03378 10.1937C5.47304 11.0249 5.56044 12.163 6.29631 12.8982C6.714 13.3155 7.26132 13.5241 7.80897 13.5241C8.35433 13.5241 8.89936 13.3171 9.31607 12.9032C9.31836 12.9015 9.32032 12.8995 9.32229 12.8979C9.32392 12.8959 9.32589 12.8943 9.32818 12.8923C9.74587 12.4747 9.74587 11.797 9.32818 11.3794C8.90983 10.9612 8.23157 10.9612 7.81323 11.3794C7.81216 11.38 7.81137 11.381 7.8105 11.382C7.81004 11.3825 7.80954 11.3831 7.80897 11.3837V10.1937Z" fill="#4F5358"/>
<path d="M14 14H16V3.6L13 0H3V2H4V1H13V4H14.9809L15 4.01876V13H14V14Z" fill="#4F5358"/>
</svg>
