<svg width="16" height="16" viewBox="0 0 16 16" fill="none" xmlns="http://www.w3.org/2000/svg">
<path d="M8.29438 2.38901C8.50235 2.59432 8.77929 2.69006 9.05158 2.67623C9.62937 2.40148 10 1.97671 10 1.5C10 0.671573 8.88071 0 7.5 0C6.76864 0 6.11063 0.188429 5.65347 0.48879C5.2065 0.782454 4.64168 1.08363 4.10954 1.03022C3.91159 1.01036 3.70791 1 3.5 1C2.22053 1 1.10142 1.39231 0.490941 1.9779C0.834946 1.99267 1.17457 2.12971 1.43724 2.38901C1.82694 2.77372 2.45877 2.77372 2.84848 2.38901C3.40555 1.83908 4.30874 1.83908 4.86581 2.38901C5.25551 2.77372 5.88735 2.77372 6.27705 2.38901C6.83412 1.83908 7.73731 1.83908 8.29438 2.38901Z" fill="#4F5358"/>
<path d="M7.42857 2.9994C7.4523 2.9998 7.47611 3 7.5 3C7.78063 3 8.05046 2.97226 8.30229 2.92109C8.1909 2.85937 8.08611 2.78173 7.99133 2.68817C7.60163 2.30346 6.9698 2.30346 6.58009 2.68817C6.02302 3.2381 5.11983 3.2381 4.56276 2.68817C4.17306 2.30346 3.54123 2.30346 3.15152 2.68817C2.59445 3.2381 1.69126 3.2381 1.13419 2.68817C0.864562 2.422 0.479024 2.33999 0.137968 2.44213C0.0481452 2.6192 0 2.80639 0 3C0 3.24073 0.0744269 3.47152 0.210849 3.68527C0.644589 3.6195 1.10316 3.75152 1.43724 4.08132C1.82694 4.46602 2.45877 4.46602 2.84848 4.08132C3.40555 3.53139 4.30874 3.53139 4.86581 4.08132C5.25551 4.46602 5.88735 4.46602 6.27705 4.08132C6.40883 3.95123 6.55998 3.85191 6.72133 3.78337C6.76974 3.71844 6.81232 3.65176 6.84869 3.58352C6.89471 3.49718 6.93078 3.40836 6.95614 3.3175C6.98501 3.2141 7 3.10805 7 3C7 2.98997 6.99987 2.97995 6.99961 2.96995C7.13875 2.98691 7.28208 2.99693 7.42857 2.9994Z" fill="#4F5358"/>
<path d="M1.49287 4.63866C1.13322 4.49456 0.823189 4.31277 0.580322 4.10334C0.78305 4.13396 0.978055 4.22634 1.13419 4.38048C1.24238 4.48728 1.36363 4.57335 1.49287 4.63866Z" fill="#4F5358"/>
<path d="M2.12677 4.84019C2.02812 4.81612 1.9318 4.78953 1.83805 4.76058C2.29666 4.85915 2.79498 4.73245 3.15152 4.38048C3.54123 3.99577 4.17306 3.99577 4.56276 4.38048C5.11983 4.93041 6.02302 4.93041 6.58009 4.38048C6.9698 3.99577 7.60163 3.99577 7.99133 4.38048C8.44259 4.82595 9.12097 4.91057 9.65851 4.63432C10.1162 4.83899 10.5227 5.08694 10.8632 5.36882C10.4502 5.32629 10.0221 5.46123 9.70562 5.77362C9.31592 6.15833 8.68408 6.15833 8.29438 5.77362C7.73731 5.2237 6.83412 5.2237 6.27705 5.77362C5.88735 6.15833 5.25551 6.15833 4.86581 5.77362C4.30874 5.2237 3.40555 5.2237 2.84848 5.77362C2.51006 6.1077 1.98906 6.15167 1.60258 5.90553C1.77753 5.68836 1.9871 5.48434 2.22666 5.29644C2.38228 5.17438 2.55054 5.05912 2.73019 4.95147C2.52138 4.92469 2.31962 4.88724 2.12677 4.84019Z" fill="#4F5358"/>
<path fill-rule="evenodd" clip-rule="evenodd" d="M16 11C16 8.35719 13.9496 6.19328 11.3528 6.01226C10.9608 5.68927 10.3767 5.70944 10.0087 6.07279C9.99749 6.08382 9.98618 6.09463 9.97473 6.10522C9.58541 6.18635 9.21269 6.31277 8.86235 6.4787C8.54442 6.44845 8.23482 6.31315 7.99133 6.07279C7.60163 5.68808 6.9698 5.68808 6.58009 6.07279C6.02302 6.62271 5.11983 6.62271 4.56276 6.07279C4.17306 5.68808 3.54123 5.68808 3.15152 6.07279C2.66435 6.55372 1.91246 6.61406 1.35885 6.25381C1.1838 6.5461 1.06852 6.85717 1.02254 7.18095C1.17279 7.24884 1.31354 7.34383 1.43724 7.46593C1.82694 7.85064 2.45877 7.85064 2.84848 7.46593C3.40555 6.916 4.30874 6.916 4.86581 7.46593C5.25551 7.85064 5.88735 7.85064 6.27705 7.46593C6.69103 7.05726 7.29617 6.95229 7.80835 7.15102C7.68023 7.25738 7.55751 7.37001 7.44065 7.48844C7.13645 7.4415 6.81448 7.53371 6.58009 7.76509C6.02302 8.31502 5.11983 8.31502 4.56276 7.76509C4.17306 7.38039 3.54123 7.38039 3.15152 7.76509C2.59445 8.31502 1.69126 8.31502 1.13419 7.76509C1.09372 7.72514 1.05063 7.68934 1.00548 7.65768C1.0506 8.3053 1.37228 8.90716 1.89719 9.41661C2.22677 9.49891 2.59063 9.41279 2.84848 9.15824C3.40555 8.60831 4.30874 8.60831 4.86581 9.15824C5.25551 9.54295 5.88735 9.54295 6.27705 9.15824C6.31385 9.12191 6.35217 9.08797 6.3918 9.05644C6.29809 9.27836 6.21993 9.50847 6.15871 9.74538C5.63356 9.97941 4.99431 9.88341 4.56276 9.4574C4.17306 9.07269 3.54123 9.07269 3.15152 9.4574C2.94269 9.66356 2.68521 9.79243 2.41556 9.84402C3.31748 10.48 4.58105 10.9044 6.00002 10.9857L6 11C6 13.7614 8.23858 16 11 16C13.7614 16 16 13.7614 16 11ZM8.33603 8.01612C8.45693 7.9081 8.58444 7.80733 8.71788 7.71447C9.3651 7.26406 10.1517 7 11 7C11.3336 7 11.6578 7.04085 11.9676 7.11782C13.7092 7.55049 15 9.12451 15 11C15 13.2091 13.2091 15 11 15C8.79086 15 7 13.2091 7 11L7.00003 10.9857C7.0023 10.3357 7.15964 9.72213 7.43699 9.18019C7.50492 9.04745 7.58005 8.91901 7.66186 8.79538C7.85247 8.50735 8.07937 8.24542 8.33603 8.01612Z" fill="#4F5358"/>
<path d="M14 4C14 4.55228 13.3284 5 12.5 5C11.6716 5 11 4.55228 11 4C11 3.44772 11.6716 3 12.5 3C13.3284 3 14 3.44772 14 4Z" fill="#4F5358"/>
<path d="M10.9872 7.5C10.5015 7.5 10.1586 7.97579 10.3122 8.43651L10.3378 8.51349C10.4347 8.80403 10.7066 9 11.0128 9C11.4985 9 11.8414 8.52421 11.6878 8.06349L11.6622 7.98651C11.5653 7.69597 11.2934 7.5 10.9872 7.5Z" fill="#4F5358"/>
<path d="M10.5 13V11C10.2239 11 10 10.7761 10 10.5C10 10.2239 10.2239 10 10.5 10H11.5C11.7761 10 12 10.2239 12 10.5C12 10.7761 11.7761 11 11.5 11V13C11.7761 13 12 13.2239 12 13.5C12 13.7761 11.7761 14 11.5 14H10.5C10.2239 14 10 13.7761 10 13.5C10 13.2239 10.2239 13 10.5 13Z" fill="#4F5358"/>
</svg>
