<svg width="64" height="64" viewBox="0 0 64 64" fill="none" xmlns="http://www.w3.org/2000/svg">
<path d="M10.1484 16.752C10.1484 16.4758 10.3723 16.252 10.6484 16.252H52.4013C52.6774 16.252 52.9013 16.4758 52.9013 16.752V24.944C52.9013 25.2201 52.6774 25.444 52.4013 25.444C52.1251 25.444 51.9013 25.2201 51.9013 24.944V17.252H11.1484V30.0853L13.5529 25.2764C13.6013 25.1796 13.6797 25.1012 13.7765 25.0528L18.7765 22.5528C18.9926 22.4447 19.2551 22.5067 19.4001 22.7L21.9761 26.1346L26.5841 19.2227C26.6726 19.0899 26.8191 19.0074 26.9784 19.0005C27.1378 18.9936 27.2909 19.0631 27.3905 19.1877L29.3905 21.6877C29.563 21.9033 29.5281 22.2179 29.3125 22.3904C29.0968 22.5629 28.7822 22.528 28.6097 22.3123L27.0368 20.3463L22.4161 27.2774C22.3261 27.4124 22.1762 27.4953 22.014 27.4998C21.8518 27.5043 21.6975 27.4298 21.6001 27.3L18.8505 23.6338L14.3728 25.8727L11.4473 31.7236C11.3424 31.9335 11.1097 32.0373 10.8906 31.988C10.8188 32.0278 10.7363 32.0504 10.6484 32.0504C10.3723 32.0504 10.1484 31.8266 10.1484 31.5504V16.752Z" fill="white"/>
<path d="M10.6484 39.771C10.9246 39.771 11.1484 39.9948 11.1484 40.271V46.1132H51.9013V41C51.9013 40.7239 52.1251 40.5 52.4013 40.5C52.6774 40.5 52.9013 40.7239 52.9013 41V46.6132C52.9013 46.8893 52.6774 47.1132 52.4013 47.1132H10.6484C10.3723 47.1132 10.1484 46.8893 10.1484 46.6132V40.271C10.1484 39.9948 10.3723 39.771 10.6484 39.771Z" fill="white"/>
<path d="M34 21.5C34 21.2239 34.2239 21 34.5 21H38.5C38.7761 21 39 21.2239 39 21.5V23C39 23.2761 38.7761 23.5 38.5 23.5C38.2239 23.5 38 23.2761 38 23V22H35V25.5C35 25.7761 34.7761 26 34.5 26C34.2239 26 34 25.7761 34 25.5V21.5Z" fill="white"/>
<path d="M42.5 18.5C42.2239 18.5 42 18.7239 42 19V22.5C42 22.7761 42.2239 23 42.5 23C42.7761 23 43 22.7761 43 22.5V19.5H46V22.5C46 22.7761 46.2239 23 46.5 23C46.7761 23 47 22.7761 47 22.5V19C47 18.7239 46.7761 18.5 46.5 18.5H42.5Z" fill="white"/>
<path fill-rule="evenodd" clip-rule="evenodd" d="M43 44C48.5228 44 53 39.5228 53 34C53 28.4772 48.5228 24 43 24C37.4772 24 33 28.4772 33 34C33 39.5228 37.4772 44 43 44ZM48.4009 41.2C50.5864 39.558 52 36.9441 52 34C52 31.3321 50.8391 28.9353 48.995 27.2872L47.0727 29.5939C48.2579 30.69 49 32.2583 49 34C49 35.9027 48.1143 37.5986 46.7328 38.6978L48.4009 41.2ZM47.5694 41.7554C46.23 42.5462 44.668 43 43 43C38.3674 43 34.5524 39.5 34.0549 35H37.083C37.559 37.8377 40.027 40 43 40C44.0523 40 45.0414 39.7291 45.9012 39.2532L47.5694 41.7554ZM37 34H34C34 29.0294 38.0294 25 43 25C44.9432 25 46.7425 25.6158 48.2135 26.6629L46.2843 28.9779C45.3408 28.3596 44.2124 28 43 28C39.6863 28 37 30.6863 37 34ZM48 34C48 36.7614 45.7614 39 43 39C40.2386 39 38 36.7614 38 34C38 31.2386 40.2386 29 43 29C45.7614 29 48 31.2386 48 34Z" fill="white"/>
<path fill-rule="evenodd" clip-rule="evenodd" d="M28 26C27.4477 26 27 26.4477 27 27V44C27 44.5523 27.4477 45 28 45H31C31.5523 45 32 44.5523 32 44V27C32 26.4477 31.5523 26 31 26H28ZM28 44V27H31V44H28Z" fill="white"/>
<path fill-rule="evenodd" clip-rule="evenodd" d="M20 33C20 32.4477 20.4477 32 21 32H24C24.5523 32 25 32.4477 25 33V44C25 44.5523 24.5523 45 24 45H21C20.4477 45 20 44.5523 20 44V33ZM21 33V44H24V33H21Z" fill="white"/>
<path fill-rule="evenodd" clip-rule="evenodd" d="M14 36C13.4477 36 13 36.4477 13 37V44C13 44.5523 13.4477 45 14 45H17C17.5523 45 18 44.5523 18 44V37C18 36.4477 17.5523 36 17 36H14ZM14 44V37H17V44H14Z" fill="white"/>
<path fill-rule="evenodd" clip-rule="evenodd" d="M56 12.5C56.2761 12.5 56.5 12.7239 56.5 13V50.2028C56.5 50.479 56.2761 50.7028 56 50.7028H7C6.72386 50.7028 6.5 50.479 6.5 50.2028V13C6.5 12.7239 6.72386 12.5 7 12.5H56ZM55.5 13.5H7.5V49.7028H55.5V13.5Z" fill="white"/>
</svg>
