<svg width="64" height="64" viewBox="0 0 64 64" fill="none" xmlns="http://www.w3.org/2000/svg">
<path fill-rule="evenodd" clip-rule="evenodd" d="M31.1461 21.2981L34 26.0559L36.8587 21.2901C37.4413 20.339 38 19.3104 38 18.25C38 15.8563 36.1637 14 34 14C31.8363 14 30 15.8563 30 18.25C30 19.3104 30.5587 20.339 31.1413 21.2902L31.1461 21.2981ZM34 28L30.2885 21.8125C29.7143 20.875 29 19.6249 29 18.25C29 15.3505 31.2386 13 34 13C36.7614 13 39 15.3505 39 18.25C39 19.6249 38.2857 20.875 37.7115 21.8125L34 28Z" fill="white"/>
<path fill-rule="evenodd" clip-rule="evenodd" d="M40.8077 39.5385C40.9308 39.4872 41.0692 39.4872 41.1923 39.5385L47.1923 42.0385C47.3786 42.1161 47.5 42.2981 47.5 42.5C47.5 42.7019 47.3786 42.8839 47.1923 42.9615L41.1923 45.4615C41.0692 45.5128 40.9308 45.5128 40.8077 45.4615L34.8077 42.9615C34.6214 42.8839 34.5 42.7019 34.5 42.5C34.5 42.2981 34.6214 42.1161 34.8077 42.0385L40.8077 39.5385ZM36.3 42.5L41 44.4583L45.7 42.5L41 40.5417L36.3 42.5Z" fill="white"/>
<path fill-rule="evenodd" clip-rule="evenodd" d="M25.303 40.5404C25.4288 40.4865 25.5712 40.4865 25.697 40.5404L36.197 45.0404C36.3808 45.1192 36.5 45.3 36.5 45.5C36.5 45.7 36.3808 45.8808 36.197 45.9596L25.697 50.4596C25.5712 50.5135 25.4288 50.5135 25.303 50.4596L14.803 45.9596C14.6192 45.8808 14.5 45.7 14.5 45.5C14.5 45.3 14.6192 45.1192 14.803 45.0404L25.303 40.5404ZM16.2693 45.5L25.5 49.456L34.7307 45.5L25.5 41.544L16.2693 45.5Z" fill="white"/>
<path fill-rule="evenodd" clip-rule="evenodd" d="M26.7908 26.5397C26.9156 26.4868 27.0566 26.4868 27.1815 26.5397L36.2222 30.3768L41.0408 28.3317C41.1656 28.2788 41.3066 28.2788 41.4315 28.3317L51.1953 32.4757C51.3801 32.5541 51.5 32.7353 51.5 32.936C51.5 33.1367 51.3801 33.3179 51.1953 33.3963L32.1953 41.4603C32.0705 41.5132 31.9295 41.5132 31.8047 41.4603L12.8047 33.3963C12.62 33.3179 12.5 33.1367 12.5 32.936C12.5 32.7353 12.62 32.5541 12.8047 32.4757L26.7908 26.5397ZM14.2798 32.936L32 40.4568L49.7202 32.936L41.2361 29.3352L36.4176 31.3803C36.2927 31.4332 36.1517 31.4332 36.0269 31.3803L26.9861 27.5432L14.2798 32.936Z" fill="white"/>
<path fill-rule="evenodd" clip-rule="evenodd" d="M34 20C35.1046 20 36 19.1046 36 18C36 16.8954 35.1046 16 34 16C32.8954 16 32 16.8954 32 18C32 19.1046 32.8954 20 34 20ZM34 21C35.6569 21 37 19.6569 37 18C37 16.3431 35.6569 15 34 15C32.3431 15 31 16.3431 31 18C31 19.6569 32.3431 21 34 21Z" fill="white"/>
</svg>
