<svg width="64" height="64" viewBox="0 0 64 64" fill="none" xmlns="http://www.w3.org/2000/svg">
<path d="M10.6484 16.252C10.3723 16.252 10.1484 16.4758 10.1484 16.752V31.5504C10.1484 31.8266 10.3723 32.0504 10.6484 32.0504C10.9246 32.0504 11.1484 31.8266 11.1484 31.5504V17.252H51.9013V24.944C51.9013 25.2201 52.1251 25.444 52.4013 25.444C52.6774 25.444 52.9013 25.2201 52.9013 24.944V16.752C52.9013 16.4758 52.6774 16.252 52.4013 16.252H10.6484Z" fill="white"/>
<path d="M52.6369 33.3902C52.6314 33.1142 52.4031 32.8948 52.127 32.9003C51.8509 32.9059 51.6316 33.1341 51.6371 33.4102V46.1132H11.1484V40.271C11.1484 39.9948 10.9246 39.771 10.6484 39.771C10.3723 39.771 10.1484 39.9948 10.1484 40.271V46.6132C10.1484 46.8893 10.3723 47.1132 10.6484 47.1132H52.1472C52.2816 47.1132 52.4102 47.0591 52.5043 46.9632C52.5983 46.8672 52.6498 46.7375 52.6471 46.6032L52.6369 33.3902Z" fill="white"/>
<path d="M13.0547 19.9238C13.0547 19.6477 13.2785 19.4238 13.5547 19.4238H19.8969C20.173 19.4238 20.3969 19.6477 20.3969 19.9238C20.3969 20.2 20.173 20.4238 19.8969 20.4238H13.5547C13.2785 20.4238 13.0547 20.2 13.0547 19.9238Z" fill="white"/>
<path fill-rule="evenodd" clip-rule="evenodd" d="M56.5 13C56.5 12.7239 56.2761 12.5 56 12.5H7C6.72386 12.5 6.5 12.7239 6.5 13V50.2028C6.5 50.479 6.72386 50.7028 7 50.7028H56C56.2761 50.7028 56.5 50.479 56.5 50.2028V13ZM7.5 13.5H55.5V49.7028H7.5V13.5Z" fill="white"/>
<path fill-rule="evenodd" clip-rule="evenodd" d="M48.2391 17.8423C48.4284 17.8677 48.5867 17.9986 48.6471 18.1798L48.8323 18.7354L49.3879 18.9206C49.5523 18.9754 49.6766 19.1114 49.7164 19.2801C49.7562 19.4487 49.7059 19.626 49.5833 19.7485L48.2526 21.0792L48.3097 21.1934L48.3477 21.1555C48.4816 21.0215 48.6797 20.9748 48.8594 21.0347L49.6522 21.2989C49.8391 21.3612 49.972 21.5275 49.9916 21.7235L50.2558 24.3661C50.2575 24.3826 50.2583 24.3992 50.2583 24.4158V26.1143L50.6908 26.763L51.7343 28.0674C51.7683 28.1099 51.7951 28.1577 51.8138 28.2089L52.8708 31.1157C52.9425 31.3128 52.8835 31.5338 52.7231 31.6689C52.5627 31.8041 52.3349 31.8248 52.1528 31.7207L50.303 30.6637C50.2644 30.6416 50.2289 30.6145 50.1975 30.5831L48.8762 29.2618C48.7825 29.168 48.7298 29.0408 48.7298 28.9082V28.177L48.2372 26.2067L48.195 26.1434L47.8975 26.6392L48.1404 28.582C48.148 28.6432 48.1443 28.7054 48.1293 28.7653L47.865 29.8223C47.8094 30.0449 47.6094 30.201 47.38 30.201H47.0856L46.0174 31.4829L45.8215 34.2254L46.4015 33.9934C46.5341 33.9404 46.6831 33.9466 46.8108 34.0105L48.3964 34.8032C48.5092 34.8597 48.5966 34.9567 48.6409 35.0749L49.4337 37.189C49.4547 37.2451 49.4655 37.3046 49.4655 37.3645V40.7999C49.4655 41.0043 49.3411 41.1882 49.1512 41.2641L47.8299 41.7926C47.6104 41.8804 47.3594 41.8025 47.2282 41.6057L46.6997 40.813C46.6261 40.7026 46.5994 40.5676 46.6254 40.4376C46.6514 40.3075 46.728 40.1931 46.8384 40.1196L47.338 39.7865L47.1091 38.871L46.6765 39.3036C46.5426 39.4375 46.3445 39.4843 46.1648 39.4244L43.7865 38.6316C43.7519 38.6201 43.7187 38.6048 43.6874 38.586L42.6014 37.9345L41.8819 38.2943L41.9198 38.3323C42.0311 38.4435 42.0835 38.6007 42.0613 38.7565L41.797 40.6063C41.7656 40.8263 41.5927 40.9992 41.3727 41.0306L39.5568 41.29L37.7398 41.8092C37.6951 41.8219 37.6489 41.8284 37.6024 41.8284H35.4883C35.4107 41.8284 35.3342 41.8103 35.2647 41.7756L34.2367 41.2616L34.1236 41.7139C34.068 41.9365 33.868 42.0926 33.6385 42.0926H32.3668L29.7727 42.6115C29.6088 42.6442 29.4393 42.5929 29.3211 42.4747L28.1463 41.2999H27.0321C26.8237 41.2999 26.6371 41.1706 26.5639 40.9754L25.8461 39.0613L24.1925 38.3526C23.9535 38.2502 23.8329 37.9816 23.9151 37.7349L23.9769 37.5497L21.4093 37.3522L21.1899 37.5716V38.4215C21.1899 38.5948 21.1001 38.7558 20.9527 38.8469C20.8053 38.938 20.6213 38.9463 20.4663 38.8688L17.8237 37.5475C17.7269 37.4991 17.6485 37.4206 17.6001 37.3239L17.2509 36.6256L16.583 36.7926C16.378 36.8438 16.1629 36.7606 16.0457 36.5848L15.8104 36.2318L15.3762 36.5575V37.893C15.3762 38.1314 15.208 38.3366 14.9742 38.3833L13.856 38.607L12.9139 40.0202C12.8128 40.1719 12.6371 40.2565 12.4555 40.241C12.2738 40.2256 12.115 40.1125 12.041 39.9459L9.92688 35.1893C9.85814 35.0346 9.87232 34.8556 9.96454 34.7137C10.0568 34.5718 10.2145 34.4862 10.3838 34.4862H11.3913L12.5156 34.2613L12.7369 34.04L12.5413 33.2576C12.5314 33.218 12.5264 33.1773 12.5264 33.1364V31.9331L12.0506 30.9817C11.9544 30.7892 11.9921 30.5567 12.1443 30.4045L12.6728 29.876C12.81 29.7388 13.0126 29.6946 13.1922 29.7578L13.3289 29.0744C13.3329 29.0541 13.3383 29.0341 13.3448 29.0144L13.8733 27.4288C13.9319 27.2531 14.0828 27.1242 14.2655 27.0938L15.4332 26.8991V26.7942C15.4332 26.518 15.6571 26.2942 15.9332 26.2942H17.5154L18.9526 24.1385C19.0008 24.0661 19.0671 24.0075 19.145 23.9686L20.202 23.4401C20.3625 23.3599 20.5537 23.3718 20.703 23.4713L21.4957 23.9998C21.5799 24.0559 21.6451 24.1362 21.6826 24.2302L22.2111 25.5514C22.299 25.771 22.221 26.022 22.0243 26.1532L21.2315 26.6817C21.0332 26.8139 20.7691 26.7877 20.6006 26.6192L20.5249 26.5435L20.1799 27.1185L20.2037 27.19L21.0327 26.8585C21.1867 26.7968 21.3613 26.8156 21.4987 26.9087C21.6361 27.0017 21.7184 27.1568 21.7184 27.3227V27.6155H21.9617L23.2344 27.3609C23.3983 27.3281 23.5678 27.3794 23.686 27.4977L24.1572 27.9688L24.8821 28.3313L25.4334 27.9637C25.5438 27.8901 25.6788 27.8634 25.8088 27.8894C25.9389 27.9154 26.0533 27.992 26.1268 28.1024L26.5143 28.6836L26.5418 28.5459C26.5575 28.4675 26.5917 28.3941 26.6416 28.3316L27.6987 27.0103C27.8572 26.8122 28.1389 26.7642 28.3541 26.8987L29.439 27.5767C29.4428 27.3892 29.5523 27.2147 29.7294 27.133L33.1294 25.5638L33.8897 25.0569C34.0661 24.9393 34.2975 24.9457 34.4671 25.0729L35.5241 25.8657C35.7086 26.004 35.7745 26.2506 35.6837 26.4626L35.3458 27.2509L36.8382 26.7082V26.5299C36.8382 26.3566 36.9279 26.1957 37.0753 26.1046C37.2227 26.0135 37.4068 26.0052 37.5618 26.0827L38.9522 26.7779V26.5299C38.9522 26.3005 39.1084 26.1005 39.331 26.0448L39.6997 25.9527L39.5647 25.7502C39.4852 25.6309 39.4607 25.4832 39.4975 25.3445C39.5343 25.2059 39.6289 25.0898 39.7571 25.0257L41.3427 24.2329C41.4121 24.1982 41.4887 24.1801 41.5663 24.1801H42.4848L43.5625 23.5335L44.0259 22.6067C44.0743 22.5099 44.1528 22.4315 44.2495 22.3831L44.6861 22.1648L44.3838 21.8626C44.2839 21.7627 44.231 21.6252 44.238 21.4841C44.245 21.343 44.3114 21.2115 44.4208 21.122L47.2697 18.7911L47.7567 18.0606C47.8627 17.9017 48.0498 17.817 48.2391 17.8423ZM40.7109 25.6668L40.9253 25.9883C41.0155 26.1236 41.0343 26.2943 40.9756 26.446C40.917 26.5976 40.7883 26.7113 40.6305 26.7507L39.9522 26.9203V27.5869C39.9522 27.7602 39.8625 27.9212 39.7151 28.0123C39.5677 28.1034 39.3836 28.1117 39.2286 28.0342L37.7725 27.3061C37.7151 27.4068 37.623 27.4869 37.509 27.5283L34.6022 28.5854C34.4148 28.6535 34.2049 28.6038 34.068 28.459C33.931 28.3141 33.8932 28.1017 33.9717 27.9185L34.6097 26.4299L34.1501 26.0851L33.6516 26.4174C33.63 26.4318 33.6074 26.4445 33.5838 26.4554L30.5244 27.8674L30.6882 28.5227C30.7377 28.7205 30.6621 28.9285 30.4972 29.0484C30.3323 29.1683 30.1111 29.176 29.9382 29.068L28.2015 27.9826L27.4985 28.8613L27.2581 30.0633C27.2184 30.2616 27.0632 30.4165 26.8648 30.4558C26.6665 30.495 26.464 30.4109 26.3518 30.2426L25.5721 29.0731L25.1954 29.3243C25.0461 29.4238 24.8549 29.4357 24.6944 29.3555L23.6374 28.8269C23.5893 28.8029 23.5454 28.7713 23.5074 28.7333L23.1681 28.394L22.1092 28.6058C22.0769 28.6122 22.0441 28.6155 22.0112 28.6155H21.2184C20.9422 28.6155 20.7184 28.3916 20.7184 28.1155V28.0612L20.0828 28.3154C19.9549 28.3666 19.8116 28.3627 19.6867 28.3048C19.5618 28.2469 19.4663 28.14 19.4228 28.0093L19.1585 27.2165C19.1123 27.0781 19.129 26.9263 19.2041 26.8012L19.9969 25.4799C20.0761 25.3479 20.2117 25.2597 20.3645 25.2409C20.5173 25.2221 20.6703 25.2747 20.7792 25.3836L21.0178 25.6223L21.132 25.5462L20.8118 24.7457L20.3897 24.4643L19.7109 24.8037L18.1991 27.0715C18.1063 27.2106 17.9502 27.2942 17.783 27.2942H16.4332V27.3227C16.4332 27.5671 16.2565 27.7757 16.0154 27.8159L14.7268 28.0307L14.3033 29.3011L14.0452 30.5919C14.0146 30.7447 13.9146 30.8745 13.7746 30.943C13.6346 31.0114 13.4707 31.0107 13.3313 30.941L13.1251 30.8379L13.1062 30.8568L13.4736 31.5915C13.5083 31.6609 13.5264 31.7375 13.5264 31.8151V33.0748L13.7757 34.0721C13.8183 34.2425 13.7684 34.4228 13.6442 34.547L13.1157 35.0755C13.0459 35.1453 12.957 35.1929 12.8602 35.2122L11.5389 35.4765C11.5066 35.4829 11.4738 35.4862 11.4408 35.4862H11.1532L12.5858 38.7096L13.1389 37.8799C13.2124 37.7696 13.3268 37.693 13.4568 37.667L14.3762 37.4831V36.3075C14.3762 36.1501 14.4503 36.0019 14.5762 35.9075L15.6332 35.1147C15.7432 35.0322 15.8822 34.9987 16.0176 35.0219C16.1531 35.0451 16.273 35.123 16.3492 35.2374L16.6823 35.7369L17.3975 35.5581C17.6249 35.5013 17.8612 35.61 17.966 35.8196L18.42 36.7276L20.1899 37.6125V37.3645C20.1899 37.2319 20.2426 37.1047 20.3363 37.011L20.8648 36.4824C20.968 36.3792 21.1112 36.3263 21.2567 36.3375L24.6921 36.6017C24.8456 36.6135 24.9851 36.6954 25.0703 36.8237C25.1555 36.9519 25.1768 37.1123 25.1281 37.2584L25.0093 37.6147L26.4363 38.2262C26.5616 38.28 26.6596 38.3825 26.7075 38.5102L27.3786 40.2999H28.3534C28.486 40.2999 28.6132 40.3526 28.7069 40.4463L29.839 41.5784L32.2192 41.1024C32.2515 41.0959 32.2843 41.0926 32.3172 41.0926H33.2481L33.4177 40.4143C33.4545 40.2672 33.5561 40.1447 33.6939 40.0814C33.8317 40.018 33.9908 40.0206 34.1264 40.0884L35.6064 40.8284H37.5324L39.3149 40.3191C39.3367 40.3129 39.359 40.3081 39.3815 40.3049L40.8601 40.0937L41.036 38.8626L40.6842 38.5108C40.5706 38.3972 40.5185 38.2358 40.5442 38.0772C40.57 37.9186 40.6704 37.782 40.8142 37.7101L42.3997 36.9173C42.5526 36.8408 42.734 36.8478 42.8806 36.9358L44.1548 37.7003L46.1879 38.378L47.0264 37.5395C47.1538 37.4121 47.3398 37.3631 47.5134 37.4112C47.687 37.4593 47.8214 37.597 47.865 37.7718L48.3936 39.8858C48.4448 40.0908 48.3617 40.3059 48.1858 40.4231L47.8091 40.6743L47.8352 40.7135L48.4655 40.4614V37.4552L47.7735 35.6099L46.5644 35.0053L45.4516 35.4504C45.2917 35.5144 45.1101 35.4915 44.971 35.39C44.8319 35.2884 44.7549 35.1224 44.7672 34.9506L45.0314 31.2509C45.0389 31.1465 45.079 31.047 45.1461 30.9665L46.4673 29.3809C46.5623 29.2669 46.7031 29.201 46.8515 29.201H46.9896L47.1365 28.6133L46.8838 26.5919C46.87 26.481 46.8937 26.3686 46.9512 26.2727L47.744 24.9514C47.8322 24.8044 47.9895 24.7128 48.1609 24.7088C48.3322 24.7047 48.4937 24.7887 48.5888 24.9313L49.1173 25.724C49.1491 25.7717 49.1724 25.8245 49.1863 25.8801L49.2583 26.168V24.4408L49.0287 22.1452L48.8363 22.0811L48.5263 22.3911C48.4127 22.5047 48.2513 22.5568 48.0927 22.5311C47.934 22.5053 47.7974 22.4049 47.7255 22.2611L47.197 21.2041C47.1008 21.0116 47.1385 20.7791 47.2907 20.6269L48.3042 19.6134L48.2789 19.605C48.1832 19.5731 48.1006 19.5135 48.0406 19.4354C48.0173 19.4658 47.9905 19.4934 47.9609 19.5177L45.4816 21.5461L45.8837 21.9482C45.9974 22.0619 46.0495 22.2232 46.0237 22.3819C45.998 22.5405 45.8975 22.6771 45.7538 22.749L44.8458 23.203L44.3918 24.1109C44.3493 24.196 44.2834 24.2672 44.2019 24.3161L42.8806 25.1089C42.8029 25.1555 42.7139 25.1801 42.6233 25.1801H41.6843L40.7109 25.6668ZM49.3579 26.5665L49.7149 27.9942C49.7248 28.0339 49.7298 28.0746 49.7298 28.1155V28.7011L50.8573 29.8286L51.465 30.1759L50.9021 28.6279L49.8964 27.3708C49.8874 27.3595 49.8788 27.3478 49.8708 27.3358L49.3579 26.5665Z" fill="white"/>
</svg>
