<svg width="64" height="64" viewBox="0 0 64 64" fill="none" xmlns="http://www.w3.org/2000/svg">
<path d="M18.2168 7.5C18.4929 7.5 18.7168 7.72386 18.7168 8V17H21.5C21.7761 17 22 17.2239 22 17.5C22 17.7761 21.7761 18 21.5 18H18.7168V31.0312H23.5C23.7761 31.0312 24 31.2551 24 31.5312C24 31.8074 23.7761 32.0312 23.5 32.0312H18.7168V54.6391C18.7168 54.9152 18.4929 55.1391 18.2168 55.1391C17.9407 55.1391 17.7168 54.9152 17.7168 54.6391V32.0312H12.6914C12.4153 32.0312 12.1914 31.8074 12.1914 31.5312C12.1914 31.2551 12.4153 31.0312 12.6914 31.0312H17.7168V18H15C14.7239 18 14.5 17.7761 14.5 17.5C14.5 17.2239 14.7239 17 15 17H17.7168V8C17.7168 7.72386 17.9407 7.5 18.2168 7.5Z" fill="white"/>
<path fill-rule="evenodd" clip-rule="evenodd" d="M25.5078 34.4902C25.5078 34.2141 25.7317 33.9902 26.0078 33.9902H53.4907C53.7669 33.9902 53.9907 34.2141 53.9907 34.4902C53.9907 34.7664 53.7669 34.9902 53.4907 34.9902H26.0078C25.7317 34.9902 25.5078 34.7664 25.5078 34.4902Z" fill="white"/>
<path fill-rule="evenodd" clip-rule="evenodd" d="M12.6736 31.0316C12.9496 31.0218 13.1813 31.2375 13.1911 31.5135L13.7578 47.4356C13.7676 47.7115 13.5518 47.9432 13.2759 47.953C12.9999 47.9629 12.7682 47.7471 12.7584 47.4711L12.1917 31.549C12.1819 31.2731 12.3977 31.0414 12.6736 31.0316Z" fill="white"/>
<path fill-rule="evenodd" clip-rule="evenodd" d="M23.6177 31.0316C23.8936 31.0414 24.1094 31.2731 24.0996 31.549L23.5329 47.4711C23.5231 47.7471 23.2914 47.9629 23.0154 47.953C22.7395 47.9432 22.5237 47.7115 22.5335 47.4356L23.1002 31.5135C23.11 31.2375 23.3417 31.0218 23.6177 31.0316Z" fill="white"/>
<path d="M23.8742 31.1138C24.1048 31.2657 24.1686 31.5757 24.0167 31.8064L18.8096 39.7113L23.4571 47.189C23.6029 47.4235 23.531 47.7318 23.2964 47.8775C23.0619 48.0233 22.7536 47.9514 22.6078 47.7168L18.2099 40.6407L13.679 47.7223C13.5302 47.955 13.221 48.0229 12.9884 47.8741C12.7558 47.7252 12.6879 47.416 12.8367 47.1834L17.6177 39.7108L12.2772 31.8113C12.1226 31.5826 12.1827 31.2717 12.4114 31.1171C12.6402 30.9624 12.951 31.0225 13.1057 31.2513L18.2107 38.8026L23.1816 31.2563C23.3335 31.0257 23.6436 30.9618 23.8742 31.1138Z" fill="white"/>
<path d="M15.3124 7.93441C15.3457 7.68276 15.5608 7.49975 15.808 7.5H20.4834C20.4836 7.5 20.4833 7.5 20.4834 7.5C20.5123 7.49999 20.5411 7.50247 20.5689 7.50727C20.7377 7.53635 20.8776 7.65012 20.9432 7.80329C20.9616 7.84607 20.9741 7.89192 20.9798 7.93986L24.0957 31.4653C24.1003 31.4993 24.1012 31.533 24.099 31.5659L23.5329 47.4711C23.5231 47.7471 23.2914 47.9629 23.0154 47.953C22.7395 47.9432 22.5237 47.7115 22.5335 47.4356L23.0987 31.5539L20.0453 8.5H16.2462L13.1926 31.5554L13.7578 47.4356C13.7676 47.7115 13.5518 47.9432 13.2759 47.953C12.9999 47.9629 12.7682 47.7471 12.7584 47.4711L12.1919 31.5534C12.1916 31.5465 12.1914 31.5395 12.1914 31.5325C12.1913 31.5064 12.1933 31.4808 12.1971 31.4557L15.3124 7.93441Z" fill="white"/>
<path d="M14.5582 17.0124C14.7947 16.8697 15.102 16.9458 15.2446 17.1822L18.207 22.093L21.0413 17.1903C21.1795 16.9512 21.4854 16.8694 21.7244 17.0076C21.9635 17.1458 22.0453 17.4517 21.9071 17.6908L18.7589 23.1365L24.0188 31.2594C24.1689 31.4912 24.1027 31.8007 23.8709 31.9508C23.6391 32.1009 23.3295 32.0347 23.1794 31.8029L18.2107 24.1297L13.1079 31.8079C12.955 32.0379 12.6447 32.1004 12.4147 31.9476C12.1847 31.7947 12.1222 31.4844 12.275 31.2544L17.6693 23.1377L14.3883 17.6988C14.2457 17.4623 14.3218 17.155 14.5582 17.0124Z" fill="white"/>
<path fill-rule="evenodd" clip-rule="evenodd" d="M9.5 49.5664C9.5 49.2903 9.72386 49.0664 10 49.0664H15.5249C15.8011 49.0664 16.0249 49.2903 16.0249 49.5664C16.0249 49.8425 15.8011 50.0664 15.5249 50.0664H10C9.72386 50.0664 9.5 49.8425 9.5 49.5664Z" fill="white"/>
<path fill-rule="evenodd" clip-rule="evenodd" d="M15.5254 49.0664C15.8015 49.0664 16.0254 49.2903 16.0254 49.5664V55.0616C16.0254 55.3378 15.8015 55.5616 15.5254 55.5616C15.2492 55.5616 15.0254 55.3378 15.0254 55.0616V49.5664C15.0254 49.2903 15.2492 49.0664 15.5254 49.0664Z" fill="white"/>
<path d="M20.7666 49.0664C20.4905 49.0664 20.2666 49.2903 20.2666 49.5664V55.0616C20.2666 55.3378 20.4905 55.5616 20.7666 55.5616C21.0427 55.5616 21.2666 55.3378 21.2666 55.0616V50.0664H26.2915C26.5677 50.0664 26.7915 49.8425 26.7915 49.5664C26.7915 49.2903 26.5677 49.0664 26.2915 49.0664H20.7666Z" fill="white"/>
<path fill-rule="evenodd" clip-rule="evenodd" d="M39.7498 25.8311C31.8068 25.8311 25.375 32.2322 25.375 40.1259C25.375 43.4481 26.5493 46.6405 28.511 49.0665H50.8469C52.8086 46.6405 53.9829 43.4481 53.9829 40.1259C53.9829 32.2259 47.6865 25.8311 39.7498 25.8311ZM24.375 40.1259C24.375 31.6748 31.2596 24.8311 39.7498 24.8311C48.2462 24.8311 54.9829 31.6811 54.9829 40.1259C54.9829 43.7666 53.6662 47.2618 51.4662 49.8876C51.3712 50.001 51.2309 50.0665 51.0829 50.0665H28.2749C28.127 50.0665 27.9867 50.001 27.8917 49.8876C25.6917 47.2618 24.375 43.7666 24.375 40.1259Z" fill="white"/>
</svg>
