<svg width="64" height="64" viewBox="0 0 64 64" fill="none" xmlns="http://www.w3.org/2000/svg">
<path fill-rule="evenodd" clip-rule="evenodd" d="M61.5 50C61.5 49.7239 61.2761 49.5 61 49.5L32 49.5C31.7239 49.5 31.5 49.7239 31.5 50C31.5 50.2761 31.7239 50.5 32 50.5L61 50.5C61.2761 50.5 61.5 50.2761 61.5 50Z" fill="white"/>
<path fill-rule="evenodd" clip-rule="evenodd" d="M29.5 48C29.5 46.6193 28.3807 45.5 27 45.5H7C5.61929 45.5 4.5 46.6193 4.5 48C4.5 49.3807 5.61929 50.5 7 50.5H27C28.3807 50.5 29.5 49.3807 29.5 48ZM27 46.5C27.8284 46.5 28.5 47.1716 28.5 48C28.5 48.8284 27.8284 49.5 27 49.5H7C6.17157 49.5 5.5 48.8284 5.5 48C5.5 47.1716 6.17157 46.5 7 46.5H27Z" fill="white"/>
<path fill-rule="evenodd" clip-rule="evenodd" d="M51.5 47C51.5 46.7239 51.2761 46.5 51 46.5H44C43.7239 46.5 43.5 46.7239 43.5 47C43.5 47.2761 43.7239 47.5 44 47.5H51C51.2761 47.5 51.5 47.2761 51.5 47Z" fill="white"/>
<path fill-rule="evenodd" clip-rule="evenodd" d="M31.4372 16.7574C31.3031 16.516 30.9986 16.429 30.7573 16.5631L12.7573 26.5631C12.5159 26.6972 12.4289 27.0016 12.563 27.243C12.6971 27.4844 13.0015 27.5714 13.2429 27.4373L31.2429 17.4373C31.4843 17.3032 31.5713 16.9988 31.4372 16.7574Z" fill="white"/>
<path d="M39.5409 28.1971L33.6708 14.5002H30.8091L37.4473 27.7766C37.5708 28.0236 37.4707 28.3239 37.2237 28.4474C36.9767 28.5709 36.6764 28.4708 36.5529 28.2238L29.556 14.2299C29.5434 14.2057 29.5328 14.1804 29.5243 14.1542C29.4967 14.0691 29.4932 13.9804 29.5109 13.8968C29.5392 13.7631 29.6219 13.6422 29.7472 13.5689C29.7816 13.5486 29.8188 13.5323 29.8579 13.5207C29.9085 13.5057 29.9603 13.499 30.0113 13.5002H33.9858C34.185 13.4944 34.3768 13.6089 34.46 13.8032L40.46 27.8032C40.5688 28.057 40.4512 28.3509 40.1974 28.4597C39.9436 28.5685 39.6497 28.4509 39.5409 28.1971Z" fill="white"/>
<path fill-rule="evenodd" clip-rule="evenodd" d="M13 26.5C12.7239 26.5 12.5 26.7239 12.5 27L12.5 37C12.5 37.2761 12.7239 37.5 13 37.5C13.2761 37.5 13.5 37.2761 13.5 37L13.5 27C13.5 26.7239 13.2761 26.5 13 26.5Z" fill="white"/>
<path d="M32.763 19.5589C33.0062 19.428 33.3094 19.5189 33.4403 19.7621C33.5713 20.0052 33.4803 20.3084 33.2371 20.4394L20.5002 27.2977V32.9996C20.5002 33.2757 20.2763 33.4996 20.0002 33.4996C19.724 33.4996 19.5002 33.2757 19.5002 32.9996V27.0121C19.4956 26.8297 19.5914 26.6513 19.763 26.5589L32.763 19.5589Z" fill="white"/>
<path d="M58.6609 36.5L60.5 41.0977V46.5H60C59.7239 46.5 59.5 46.7239 59.5 47C59.5 47.2761 59.7239 47.5 60 47.5H61C61.2761 47.5 61.5 47.2761 61.5 47V41C61.5 40.9255 61.4837 40.8548 61.4545 40.7912L59.4732 35.838C59.4059 35.6414 59.2195 35.5 59 35.5H55C54.7239 35.5 54.5 35.7239 54.5 36C54.5 36.2761 54.7239 36.5 55 36.5H58.6609Z" fill="white"/>
<path d="M54.1579 33.5248C53.896 33.4375 53.6128 33.5791 53.5255 33.841L50.6393 42.4995H46.6625L48.4804 36.1368C48.5563 35.8713 48.4025 35.5946 48.137 35.5187C47.8715 35.4429 47.5948 35.5966 47.5189 35.8621L45.6225 42.4995H41.6625L43.4804 36.1368C43.5563 35.8713 43.4025 35.5946 43.137 35.5187C42.8715 35.4429 42.5948 35.5966 42.5189 35.8621L40.6225 42.4995H36.6625L38.4804 36.1368C38.5563 35.8713 38.4025 35.5946 38.137 35.5187C37.8715 35.4429 37.5948 35.5966 37.5189 35.8621L35.6225 42.4995H31.5V35.9995C31.5 35.7234 31.2761 35.4995 31 35.4995C30.7239 35.4995 30.5 35.7234 30.5 35.9995V42.9995C30.5 43.2757 30.7239 43.4995 31 43.4995H35.9906C35.9968 43.4996 36.003 43.4996 36.0092 43.4995H40.9906C40.9968 43.4996 41.003 43.4996 41.0092 43.4995H45.9906C45.9968 43.4996 46.003 43.4996 46.0092 43.4995H51C51.228 43.4995 51.4203 43.3469 51.4805 43.1383L54.4742 34.1573C54.5615 33.8953 54.4199 33.6121 54.1579 33.5248Z" fill="white"/>
<path fill-rule="evenodd" clip-rule="evenodd" d="M4 36.5C3.72386 36.5 3.5 36.7239 3.5 37L3.5 44C3.5 44.2761 3.72386 44.5 4 44.5C4.27614 44.5 4.5 44.2761 4.5 44L4.5 37C4.5 36.7239 4.27614 36.5 4 36.5Z" fill="white"/>
<path d="M24.3876 36.6841C24.4579 36.7702 24.5 36.8802 24.5 37V44C24.5 44.2761 24.2761 44.5 24 44.5H4C3.72386 44.5 3.5 44.2761 3.5 44C3.5 43.7239 3.72386 43.5 4 43.5H23.5V37.1673L20.7495 33.5H16.5V37C16.5 37.2761 16.2761 37.5 16 37.5H4C3.72386 37.5 3.5 37.2761 3.5 37C3.5 36.7239 3.72386 36.5 4 36.5H15.5V33C15.5 32.7239 15.7239 32.5 16 32.5H21C21.1711 32.5 21.3221 32.5859 21.4122 32.717L24.3876 36.6841Z" fill="white"/>
<path d="M16 38.5C16.2761 38.5 16.5 38.7239 16.5 39C16.5 39.2761 16.2761 39.5 16 39.5H6C5.72386 39.5 5.5 39.2761 5.5 39C5.5 38.7239 5.72386 38.5 6 38.5H16Z" fill="white"/>
<path d="M22.5 39C22.5 38.7239 22.2761 38.5 22 38.5H19C18.7239 38.5 18.5 38.7239 18.5 39C18.5 39.2761 18.7239 39.5 19 39.5H22C22.2761 39.5 22.5 39.2761 22.5 39Z" fill="white"/>
<path fill-rule="evenodd" clip-rule="evenodd" d="M53.5 36C53.5 35.7239 53.2761 35.5 53 35.5L31 35.5C30.7239 35.5 30.5 35.7239 30.5 36C30.5 36.2761 30.7239 36.5 31 36.5L53 36.5C53.2761 36.5 53.5 36.2761 53.5 36Z" fill="white"/>
<path fill-rule="evenodd" clip-rule="evenodd" d="M55.5 44.5C56.6046 44.5 57.5 45.3954 57.5 46.5C57.5 47.6046 56.6046 48.5 55.5 48.5C54.3954 48.5 53.5 47.6046 53.5 46.5C53.5 45.3954 54.3954 44.5 55.5 44.5ZM58.5 46.5C58.5 44.8431 57.1569 43.5 55.5 43.5C53.8431 43.5 52.5 44.8431 52.5 46.5C52.5 48.1569 53.8431 49.5 55.5 49.5C57.1569 49.5 58.5 48.1569 58.5 46.5Z" fill="white"/>
<path fill-rule="evenodd" clip-rule="evenodd" d="M40.5 44.5C41.6046 44.5 42.5 45.3954 42.5 46.5C42.5 47.6046 41.6046 48.5 40.5 48.5C39.3954 48.5 38.5 47.6046 38.5 46.5C38.5 45.3954 39.3954 44.5 40.5 44.5ZM43.5 46.5C43.5 44.8431 42.1569 43.5 40.5 43.5C38.8431 43.5 37.5 44.8431 37.5 46.5C37.5 48.1569 38.8431 49.5 40.5 49.5C42.1569 49.5 43.5 48.1569 43.5 46.5Z" fill="white"/>
<path fill-rule="evenodd" clip-rule="evenodd" d="M34.5 44.5C35.6046 44.5 36.5 45.3954 36.5 46.5C36.5 47.6046 35.6046 48.5 34.5 48.5C33.3954 48.5 32.5 47.6046 32.5 46.5C32.5 45.3954 33.3954 44.5 34.5 44.5ZM37.5 46.5C37.5 44.8431 36.1569 43.5 34.5 43.5C32.8431 43.5 31.5 44.8431 31.5 46.5C31.5 48.1569 32.8431 49.5 34.5 49.5C36.1569 49.5 37.5 48.1569 37.5 46.5Z" fill="white"/>
<path fill-rule="evenodd" clip-rule="evenodd" d="M40.3536 27.6464C40.2598 27.5527 40.1326 27.5 40 27.5L30 27.5C29.8674 27.5 29.7402 27.5527 29.6464 27.6464C29.5527 27.7402 29.5 27.8674 29.5 28C29.5 29.4587 30.0795 30.8576 31.1109 31.8891C32.1424 32.9205 33.5413 33.5 35 33.5C36.4587 33.5 37.8576 32.9205 38.8891 31.8891C39.9205 30.8576 40.5 29.4587 40.5 28C40.5 27.8674 40.4473 27.7402 40.3536 27.6464ZM39.4722 28.5C39.3593 29.5095 38.9072 30.4568 38.182 31.182C37.3381 32.0259 36.1935 32.5 35 32.5C33.8065 32.5 32.6619 32.0259 31.818 31.182C31.0928 30.4568 30.6407 29.5095 30.5278 28.5L39.4722 28.5Z" fill="white"/>
</svg>
