<svg width="64" height="64" viewBox="0 0 64 64" fill="none" xmlns="http://www.w3.org/2000/svg">
<path fill-rule="evenodd" clip-rule="evenodd" d="M40.3352 52.8442C39.4425 52.0896 38.2281 52.1287 37.5274 52.8294C36.4191 53.9377 34.4286 53.9377 33.3203 52.8294C32.6025 52.1116 31.2452 52.1116 30.5274 52.8294C29.4191 53.9377 27.4286 53.9377 26.3203 52.8294C25.6025 52.1116 24.2452 52.1116 23.5274 52.8294C22.4191 53.9377 20.4286 53.9377 19.3203 52.8294C18.6025 52.1116 17.2452 52.1116 16.5274 52.8294C15.4191 53.9377 13.4286 53.9377 12.3203 52.8294C11.6025 52.1116 10.2452 52.1116 9.52738 52.8294C8.41908 53.9377 6.42858 53.9377 5.32027 52.8294C5.12501 52.6341 5.12501 52.3175 5.32027 52.1222C5.51554 51.927 5.83212 51.927 6.02738 52.1222C6.74516 52.84 8.10249 52.84 8.82027 52.1222C9.92858 51.0139 11.9191 51.0139 13.0274 52.1222C13.7452 52.84 15.1025 52.84 15.8203 52.1222C16.9286 51.0139 18.9191 51.0139 20.0274 52.1222C20.7452 52.84 22.1025 52.84 22.8203 52.1222C23.9286 51.0139 25.9191 51.0139 27.0274 52.1222C27.7452 52.84 29.1025 52.84 29.8203 52.1222C30.9286 51.0139 32.9191 51.0139 34.0274 52.1222C34.7452 52.84 36.1025 52.84 36.8203 52.1222C37.9422 51.0003 39.7627 51.0363 40.9992 52.0962C41.0089 52.1045 41.0183 52.1132 41.0274 52.1222C41.7281 52.8229 42.9425 52.862 43.8352 52.1075C44.9583 51.0007 46.7681 51.0409 47.9992 52.0962C48.0089 52.1045 48.0183 52.1132 48.0274 52.1222C48.7281 52.8229 49.9425 52.862 50.8352 52.1075C51.9583 51.0007 53.7681 51.0409 54.9992 52.0962C55.0089 52.1045 55.0183 52.1132 55.0274 52.1222C55.7315 52.8264 56.9546 52.8623 57.8484 52.0962C58.0581 51.9165 58.3737 51.9407 58.5535 52.1504C58.7332 52.3601 58.7089 52.6757 58.4992 52.8554C57.2681 53.9107 55.4583 53.951 54.3352 52.8441C53.4425 52.0896 52.2281 52.1287 51.5274 52.8294C51.5183 52.8384 51.5089 52.8471 51.4992 52.8554C50.2681 53.9107 48.4583 53.951 47.3352 52.8441C46.4425 52.0896 45.2281 52.1287 44.5274 52.8294C44.5183 52.8384 44.5089 52.8471 44.4992 52.8554C43.2681 53.9107 41.4583 53.951 40.3352 52.8442Z" fill="white"/>
<path fill-rule="evenodd" clip-rule="evenodd" d="M6.74815 45.5682C6.98667 45.4291 7.29283 45.5096 7.43197 45.7481L10.932 51.7481C11.0711 51.9867 10.9905 52.2928 10.752 52.432C10.5135 52.5711 10.2073 52.4905 10.0682 52.252L6.56819 46.252C6.42905 46.0135 6.50962 45.7073 6.74815 45.5682Z" fill="white"/>
<path d="M7 45.5C6.72386 45.5 6.5 45.7239 6.5 46C6.5 46.2761 6.72386 46.5 7 46.5H17.25L18.6 48.3C18.7657 48.5209 19.0791 48.5657 19.3 48.4C19.5209 48.2343 19.5657 47.9209 19.4 47.7L17.9032 45.7042C17.8973 45.6963 17.8912 45.6885 17.8849 45.6809C17.8413 45.6281 17.7887 45.5865 17.7311 45.5565C17.662 45.5204 17.5834 45.5 17.5 45.5H7Z" fill="white"/>
<path fill-rule="evenodd" clip-rule="evenodd" d="M42.5 39C42.5 38.7239 42.7239 38.5 43 38.5H52.5C52.7761 38.5 53 38.7239 53 39C53 39.2761 52.7761 39.5 52.5 39.5H43C42.7239 39.5 42.5 39.2761 42.5 39Z" fill="white"/>
<path fill-rule="evenodd" clip-rule="evenodd" d="M45.5 42C45.5 41.7239 45.7239 41.5 46 41.5H51C51.2761 41.5 51.5 41.7239 51.5 42C51.5 42.2761 51.2761 42.5 51 42.5H46C45.7239 42.5 45.5 42.2761 45.5 42Z" fill="white"/>
<path fill-rule="evenodd" clip-rule="evenodd" d="M41.3934 46.4886L40.9852 48.1214C40.9182 48.3893 40.6467 48.5522 40.3789 48.4852C40.111 48.4182 39.9481 48.1467 40.015 47.8789L40.515 45.8789C40.582 45.611 40.8535 45.4481 41.1214 45.515C41.1676 45.5266 41.2107 45.5442 41.25 45.5669C41.3235 45.5243 41.4089 45.5 41.5 45.5H56.5C56.5891 45.5 56.6729 45.5233 56.7453 45.5642C56.8077 45.5993 56.8609 45.647 56.9023 45.7031C56.932 45.7432 56.9558 45.7879 56.9724 45.8359C57.0024 45.9219 57.0093 46.0172 56.9873 46.1125L55.4873 52.6125C55.4252 52.8816 55.1568 53.0494 54.8877 52.9873C54.6186 52.9252 54.4508 52.6568 54.5129 52.3877L55.8716 46.5H41.5C41.4634 46.5 41.4277 46.4961 41.3934 46.4886Z" fill="white"/>
<path fill-rule="evenodd" clip-rule="evenodd" d="M18.5 48C18.5 47.7239 18.7239 47.5 19 47.5H40C40.2761 47.5 40.5 47.7239 40.5 48C40.5 48.2761 40.2761 48.5 40 48.5H19C18.7239 48.5 18.5 48.2761 18.5 48Z" fill="white"/>
<path fill-rule="evenodd" clip-rule="evenodd" d="M43 38.5C43.2761 38.5 43.5 38.7239 43.5 39V46C43.5 46.2761 43.2761 46.5 43 46.5C42.7239 46.5 42.5 46.2761 42.5 46V39C42.5 38.7239 42.7239 38.5 43 38.5Z" fill="white"/>
<path fill-rule="evenodd" clip-rule="evenodd" d="M52.3953 38.5112C52.6654 38.4533 52.9311 38.6253 52.989 38.8953L54.489 45.8953C54.5469 46.1654 54.3749 46.4311 54.1049 46.489C53.8349 46.5469 53.5691 46.3749 53.5112 46.1049L52.0112 39.1049C51.9533 38.8349 52.1253 38.5691 52.3953 38.5112Z" fill="white"/>
<path fill-rule="evenodd" clip-rule="evenodd" d="M16 24.5C16.2761 24.5 16.5 24.7239 16.5 25V34C16.5 34.2761 16.2761 34.5 16 34.5C15.7239 34.5 15.5 34.2761 15.5 34V25C15.5 24.7239 15.7239 24.5 16 24.5Z" fill="white"/>
<path fill-rule="evenodd" clip-rule="evenodd" d="M47 24.5C47.2761 24.5 47.5 24.7239 47.5 25V34C47.5 34.2761 47.2761 34.5 47 34.5C46.7239 34.5 46.5 34.2761 46.5 34V25C46.5 24.7239 46.7239 24.5 47 24.5Z" fill="white"/>
<path d="M24.5 25C24.5 24.7239 24.2761 24.5 24 24.5C23.7239 24.5 23.5 24.7239 23.5 25V32.0697L16.3602 24.6532C16.1687 24.4543 15.8522 24.4483 15.6532 24.6398C15.4543 24.8313 15.4483 25.1478 15.6398 25.3468L23.4878 33.4989C23.4918 33.503 23.4959 33.5071 23.5 33.5111V34C23.5 34.2761 23.7239 34.5 24 34.5C24.2761 34.5 24.5 34.2761 24.5 34V25Z" fill="white"/>
<path d="M32 24.5C32.2761 24.5 32.5 24.7239 32.5 25V32.1064L38.614 24.6822C38.7896 24.469 39.1047 24.4385 39.3179 24.614C39.531 24.7896 39.5615 25.1047 39.386 25.3179L32.5 33.6794V34C32.5 34.2761 32.2761 34.5 32 34.5C31.7239 34.5 31.5 34.2761 31.5 34V33.5111L31.4878 33.4989L23.6398 25.3468C23.4483 25.1478 23.4543 24.8313 23.6532 24.6398C23.8522 24.4483 24.1687 24.4543 24.3602 24.6532L31.5 32.0697V25C31.5 24.7239 31.7239 24.5 32 24.5Z" fill="white"/>
<path d="M40.5 25C40.5 24.7239 40.2761 24.5 40 24.5C39.7239 24.5 39.5 24.7239 39.5 25V34C39.5 34.2761 39.7239 34.5 40 34.5C40.2761 34.5 40.5 34.2761 40.5 34V33.6794L47.386 25.3179C47.5615 25.1047 47.531 24.7896 47.3179 24.614C47.1047 24.4385 46.7896 24.469 46.614 24.6822L40.5 32.1064V25Z" fill="white"/>
<path d="M47.2344 24.5581C47.2973 24.5914 47.3539 24.6386 47.3992 24.6987C47.4065 24.7083 47.4134 24.7182 47.42 24.7284L53.4162 33.7227C53.5694 33.9524 53.5073 34.2629 53.2775 34.416C53.0478 34.5692 52.7373 34.5071 52.5842 34.2774L46.7326 25.5H16.2944L11.4372 34.243C11.3031 34.4844 10.9987 34.5714 10.7573 34.4373C10.5159 34.3032 10.4289 33.9988 10.563 33.7574L15.5575 24.7674C15.5738 24.7363 15.5933 24.7072 15.6156 24.6805C15.6365 24.6552 15.6597 24.6324 15.6846 24.6122C15.7706 24.542 15.8805 24.5 16.0002 24.5H47.0002C47.0848 24.5 47.1645 24.521 47.2344 24.5581Z" fill="white"/>
<path fill-rule="evenodd" clip-rule="evenodd" d="M20 11.5C20.0566 11.5 20.1109 11.5094 20.1616 11.5267C20.2318 11.5506 20.2977 11.5905 20.3536 11.6464C20.4535 11.7463 20.5023 11.8779 20.5 12.0087V13.5H37C37.2761 13.5 37.5 13.7239 37.5 14C37.5 14.2396 37.3315 14.4398 37.1066 14.4886L20.5 18.396V23C20.5 23.2761 20.2761 23.5 20 23.5C19.7239 23.5 19.5 23.2761 19.5 23V19.2072L17.5 21.2072V23C17.5 23.2761 17.2761 23.5 17 23.5C16.7239 23.5 16.5 23.2761 16.5 23V15.0001C16.5 14.913 16.5222 14.8311 16.5613 14.7599C16.5689 14.746 16.5772 14.7325 16.5862 14.7192C16.6054 14.6911 16.6273 14.665 16.6517 14.6413L19.6413 11.6517C19.664 11.6283 19.6889 11.6072 19.7157 11.5887C19.7304 11.5784 19.7458 11.569 19.7617 11.5603C19.8325 11.5219 19.9137 11.5 20 11.5ZM20.5 17.3687L32.6921 14.5H20.5V17.3687ZM19.2929 18.0001L17.5 19.793V16.2072L19.2929 18.0001ZM19.5 16.793L17.7071 15.0001L19.5 13.2072V16.793Z" fill="white"/>
<path d="M10.5 34C10.5 33.7239 10.7239 33.5 11 33.5H53C53.2761 33.5 53.5 33.7239 53.5 34C53.5 34.2761 53.2761 34.5 53 34.5H52.5V36C52.5 36.2761 52.2761 36.5 52 36.5C51.7239 36.5 51.5 36.2761 51.5 36V34.5H50.5V36C50.5 36.2761 50.2761 36.5 50 36.5C49.7239 36.5 49.5 36.2761 49.5 36V34.5H33.5V43C33.5 43.2761 33.2761 43.5 33 43.5C32.7239 43.5 32.5 43.2761 32.5 43V34.5H31.5V43C31.5 43.2761 31.2761 43.5 31 43.5C30.7239 43.5 30.5 43.2761 30.5 43V34.5H14.5V43C14.5 43.2761 14.2761 43.5 14 43.5C13.7239 43.5 13.5 43.2761 13.5 43V34.5H12.5V43C12.5 43.2761 12.2761 43.5 12 43.5C11.7239 43.5 11.5 43.2761 11.5 43V34.5H11C10.7239 34.5 10.5 34.2761 10.5 34Z" fill="white"/>
</svg>
